%TF.GenerationSoftware,KiCad,Pcbnew,8.0.9-8.0.9-0~ubuntu22.04.1*%
%TF.CreationDate,2025-07-08T15:19:42+09:00*%
%TF.ProjectId,USB2DXL,55534232-4458-44c2-9e6b-696361645f70,rev?*%
%TF.SameCoordinates,Original*%
%TF.FileFunction,Copper,L4,Bot*%
%TF.FilePolarity,Positive*%
%FSLAX46Y46*%
G04 Gerber Fmt 4.6, Leading zero omitted, Abs format (unit mm)*
G04 Created by KiCad (PCBNEW 8.0.9-8.0.9-0~ubuntu22.04.1) date 2025-07-08 15:19:42*
%MOMM*%
%LPD*%
G01*
G04 APERTURE LIST*
G04 Aperture macros list*
%AMRoundRect*
0 Rectangle with rounded corners*
0 $1 Rounding radius*
0 $2 $3 $4 $5 $6 $7 $8 $9 X,Y pos of 4 corners*
0 Add a 4 corners polygon primitive as box body*
4,1,4,$2,$3,$4,$5,$6,$7,$8,$9,$2,$3,0*
0 Add four circle primitives for the rounded corners*
1,1,$1+$1,$2,$3*
1,1,$1+$1,$4,$5*
1,1,$1+$1,$6,$7*
1,1,$1+$1,$8,$9*
0 Add four rect primitives between the rounded corners*
20,1,$1+$1,$2,$3,$4,$5,0*
20,1,$1+$1,$4,$5,$6,$7,0*
20,1,$1+$1,$6,$7,$8,$9,0*
20,1,$1+$1,$8,$9,$2,$3,0*%
G04 Aperture macros list end*
%TA.AperFunction,ComponentPad*%
%ADD10RoundRect,0.250000X-0.725000X0.600000X-0.725000X-0.600000X0.725000X-0.600000X0.725000X0.600000X0*%
%TD*%
%TA.AperFunction,ComponentPad*%
%ADD11O,1.950000X1.700000*%
%TD*%
%TA.AperFunction,ComponentPad*%
%ADD12RoundRect,0.250000X-0.675000X0.600000X-0.675000X-0.600000X0.675000X-0.600000X0.675000X0.600000X0*%
%TD*%
%TA.AperFunction,ComponentPad*%
%ADD13O,1.850000X1.700000*%
%TD*%
%TA.AperFunction,HeatsinkPad*%
%ADD14O,1.000000X2.100000*%
%TD*%
%TA.AperFunction,HeatsinkPad*%
%ADD15O,1.000000X1.600000*%
%TD*%
%TA.AperFunction,ComponentPad*%
%ADD16RoundRect,1.500000X-1.500000X-1.500000X1.500000X-1.500000X1.500000X1.500000X-1.500000X1.500000X0*%
%TD*%
%TA.AperFunction,ComponentPad*%
%ADD17C,6.000000*%
%TD*%
%TA.AperFunction,ComponentPad*%
%ADD18R,1.600000X1.600000*%
%TD*%
%TA.AperFunction,ComponentPad*%
%ADD19C,1.600000*%
%TD*%
%TA.AperFunction,ViaPad*%
%ADD20C,0.600000*%
%TD*%
%TA.AperFunction,ViaPad*%
%ADD21C,0.500000*%
%TD*%
%TA.AperFunction,ViaPad*%
%ADD22C,0.700000*%
%TD*%
%TA.AperFunction,ViaPad*%
%ADD23C,0.400000*%
%TD*%
%TA.AperFunction,Conductor*%
%ADD24C,0.500000*%
%TD*%
%TA.AperFunction,Conductor*%
%ADD25C,0.200000*%
%TD*%
%TA.AperFunction,Conductor*%
%ADD26C,0.300000*%
%TD*%
G04 APERTURE END LIST*
D10*
%TO.P,J3,1,Pin_1*%
%TO.N,GNDPWR*%
X67818000Y-86186000D03*
D11*
%TO.P,J3,2,Pin_2*%
%TO.N,+12V*%
X67818000Y-88686000D03*
%TO.P,J3,3,Pin_3*%
%TO.N,/DATA*%
X67818000Y-91186000D03*
%TD*%
D10*
%TO.P,J5,1,Pin_1*%
%TO.N,GNDPWR*%
X61298000Y-86186000D03*
D11*
%TO.P,J5,2,Pin_2*%
%TO.N,+12V*%
X61298000Y-88686000D03*
%TO.P,J5,3,Pin_3*%
%TO.N,/DATA*%
X61298000Y-91186000D03*
%TD*%
D12*
%TO.P,J6,1,Pin_1*%
%TO.N,GNDPWR*%
X53375000Y-71748000D03*
D13*
%TO.P,J6,2,Pin_2*%
%TO.N,+12V*%
X53375000Y-74248000D03*
%TO.P,J6,3,Pin_3*%
%TO.N,/A*%
X53375000Y-76748000D03*
%TO.P,J6,4,Pin_4*%
%TO.N,/B*%
X53375000Y-79248000D03*
%TD*%
D12*
%TO.P,J4,1,Pin_1*%
%TO.N,GNDPWR*%
X59690000Y-71748000D03*
D13*
%TO.P,J4,2,Pin_2*%
%TO.N,+12V*%
X59690000Y-74248000D03*
%TO.P,J4,3,Pin_3*%
%TO.N,/A*%
X59690000Y-76748000D03*
%TO.P,J4,4,Pin_4*%
%TO.N,/B*%
X59690000Y-79248000D03*
%TD*%
D14*
%TO.P,J2,S1,SHIELD*%
%TO.N,GND*%
X78484000Y-86786000D03*
D15*
X78484000Y-90966000D03*
D14*
X87124000Y-86786000D03*
D15*
X87124000Y-90966000D03*
%TD*%
D16*
%TO.P,J1,1,Pin_1*%
%TO.N,GNDPWR*%
X55792000Y-58166000D03*
D17*
%TO.P,J1,2,Pin_2*%
%TO.N,+12V*%
X62992000Y-58166000D03*
%TD*%
D12*
%TO.P,J7,1,Pin_1*%
%TO.N,GNDPWR*%
X66294000Y-71748000D03*
D13*
%TO.P,J7,2,Pin_2*%
%TO.N,+12V*%
X66294000Y-74248000D03*
%TO.P,J7,3,Pin_3*%
%TO.N,/A*%
X66294000Y-76748000D03*
%TO.P,J7,4,Pin_4*%
%TO.N,/B*%
X66294000Y-79248000D03*
%TD*%
D18*
%TO.P,C10,1*%
%TO.N,+12V*%
X55086000Y-65786000D03*
D19*
%TO.P,C10,2*%
%TO.N,GNDPWR*%
X53086000Y-65786000D03*
%TD*%
D20*
%TO.N,GND*%
X81635600Y-82245200D03*
X78435200Y-93522800D03*
X87071200Y-73964800D03*
X87122000Y-93421200D03*
X86054000Y-85871000D03*
X80924400Y-78536800D03*
X84328000Y-79756000D03*
X78028800Y-83616800D03*
X79349600Y-74879200D03*
X78611000Y-76758800D03*
X87020400Y-81991200D03*
X79554000Y-85871000D03*
%TO.N,+5V*%
X84836000Y-78232000D03*
X78387000Y-74932600D03*
D21*
X78357000Y-81697000D03*
D20*
X80008000Y-81686000D03*
D22*
%TO.N,+5VP*%
X69240400Y-64465200D03*
D20*
X75793600Y-77114400D03*
X74625200Y-92557600D03*
X72237600Y-86156800D03*
X76809600Y-62438200D03*
%TO.N,GNDPWR*%
X87731600Y-67106800D03*
X72644000Y-65176400D03*
X79171800Y-64389000D03*
X73202800Y-80467200D03*
X51663600Y-53543200D03*
X75793600Y-78028800D03*
X74218800Y-58115200D03*
X64262000Y-83210400D03*
X65176400Y-64329900D03*
X64312800Y-93116400D03*
X67259200Y-53187600D03*
X74269600Y-71729600D03*
X87122000Y-61010800D03*
X51460400Y-68224400D03*
X70256400Y-75336400D03*
X87122000Y-53238400D03*
X69748400Y-65938400D03*
X69291200Y-80467200D03*
X64516000Y-89966800D03*
X53136800Y-93065600D03*
X53086000Y-83566000D03*
X75742800Y-83616800D03*
X75488800Y-89052400D03*
X65176400Y-68580000D03*
X59537600Y-68275200D03*
D22*
%TO.N,+12V*%
X62636400Y-64242400D03*
D20*
%TO.N,Net-(F1-Pad1)*%
X85254000Y-85871000D03*
X80354000Y-85871000D03*
D21*
%TO.N,/TXNOW*%
X86055200Y-76869000D03*
D20*
X82042000Y-72136000D03*
%TO.N,Net-(U4-RO)*%
X74218800Y-63601600D03*
X74262065Y-68928065D03*
%TO.N,Net-(U5-Y1)*%
X71170800Y-80467200D03*
X71272400Y-65938400D03*
%TO.N,/TXD*%
X80772000Y-72136000D03*
D23*
X84310000Y-75742800D03*
D20*
%TO.N,/TX*%
X74168000Y-74025100D03*
X74168000Y-80467200D03*
%TO.N,/TXEN*%
X72263000Y-82931000D03*
X72263000Y-71069200D03*
%TO.N,/RX*%
X84076899Y-61282446D03*
X76708000Y-64262000D03*
%TD*%
D24*
%TO.N,Net-(F1-Pad1)*%
X85235000Y-85852000D02*
X85254000Y-85871000D01*
X80373000Y-85852000D02*
X85235000Y-85852000D01*
X80354000Y-85871000D02*
X80373000Y-85852000D01*
D25*
%TO.N,/TXNOW*%
X86055200Y-76149200D02*
X82042000Y-72136000D01*
X86055200Y-76869000D02*
X86055200Y-76149200D01*
D26*
%TO.N,Net-(U4-RO)*%
X74218800Y-63601600D02*
X74218800Y-68884800D01*
X74218800Y-68884800D02*
X74262065Y-68928065D01*
D25*
%TO.N,Net-(U5-Y1)*%
X71272400Y-65938400D02*
X71170800Y-66040000D01*
X71170800Y-66040000D02*
X71170800Y-80467200D01*
%TO.N,/TXD*%
X84310000Y-75742800D02*
X84310000Y-75674000D01*
X84310000Y-75674000D02*
X80772000Y-72136000D01*
%TO.N,/TX*%
X74168000Y-74025100D02*
X74168000Y-80467200D01*
%TO.N,/TXEN*%
X72263000Y-82931000D02*
X72263000Y-71069200D01*
%TO.N,/RX*%
X84059253Y-61264800D02*
X79705200Y-61264800D01*
X79705200Y-61264800D02*
X76708000Y-64262000D01*
X84076899Y-61282446D02*
X84059253Y-61264800D01*
%TD*%
%TA.AperFunction,Conductor*%
%TO.N,GND*%
G36*
X88186139Y-70733285D02*
G01*
X88231894Y-70786089D01*
X88243100Y-70837600D01*
X88243100Y-92382333D01*
X88242835Y-92390443D01*
X88228236Y-92613178D01*
X88226118Y-92629259D01*
X88183369Y-92844171D01*
X88179171Y-92859838D01*
X88108733Y-93067342D01*
X88102526Y-93082328D01*
X88005607Y-93278860D01*
X87997497Y-93292907D01*
X87875754Y-93475108D01*
X87865880Y-93487976D01*
X87721397Y-93652728D01*
X87709928Y-93664197D01*
X87545176Y-93808680D01*
X87532308Y-93818554D01*
X87350107Y-93940297D01*
X87336060Y-93948407D01*
X87139528Y-94045326D01*
X87124542Y-94051533D01*
X86917038Y-94121971D01*
X86901371Y-94126169D01*
X86686459Y-94168918D01*
X86670378Y-94171036D01*
X86447643Y-94185635D01*
X86439533Y-94185900D01*
X77390800Y-94185900D01*
X77323761Y-94166215D01*
X77278006Y-94113411D01*
X77266800Y-94061900D01*
X77266800Y-87259982D01*
X79488500Y-87259982D01*
X79488500Y-87372018D01*
X79517497Y-87480237D01*
X79573515Y-87577263D01*
X79652737Y-87656485D01*
X79749763Y-87712503D01*
X79857982Y-87741500D01*
X79857984Y-87741500D01*
X79970016Y-87741500D01*
X79970018Y-87741500D01*
X80078237Y-87712503D01*
X80175263Y-87656485D01*
X80254485Y-87577263D01*
X80310503Y-87480237D01*
X80339500Y-87372018D01*
X80339500Y-87259982D01*
X85268500Y-87259982D01*
X85268500Y-87372018D01*
X85297497Y-87480237D01*
X85353515Y-87577263D01*
X85432737Y-87656485D01*
X85529763Y-87712503D01*
X85637982Y-87741500D01*
X85637984Y-87741500D01*
X85750016Y-87741500D01*
X85750018Y-87741500D01*
X85858237Y-87712503D01*
X85955263Y-87656485D01*
X86034485Y-87577263D01*
X86090503Y-87480237D01*
X86119500Y-87372018D01*
X86119500Y-87259982D01*
X86090503Y-87151763D01*
X86034485Y-87054737D01*
X85955263Y-86975515D01*
X85858237Y-86919497D01*
X85750018Y-86890500D01*
X85637982Y-86890500D01*
X85529763Y-86919497D01*
X85529760Y-86919498D01*
X85432740Y-86975513D01*
X85432734Y-86975517D01*
X85353517Y-87054734D01*
X85353513Y-87054740D01*
X85297498Y-87151760D01*
X85297497Y-87151763D01*
X85268500Y-87259982D01*
X80339500Y-87259982D01*
X80310503Y-87151763D01*
X80254485Y-87054737D01*
X80175263Y-86975515D01*
X80078237Y-86919497D01*
X79970018Y-86890500D01*
X79857982Y-86890500D01*
X79749763Y-86919497D01*
X79749760Y-86919498D01*
X79652740Y-86975513D01*
X79652734Y-86975517D01*
X79573517Y-87054734D01*
X79573513Y-87054740D01*
X79517498Y-87151760D01*
X79517497Y-87151763D01*
X79488500Y-87259982D01*
X77266800Y-87259982D01*
X77266800Y-85870996D01*
X79548435Y-85870996D01*
X79548435Y-85871003D01*
X79568630Y-86050249D01*
X79568631Y-86050254D01*
X79628211Y-86220523D01*
X79724184Y-86373262D01*
X79851738Y-86500816D01*
X80004478Y-86596789D01*
X80174745Y-86656368D01*
X80174750Y-86656369D01*
X80353996Y-86676565D01*
X80354000Y-86676565D01*
X80354004Y-86676565D01*
X80533249Y-86656369D01*
X80533252Y-86656368D01*
X80533255Y-86656368D01*
X80667316Y-86609457D01*
X80708271Y-86602500D01*
X84899729Y-86602500D01*
X84940684Y-86609458D01*
X85074745Y-86656368D01*
X85074750Y-86656369D01*
X85253996Y-86676565D01*
X85254000Y-86676565D01*
X85254004Y-86676565D01*
X85433249Y-86656369D01*
X85433252Y-86656368D01*
X85433255Y-86656368D01*
X85603522Y-86596789D01*
X85756262Y-86500816D01*
X85883816Y-86373262D01*
X85979789Y-86220522D01*
X86039368Y-86050255D01*
X86059565Y-85871000D01*
X86039368Y-85691745D01*
X85979789Y-85521478D01*
X85883816Y-85368738D01*
X85756262Y-85241184D01*
X85603523Y-85145211D01*
X85433254Y-85085631D01*
X85433249Y-85085630D01*
X85254004Y-85065435D01*
X85253996Y-85065435D01*
X85074753Y-85085630D01*
X85074743Y-85085632D01*
X85049285Y-85094541D01*
X85008330Y-85101500D01*
X80599670Y-85101500D01*
X80558715Y-85094541D01*
X80533256Y-85085632D01*
X80533246Y-85085630D01*
X80354004Y-85065435D01*
X80353996Y-85065435D01*
X80174750Y-85085630D01*
X80174745Y-85085631D01*
X80004476Y-85145211D01*
X79851737Y-85241184D01*
X79724184Y-85368737D01*
X79628211Y-85521476D01*
X79568631Y-85691745D01*
X79568630Y-85691750D01*
X79548435Y-85870996D01*
X77266800Y-85870996D01*
X77266800Y-81696997D01*
X77601751Y-81696997D01*
X77601751Y-81697002D01*
X77620685Y-81865056D01*
X77676545Y-82024694D01*
X77676547Y-82024697D01*
X77766518Y-82167884D01*
X77766523Y-82167890D01*
X77886109Y-82287476D01*
X77886115Y-82287481D01*
X78029302Y-82377452D01*
X78029305Y-82377454D01*
X78029309Y-82377455D01*
X78029310Y-82377456D01*
X78101913Y-82402860D01*
X78188943Y-82433314D01*
X78356997Y-82452249D01*
X78357000Y-82452249D01*
X78357003Y-82452249D01*
X78525056Y-82433314D01*
X78586574Y-82411788D01*
X78684690Y-82377456D01*
X78684692Y-82377454D01*
X78684694Y-82377454D01*
X78684697Y-82377452D01*
X78827884Y-82287481D01*
X78827885Y-82287480D01*
X78827890Y-82287477D01*
X78947477Y-82167890D01*
X78947481Y-82167884D01*
X79037452Y-82024697D01*
X79037457Y-82024687D01*
X79040896Y-82014860D01*
X79081616Y-81958083D01*
X79146568Y-81932334D01*
X79215130Y-81945789D01*
X79265534Y-81994175D01*
X79274980Y-82014857D01*
X79282211Y-82035522D01*
X79378184Y-82188262D01*
X79505738Y-82315816D01*
X79658478Y-82411789D01*
X79719993Y-82433314D01*
X79828745Y-82471368D01*
X79828750Y-82471369D01*
X80007996Y-82491565D01*
X80008000Y-82491565D01*
X80008004Y-82491565D01*
X80187249Y-82471369D01*
X80187252Y-82471368D01*
X80187255Y-82471368D01*
X80357522Y-82411789D01*
X80510262Y-82315816D01*
X80637816Y-82188262D01*
X80733789Y-82035522D01*
X80793368Y-81865255D01*
X80793390Y-81865059D01*
X80813565Y-81686003D01*
X80813565Y-81685996D01*
X80793369Y-81506750D01*
X80793368Y-81506745D01*
X80764735Y-81424918D01*
X80733789Y-81336478D01*
X80637816Y-81183738D01*
X80510262Y-81056184D01*
X80357523Y-80960211D01*
X80187254Y-80900631D01*
X80187249Y-80900630D01*
X80008004Y-80880435D01*
X80007996Y-80880435D01*
X79828750Y-80900630D01*
X79828745Y-80900631D01*
X79658476Y-80960211D01*
X79505737Y-81056184D01*
X79378184Y-81183737D01*
X79282208Y-81336480D01*
X79271130Y-81368142D01*
X79230408Y-81424918D01*
X79165455Y-81450665D01*
X79096894Y-81437208D01*
X79046491Y-81388821D01*
X79039869Y-81374321D01*
X79037452Y-81369302D01*
X78947481Y-81226115D01*
X78947476Y-81226109D01*
X78827890Y-81106523D01*
X78827884Y-81106518D01*
X78684697Y-81016547D01*
X78684694Y-81016545D01*
X78525056Y-80960685D01*
X78357003Y-80941751D01*
X78356997Y-80941751D01*
X78188943Y-80960685D01*
X78029305Y-81016545D01*
X78029302Y-81016547D01*
X77886115Y-81106518D01*
X77886109Y-81106523D01*
X77766523Y-81226109D01*
X77766518Y-81226115D01*
X77676547Y-81369302D01*
X77676545Y-81369305D01*
X77620685Y-81528943D01*
X77601751Y-81696997D01*
X77266800Y-81696997D01*
X77266800Y-78231996D01*
X84030435Y-78231996D01*
X84030435Y-78232003D01*
X84050630Y-78411249D01*
X84050631Y-78411254D01*
X84110211Y-78581523D01*
X84206184Y-78734262D01*
X84333738Y-78861816D01*
X84486478Y-78957789D01*
X84656745Y-79017368D01*
X84656750Y-79017369D01*
X84835996Y-79037565D01*
X84836000Y-79037565D01*
X84836004Y-79037565D01*
X85015249Y-79017369D01*
X85015252Y-79017368D01*
X85015255Y-79017368D01*
X85185522Y-78957789D01*
X85338262Y-78861816D01*
X85465816Y-78734262D01*
X85561789Y-78581522D01*
X85621368Y-78411255D01*
X85641565Y-78232000D01*
X85621368Y-78052745D01*
X85561789Y-77882478D01*
X85465816Y-77729738D01*
X85338262Y-77602184D01*
X85185523Y-77506211D01*
X85015254Y-77446631D01*
X85015249Y-77446630D01*
X84836004Y-77426435D01*
X84835996Y-77426435D01*
X84656750Y-77446630D01*
X84656745Y-77446631D01*
X84486476Y-77506211D01*
X84333737Y-77602184D01*
X84206184Y-77729737D01*
X84110211Y-77882476D01*
X84050631Y-78052745D01*
X84050630Y-78052750D01*
X84030435Y-78231996D01*
X77266800Y-78231996D01*
X77266800Y-74932596D01*
X77581435Y-74932596D01*
X77581435Y-74932603D01*
X77601630Y-75111849D01*
X77601631Y-75111854D01*
X77661211Y-75282123D01*
X77757184Y-75434862D01*
X77884738Y-75562416D01*
X78037478Y-75658389D01*
X78207745Y-75717968D01*
X78207750Y-75717969D01*
X78386996Y-75738165D01*
X78387000Y-75738165D01*
X78387004Y-75738165D01*
X78566249Y-75717969D01*
X78566252Y-75717968D01*
X78566255Y-75717968D01*
X78736522Y-75658389D01*
X78889262Y-75562416D01*
X79016816Y-75434862D01*
X79112789Y-75282122D01*
X79172368Y-75111855D01*
X79192565Y-74932600D01*
X79172368Y-74753345D01*
X79112789Y-74583078D01*
X79016816Y-74430338D01*
X78889262Y-74302784D01*
X78736523Y-74206811D01*
X78566254Y-74147231D01*
X78566249Y-74147230D01*
X78387004Y-74127035D01*
X78386996Y-74127035D01*
X78207750Y-74147230D01*
X78207745Y-74147231D01*
X78037476Y-74206811D01*
X77884737Y-74302784D01*
X77757184Y-74430337D01*
X77661211Y-74583076D01*
X77601631Y-74753345D01*
X77601630Y-74753350D01*
X77581435Y-74932596D01*
X77266800Y-74932596D01*
X77266800Y-72135996D01*
X79966435Y-72135996D01*
X79966435Y-72136003D01*
X79986630Y-72315249D01*
X79986631Y-72315254D01*
X80046211Y-72485523D01*
X80142184Y-72638262D01*
X80269738Y-72765816D01*
X80422478Y-72861789D01*
X80592745Y-72921368D01*
X80679669Y-72931161D01*
X80744080Y-72958226D01*
X80753465Y-72966700D01*
X83584433Y-75797669D01*
X83617918Y-75858992D01*
X83619848Y-75870401D01*
X83624859Y-75911670D01*
X83624860Y-75911675D01*
X83685182Y-76070730D01*
X83685182Y-76070731D01*
X83691019Y-76079187D01*
X83781817Y-76210729D01*
X83887505Y-76304360D01*
X83909150Y-76323536D01*
X84013563Y-76378336D01*
X84059775Y-76402590D01*
X84224944Y-76443300D01*
X84395056Y-76443300D01*
X84560225Y-76402590D01*
X84639692Y-76360881D01*
X84710849Y-76323536D01*
X84710850Y-76323534D01*
X84710852Y-76323534D01*
X84838183Y-76210729D01*
X84928981Y-76079186D01*
X84983263Y-76035197D01*
X85052712Y-76027537D01*
X85115276Y-76058640D01*
X85118711Y-76061946D01*
X85390998Y-76334233D01*
X85424483Y-76395556D01*
X85419499Y-76465248D01*
X85408312Y-76487884D01*
X85374745Y-76541306D01*
X85318885Y-76700943D01*
X85299951Y-76868997D01*
X85299951Y-76869002D01*
X85318885Y-77037056D01*
X85374745Y-77196694D01*
X85374747Y-77196697D01*
X85464718Y-77339884D01*
X85464723Y-77339890D01*
X85584309Y-77459476D01*
X85584315Y-77459481D01*
X85727502Y-77549452D01*
X85727505Y-77549454D01*
X85727509Y-77549455D01*
X85727510Y-77549456D01*
X85800113Y-77574860D01*
X85887143Y-77605314D01*
X86055197Y-77624249D01*
X86055200Y-77624249D01*
X86055203Y-77624249D01*
X86223256Y-77605314D01*
X86232201Y-77602184D01*
X86382890Y-77549456D01*
X86382892Y-77549454D01*
X86382894Y-77549454D01*
X86382897Y-77549452D01*
X86526084Y-77459481D01*
X86526085Y-77459480D01*
X86526090Y-77459477D01*
X86645677Y-77339890D01*
X86735652Y-77196697D01*
X86735654Y-77196694D01*
X86735654Y-77196692D01*
X86735656Y-77196690D01*
X86791513Y-77037059D01*
X86791513Y-77037058D01*
X86791514Y-77037056D01*
X86810449Y-76869002D01*
X86810449Y-76868997D01*
X86791514Y-76700943D01*
X86778104Y-76662621D01*
X86735656Y-76541310D01*
X86687863Y-76465248D01*
X86674706Y-76444308D01*
X86655700Y-76378336D01*
X86655700Y-76238259D01*
X86655701Y-76238246D01*
X86655701Y-76070145D01*
X86655701Y-76070143D01*
X86614777Y-75917415D01*
X86559606Y-75821857D01*
X86559605Y-75821855D01*
X86535722Y-75780487D01*
X86535721Y-75780486D01*
X86535720Y-75780484D01*
X86423916Y-75668680D01*
X86423915Y-75668679D01*
X86419585Y-75664349D01*
X86419574Y-75664339D01*
X82872700Y-72117465D01*
X82839215Y-72056142D01*
X82837163Y-72043686D01*
X82827368Y-71956745D01*
X82767789Y-71786478D01*
X82671816Y-71633738D01*
X82544262Y-71506184D01*
X82391523Y-71410211D01*
X82221254Y-71350631D01*
X82221249Y-71350630D01*
X82042004Y-71330435D01*
X82041996Y-71330435D01*
X81862750Y-71350630D01*
X81862745Y-71350631D01*
X81692476Y-71410211D01*
X81539737Y-71506184D01*
X81494680Y-71551241D01*
X81433357Y-71584725D01*
X81363665Y-71579740D01*
X81319320Y-71551241D01*
X81274263Y-71506185D01*
X81274262Y-71506184D01*
X81121523Y-71410211D01*
X80951254Y-71350631D01*
X80951249Y-71350630D01*
X80772004Y-71330435D01*
X80771996Y-71330435D01*
X80592750Y-71350630D01*
X80592745Y-71350631D01*
X80422476Y-71410211D01*
X80269737Y-71506184D01*
X80142184Y-71633737D01*
X80046211Y-71786476D01*
X79986631Y-71956745D01*
X79986630Y-71956750D01*
X79966435Y-72135996D01*
X77266800Y-72135996D01*
X77266800Y-70837600D01*
X77286485Y-70770561D01*
X77339289Y-70724806D01*
X77390800Y-70713600D01*
X88119100Y-70713600D01*
X88186139Y-70733285D01*
G37*
%TD.AperFunction*%
%TD*%
%TA.AperFunction,Conductor*%
%TO.N,GNDPWR*%
G36*
X86447643Y-52587165D02*
G01*
X86670390Y-52601764D01*
X86686448Y-52603879D01*
X86872475Y-52640882D01*
X86901371Y-52646630D01*
X86917038Y-52650828D01*
X87070169Y-52702809D01*
X87124544Y-52721267D01*
X87139521Y-52727470D01*
X87330391Y-52821596D01*
X87336060Y-52824392D01*
X87350108Y-52832502D01*
X87532312Y-52954248D01*
X87545173Y-52964116D01*
X87650095Y-53056130D01*
X87709928Y-53108602D01*
X87721397Y-53120071D01*
X87831760Y-53245917D01*
X87865880Y-53284823D01*
X87875754Y-53297691D01*
X87997497Y-53479892D01*
X88005607Y-53493939D01*
X88102526Y-53690471D01*
X88108733Y-53705457D01*
X88179171Y-53912961D01*
X88183369Y-53928628D01*
X88226118Y-54143540D01*
X88228236Y-54159621D01*
X88242835Y-54382356D01*
X88243100Y-54390466D01*
X88243100Y-67440000D01*
X88223415Y-67507039D01*
X88170611Y-67552794D01*
X88119100Y-67564000D01*
X78232000Y-67564000D01*
X76200000Y-69646799D01*
X76200000Y-76233751D01*
X76180315Y-76300790D01*
X76127511Y-76346545D01*
X76058353Y-76356489D01*
X76035046Y-76350793D01*
X75972857Y-76329032D01*
X75972849Y-76329030D01*
X75793604Y-76308835D01*
X75793596Y-76308835D01*
X75614350Y-76329030D01*
X75614345Y-76329031D01*
X75444076Y-76388611D01*
X75291337Y-76484584D01*
X75163784Y-76612137D01*
X75067811Y-76764877D01*
X75009542Y-76931401D01*
X74968820Y-76988177D01*
X74903867Y-77013924D01*
X74835305Y-77000468D01*
X74784903Y-76952080D01*
X74768500Y-76890446D01*
X74768500Y-74607512D01*
X74788185Y-74540473D01*
X74795555Y-74530197D01*
X74797810Y-74527367D01*
X74797816Y-74527362D01*
X74893789Y-74374622D01*
X74953368Y-74204355D01*
X74965821Y-74093832D01*
X74973565Y-74025103D01*
X74973565Y-74025096D01*
X74953369Y-73845850D01*
X74953368Y-73845845D01*
X74893788Y-73675576D01*
X74797815Y-73522837D01*
X74670262Y-73395284D01*
X74517523Y-73299311D01*
X74347254Y-73239731D01*
X74347249Y-73239730D01*
X74168004Y-73219535D01*
X74167996Y-73219535D01*
X73988750Y-73239730D01*
X73988745Y-73239731D01*
X73818476Y-73299311D01*
X73665737Y-73395284D01*
X73538184Y-73522837D01*
X73442211Y-73675576D01*
X73382631Y-73845845D01*
X73382630Y-73845850D01*
X73362435Y-74025096D01*
X73362435Y-74025103D01*
X73382630Y-74204349D01*
X73382631Y-74204354D01*
X73442211Y-74374623D01*
X73538185Y-74527363D01*
X73540445Y-74530197D01*
X73541334Y-74532375D01*
X73541889Y-74533258D01*
X73541734Y-74533355D01*
X73566855Y-74594883D01*
X73567500Y-74607512D01*
X73567500Y-79884787D01*
X73547815Y-79951826D01*
X73540450Y-79962096D01*
X73538186Y-79964934D01*
X73442211Y-80117676D01*
X73382631Y-80287945D01*
X73382630Y-80287950D01*
X73362435Y-80467196D01*
X73362435Y-80467203D01*
X73382630Y-80646449D01*
X73382631Y-80646454D01*
X73442211Y-80816723D01*
X73494935Y-80900632D01*
X73538184Y-80969462D01*
X73665738Y-81097016D01*
X73818478Y-81192989D01*
X73930328Y-81232127D01*
X73988745Y-81252568D01*
X73988750Y-81252569D01*
X74167996Y-81272765D01*
X74168000Y-81272765D01*
X74168004Y-81272765D01*
X74347249Y-81252569D01*
X74347252Y-81252568D01*
X74347255Y-81252568D01*
X74517522Y-81192989D01*
X74670262Y-81097016D01*
X74797816Y-80969462D01*
X74893789Y-80816722D01*
X74953368Y-80646455D01*
X74953369Y-80646449D01*
X74973565Y-80467203D01*
X74973565Y-80467196D01*
X74953369Y-80287950D01*
X74953368Y-80287945D01*
X74893788Y-80117676D01*
X74797813Y-79964934D01*
X74795550Y-79962096D01*
X74794659Y-79959915D01*
X74794111Y-79959042D01*
X74794264Y-79958945D01*
X74769144Y-79897409D01*
X74768500Y-79884787D01*
X74768500Y-77338353D01*
X74788185Y-77271314D01*
X74840989Y-77225559D01*
X74910147Y-77215615D01*
X74973703Y-77244640D01*
X75009542Y-77297399D01*
X75067810Y-77463921D01*
X75154687Y-77602184D01*
X75163784Y-77616662D01*
X75291338Y-77744216D01*
X75381680Y-77800982D01*
X75397641Y-77811011D01*
X75444078Y-77840189D01*
X75552156Y-77878007D01*
X75614345Y-77899768D01*
X75614350Y-77899769D01*
X75793596Y-77919965D01*
X75793600Y-77919965D01*
X75793604Y-77919965D01*
X75972849Y-77899769D01*
X75972852Y-77899768D01*
X75972855Y-77899768D01*
X75972856Y-77899767D01*
X75972859Y-77899767D01*
X76035044Y-77878007D01*
X76104823Y-77874444D01*
X76165451Y-77909173D01*
X76197678Y-77971166D01*
X76200000Y-77995048D01*
X76200000Y-94061900D01*
X76180315Y-94128939D01*
X76127511Y-94174694D01*
X76076000Y-94185900D01*
X52447667Y-94185900D01*
X52439557Y-94185635D01*
X52216821Y-94171036D01*
X52200740Y-94168918D01*
X51985828Y-94126169D01*
X51970161Y-94121971D01*
X51762657Y-94051533D01*
X51747671Y-94045326D01*
X51551139Y-93948407D01*
X51537092Y-93940297D01*
X51354891Y-93818554D01*
X51342023Y-93808680D01*
X51177271Y-93664197D01*
X51165802Y-93652728D01*
X51113330Y-93592895D01*
X51021316Y-93487973D01*
X51011445Y-93475108D01*
X50889702Y-93292907D01*
X50881592Y-93278860D01*
X50829525Y-93173278D01*
X50784670Y-93082321D01*
X50778466Y-93067342D01*
X50708028Y-92859838D01*
X50703830Y-92844171D01*
X50682598Y-92737432D01*
X50661079Y-92629248D01*
X50658964Y-92613190D01*
X50655320Y-92557596D01*
X73819635Y-92557596D01*
X73819635Y-92557603D01*
X73839830Y-92736849D01*
X73839831Y-92736854D01*
X73899411Y-92907123D01*
X73906835Y-92918938D01*
X73995384Y-93059862D01*
X74122938Y-93187416D01*
X74275678Y-93283389D01*
X74445945Y-93342968D01*
X74445950Y-93342969D01*
X74625196Y-93363165D01*
X74625200Y-93363165D01*
X74625204Y-93363165D01*
X74804449Y-93342969D01*
X74804452Y-93342968D01*
X74804455Y-93342968D01*
X74974722Y-93283389D01*
X75127462Y-93187416D01*
X75255016Y-93059862D01*
X75350989Y-92907122D01*
X75410568Y-92736855D01*
X75415238Y-92695411D01*
X75430765Y-92557603D01*
X75430765Y-92557596D01*
X75410569Y-92378350D01*
X75410568Y-92378345D01*
X75350988Y-92208076D01*
X75311782Y-92145680D01*
X75255016Y-92055338D01*
X75127462Y-91927784D01*
X75073409Y-91893820D01*
X74974723Y-91831811D01*
X74804454Y-91772231D01*
X74804449Y-91772230D01*
X74625204Y-91752035D01*
X74625196Y-91752035D01*
X74445950Y-91772230D01*
X74445945Y-91772231D01*
X74275676Y-91831811D01*
X74122937Y-91927784D01*
X73995384Y-92055337D01*
X73899411Y-92208076D01*
X73839831Y-92378345D01*
X73839830Y-92378350D01*
X73819635Y-92557596D01*
X50655320Y-92557596D01*
X50644365Y-92390443D01*
X50644100Y-92382333D01*
X50644100Y-88534549D01*
X52655500Y-88534549D01*
X52655500Y-88757450D01*
X52655501Y-88757466D01*
X52684594Y-88978452D01*
X52684595Y-88978457D01*
X52684596Y-88978463D01*
X52684597Y-88978465D01*
X52742290Y-89193780D01*
X52742293Y-89193790D01*
X52827593Y-89399722D01*
X52827595Y-89399726D01*
X52939052Y-89592774D01*
X52939057Y-89592780D01*
X52939058Y-89592782D01*
X53074751Y-89769622D01*
X53074757Y-89769629D01*
X53232370Y-89927242D01*
X53232376Y-89927247D01*
X53409226Y-90062948D01*
X53602274Y-90174405D01*
X53808219Y-90259710D01*
X54023537Y-90317404D01*
X54244543Y-90346500D01*
X54244550Y-90346500D01*
X54467450Y-90346500D01*
X54467457Y-90346500D01*
X54688463Y-90317404D01*
X54903781Y-90259710D01*
X55109726Y-90174405D01*
X55302774Y-90062948D01*
X55479624Y-89927247D01*
X55637247Y-89769624D01*
X55772948Y-89592774D01*
X55884405Y-89399726D01*
X55969710Y-89193781D01*
X56027404Y-88978463D01*
X56056500Y-88757457D01*
X56056500Y-88579713D01*
X59822500Y-88579713D01*
X59822500Y-88792286D01*
X59851987Y-88978463D01*
X59855754Y-89002243D01*
X59917988Y-89193780D01*
X59921444Y-89204414D01*
X60017951Y-89393820D01*
X60142890Y-89565786D01*
X60293209Y-89716105D01*
X60293214Y-89716109D01*
X60457793Y-89835682D01*
X60500459Y-89891011D01*
X60506438Y-89960625D01*
X60473833Y-90022420D01*
X60457793Y-90036318D01*
X60293214Y-90155890D01*
X60293209Y-90155894D01*
X60142890Y-90306213D01*
X60017951Y-90478179D01*
X59921444Y-90667585D01*
X59855753Y-90869760D01*
X59822500Y-91079713D01*
X59822500Y-91292286D01*
X59855753Y-91502239D01*
X59921444Y-91704414D01*
X60017951Y-91893820D01*
X60142890Y-92065786D01*
X60293213Y-92216109D01*
X60465179Y-92341048D01*
X60465181Y-92341049D01*
X60465184Y-92341051D01*
X60654588Y-92437557D01*
X60856757Y-92503246D01*
X61066713Y-92536500D01*
X61066714Y-92536500D01*
X61529286Y-92536500D01*
X61529287Y-92536500D01*
X61739243Y-92503246D01*
X61941412Y-92437557D01*
X62130816Y-92341051D01*
X62152789Y-92325086D01*
X62302786Y-92216109D01*
X62302788Y-92216106D01*
X62302792Y-92216104D01*
X62453104Y-92065792D01*
X62453106Y-92065788D01*
X62453109Y-92065786D01*
X62578048Y-91893820D01*
X62578047Y-91893820D01*
X62578051Y-91893816D01*
X62674557Y-91704412D01*
X62740246Y-91502243D01*
X62773500Y-91292287D01*
X62773500Y-91079713D01*
X62740246Y-90869757D01*
X62674557Y-90667588D01*
X62578051Y-90478184D01*
X62578049Y-90478181D01*
X62578048Y-90478179D01*
X62453109Y-90306213D01*
X62302792Y-90155896D01*
X62302784Y-90155890D01*
X62138204Y-90036316D01*
X62095540Y-89980989D01*
X62089561Y-89911376D01*
X62122166Y-89849580D01*
X62138199Y-89835686D01*
X62302792Y-89716104D01*
X62453104Y-89565792D01*
X62453106Y-89565788D01*
X62453109Y-89565786D01*
X62578048Y-89393820D01*
X62578047Y-89393820D01*
X62578051Y-89393816D01*
X62674557Y-89204412D01*
X62740246Y-89002243D01*
X62773500Y-88792287D01*
X62773500Y-88579713D01*
X66342500Y-88579713D01*
X66342500Y-88792286D01*
X66371987Y-88978463D01*
X66375754Y-89002243D01*
X66437988Y-89193780D01*
X66441444Y-89204414D01*
X66537951Y-89393820D01*
X66662890Y-89565786D01*
X66813209Y-89716105D01*
X66813214Y-89716109D01*
X66977793Y-89835682D01*
X67020459Y-89891011D01*
X67026438Y-89960625D01*
X66993833Y-90022420D01*
X66977793Y-90036318D01*
X66813214Y-90155890D01*
X66813209Y-90155894D01*
X66662890Y-90306213D01*
X66537951Y-90478179D01*
X66441444Y-90667585D01*
X66375753Y-90869760D01*
X66342500Y-91079713D01*
X66342500Y-91292286D01*
X66375753Y-91502239D01*
X66441444Y-91704414D01*
X66537951Y-91893820D01*
X66662890Y-92065786D01*
X66813213Y-92216109D01*
X66985179Y-92341048D01*
X66985181Y-92341049D01*
X66985184Y-92341051D01*
X67174588Y-92437557D01*
X67376757Y-92503246D01*
X67586713Y-92536500D01*
X67586714Y-92536500D01*
X68049286Y-92536500D01*
X68049287Y-92536500D01*
X68259243Y-92503246D01*
X68461412Y-92437557D01*
X68650816Y-92341051D01*
X68672789Y-92325086D01*
X68822786Y-92216109D01*
X68822788Y-92216106D01*
X68822792Y-92216104D01*
X68973104Y-92065792D01*
X68973106Y-92065788D01*
X68973109Y-92065786D01*
X69098048Y-91893820D01*
X69098047Y-91893820D01*
X69098051Y-91893816D01*
X69194557Y-91704412D01*
X69260246Y-91502243D01*
X69293500Y-91292287D01*
X69293500Y-91079713D01*
X69260246Y-90869757D01*
X69194557Y-90667588D01*
X69098051Y-90478184D01*
X69098049Y-90478181D01*
X69098048Y-90478179D01*
X68973109Y-90306213D01*
X68822792Y-90155896D01*
X68822784Y-90155890D01*
X68658204Y-90036316D01*
X68615540Y-89980989D01*
X68609561Y-89911376D01*
X68642166Y-89849580D01*
X68658199Y-89835686D01*
X68822792Y-89716104D01*
X68973104Y-89565792D01*
X68973106Y-89565788D01*
X68973109Y-89565786D01*
X69098048Y-89393820D01*
X69098047Y-89393820D01*
X69098051Y-89393816D01*
X69194557Y-89204412D01*
X69260246Y-89002243D01*
X69293500Y-88792287D01*
X69293500Y-88579713D01*
X69260246Y-88369757D01*
X69194557Y-88167588D01*
X69098051Y-87978184D01*
X69098049Y-87978181D01*
X69098048Y-87978179D01*
X68973109Y-87806213D01*
X68822786Y-87655890D01*
X68650820Y-87530951D01*
X68461414Y-87434444D01*
X68461413Y-87434443D01*
X68461412Y-87434443D01*
X68259243Y-87368754D01*
X68259241Y-87368753D01*
X68259240Y-87368753D01*
X68097957Y-87343208D01*
X68049287Y-87335500D01*
X67586713Y-87335500D01*
X67538042Y-87343208D01*
X67376760Y-87368753D01*
X67174585Y-87434444D01*
X66985179Y-87530951D01*
X66813213Y-87655890D01*
X66662890Y-87806213D01*
X66537951Y-87978179D01*
X66441444Y-88167585D01*
X66375753Y-88369760D01*
X66342500Y-88579713D01*
X62773500Y-88579713D01*
X62740246Y-88369757D01*
X62674557Y-88167588D01*
X62578051Y-87978184D01*
X62578049Y-87978181D01*
X62578048Y-87978179D01*
X62453109Y-87806213D01*
X62302786Y-87655890D01*
X62130820Y-87530951D01*
X61941414Y-87434444D01*
X61941413Y-87434443D01*
X61941412Y-87434443D01*
X61739243Y-87368754D01*
X61739241Y-87368753D01*
X61739240Y-87368753D01*
X61577957Y-87343208D01*
X61529287Y-87335500D01*
X61066713Y-87335500D01*
X61018042Y-87343208D01*
X60856760Y-87368753D01*
X60654585Y-87434444D01*
X60465179Y-87530951D01*
X60293213Y-87655890D01*
X60142890Y-87806213D01*
X60017951Y-87978179D01*
X59921444Y-88167585D01*
X59855753Y-88369760D01*
X59822500Y-88579713D01*
X56056500Y-88579713D01*
X56056500Y-88534543D01*
X56027404Y-88313537D01*
X55969710Y-88098219D01*
X55884405Y-87892274D01*
X55772948Y-87699226D01*
X55637247Y-87522376D01*
X55637242Y-87522370D01*
X55479629Y-87364757D01*
X55479622Y-87364751D01*
X55302782Y-87229058D01*
X55302780Y-87229057D01*
X55302774Y-87229052D01*
X55109726Y-87117595D01*
X55109722Y-87117593D01*
X54903790Y-87032293D01*
X54903783Y-87032291D01*
X54903781Y-87032290D01*
X54688463Y-86974596D01*
X54688457Y-86974595D01*
X54688452Y-86974594D01*
X54467466Y-86945501D01*
X54467463Y-86945500D01*
X54467457Y-86945500D01*
X54244543Y-86945500D01*
X54244537Y-86945500D01*
X54244533Y-86945501D01*
X54023547Y-86974594D01*
X54023540Y-86974595D01*
X54023537Y-86974596D01*
X53808219Y-87032290D01*
X53808209Y-87032293D01*
X53602277Y-87117593D01*
X53602273Y-87117595D01*
X53409226Y-87229052D01*
X53409217Y-87229058D01*
X53232377Y-87364751D01*
X53232370Y-87364757D01*
X53074757Y-87522370D01*
X53074751Y-87522377D01*
X52939058Y-87699217D01*
X52939052Y-87699226D01*
X52827595Y-87892273D01*
X52827593Y-87892277D01*
X52742293Y-88098209D01*
X52742290Y-88098219D01*
X52688746Y-88298051D01*
X52684597Y-88313534D01*
X52684594Y-88313547D01*
X52655501Y-88534533D01*
X52655500Y-88534549D01*
X50644100Y-88534549D01*
X50644100Y-86156796D01*
X71432035Y-86156796D01*
X71432035Y-86156803D01*
X71452230Y-86336049D01*
X71452231Y-86336054D01*
X71511811Y-86506323D01*
X71606091Y-86656368D01*
X71607784Y-86659062D01*
X71735338Y-86786616D01*
X71888078Y-86882589D01*
X71993555Y-86919497D01*
X72058345Y-86942168D01*
X72058350Y-86942169D01*
X72237596Y-86962365D01*
X72237600Y-86962365D01*
X72237604Y-86962365D01*
X72416849Y-86942169D01*
X72416852Y-86942168D01*
X72416855Y-86942168D01*
X72587122Y-86882589D01*
X72739862Y-86786616D01*
X72867416Y-86659062D01*
X72963389Y-86506322D01*
X73022968Y-86336055D01*
X73043165Y-86156800D01*
X73022968Y-85977545D01*
X72963389Y-85807278D01*
X72867416Y-85654538D01*
X72739862Y-85526984D01*
X72587123Y-85431011D01*
X72416854Y-85371431D01*
X72416849Y-85371430D01*
X72237604Y-85351235D01*
X72237596Y-85351235D01*
X72058350Y-85371430D01*
X72058345Y-85371431D01*
X71888076Y-85431011D01*
X71735337Y-85526984D01*
X71607784Y-85654537D01*
X71511811Y-85807276D01*
X71452231Y-85977545D01*
X71452230Y-85977550D01*
X71432035Y-86156796D01*
X50644100Y-86156796D01*
X50644100Y-74141713D01*
X51949500Y-74141713D01*
X51949500Y-74354286D01*
X51981555Y-74556678D01*
X51982754Y-74564243D01*
X52044197Y-74753345D01*
X52048444Y-74766414D01*
X52144951Y-74955820D01*
X52269890Y-75127786D01*
X52420209Y-75278105D01*
X52420214Y-75278109D01*
X52584793Y-75397682D01*
X52627459Y-75453011D01*
X52633438Y-75522625D01*
X52600833Y-75584420D01*
X52584793Y-75598318D01*
X52420214Y-75717890D01*
X52420209Y-75717894D01*
X52269890Y-75868213D01*
X52144951Y-76040179D01*
X52048444Y-76229585D01*
X51982753Y-76431760D01*
X51954184Y-76612137D01*
X51949500Y-76641713D01*
X51949500Y-76854287D01*
X51982754Y-77064243D01*
X51997076Y-77108322D01*
X52048444Y-77266414D01*
X52144951Y-77455820D01*
X52269890Y-77627786D01*
X52420209Y-77778105D01*
X52420214Y-77778109D01*
X52584793Y-77897682D01*
X52627459Y-77953011D01*
X52633438Y-78022625D01*
X52600833Y-78084420D01*
X52584793Y-78098318D01*
X52420214Y-78217890D01*
X52420209Y-78217894D01*
X52269890Y-78368213D01*
X52144951Y-78540179D01*
X52048444Y-78729585D01*
X51982753Y-78931760D01*
X51949500Y-79141713D01*
X51949500Y-79354286D01*
X51982753Y-79564239D01*
X52048444Y-79766414D01*
X52144951Y-79955820D01*
X52269890Y-80127786D01*
X52420213Y-80278109D01*
X52592179Y-80403048D01*
X52592181Y-80403049D01*
X52592184Y-80403051D01*
X52781588Y-80499557D01*
X52983757Y-80565246D01*
X53193713Y-80598500D01*
X53193714Y-80598500D01*
X53556286Y-80598500D01*
X53556287Y-80598500D01*
X53766243Y-80565246D01*
X53968412Y-80499557D01*
X54157816Y-80403051D01*
X54181538Y-80385816D01*
X54329786Y-80278109D01*
X54329788Y-80278106D01*
X54329792Y-80278104D01*
X54480104Y-80127792D01*
X54480106Y-80127788D01*
X54480109Y-80127786D01*
X54589086Y-79977789D01*
X54605051Y-79955816D01*
X54701557Y-79766412D01*
X54767246Y-79564243D01*
X54800500Y-79354287D01*
X54800500Y-79141713D01*
X54767246Y-78931757D01*
X54701557Y-78729588D01*
X54605051Y-78540184D01*
X54605049Y-78540181D01*
X54605048Y-78540179D01*
X54480109Y-78368213D01*
X54329792Y-78217896D01*
X54329784Y-78217890D01*
X54165204Y-78098316D01*
X54122540Y-78042989D01*
X54116561Y-77973376D01*
X54149166Y-77911580D01*
X54165199Y-77897686D01*
X54329792Y-77778104D01*
X54480104Y-77627792D01*
X54480106Y-77627788D01*
X54480109Y-77627786D01*
X54605048Y-77455820D01*
X54605047Y-77455820D01*
X54605051Y-77455816D01*
X54701557Y-77266412D01*
X54767246Y-77064243D01*
X54800500Y-76854287D01*
X54800500Y-76641713D01*
X54767246Y-76431757D01*
X54701557Y-76229588D01*
X54605051Y-76040184D01*
X54605049Y-76040181D01*
X54605048Y-76040179D01*
X54480109Y-75868213D01*
X54329792Y-75717896D01*
X54329784Y-75717890D01*
X54165204Y-75598316D01*
X54122540Y-75542989D01*
X54116561Y-75473376D01*
X54149166Y-75411580D01*
X54165199Y-75397686D01*
X54329792Y-75278104D01*
X54480104Y-75127792D01*
X54480106Y-75127788D01*
X54480109Y-75127786D01*
X54605048Y-74955820D01*
X54605047Y-74955820D01*
X54605051Y-74955816D01*
X54701557Y-74766412D01*
X54767246Y-74564243D01*
X54800500Y-74354287D01*
X54800500Y-74141713D01*
X58264500Y-74141713D01*
X58264500Y-74354286D01*
X58296555Y-74556678D01*
X58297754Y-74564243D01*
X58359197Y-74753345D01*
X58363444Y-74766414D01*
X58459951Y-74955820D01*
X58584890Y-75127786D01*
X58735209Y-75278105D01*
X58735214Y-75278109D01*
X58899793Y-75397682D01*
X58942459Y-75453011D01*
X58948438Y-75522625D01*
X58915833Y-75584420D01*
X58899793Y-75598318D01*
X58735214Y-75717890D01*
X58735209Y-75717894D01*
X58584890Y-75868213D01*
X58459951Y-76040179D01*
X58363444Y-76229585D01*
X58297753Y-76431760D01*
X58269184Y-76612137D01*
X58264500Y-76641713D01*
X58264500Y-76854287D01*
X58297754Y-77064243D01*
X58312076Y-77108322D01*
X58363444Y-77266414D01*
X58459951Y-77455820D01*
X58584890Y-77627786D01*
X58735209Y-77778105D01*
X58735214Y-77778109D01*
X58899793Y-77897682D01*
X58942459Y-77953011D01*
X58948438Y-78022625D01*
X58915833Y-78084420D01*
X58899793Y-78098318D01*
X58735214Y-78217890D01*
X58735209Y-78217894D01*
X58584890Y-78368213D01*
X58459951Y-78540179D01*
X58363444Y-78729585D01*
X58297753Y-78931760D01*
X58264500Y-79141713D01*
X58264500Y-79354286D01*
X58297753Y-79564239D01*
X58363444Y-79766414D01*
X58459951Y-79955820D01*
X58584890Y-80127786D01*
X58735213Y-80278109D01*
X58907179Y-80403048D01*
X58907181Y-80403049D01*
X58907184Y-80403051D01*
X59096588Y-80499557D01*
X59298757Y-80565246D01*
X59508713Y-80598500D01*
X59508714Y-80598500D01*
X59871286Y-80598500D01*
X59871287Y-80598500D01*
X60081243Y-80565246D01*
X60283412Y-80499557D01*
X60472816Y-80403051D01*
X60496538Y-80385816D01*
X60644786Y-80278109D01*
X60644788Y-80278106D01*
X60644792Y-80278104D01*
X60795104Y-80127792D01*
X60795106Y-80127788D01*
X60795109Y-80127786D01*
X60904086Y-79977789D01*
X60920051Y-79955816D01*
X61016557Y-79766412D01*
X61082246Y-79564243D01*
X61115500Y-79354287D01*
X61115500Y-79141713D01*
X61082246Y-78931757D01*
X61016557Y-78729588D01*
X60920051Y-78540184D01*
X60920049Y-78540181D01*
X60920048Y-78540179D01*
X60795109Y-78368213D01*
X60644792Y-78217896D01*
X60644784Y-78217890D01*
X60480204Y-78098316D01*
X60437540Y-78042989D01*
X60431561Y-77973376D01*
X60464166Y-77911580D01*
X60480199Y-77897686D01*
X60644792Y-77778104D01*
X60795104Y-77627792D01*
X60795106Y-77627788D01*
X60795109Y-77627786D01*
X60920048Y-77455820D01*
X60920047Y-77455820D01*
X60920051Y-77455816D01*
X61016557Y-77266412D01*
X61082246Y-77064243D01*
X61115500Y-76854287D01*
X61115500Y-76641713D01*
X61082246Y-76431757D01*
X61016557Y-76229588D01*
X60920051Y-76040184D01*
X60920049Y-76040181D01*
X60920048Y-76040179D01*
X60795109Y-75868213D01*
X60644792Y-75717896D01*
X60644784Y-75717890D01*
X60480204Y-75598316D01*
X60437540Y-75542989D01*
X60431561Y-75473376D01*
X60464166Y-75411580D01*
X60480199Y-75397686D01*
X60644792Y-75278104D01*
X60795104Y-75127792D01*
X60795106Y-75127788D01*
X60795109Y-75127786D01*
X60920048Y-74955820D01*
X60920047Y-74955820D01*
X60920051Y-74955816D01*
X61016557Y-74766412D01*
X61082246Y-74564243D01*
X61115500Y-74354287D01*
X61115500Y-74141713D01*
X64868500Y-74141713D01*
X64868500Y-74354286D01*
X64900555Y-74556678D01*
X64901754Y-74564243D01*
X64963197Y-74753345D01*
X64967444Y-74766414D01*
X65063951Y-74955820D01*
X65188890Y-75127786D01*
X65339209Y-75278105D01*
X65339214Y-75278109D01*
X65503793Y-75397682D01*
X65546459Y-75453011D01*
X65552438Y-75522625D01*
X65519833Y-75584420D01*
X65503793Y-75598318D01*
X65339214Y-75717890D01*
X65339209Y-75717894D01*
X65188890Y-75868213D01*
X65063951Y-76040179D01*
X64967444Y-76229585D01*
X64901753Y-76431760D01*
X64873184Y-76612137D01*
X64868500Y-76641713D01*
X64868500Y-76854287D01*
X64901754Y-77064243D01*
X64916076Y-77108322D01*
X64967444Y-77266414D01*
X65063951Y-77455820D01*
X65188890Y-77627786D01*
X65339209Y-77778105D01*
X65339214Y-77778109D01*
X65503793Y-77897682D01*
X65546459Y-77953011D01*
X65552438Y-78022625D01*
X65519833Y-78084420D01*
X65503793Y-78098318D01*
X65339214Y-78217890D01*
X65339209Y-78217894D01*
X65188890Y-78368213D01*
X65063951Y-78540179D01*
X64967444Y-78729585D01*
X64901753Y-78931760D01*
X64868500Y-79141713D01*
X64868500Y-79354286D01*
X64901753Y-79564239D01*
X64967444Y-79766414D01*
X65063951Y-79955820D01*
X65188890Y-80127786D01*
X65339213Y-80278109D01*
X65511179Y-80403048D01*
X65511181Y-80403049D01*
X65511184Y-80403051D01*
X65700588Y-80499557D01*
X65902757Y-80565246D01*
X66112713Y-80598500D01*
X66112714Y-80598500D01*
X66475286Y-80598500D01*
X66475287Y-80598500D01*
X66685243Y-80565246D01*
X66887412Y-80499557D01*
X66950924Y-80467196D01*
X70365235Y-80467196D01*
X70365235Y-80467203D01*
X70385430Y-80646449D01*
X70385431Y-80646454D01*
X70445011Y-80816723D01*
X70497735Y-80900632D01*
X70540984Y-80969462D01*
X70668538Y-81097016D01*
X70821278Y-81192989D01*
X70933128Y-81232127D01*
X70991545Y-81252568D01*
X70991550Y-81252569D01*
X71170796Y-81272765D01*
X71170800Y-81272765D01*
X71170804Y-81272765D01*
X71350049Y-81252569D01*
X71350052Y-81252568D01*
X71350055Y-81252568D01*
X71497545Y-81200958D01*
X71567324Y-81197398D01*
X71627952Y-81232127D01*
X71660179Y-81294120D01*
X71662500Y-81318001D01*
X71662500Y-82348587D01*
X71642815Y-82415626D01*
X71635450Y-82425896D01*
X71633186Y-82428734D01*
X71537211Y-82581476D01*
X71477631Y-82751745D01*
X71477630Y-82751750D01*
X71457435Y-82930996D01*
X71457435Y-82931003D01*
X71477630Y-83110249D01*
X71477631Y-83110254D01*
X71537211Y-83280523D01*
X71633184Y-83433262D01*
X71760738Y-83560816D01*
X71913478Y-83656789D01*
X72083745Y-83716368D01*
X72083750Y-83716369D01*
X72262996Y-83736565D01*
X72263000Y-83736565D01*
X72263004Y-83736565D01*
X72442249Y-83716369D01*
X72442252Y-83716368D01*
X72442255Y-83716368D01*
X72612522Y-83656789D01*
X72765262Y-83560816D01*
X72892816Y-83433262D01*
X72988789Y-83280522D01*
X73048368Y-83110255D01*
X73055071Y-83050765D01*
X73068565Y-82931003D01*
X73068565Y-82930996D01*
X73048369Y-82751750D01*
X73048368Y-82751745D01*
X72988788Y-82581476D01*
X72907589Y-82452249D01*
X72892816Y-82428738D01*
X72892814Y-82428736D01*
X72892813Y-82428734D01*
X72890550Y-82425896D01*
X72889659Y-82423715D01*
X72889111Y-82422842D01*
X72889264Y-82422745D01*
X72864144Y-82361209D01*
X72863500Y-82348587D01*
X72863500Y-71651612D01*
X72883185Y-71584573D01*
X72890555Y-71574297D01*
X72892810Y-71571467D01*
X72892816Y-71571462D01*
X72988789Y-71418722D01*
X73048368Y-71248455D01*
X73068565Y-71069200D01*
X73048368Y-70889945D01*
X72988789Y-70719678D01*
X72892816Y-70566938D01*
X72765262Y-70439384D01*
X72754699Y-70432747D01*
X72612523Y-70343411D01*
X72442254Y-70283831D01*
X72442249Y-70283830D01*
X72263004Y-70263635D01*
X72262996Y-70263635D01*
X72083750Y-70283830D01*
X72083745Y-70283831D01*
X71936255Y-70335441D01*
X71866476Y-70339002D01*
X71805848Y-70304273D01*
X71773621Y-70242280D01*
X71771300Y-70218399D01*
X71771300Y-66622940D01*
X71790985Y-66555901D01*
X71807619Y-66535259D01*
X71902216Y-66440662D01*
X71998189Y-66287922D01*
X72057768Y-66117655D01*
X72077965Y-65938400D01*
X72057768Y-65759145D01*
X71998189Y-65588878D01*
X71902216Y-65436138D01*
X71774662Y-65308584D01*
X71726830Y-65278529D01*
X71621923Y-65212611D01*
X71451654Y-65153031D01*
X71451649Y-65153030D01*
X71272404Y-65132835D01*
X71272396Y-65132835D01*
X71093150Y-65153030D01*
X71093145Y-65153031D01*
X70922876Y-65212611D01*
X70770137Y-65308584D01*
X70642584Y-65436137D01*
X70546611Y-65588876D01*
X70487031Y-65759145D01*
X70487030Y-65759150D01*
X70466835Y-65938396D01*
X70466835Y-65938403D01*
X70487030Y-66117649D01*
X70487033Y-66117662D01*
X70546609Y-66287918D01*
X70546610Y-66287920D01*
X70546611Y-66287922D01*
X70551292Y-66295372D01*
X70570300Y-66361345D01*
X70570300Y-79884787D01*
X70550615Y-79951826D01*
X70543250Y-79962096D01*
X70540986Y-79964934D01*
X70445011Y-80117676D01*
X70385431Y-80287945D01*
X70385430Y-80287950D01*
X70365235Y-80467196D01*
X66950924Y-80467196D01*
X67076816Y-80403051D01*
X67100538Y-80385816D01*
X67248786Y-80278109D01*
X67248788Y-80278106D01*
X67248792Y-80278104D01*
X67399104Y-80127792D01*
X67399106Y-80127788D01*
X67399109Y-80127786D01*
X67508086Y-79977789D01*
X67524051Y-79955816D01*
X67620557Y-79766412D01*
X67686246Y-79564243D01*
X67719500Y-79354287D01*
X67719500Y-79141713D01*
X67686246Y-78931757D01*
X67620557Y-78729588D01*
X67524051Y-78540184D01*
X67524049Y-78540181D01*
X67524048Y-78540179D01*
X67399109Y-78368213D01*
X67248792Y-78217896D01*
X67248784Y-78217890D01*
X67084204Y-78098316D01*
X67041540Y-78042989D01*
X67035561Y-77973376D01*
X67068166Y-77911580D01*
X67084199Y-77897686D01*
X67248792Y-77778104D01*
X67399104Y-77627792D01*
X67399106Y-77627788D01*
X67399109Y-77627786D01*
X67524048Y-77455820D01*
X67524047Y-77455820D01*
X67524051Y-77455816D01*
X67620557Y-77266412D01*
X67686246Y-77064243D01*
X67719500Y-76854287D01*
X67719500Y-76641713D01*
X67686246Y-76431757D01*
X67620557Y-76229588D01*
X67524051Y-76040184D01*
X67524049Y-76040181D01*
X67524048Y-76040179D01*
X67399109Y-75868213D01*
X67248792Y-75717896D01*
X67248784Y-75717890D01*
X67084204Y-75598316D01*
X67041540Y-75542989D01*
X67035561Y-75473376D01*
X67068166Y-75411580D01*
X67084199Y-75397686D01*
X67248792Y-75278104D01*
X67399104Y-75127792D01*
X67399106Y-75127788D01*
X67399109Y-75127786D01*
X67524048Y-74955820D01*
X67524047Y-74955820D01*
X67524051Y-74955816D01*
X67620557Y-74766412D01*
X67686246Y-74564243D01*
X67719500Y-74354287D01*
X67719500Y-74141713D01*
X67686246Y-73931757D01*
X67620557Y-73729588D01*
X67524051Y-73540184D01*
X67524049Y-73540181D01*
X67524048Y-73540179D01*
X67399109Y-73368213D01*
X67248786Y-73217890D01*
X67076820Y-73092951D01*
X66887414Y-72996444D01*
X66887413Y-72996443D01*
X66887412Y-72996443D01*
X66685243Y-72930754D01*
X66685241Y-72930753D01*
X66685240Y-72930753D01*
X66523957Y-72905208D01*
X66475287Y-72897500D01*
X66112713Y-72897500D01*
X66064042Y-72905208D01*
X65902760Y-72930753D01*
X65700585Y-72996444D01*
X65511179Y-73092951D01*
X65339213Y-73217890D01*
X65188890Y-73368213D01*
X65063951Y-73540179D01*
X64967444Y-73729585D01*
X64901753Y-73931760D01*
X64868500Y-74141713D01*
X61115500Y-74141713D01*
X61082246Y-73931757D01*
X61016557Y-73729588D01*
X60920051Y-73540184D01*
X60920049Y-73540181D01*
X60920048Y-73540179D01*
X60795109Y-73368213D01*
X60644786Y-73217890D01*
X60472820Y-73092951D01*
X60283414Y-72996444D01*
X60283413Y-72996443D01*
X60283412Y-72996443D01*
X60081243Y-72930754D01*
X60081241Y-72930753D01*
X60081240Y-72930753D01*
X59919957Y-72905208D01*
X59871287Y-72897500D01*
X59508713Y-72897500D01*
X59460042Y-72905208D01*
X59298760Y-72930753D01*
X59096585Y-72996444D01*
X58907179Y-73092951D01*
X58735213Y-73217890D01*
X58584890Y-73368213D01*
X58459951Y-73540179D01*
X58363444Y-73729585D01*
X58297753Y-73931760D01*
X58264500Y-74141713D01*
X54800500Y-74141713D01*
X54767246Y-73931757D01*
X54701557Y-73729588D01*
X54605051Y-73540184D01*
X54605049Y-73540181D01*
X54605048Y-73540179D01*
X54480109Y-73368213D01*
X54329786Y-73217890D01*
X54157820Y-73092951D01*
X53968414Y-72996444D01*
X53968413Y-72996443D01*
X53968412Y-72996443D01*
X53766243Y-72930754D01*
X53766241Y-72930753D01*
X53766240Y-72930753D01*
X53604957Y-72905208D01*
X53556287Y-72897500D01*
X53193713Y-72897500D01*
X53145042Y-72905208D01*
X52983760Y-72930753D01*
X52781585Y-72996444D01*
X52592179Y-73092951D01*
X52420213Y-73217890D01*
X52269890Y-73368213D01*
X52144951Y-73540179D01*
X52048444Y-73729585D01*
X51982753Y-73931760D01*
X51949500Y-74141713D01*
X50644100Y-74141713D01*
X50644100Y-64938135D01*
X53785500Y-64938135D01*
X53785500Y-66633870D01*
X53785501Y-66633876D01*
X53791908Y-66693483D01*
X53842202Y-66828328D01*
X53842206Y-66828335D01*
X53928452Y-66943544D01*
X53928455Y-66943547D01*
X54043664Y-67029793D01*
X54043671Y-67029797D01*
X54178517Y-67080091D01*
X54178516Y-67080091D01*
X54185444Y-67080835D01*
X54238127Y-67086500D01*
X55933872Y-67086499D01*
X55993483Y-67080091D01*
X56128331Y-67029796D01*
X56243546Y-66943546D01*
X56329796Y-66828331D01*
X56380091Y-66693483D01*
X56386500Y-66633873D01*
X56386499Y-64938128D01*
X56380091Y-64878517D01*
X56379869Y-64877923D01*
X56329797Y-64743671D01*
X56329793Y-64743664D01*
X56243547Y-64628455D01*
X56243544Y-64628452D01*
X56128335Y-64542206D01*
X56128328Y-64542202D01*
X55993482Y-64491908D01*
X55993483Y-64491908D01*
X55933883Y-64485501D01*
X55933881Y-64485500D01*
X55933873Y-64485500D01*
X55933864Y-64485500D01*
X54238129Y-64485500D01*
X54238123Y-64485501D01*
X54178516Y-64491908D01*
X54043671Y-64542202D01*
X54043664Y-64542206D01*
X53928455Y-64628452D01*
X53928452Y-64628455D01*
X53842206Y-64743664D01*
X53842202Y-64743671D01*
X53791908Y-64878517D01*
X53785501Y-64938116D01*
X53785501Y-64938123D01*
X53785500Y-64938135D01*
X50644100Y-64938135D01*
X50644100Y-64242400D01*
X61781215Y-64242400D01*
X61799903Y-64420205D01*
X61799904Y-64420207D01*
X61855147Y-64590229D01*
X61855150Y-64590235D01*
X61944541Y-64745065D01*
X61986212Y-64791346D01*
X62064164Y-64877921D01*
X62064167Y-64877923D01*
X62064170Y-64877926D01*
X62208807Y-64983012D01*
X62372133Y-65055729D01*
X62547009Y-65092900D01*
X62547010Y-65092900D01*
X62725789Y-65092900D01*
X62725791Y-65092900D01*
X62900667Y-65055729D01*
X63063993Y-64983012D01*
X63208630Y-64877926D01*
X63328259Y-64745065D01*
X63417650Y-64590235D01*
X63458277Y-64465200D01*
X68385215Y-64465200D01*
X68403903Y-64643005D01*
X68403904Y-64643007D01*
X68459147Y-64813029D01*
X68459150Y-64813035D01*
X68548541Y-64967865D01*
X68566480Y-64987788D01*
X68668164Y-65100721D01*
X68668167Y-65100723D01*
X68668170Y-65100726D01*
X68812807Y-65205812D01*
X68976133Y-65278529D01*
X69151009Y-65315700D01*
X69151010Y-65315700D01*
X69329789Y-65315700D01*
X69329791Y-65315700D01*
X69504667Y-65278529D01*
X69667993Y-65205812D01*
X69812630Y-65100726D01*
X69932259Y-64967865D01*
X70021650Y-64813035D01*
X70076897Y-64643003D01*
X70095585Y-64465200D01*
X70076897Y-64287397D01*
X70021650Y-64117365D01*
X69932259Y-63962535D01*
X69871063Y-63894570D01*
X69812635Y-63829678D01*
X69812632Y-63829676D01*
X69812631Y-63829675D01*
X69812630Y-63829674D01*
X69667993Y-63724588D01*
X69504667Y-63651871D01*
X69504665Y-63651870D01*
X69376994Y-63624733D01*
X69329791Y-63614700D01*
X69151009Y-63614700D01*
X69120354Y-63621215D01*
X68976133Y-63651870D01*
X68976128Y-63651872D01*
X68812808Y-63724587D01*
X68668168Y-63829675D01*
X68548540Y-63962536D01*
X68459150Y-64117364D01*
X68459147Y-64117370D01*
X68403904Y-64287392D01*
X68403903Y-64287394D01*
X68385215Y-64465200D01*
X63458277Y-64465200D01*
X63472897Y-64420203D01*
X63491585Y-64242400D01*
X63472897Y-64064597D01*
X63436027Y-63951122D01*
X63417652Y-63894570D01*
X63417649Y-63894564D01*
X63328259Y-63739735D01*
X63249145Y-63651870D01*
X63208635Y-63606878D01*
X63208632Y-63606876D01*
X63208631Y-63606875D01*
X63208630Y-63606874D01*
X63201366Y-63601596D01*
X73413235Y-63601596D01*
X73413235Y-63601603D01*
X73433430Y-63780849D01*
X73433431Y-63780854D01*
X73493011Y-63951124D01*
X73549293Y-64040694D01*
X73568300Y-64106667D01*
X73568300Y-68491852D01*
X73549294Y-68557823D01*
X73536278Y-68578537D01*
X73536274Y-68578546D01*
X73476698Y-68748802D01*
X73476695Y-68748815D01*
X73456500Y-68928061D01*
X73456500Y-68928068D01*
X73476695Y-69107314D01*
X73476696Y-69107319D01*
X73536276Y-69277588D01*
X73632249Y-69430327D01*
X73759803Y-69557881D01*
X73912543Y-69653854D01*
X74082810Y-69713433D01*
X74082815Y-69713434D01*
X74262061Y-69733630D01*
X74262065Y-69733630D01*
X74262069Y-69733630D01*
X74441314Y-69713434D01*
X74441317Y-69713433D01*
X74441320Y-69713433D01*
X74611587Y-69653854D01*
X74764327Y-69557881D01*
X74891881Y-69430327D01*
X74987854Y-69277587D01*
X75047433Y-69107320D01*
X75067630Y-68928065D01*
X75047433Y-68748810D01*
X74987854Y-68578543D01*
X74955830Y-68527577D01*
X74888306Y-68420113D01*
X74869300Y-68354141D01*
X74869300Y-64261996D01*
X75902435Y-64261996D01*
X75902435Y-64262003D01*
X75922630Y-64441249D01*
X75922631Y-64441254D01*
X75982211Y-64611523D01*
X76065246Y-64743671D01*
X76078184Y-64764262D01*
X76205738Y-64891816D01*
X76358478Y-64987789D01*
X76528745Y-65047368D01*
X76528750Y-65047369D01*
X76707996Y-65067565D01*
X76708000Y-65067565D01*
X76708004Y-65067565D01*
X76887249Y-65047369D01*
X76887252Y-65047368D01*
X76887255Y-65047368D01*
X77057522Y-64987789D01*
X77210262Y-64891816D01*
X77337816Y-64764262D01*
X77433789Y-64611522D01*
X77493368Y-64441255D01*
X77503161Y-64354329D01*
X77530226Y-64289918D01*
X77538690Y-64280543D01*
X79917616Y-61901619D01*
X79978939Y-61868134D01*
X80005297Y-61865300D01*
X83476313Y-61865300D01*
X83543352Y-61884985D01*
X83563994Y-61901619D01*
X83574637Y-61912262D01*
X83727377Y-62008235D01*
X83897644Y-62067814D01*
X83897649Y-62067815D01*
X84076895Y-62088011D01*
X84076899Y-62088011D01*
X84076903Y-62088011D01*
X84256148Y-62067815D01*
X84256151Y-62067814D01*
X84256154Y-62067814D01*
X84426421Y-62008235D01*
X84579161Y-61912262D01*
X84706715Y-61784708D01*
X84802688Y-61631968D01*
X84862267Y-61461701D01*
X84882464Y-61282446D01*
X84873364Y-61201682D01*
X84862268Y-61103196D01*
X84862267Y-61103191D01*
X84826807Y-61001852D01*
X84802688Y-60932924D01*
X84706715Y-60780184D01*
X84579161Y-60652630D01*
X84567486Y-60645294D01*
X84426422Y-60556657D01*
X84256153Y-60497077D01*
X84256148Y-60497076D01*
X84076903Y-60476881D01*
X84076895Y-60476881D01*
X83897649Y-60497076D01*
X83897644Y-60497077D01*
X83727376Y-60556657D01*
X83650489Y-60604968D01*
X83586311Y-60645294D01*
X83520341Y-60664300D01*
X79791869Y-60664300D01*
X79791853Y-60664299D01*
X79784257Y-60664299D01*
X79626143Y-60664299D01*
X79518787Y-60693065D01*
X79473410Y-60705224D01*
X79473409Y-60705225D01*
X79423296Y-60734159D01*
X79423295Y-60734160D01*
X79379889Y-60759220D01*
X79336485Y-60784279D01*
X79336482Y-60784281D01*
X79224678Y-60896086D01*
X77803204Y-62317559D01*
X77741881Y-62351044D01*
X77672189Y-62346060D01*
X77616256Y-62304188D01*
X77598205Y-62265190D01*
X77597268Y-62265518D01*
X77535388Y-62088676D01*
X77439415Y-61935937D01*
X77311862Y-61808384D01*
X77159123Y-61712411D01*
X76988854Y-61652831D01*
X76988849Y-61652830D01*
X76809604Y-61632635D01*
X76809596Y-61632635D01*
X76630350Y-61652830D01*
X76630345Y-61652831D01*
X76460076Y-61712411D01*
X76307337Y-61808384D01*
X76179784Y-61935937D01*
X76083811Y-62088676D01*
X76024231Y-62258945D01*
X76024230Y-62258950D01*
X76004035Y-62438196D01*
X76004035Y-62438203D01*
X76024230Y-62617449D01*
X76024231Y-62617454D01*
X76083811Y-62787723D01*
X76101724Y-62816231D01*
X76179784Y-62940462D01*
X76307338Y-63068016D01*
X76460078Y-63163989D01*
X76630345Y-63223568D01*
X76636918Y-63225868D01*
X76636242Y-63227797D01*
X76688514Y-63257019D01*
X76721386Y-63318673D01*
X76715707Y-63388312D01*
X76673280Y-63443825D01*
X76613847Y-63467042D01*
X76528750Y-63476630D01*
X76358478Y-63536210D01*
X76205737Y-63632184D01*
X76078184Y-63759737D01*
X75982211Y-63912476D01*
X75922631Y-64082745D01*
X75922630Y-64082750D01*
X75902435Y-64261996D01*
X74869300Y-64261996D01*
X74869300Y-64106667D01*
X74888307Y-64040694D01*
X74944588Y-63951124D01*
X74964379Y-63894565D01*
X75004168Y-63780855D01*
X75004169Y-63780849D01*
X75024365Y-63601603D01*
X75024365Y-63601596D01*
X75004169Y-63422350D01*
X75004168Y-63422345D01*
X74992259Y-63388312D01*
X74944589Y-63252078D01*
X74848616Y-63099338D01*
X74721062Y-62971784D01*
X74568323Y-62875811D01*
X74398054Y-62816231D01*
X74398049Y-62816230D01*
X74218804Y-62796035D01*
X74218796Y-62796035D01*
X74039550Y-62816230D01*
X74039545Y-62816231D01*
X73869276Y-62875811D01*
X73716537Y-62971784D01*
X73588984Y-63099337D01*
X73493011Y-63252076D01*
X73433431Y-63422345D01*
X73433430Y-63422350D01*
X73413235Y-63601596D01*
X63201366Y-63601596D01*
X63063993Y-63501788D01*
X62900667Y-63429071D01*
X62900665Y-63429070D01*
X62772994Y-63401933D01*
X62725791Y-63391900D01*
X62547009Y-63391900D01*
X62516354Y-63398415D01*
X62372133Y-63429070D01*
X62372128Y-63429072D01*
X62208808Y-63501787D01*
X62064168Y-63606875D01*
X61944540Y-63739736D01*
X61855150Y-63894564D01*
X61855147Y-63894570D01*
X61799904Y-64064592D01*
X61799903Y-64064594D01*
X61781215Y-64242400D01*
X50644100Y-64242400D01*
X50644100Y-58165999D01*
X59486696Y-58165999D01*
X59486696Y-58166000D01*
X59505898Y-58532405D01*
X59563294Y-58894788D01*
X59563294Y-58894790D01*
X59658260Y-59249206D01*
X59789746Y-59591739D01*
X59956320Y-59918656D01*
X60156147Y-60226364D01*
X60156149Y-60226366D01*
X60387051Y-60511506D01*
X60646494Y-60770949D01*
X60662958Y-60784281D01*
X60931635Y-61001852D01*
X61087692Y-61103196D01*
X61239348Y-61201682D01*
X61566264Y-61368255D01*
X61908801Y-61499742D01*
X62263206Y-61594705D01*
X62625596Y-61652102D01*
X62971734Y-61670241D01*
X62991999Y-61671304D01*
X62992000Y-61671304D01*
X62992001Y-61671304D01*
X63011203Y-61670297D01*
X63358404Y-61652102D01*
X63720794Y-61594705D01*
X64075199Y-61499742D01*
X64417736Y-61368255D01*
X64744652Y-61201682D01*
X65052366Y-61001851D01*
X65337506Y-60770949D01*
X65596949Y-60511506D01*
X65827851Y-60226366D01*
X66027682Y-59918652D01*
X66194255Y-59591736D01*
X66325742Y-59249199D01*
X66420705Y-58894794D01*
X66478102Y-58532404D01*
X66497304Y-58166000D01*
X66478102Y-57799596D01*
X66420705Y-57437206D01*
X66325742Y-57082801D01*
X66194255Y-56740264D01*
X66061515Y-56479749D01*
X81560700Y-56479749D01*
X81560700Y-56702650D01*
X81560701Y-56702666D01*
X81589794Y-56923652D01*
X81589795Y-56923657D01*
X81589796Y-56923663D01*
X81589797Y-56923665D01*
X81647490Y-57138980D01*
X81647493Y-57138990D01*
X81732793Y-57344922D01*
X81732795Y-57344926D01*
X81844252Y-57537974D01*
X81844257Y-57537980D01*
X81844258Y-57537982D01*
X81979951Y-57714822D01*
X81979957Y-57714829D01*
X82137570Y-57872442D01*
X82137576Y-57872447D01*
X82314426Y-58008148D01*
X82507474Y-58119605D01*
X82713419Y-58204910D01*
X82928737Y-58262604D01*
X83149743Y-58291700D01*
X83149750Y-58291700D01*
X83372650Y-58291700D01*
X83372657Y-58291700D01*
X83593663Y-58262604D01*
X83808981Y-58204910D01*
X84014926Y-58119605D01*
X84207974Y-58008148D01*
X84384824Y-57872447D01*
X84542447Y-57714824D01*
X84678148Y-57537974D01*
X84789605Y-57344926D01*
X84874910Y-57138981D01*
X84932604Y-56923663D01*
X84961700Y-56702657D01*
X84961700Y-56479743D01*
X84932604Y-56258737D01*
X84874910Y-56043419D01*
X84789605Y-55837474D01*
X84678148Y-55644426D01*
X84614175Y-55561054D01*
X84542448Y-55467577D01*
X84542442Y-55467570D01*
X84384829Y-55309957D01*
X84384822Y-55309951D01*
X84207982Y-55174258D01*
X84207980Y-55174257D01*
X84207974Y-55174252D01*
X84014926Y-55062795D01*
X84014922Y-55062793D01*
X83808990Y-54977493D01*
X83808983Y-54977491D01*
X83808981Y-54977490D01*
X83593663Y-54919796D01*
X83593657Y-54919795D01*
X83593652Y-54919794D01*
X83372666Y-54890701D01*
X83372663Y-54890700D01*
X83372657Y-54890700D01*
X83149743Y-54890700D01*
X83149737Y-54890700D01*
X83149733Y-54890701D01*
X82928747Y-54919794D01*
X82928740Y-54919795D01*
X82928737Y-54919796D01*
X82764716Y-54963745D01*
X82713419Y-54977490D01*
X82713409Y-54977493D01*
X82507477Y-55062793D01*
X82507473Y-55062795D01*
X82314426Y-55174252D01*
X82314417Y-55174258D01*
X82137577Y-55309951D01*
X82137570Y-55309957D01*
X81979957Y-55467570D01*
X81979951Y-55467577D01*
X81844258Y-55644417D01*
X81844252Y-55644426D01*
X81732795Y-55837473D01*
X81732793Y-55837477D01*
X81647493Y-56043409D01*
X81647490Y-56043419D01*
X81589797Y-56258734D01*
X81589794Y-56258747D01*
X81560701Y-56479733D01*
X81560700Y-56479749D01*
X66061515Y-56479749D01*
X66027682Y-56413348D01*
X66027679Y-56413343D01*
X65827852Y-56105635D01*
X65725557Y-55979311D01*
X65596949Y-55820494D01*
X65337506Y-55561051D01*
X65052366Y-55330149D01*
X65052364Y-55330147D01*
X64744656Y-55130320D01*
X64417739Y-54963746D01*
X64075206Y-54832260D01*
X64075199Y-54832258D01*
X63720794Y-54737295D01*
X63720790Y-54737294D01*
X63720789Y-54737294D01*
X63358405Y-54679898D01*
X62992001Y-54660696D01*
X62991999Y-54660696D01*
X62625594Y-54679898D01*
X62263211Y-54737294D01*
X62263209Y-54737294D01*
X61908793Y-54832260D01*
X61566260Y-54963746D01*
X61239343Y-55130320D01*
X60931635Y-55330147D01*
X60646498Y-55561047D01*
X60646490Y-55561054D01*
X60387054Y-55820490D01*
X60387047Y-55820498D01*
X60156147Y-56105635D01*
X59956320Y-56413343D01*
X59789746Y-56740260D01*
X59658260Y-57082793D01*
X59563294Y-57437209D01*
X59563294Y-57437211D01*
X59505898Y-57799594D01*
X59486696Y-58165999D01*
X50644100Y-58165999D01*
X50644100Y-54390466D01*
X50644365Y-54382356D01*
X50652824Y-54253294D01*
X50658964Y-54159607D01*
X50661079Y-54143553D01*
X50703830Y-53928626D01*
X50708028Y-53912961D01*
X50769949Y-53730548D01*
X50778468Y-53705449D01*
X50784667Y-53690483D01*
X50881595Y-53493933D01*
X50889698Y-53479898D01*
X51011453Y-53297679D01*
X51021310Y-53284833D01*
X51165807Y-53120065D01*
X51177265Y-53108607D01*
X51342033Y-52964110D01*
X51354879Y-52954253D01*
X51537098Y-52832498D01*
X51551133Y-52824395D01*
X51747683Y-52727467D01*
X51762649Y-52721268D01*
X51969545Y-52651037D01*
X51970161Y-52650828D01*
X51985828Y-52646630D01*
X52200753Y-52603879D01*
X52216809Y-52601764D01*
X52421658Y-52588338D01*
X52439558Y-52587165D01*
X52447667Y-52586900D01*
X52483482Y-52586900D01*
X86403718Y-52586900D01*
X86439533Y-52586900D01*
X86447643Y-52587165D01*
G37*
%TD.AperFunction*%
%TD*%
M02*
