%TF.GenerationSoftware,KiCad,Pcbnew,8.0.9-8.0.9-0~ubuntu22.04.1*%
%TF.CreationDate,2025-08-01T23:19:18+09:00*%
%TF.ProjectId,USB2DXL,55534232-4458-44c2-9e6b-696361645f70,rev?*%
%TF.SameCoordinates,Original*%
%TF.FileFunction,Copper,L3,Inr*%
%TF.FilePolarity,Positive*%
%FSLAX46Y46*%
G04 Gerber Fmt 4.6, Leading zero omitted, Abs format (unit mm)*
G04 Created by KiCad (PCBNEW 8.0.9-8.0.9-0~ubuntu22.04.1) date 2025-08-01 23:19:18*
%MOMM*%
%LPD*%
G01*
G04 APERTURE LIST*
G04 Aperture macros list*
%AMRoundRect*
0 Rectangle with rounded corners*
0 $1 Rounding radius*
0 $2 $3 $4 $5 $6 $7 $8 $9 X,Y pos of 4 corners*
0 Add a 4 corners polygon primitive as box body*
4,1,4,$2,$3,$4,$5,$6,$7,$8,$9,$2,$3,0*
0 Add four circle primitives for the rounded corners*
1,1,$1+$1,$2,$3*
1,1,$1+$1,$4,$5*
1,1,$1+$1,$6,$7*
1,1,$1+$1,$8,$9*
0 Add four rect primitives between the rounded corners*
20,1,$1+$1,$2,$3,$4,$5,0*
20,1,$1+$1,$4,$5,$6,$7,0*
20,1,$1+$1,$6,$7,$8,$9,0*
20,1,$1+$1,$8,$9,$2,$3,0*%
G04 Aperture macros list end*
%TA.AperFunction,ComponentPad*%
%ADD10RoundRect,0.250000X0.675000X-0.600000X0.675000X0.600000X-0.675000X0.600000X-0.675000X-0.600000X0*%
%TD*%
%TA.AperFunction,ComponentPad*%
%ADD11O,1.850000X1.700000*%
%TD*%
%TA.AperFunction,ComponentPad*%
%ADD12RoundRect,0.250000X0.725000X-0.600000X0.725000X0.600000X-0.725000X0.600000X-0.725000X-0.600000X0*%
%TD*%
%TA.AperFunction,ComponentPad*%
%ADD13O,1.950000X1.700000*%
%TD*%
%TA.AperFunction,HeatsinkPad*%
%ADD14O,1.000000X2.100000*%
%TD*%
%TA.AperFunction,HeatsinkPad*%
%ADD15O,1.000000X1.600000*%
%TD*%
%TA.AperFunction,ComponentPad*%
%ADD16R,1.600000X1.600000*%
%TD*%
%TA.AperFunction,ComponentPad*%
%ADD17C,1.600000*%
%TD*%
%TA.AperFunction,ComponentPad*%
%ADD18RoundRect,1.500000X-1.500000X-1.500000X1.500000X-1.500000X1.500000X1.500000X-1.500000X1.500000X0*%
%TD*%
%TA.AperFunction,ComponentPad*%
%ADD19C,6.000000*%
%TD*%
%TA.AperFunction,ViaPad*%
%ADD20C,0.500000*%
%TD*%
%TA.AperFunction,ViaPad*%
%ADD21C,0.600000*%
%TD*%
%TA.AperFunction,ViaPad*%
%ADD22C,0.400000*%
%TD*%
%TA.AperFunction,Conductor*%
%ADD23C,0.500000*%
%TD*%
G04 APERTURE END LIST*
D10*
%TO.N,/DATA-*%
%TO.C,J7*%
X108839000Y-79856000D03*
D11*
%TO.N,/DATA+*%
X108839000Y-77356000D03*
%TO.N,+12V*%
X108839000Y-74856000D03*
%TO.N,GNDPWR*%
X108839000Y-72356000D03*
%TD*%
D12*
%TO.N,GND*%
%TO.C,J4*%
X102870000Y-95209000D03*
D13*
%TO.N,+5V*%
X102870000Y-92709000D03*
%TO.N,/TX_pin*%
X102870000Y-90209000D03*
%TO.N,/RXD*%
X102870000Y-87709000D03*
%TD*%
D14*
%TO.N,GND*%
%TO.C,J2*%
X111250000Y-99105000D03*
D15*
X111250000Y-103285000D03*
D14*
X119890000Y-99105000D03*
D15*
X119890000Y-103285000D03*
%TD*%
D13*
%TO.N,/DATA*%
%TO.C,J3*%
X124333000Y-72683000D03*
%TO.N,+12V*%
X124333000Y-75183000D03*
D12*
%TO.N,GNDPWR*%
X124333000Y-77683000D03*
%TD*%
D16*
%TO.N,+12V*%
%TO.C,C10*%
X115030000Y-72222000D03*
D17*
%TO.N,GNDPWR*%
X113030000Y-72222000D03*
%TD*%
D10*
%TO.N,/DATA-*%
%TO.C,J6*%
X102870000Y-79849000D03*
D11*
%TO.N,/DATA+*%
X102870000Y-77349000D03*
%TO.N,+12V*%
X102870000Y-74849000D03*
%TO.N,GNDPWR*%
X102870000Y-72349000D03*
%TD*%
D18*
%TO.N,GNDPWR*%
%TO.C,J1*%
X111760000Y-64770000D03*
D19*
%TO.N,+12V*%
X118960000Y-64770000D03*
%TD*%
D12*
%TO.N,GNDPWR*%
%TO.C,J5*%
X129159000Y-77683000D03*
D13*
%TO.N,+12V*%
X129159000Y-75183000D03*
%TO.N,/DATA*%
X129159000Y-72683000D03*
%TD*%
D20*
%TO.N,GNDPWR*%
X123162000Y-82255000D03*
%TO.N,GND*%
X123317000Y-93304000D03*
X120523000Y-92824000D03*
D21*
%TO.N,+5VP*%
X118868000Y-71460000D03*
%TO.N,GNDPWR*%
X118999000Y-73873000D03*
%TO.N,+5VP*%
X121412000Y-76540000D03*
X116840000Y-76792000D03*
X122202000Y-82255000D03*
X130685000Y-82255000D03*
%TO.N,GNDPWR*%
X128016000Y-80985000D03*
X122301000Y-74635000D03*
X117348000Y-75651000D03*
X107823000Y-61046000D03*
X123190000Y-61300000D03*
X131064000Y-69174000D03*
X122809000Y-69047000D03*
X117348000Y-69047000D03*
X110744000Y-69047000D03*
X105283000Y-68793000D03*
X99949000Y-68793000D03*
X104775000Y-78572000D03*
X99949000Y-82763000D03*
X107061000Y-82890000D03*
X109728000Y-83017000D03*
X125755400Y-81569200D03*
X121793000Y-80858000D03*
X119126000Y-80477000D03*
X120904000Y-88224000D03*
X131572000Y-85684000D03*
X108077000Y-88224000D03*
%TO.N,GND*%
X115824000Y-95336000D03*
X118872000Y-95717000D03*
X131318000Y-101178000D03*
X115697000Y-101432000D03*
X125476000Y-101305000D03*
X125603000Y-105877000D03*
X115697000Y-105877000D03*
X131318000Y-96479000D03*
X126746000Y-95336000D03*
X125095000Y-90510000D03*
X131191000Y-91526000D03*
X106934000Y-90129000D03*
%TO.N,+5VP*%
X109672000Y-88351000D03*
%TO.N,Net-(U4-RO)*%
X117983000Y-87208000D03*
X118411000Y-77876000D03*
%TO.N,/TX*%
X118872000Y-76794000D03*
X124587000Y-84024000D03*
%TO.N,GND*%
X111125000Y-92542000D03*
X113030000Y-95336000D03*
X104648000Y-91018000D03*
X106934000Y-97495000D03*
X106934000Y-105877000D03*
X99949000Y-97368000D03*
X100076000Y-85557000D03*
X105410000Y-85557000D03*
X105410000Y-88097000D03*
X111252000Y-90256000D03*
X117475000Y-90383000D03*
%TO.N,+5V*%
X131572000Y-95082000D03*
X124921000Y-96418000D03*
D22*
X119888000Y-93685000D03*
X119634000Y-95336000D03*
%TO.N,/TX_pin*%
X119888000Y-96352000D03*
%TO.N,/TX_usb*%
X122221000Y-97368000D03*
%TO.N,/TXD*%
X124587000Y-93304000D03*
X123698000Y-97114000D03*
%TO.N,+5V*%
X117348000Y-94574000D03*
X117348000Y-93280000D03*
D21*
%TO.N,/TXNOW*%
X116138205Y-92922553D03*
X116128500Y-90494000D03*
%TO.N,+5V*%
X112522000Y-96987000D03*
X108458000Y-97749000D03*
%TO.N,/DATA-*%
X105918000Y-79849000D03*
%TO.N,/DATA+*%
X105918000Y-77349000D03*
%TO.N,GNDPWR*%
X113538000Y-82255000D03*
X115273500Y-79207000D03*
%TO.N,+5VP*%
X115316000Y-82255000D03*
%TO.N,GNDPWR*%
X112776000Y-75905000D03*
%TO.N,+12V*%
X115443000Y-76794000D03*
X115443000Y-75946000D03*
%TO.N,GND*%
X118820000Y-98190000D03*
X112320000Y-98190000D03*
%TO.N,+5V*%
X113120000Y-98190000D03*
X118020000Y-98190000D03*
D22*
%TO.N,/TX_usb*%
X119253000Y-94066000D03*
%TD*%
D23*
%TO.N,+5VP*%
X109672000Y-88351000D02*
X111252000Y-88351000D01*
X111252000Y-88351000D02*
X115316000Y-84287000D01*
X115316000Y-84287000D02*
X115316000Y-82255000D01*
X122202000Y-82255000D02*
X122837000Y-81620000D01*
X122837000Y-81620000D02*
X124810761Y-81620000D01*
X124810761Y-81620000D02*
X125445761Y-82255000D01*
X125445761Y-82255000D02*
X130685000Y-82255000D01*
X120396000Y-82255000D02*
X122202000Y-82255000D01*
X115316000Y-82255000D02*
X120396000Y-82255000D01*
X120396000Y-82255000D02*
X120396000Y-77556000D01*
X120396000Y-77556000D02*
X121412000Y-76540000D01*
X118868000Y-71460000D02*
X118349000Y-71979000D01*
X118349000Y-71979000D02*
X118349000Y-75602999D01*
X118349000Y-75602999D02*
X117159999Y-76792000D01*
X117159999Y-76792000D02*
X116840000Y-76792000D01*
X116840000Y-76792000D02*
X116840000Y-80731000D01*
X116840000Y-80731000D02*
X115316000Y-82255000D01*
%TD*%
%TA.AperFunction,Conductor*%
%TO.N,+5V*%
G36*
X102132300Y-91412515D02*
G01*
X102226588Y-91460557D01*
X102428757Y-91526246D01*
X102638713Y-91559500D01*
X102638714Y-91559500D01*
X103101286Y-91559500D01*
X103101287Y-91559500D01*
X103311243Y-91526246D01*
X103513412Y-91460557D01*
X103607700Y-91412515D01*
X103663995Y-91399000D01*
X103873458Y-91399000D01*
X103940497Y-91418685D01*
X103978450Y-91457026D01*
X104018184Y-91520262D01*
X104145738Y-91647816D01*
X104298478Y-91743789D01*
X104468745Y-91803368D01*
X104468750Y-91803369D01*
X104647996Y-91823565D01*
X104648000Y-91823565D01*
X104648004Y-91823565D01*
X104827249Y-91803369D01*
X104827252Y-91803368D01*
X104827255Y-91803368D01*
X104997522Y-91743789D01*
X105150262Y-91647816D01*
X105277816Y-91520262D01*
X105317549Y-91457026D01*
X105369882Y-91410737D01*
X105422542Y-91399000D01*
X130261435Y-91399000D01*
X130328474Y-91418685D01*
X130374229Y-91471489D01*
X130384584Y-91519088D01*
X130384655Y-91519081D01*
X130384732Y-91519772D01*
X130385435Y-91523000D01*
X130385435Y-91526003D01*
X130405630Y-91705249D01*
X130405631Y-91705254D01*
X130465211Y-91875523D01*
X130488247Y-91912184D01*
X130561184Y-92028262D01*
X130688738Y-92155816D01*
X130841478Y-92251789D01*
X130958501Y-92292737D01*
X131011745Y-92311368D01*
X131011750Y-92311369D01*
X131190996Y-92331565D01*
X131191000Y-92331565D01*
X131191004Y-92331565D01*
X131370249Y-92311369D01*
X131370252Y-92311368D01*
X131370255Y-92311368D01*
X131540522Y-92251789D01*
X131689529Y-92158161D01*
X131756764Y-92139161D01*
X131823599Y-92159528D01*
X131868814Y-92212796D01*
X131879500Y-92263155D01*
X131879500Y-95662044D01*
X131859815Y-95729083D01*
X131807011Y-95774838D01*
X131737853Y-95784782D01*
X131689528Y-95767038D01*
X131667523Y-95753211D01*
X131497254Y-95693631D01*
X131497249Y-95693630D01*
X131318004Y-95673435D01*
X131317996Y-95673435D01*
X131138750Y-95693630D01*
X131138745Y-95693631D01*
X130968476Y-95753211D01*
X130815737Y-95849184D01*
X130688184Y-95976737D01*
X130592211Y-96129476D01*
X130532631Y-96299745D01*
X130532630Y-96299750D01*
X130512435Y-96478996D01*
X130512435Y-96479003D01*
X130532630Y-96658249D01*
X130532631Y-96658254D01*
X130592211Y-96828523D01*
X130665479Y-96945128D01*
X130688184Y-96981262D01*
X130815738Y-97108816D01*
X130874082Y-97145476D01*
X130959471Y-97199130D01*
X130968478Y-97204789D01*
X131085092Y-97245594D01*
X131138745Y-97264368D01*
X131138750Y-97264369D01*
X131317996Y-97284565D01*
X131318000Y-97284565D01*
X131318004Y-97284565D01*
X131497249Y-97264369D01*
X131497252Y-97264368D01*
X131497255Y-97264368D01*
X131667522Y-97204789D01*
X131689526Y-97190962D01*
X131756762Y-97171961D01*
X131823597Y-97192327D01*
X131868813Y-97245594D01*
X131879500Y-97295955D01*
X131879500Y-99022000D01*
X131859815Y-99089039D01*
X131807011Y-99134794D01*
X131755500Y-99146000D01*
X121014500Y-99146000D01*
X120947461Y-99126315D01*
X120901706Y-99073511D01*
X120890500Y-99022000D01*
X120890500Y-98456456D01*
X120852052Y-98263170D01*
X120852051Y-98263169D01*
X120852051Y-98263165D01*
X120852049Y-98263160D01*
X120776635Y-98081092D01*
X120776628Y-98081079D01*
X120667139Y-97917218D01*
X120667136Y-97917214D01*
X120527785Y-97777863D01*
X120527781Y-97777860D01*
X120363920Y-97668371D01*
X120363907Y-97668364D01*
X120181839Y-97592950D01*
X120181829Y-97592947D01*
X119988543Y-97554500D01*
X119988541Y-97554500D01*
X119791459Y-97554500D01*
X119791457Y-97554500D01*
X119598171Y-97592947D01*
X119598168Y-97592948D01*
X119598166Y-97592948D01*
X119598165Y-97592949D01*
X119560264Y-97608648D01*
X119502785Y-97632456D01*
X119433316Y-97639924D01*
X119370837Y-97608648D01*
X119367653Y-97605575D01*
X119322262Y-97560184D01*
X119169523Y-97464211D01*
X118999254Y-97404631D01*
X118999249Y-97404630D01*
X118820004Y-97384435D01*
X118819996Y-97384435D01*
X118640750Y-97404630D01*
X118640745Y-97404631D01*
X118470476Y-97464211D01*
X118317737Y-97560184D01*
X118190184Y-97687737D01*
X118094211Y-97840476D01*
X118034631Y-98010745D01*
X118034630Y-98010750D01*
X118014435Y-98189996D01*
X118014435Y-98190003D01*
X118034630Y-98369249D01*
X118034631Y-98369254D01*
X118094211Y-98539523D01*
X118190184Y-98692262D01*
X118317738Y-98819816D01*
X118381540Y-98859905D01*
X118472414Y-98917006D01*
X118518705Y-98969341D01*
X118529353Y-99038395D01*
X118500978Y-99102243D01*
X118442588Y-99140615D01*
X118406442Y-99146000D01*
X112733558Y-99146000D01*
X112666519Y-99126315D01*
X112620764Y-99073511D01*
X112610820Y-99004353D01*
X112639845Y-98940797D01*
X112667586Y-98917006D01*
X112721123Y-98883365D01*
X112822262Y-98819816D01*
X112949816Y-98692262D01*
X113045789Y-98539522D01*
X113105368Y-98369255D01*
X113105369Y-98369249D01*
X113125565Y-98190003D01*
X113125565Y-98189996D01*
X113105369Y-98010750D01*
X113105368Y-98010745D01*
X113045788Y-97840476D01*
X112968531Y-97717523D01*
X112949816Y-97687738D01*
X112822262Y-97560184D01*
X112790647Y-97540319D01*
X112669523Y-97464211D01*
X112499254Y-97404631D01*
X112499249Y-97404630D01*
X112320004Y-97384435D01*
X112319996Y-97384435D01*
X112140750Y-97404630D01*
X112140745Y-97404631D01*
X111970476Y-97464211D01*
X111817734Y-97560186D01*
X111772344Y-97605576D01*
X111711021Y-97639060D01*
X111641329Y-97634075D01*
X111637211Y-97632455D01*
X111541835Y-97592949D01*
X111541829Y-97592947D01*
X111348543Y-97554500D01*
X111348541Y-97554500D01*
X111151459Y-97554500D01*
X111151457Y-97554500D01*
X110958170Y-97592947D01*
X110958160Y-97592950D01*
X110776092Y-97668364D01*
X110776079Y-97668371D01*
X110612218Y-97777860D01*
X110612214Y-97777863D01*
X110472863Y-97917214D01*
X110472860Y-97917218D01*
X110363371Y-98081079D01*
X110363364Y-98081092D01*
X110287950Y-98263160D01*
X110287947Y-98263170D01*
X110249500Y-98456456D01*
X110249500Y-99022000D01*
X110229815Y-99089039D01*
X110177011Y-99134794D01*
X110125500Y-99146000D01*
X99384500Y-99146000D01*
X99317461Y-99126315D01*
X99271706Y-99073511D01*
X99260500Y-99022000D01*
X99260500Y-98105155D01*
X99280185Y-98038116D01*
X99332989Y-97992361D01*
X99402147Y-97982417D01*
X99450469Y-98000160D01*
X99510875Y-98038116D01*
X99599475Y-98093788D01*
X99769745Y-98153368D01*
X99769750Y-98153369D01*
X99948996Y-98173565D01*
X99949000Y-98173565D01*
X99949004Y-98173565D01*
X100128249Y-98153369D01*
X100128252Y-98153368D01*
X100128255Y-98153368D01*
X100298522Y-98093789D01*
X100451262Y-97997816D01*
X100578816Y-97870262D01*
X100674789Y-97717522D01*
X100734368Y-97547255D01*
X100734369Y-97547249D01*
X100740256Y-97494996D01*
X106128435Y-97494996D01*
X106128435Y-97495003D01*
X106148630Y-97674249D01*
X106148631Y-97674254D01*
X106208211Y-97844523D01*
X106253886Y-97917214D01*
X106304184Y-97997262D01*
X106431738Y-98124816D01*
X106584478Y-98220789D01*
X106705582Y-98263165D01*
X106754745Y-98280368D01*
X106754750Y-98280369D01*
X106933996Y-98300565D01*
X106934000Y-98300565D01*
X106934004Y-98300565D01*
X107113249Y-98280369D01*
X107113252Y-98280368D01*
X107113255Y-98280368D01*
X107283522Y-98220789D01*
X107436262Y-98124816D01*
X107563816Y-97997262D01*
X107659789Y-97844522D01*
X107719368Y-97674255D01*
X107720031Y-97668371D01*
X107739565Y-97495003D01*
X107739565Y-97494996D01*
X107725256Y-97368000D01*
X121515355Y-97368000D01*
X121535859Y-97536869D01*
X121535860Y-97536874D01*
X121596182Y-97695931D01*
X121649925Y-97773790D01*
X121692817Y-97835929D01*
X121784569Y-97917214D01*
X121820150Y-97948736D01*
X121938308Y-98010750D01*
X121970775Y-98027790D01*
X122135944Y-98068500D01*
X122306056Y-98068500D01*
X122471225Y-98027790D01*
X122557675Y-97982417D01*
X122621849Y-97948736D01*
X122621850Y-97948734D01*
X122621852Y-97948734D01*
X122749183Y-97835929D01*
X122845818Y-97695930D01*
X122904833Y-97540317D01*
X122947009Y-97484616D01*
X123012606Y-97460558D01*
X123080797Y-97475784D01*
X123122823Y-97513848D01*
X123169815Y-97581927D01*
X123297150Y-97694736D01*
X123447773Y-97773789D01*
X123447775Y-97773790D01*
X123612944Y-97814500D01*
X123783056Y-97814500D01*
X123948225Y-97773790D01*
X124055434Y-97717522D01*
X124098849Y-97694736D01*
X124098850Y-97694734D01*
X124098852Y-97694734D01*
X124226183Y-97581929D01*
X124322818Y-97441930D01*
X124383140Y-97282872D01*
X124403645Y-97114000D01*
X124383140Y-96945128D01*
X124378440Y-96932736D01*
X124335658Y-96819927D01*
X124322818Y-96786070D01*
X124226183Y-96646071D01*
X124098852Y-96533266D01*
X124098849Y-96533263D01*
X123948226Y-96454210D01*
X123783056Y-96413500D01*
X123612944Y-96413500D01*
X123447773Y-96454210D01*
X123297150Y-96533263D01*
X123169816Y-96646072D01*
X123073182Y-96786068D01*
X123073182Y-96786069D01*
X123014167Y-96941681D01*
X122971989Y-96997384D01*
X122906392Y-97021441D01*
X122838201Y-97006214D01*
X122796176Y-96968152D01*
X122749183Y-96900071D01*
X122621852Y-96787266D01*
X122621849Y-96787263D01*
X122471226Y-96708210D01*
X122306056Y-96667500D01*
X122135944Y-96667500D01*
X121970773Y-96708210D01*
X121820150Y-96787263D01*
X121692816Y-96900072D01*
X121596182Y-97040068D01*
X121535860Y-97199125D01*
X121535859Y-97199130D01*
X121515355Y-97368000D01*
X107725256Y-97368000D01*
X107719369Y-97315750D01*
X107719368Y-97315745D01*
X107680542Y-97204788D01*
X107659789Y-97145478D01*
X107563816Y-96992738D01*
X107436262Y-96865184D01*
X107283523Y-96769211D01*
X107113254Y-96709631D01*
X107113249Y-96709630D01*
X106934004Y-96689435D01*
X106933996Y-96689435D01*
X106754750Y-96709630D01*
X106754745Y-96709631D01*
X106584476Y-96769211D01*
X106431737Y-96865184D01*
X106304184Y-96992737D01*
X106208211Y-97145476D01*
X106148631Y-97315745D01*
X106148630Y-97315750D01*
X106128435Y-97494996D01*
X100740256Y-97494996D01*
X100754565Y-97368003D01*
X100754565Y-97367996D01*
X100734369Y-97188750D01*
X100734368Y-97188745D01*
X100719228Y-97145478D01*
X100674789Y-97018478D01*
X100658615Y-96992738D01*
X100620912Y-96932734D01*
X100578816Y-96865738D01*
X100451262Y-96738184D01*
X100405822Y-96709632D01*
X100298523Y-96642211D01*
X100128254Y-96582631D01*
X100128249Y-96582630D01*
X99949004Y-96562435D01*
X99948996Y-96562435D01*
X99769750Y-96582630D01*
X99769745Y-96582631D01*
X99599476Y-96642211D01*
X99450472Y-96735838D01*
X99383236Y-96754838D01*
X99316400Y-96734470D01*
X99271186Y-96681203D01*
X99260500Y-96630844D01*
X99260500Y-94558983D01*
X101394500Y-94558983D01*
X101394500Y-95859001D01*
X101394501Y-95859018D01*
X101405000Y-95961796D01*
X101405001Y-95961799D01*
X101460185Y-96128331D01*
X101460187Y-96128336D01*
X101468347Y-96141565D01*
X101552288Y-96277656D01*
X101676344Y-96401712D01*
X101825666Y-96493814D01*
X101992203Y-96548999D01*
X102094991Y-96559500D01*
X103645008Y-96559499D01*
X103747797Y-96548999D01*
X103914334Y-96493814D01*
X104063656Y-96401712D01*
X104187712Y-96277656D01*
X104279814Y-96128334D01*
X104334999Y-95961797D01*
X104345500Y-95859009D01*
X104345500Y-95335996D01*
X112224435Y-95335996D01*
X112224435Y-95336003D01*
X112244630Y-95515249D01*
X112244631Y-95515254D01*
X112304211Y-95685523D01*
X112360332Y-95774838D01*
X112400184Y-95838262D01*
X112527738Y-95965816D01*
X112680478Y-96061789D01*
X112850745Y-96121368D01*
X112850750Y-96121369D01*
X113029996Y-96141565D01*
X113030000Y-96141565D01*
X113030004Y-96141565D01*
X113209249Y-96121369D01*
X113209252Y-96121368D01*
X113209255Y-96121368D01*
X113379522Y-96061789D01*
X113532262Y-95965816D01*
X113659816Y-95838262D01*
X113755789Y-95685522D01*
X113815368Y-95515255D01*
X113815369Y-95515249D01*
X113835565Y-95336003D01*
X113835565Y-95335996D01*
X115018435Y-95335996D01*
X115018435Y-95336003D01*
X115038630Y-95515249D01*
X115038631Y-95515254D01*
X115098211Y-95685523D01*
X115154332Y-95774838D01*
X115194184Y-95838262D01*
X115321738Y-95965816D01*
X115474478Y-96061789D01*
X115644745Y-96121368D01*
X115644750Y-96121369D01*
X115823996Y-96141565D01*
X115824000Y-96141565D01*
X115824004Y-96141565D01*
X116003249Y-96121369D01*
X116003252Y-96121368D01*
X116003255Y-96121368D01*
X116173522Y-96061789D01*
X116326262Y-95965816D01*
X116453816Y-95838262D01*
X116530013Y-95716996D01*
X118066435Y-95716996D01*
X118066435Y-95717003D01*
X118086630Y-95896249D01*
X118086631Y-95896254D01*
X118146211Y-96066523D01*
X118219479Y-96183128D01*
X118242184Y-96219262D01*
X118369738Y-96346816D01*
X118522478Y-96442789D01*
X118625952Y-96478996D01*
X118692745Y-96502368D01*
X118692750Y-96502369D01*
X118871996Y-96522565D01*
X118872000Y-96522565D01*
X118872004Y-96522565D01*
X119051249Y-96502369D01*
X119051250Y-96502368D01*
X119051255Y-96502368D01*
X119064852Y-96497609D01*
X119134630Y-96494047D01*
X119195258Y-96528776D01*
X119221749Y-96570680D01*
X119263182Y-96679930D01*
X119263182Y-96679931D01*
X119324809Y-96769211D01*
X119359817Y-96819929D01*
X119450278Y-96900070D01*
X119487150Y-96932736D01*
X119610327Y-96997384D01*
X119637775Y-97011790D01*
X119802944Y-97052500D01*
X119973056Y-97052500D01*
X120138225Y-97011790D01*
X120221371Y-96968151D01*
X120288849Y-96932736D01*
X120288850Y-96932734D01*
X120288852Y-96932734D01*
X120416183Y-96819929D01*
X120512818Y-96679930D01*
X120573140Y-96520872D01*
X120593645Y-96352000D01*
X120573140Y-96183128D01*
X120552358Y-96128331D01*
X120512817Y-96024068D01*
X120432991Y-95908422D01*
X120416183Y-95884071D01*
X120321316Y-95800026D01*
X120288849Y-95771263D01*
X120138226Y-95692210D01*
X119973056Y-95651500D01*
X119802944Y-95651500D01*
X119802940Y-95651500D01*
X119796136Y-95652326D01*
X119727213Y-95640864D01*
X119675428Y-95593959D01*
X119657972Y-95543108D01*
X119657368Y-95537745D01*
X119597789Y-95367478D01*
X119578008Y-95335996D01*
X125940435Y-95335996D01*
X125940435Y-95336003D01*
X125960630Y-95515249D01*
X125960631Y-95515254D01*
X126020211Y-95685523D01*
X126076332Y-95774838D01*
X126116184Y-95838262D01*
X126243738Y-95965816D01*
X126396478Y-96061789D01*
X126566745Y-96121368D01*
X126566750Y-96121369D01*
X126745996Y-96141565D01*
X126746000Y-96141565D01*
X126746004Y-96141565D01*
X126925249Y-96121369D01*
X126925252Y-96121368D01*
X126925255Y-96121368D01*
X127095522Y-96061789D01*
X127248262Y-95965816D01*
X127375816Y-95838262D01*
X127471789Y-95685522D01*
X127531368Y-95515255D01*
X127531369Y-95515249D01*
X127551565Y-95336003D01*
X127551565Y-95335996D01*
X127531369Y-95156750D01*
X127531368Y-95156745D01*
X127471789Y-94986478D01*
X127375816Y-94833738D01*
X127248262Y-94706184D01*
X127204547Y-94678716D01*
X127095523Y-94610211D01*
X126925254Y-94550631D01*
X126925249Y-94550630D01*
X126746004Y-94530435D01*
X126745996Y-94530435D01*
X126566750Y-94550630D01*
X126566745Y-94550631D01*
X126396476Y-94610211D01*
X126243737Y-94706184D01*
X126116184Y-94833737D01*
X126020211Y-94986476D01*
X125960631Y-95156745D01*
X125960630Y-95156750D01*
X125940435Y-95335996D01*
X119578008Y-95335996D01*
X119501816Y-95214738D01*
X119374262Y-95087184D01*
X119228339Y-94995494D01*
X119182048Y-94943159D01*
X119171400Y-94874105D01*
X119199775Y-94810257D01*
X119258165Y-94771885D01*
X119294311Y-94766500D01*
X119338056Y-94766500D01*
X119503225Y-94725790D01*
X119592916Y-94678716D01*
X119653849Y-94646736D01*
X119653850Y-94646734D01*
X119653852Y-94646734D01*
X119781183Y-94533929D01*
X119877818Y-94393930D01*
X119938140Y-94234872D01*
X119958645Y-94066000D01*
X119938140Y-93897128D01*
X119933440Y-93884736D01*
X119891782Y-93774890D01*
X119877818Y-93738070D01*
X119781183Y-93598071D01*
X119653852Y-93485266D01*
X119653849Y-93485263D01*
X119503226Y-93406210D01*
X119338056Y-93365500D01*
X119167944Y-93365500D01*
X119002773Y-93406210D01*
X118852150Y-93485263D01*
X118724816Y-93598072D01*
X118628182Y-93738068D01*
X118567860Y-93897125D01*
X118567859Y-93897130D01*
X118547355Y-94066000D01*
X118567859Y-94234869D01*
X118567860Y-94234874D01*
X118628182Y-94393931D01*
X118671164Y-94456200D01*
X118724817Y-94533929D01*
X118852148Y-94646734D01*
X118913086Y-94678717D01*
X118963298Y-94727301D01*
X118979273Y-94795320D01*
X118955938Y-94861178D01*
X118900702Y-94903965D01*
X118869344Y-94911733D01*
X118692749Y-94931630D01*
X118692745Y-94931631D01*
X118522476Y-94991211D01*
X118369737Y-95087184D01*
X118242184Y-95214737D01*
X118146211Y-95367476D01*
X118086631Y-95537745D01*
X118086630Y-95537750D01*
X118066435Y-95716996D01*
X116530013Y-95716996D01*
X116549789Y-95685522D01*
X116609368Y-95515255D01*
X116609369Y-95515249D01*
X116629565Y-95336003D01*
X116629565Y-95335996D01*
X116609369Y-95156750D01*
X116609368Y-95156745D01*
X116549789Y-94986478D01*
X116453816Y-94833738D01*
X116326262Y-94706184D01*
X116282547Y-94678716D01*
X116173523Y-94610211D01*
X116003254Y-94550631D01*
X116003249Y-94550630D01*
X115824004Y-94530435D01*
X115823996Y-94530435D01*
X115644750Y-94550630D01*
X115644745Y-94550631D01*
X115474476Y-94610211D01*
X115321737Y-94706184D01*
X115194184Y-94833737D01*
X115098211Y-94986476D01*
X115038631Y-95156745D01*
X115038630Y-95156750D01*
X115018435Y-95335996D01*
X113835565Y-95335996D01*
X113815369Y-95156750D01*
X113815368Y-95156745D01*
X113755789Y-94986478D01*
X113659816Y-94833738D01*
X113532262Y-94706184D01*
X113488547Y-94678716D01*
X113379523Y-94610211D01*
X113209254Y-94550631D01*
X113209249Y-94550630D01*
X113030004Y-94530435D01*
X113029996Y-94530435D01*
X112850750Y-94550630D01*
X112850745Y-94550631D01*
X112680476Y-94610211D01*
X112527737Y-94706184D01*
X112400184Y-94833737D01*
X112304211Y-94986476D01*
X112244631Y-95156745D01*
X112244630Y-95156750D01*
X112224435Y-95335996D01*
X104345500Y-95335996D01*
X104345499Y-94558992D01*
X104334999Y-94456203D01*
X104279814Y-94289666D01*
X104187712Y-94140344D01*
X104063656Y-94016288D01*
X103914334Y-93924186D01*
X103747797Y-93869001D01*
X103747795Y-93869000D01*
X103645010Y-93858500D01*
X102094998Y-93858500D01*
X102094981Y-93858501D01*
X101992203Y-93869000D01*
X101992200Y-93869001D01*
X101825668Y-93924185D01*
X101825663Y-93924187D01*
X101676342Y-94016289D01*
X101552289Y-94140342D01*
X101460187Y-94289663D01*
X101460186Y-94289666D01*
X101405001Y-94456203D01*
X101405001Y-94456204D01*
X101405000Y-94456204D01*
X101394500Y-94558983D01*
X99260500Y-94558983D01*
X99260500Y-92541996D01*
X110319435Y-92541996D01*
X110319435Y-92542003D01*
X110339630Y-92721249D01*
X110339631Y-92721254D01*
X110399211Y-92891523D01*
X110495184Y-93044262D01*
X110622738Y-93171816D01*
X110775478Y-93267789D01*
X110878955Y-93303997D01*
X110945745Y-93327368D01*
X110945750Y-93327369D01*
X111124996Y-93347565D01*
X111125000Y-93347565D01*
X111125004Y-93347565D01*
X111304249Y-93327369D01*
X111304252Y-93327368D01*
X111304255Y-93327368D01*
X111474522Y-93267789D01*
X111627262Y-93171816D01*
X111754816Y-93044262D01*
X111831293Y-92922549D01*
X115332640Y-92922549D01*
X115332640Y-92922556D01*
X115352835Y-93101802D01*
X115352836Y-93101807D01*
X115412416Y-93272076D01*
X115471119Y-93365500D01*
X115508389Y-93424815D01*
X115635943Y-93552369D01*
X115708677Y-93598071D01*
X115762192Y-93631697D01*
X115788683Y-93648342D01*
X115817902Y-93658566D01*
X115958950Y-93707921D01*
X115958955Y-93707922D01*
X116138201Y-93728118D01*
X116138205Y-93728118D01*
X116138209Y-93728118D01*
X116317454Y-93707922D01*
X116317457Y-93707921D01*
X116317460Y-93707921D01*
X116487727Y-93648342D01*
X116640467Y-93552369D01*
X116768021Y-93424815D01*
X116863994Y-93272075D01*
X116923573Y-93101808D01*
X116937740Y-92976070D01*
X116943770Y-92922556D01*
X116943770Y-92922549D01*
X116932666Y-92823997D01*
X119767751Y-92823997D01*
X119767751Y-92824002D01*
X119786685Y-92992056D01*
X119842545Y-93151694D01*
X119842547Y-93151697D01*
X119932518Y-93294884D01*
X119932523Y-93294890D01*
X120052109Y-93414476D01*
X120052115Y-93414481D01*
X120195302Y-93504452D01*
X120195305Y-93504454D01*
X120195309Y-93504455D01*
X120195310Y-93504456D01*
X120267913Y-93529860D01*
X120354943Y-93560314D01*
X120522997Y-93579249D01*
X120523000Y-93579249D01*
X120523003Y-93579249D01*
X120691056Y-93560314D01*
X120691059Y-93560313D01*
X120850690Y-93504456D01*
X120850692Y-93504454D01*
X120850694Y-93504454D01*
X120850697Y-93504452D01*
X120993884Y-93414481D01*
X120993885Y-93414480D01*
X120993890Y-93414477D01*
X121104370Y-93303997D01*
X122561751Y-93303997D01*
X122561751Y-93304002D01*
X122580685Y-93472056D01*
X122636545Y-93631694D01*
X122636547Y-93631697D01*
X122726518Y-93774884D01*
X122726523Y-93774890D01*
X122846109Y-93894476D01*
X122846115Y-93894481D01*
X122989302Y-93984452D01*
X122989305Y-93984454D01*
X122989309Y-93984455D01*
X122989310Y-93984456D01*
X123046593Y-94004500D01*
X123148943Y-94040314D01*
X123316997Y-94059249D01*
X123317000Y-94059249D01*
X123317003Y-94059249D01*
X123485056Y-94040314D01*
X123485059Y-94040313D01*
X123644690Y-93984456D01*
X123644692Y-93984454D01*
X123644694Y-93984454D01*
X123644697Y-93984452D01*
X123787884Y-93894481D01*
X123787884Y-93894480D01*
X123787890Y-93894477D01*
X123897605Y-93784761D01*
X123958924Y-93751279D01*
X124028616Y-93756263D01*
X124067510Y-93779630D01*
X124186147Y-93884733D01*
X124186149Y-93884735D01*
X124336773Y-93963789D01*
X124336775Y-93963790D01*
X124501944Y-94004500D01*
X124672056Y-94004500D01*
X124837225Y-93963790D01*
X124964234Y-93897130D01*
X124987849Y-93884736D01*
X124987850Y-93884734D01*
X124987852Y-93884734D01*
X125115183Y-93771929D01*
X125211818Y-93631930D01*
X125272140Y-93472872D01*
X125292645Y-93304000D01*
X125272140Y-93135128D01*
X125211818Y-92976070D01*
X125115183Y-92836071D01*
X124987852Y-92723266D01*
X124987849Y-92723263D01*
X124837226Y-92644210D01*
X124672056Y-92603500D01*
X124501944Y-92603500D01*
X124336773Y-92644210D01*
X124186150Y-92723263D01*
X124090621Y-92807894D01*
X124072443Y-92824000D01*
X124067510Y-92828370D01*
X124004277Y-92858091D01*
X123935013Y-92848907D01*
X123897602Y-92823235D01*
X123787890Y-92713523D01*
X123787884Y-92713518D01*
X123644697Y-92623547D01*
X123644694Y-92623545D01*
X123485056Y-92567685D01*
X123317003Y-92548751D01*
X123316997Y-92548751D01*
X123148943Y-92567685D01*
X122989305Y-92623545D01*
X122989302Y-92623547D01*
X122846115Y-92713518D01*
X122846109Y-92713523D01*
X122726523Y-92833109D01*
X122726518Y-92833115D01*
X122636547Y-92976302D01*
X122636545Y-92976305D01*
X122580685Y-93135943D01*
X122561751Y-93303997D01*
X121104370Y-93303997D01*
X121113477Y-93294890D01*
X121130506Y-93267789D01*
X121203452Y-93151697D01*
X121203454Y-93151694D01*
X121203454Y-93151692D01*
X121203456Y-93151690D01*
X121259313Y-92992059D01*
X121259313Y-92992058D01*
X121259314Y-92992056D01*
X121278249Y-92824002D01*
X121278249Y-92823997D01*
X121259314Y-92655943D01*
X121221806Y-92548751D01*
X121203456Y-92496310D01*
X121203455Y-92496309D01*
X121203454Y-92496305D01*
X121203452Y-92496302D01*
X121113481Y-92353115D01*
X121113476Y-92353109D01*
X120993890Y-92233523D01*
X120993884Y-92233518D01*
X120850697Y-92143547D01*
X120850694Y-92143545D01*
X120691056Y-92087685D01*
X120523003Y-92068751D01*
X120522997Y-92068751D01*
X120354943Y-92087685D01*
X120195305Y-92143545D01*
X120195302Y-92143547D01*
X120052115Y-92233518D01*
X120052109Y-92233523D01*
X119932523Y-92353109D01*
X119932518Y-92353115D01*
X119842547Y-92496302D01*
X119842545Y-92496305D01*
X119786685Y-92655943D01*
X119767751Y-92823997D01*
X116932666Y-92823997D01*
X116923574Y-92743303D01*
X116923573Y-92743298D01*
X116863994Y-92573031D01*
X116844493Y-92541996D01*
X116768020Y-92420290D01*
X116640467Y-92292737D01*
X116487728Y-92196764D01*
X116317459Y-92137184D01*
X116317454Y-92137183D01*
X116138209Y-92116988D01*
X116138201Y-92116988D01*
X115958955Y-92137183D01*
X115958950Y-92137184D01*
X115788681Y-92196764D01*
X115635942Y-92292737D01*
X115508389Y-92420290D01*
X115412416Y-92573029D01*
X115352836Y-92743298D01*
X115352835Y-92743303D01*
X115332640Y-92922549D01*
X111831293Y-92922549D01*
X111850789Y-92891522D01*
X111910368Y-92721255D01*
X111910369Y-92721249D01*
X111930565Y-92542003D01*
X111930565Y-92541996D01*
X111910369Y-92362750D01*
X111910368Y-92362745D01*
X111865151Y-92233523D01*
X111850789Y-92192478D01*
X111754816Y-92039738D01*
X111627262Y-91912184D01*
X111474523Y-91816211D01*
X111304254Y-91756631D01*
X111304249Y-91756630D01*
X111125004Y-91736435D01*
X111124996Y-91736435D01*
X110945750Y-91756630D01*
X110945745Y-91756631D01*
X110775476Y-91816211D01*
X110622737Y-91912184D01*
X110495184Y-92039737D01*
X110399211Y-92192476D01*
X110339631Y-92362745D01*
X110339630Y-92362750D01*
X110319435Y-92541996D01*
X99260500Y-92541996D01*
X99260500Y-91523000D01*
X99280185Y-91455961D01*
X99332989Y-91410206D01*
X99384500Y-91399000D01*
X102076005Y-91399000D01*
X102132300Y-91412515D01*
G37*
%TD.AperFunction*%
%TD*%
%TA.AperFunction,Conductor*%
%TO.N,+12V*%
G36*
X123738685Y-60250185D02*
G01*
X123784440Y-60302989D01*
X123789747Y-60316708D01*
X123852343Y-60512323D01*
X123854026Y-60582173D01*
X123817679Y-60641844D01*
X123754842Y-60672392D01*
X123685464Y-60664118D01*
X123668270Y-60655109D01*
X123539523Y-60574211D01*
X123369254Y-60514631D01*
X123369249Y-60514630D01*
X123190004Y-60494435D01*
X123189996Y-60494435D01*
X123010750Y-60514630D01*
X123010745Y-60514631D01*
X122840476Y-60574211D01*
X122687737Y-60670184D01*
X122560184Y-60797737D01*
X122464211Y-60950476D01*
X122404631Y-61120745D01*
X122404630Y-61120750D01*
X122384435Y-61299996D01*
X122384435Y-61300003D01*
X122404630Y-61479249D01*
X122404631Y-61479254D01*
X122464211Y-61649523D01*
X122560184Y-61802262D01*
X122687738Y-61929816D01*
X122840478Y-62025789D01*
X123010745Y-62085368D01*
X123010750Y-62085369D01*
X123189996Y-62105565D01*
X123190000Y-62105565D01*
X123190004Y-62105565D01*
X123369249Y-62085369D01*
X123369252Y-62085368D01*
X123369255Y-62085368D01*
X123539522Y-62025789D01*
X123692262Y-61929816D01*
X123819816Y-61802262D01*
X123915789Y-61649522D01*
X123950433Y-61550512D01*
X123991155Y-61493738D01*
X124056107Y-61467990D01*
X124124669Y-61481446D01*
X124175072Y-61529833D01*
X124185576Y-61553676D01*
X127684265Y-72487080D01*
X127688638Y-72544267D01*
X127683500Y-72576711D01*
X127683500Y-72576713D01*
X127683500Y-72789287D01*
X127716754Y-72999243D01*
X127745473Y-73087632D01*
X127782444Y-73201414D01*
X127878951Y-73390820D01*
X128003890Y-73562786D01*
X128154213Y-73713109D01*
X128326179Y-73838048D01*
X128326181Y-73838049D01*
X128326184Y-73838051D01*
X128515588Y-73934557D01*
X128717757Y-74000246D01*
X128927713Y-74033500D01*
X128927714Y-74033500D01*
X129390286Y-74033500D01*
X129390287Y-74033500D01*
X129500111Y-74016105D01*
X129605055Y-73999484D01*
X129605370Y-74001477D01*
X129666644Y-74004507D01*
X129694657Y-74018438D01*
X130373784Y-74471189D01*
X130418644Y-74524753D01*
X130429000Y-74574362D01*
X130429000Y-76289000D01*
X130409315Y-76356039D01*
X130356511Y-76401794D01*
X130305000Y-76413000D01*
X130262518Y-76413000D01*
X130211197Y-76398420D01*
X130209883Y-76401240D01*
X130203332Y-76398185D01*
X130119329Y-76370349D01*
X130036797Y-76343001D01*
X130036795Y-76343000D01*
X129934010Y-76332500D01*
X128383998Y-76332500D01*
X128383981Y-76332501D01*
X128281203Y-76343000D01*
X128281200Y-76343001D01*
X128114667Y-76398185D01*
X128108117Y-76401240D01*
X128106802Y-76398420D01*
X128055482Y-76413000D01*
X125436518Y-76413000D01*
X125385197Y-76398420D01*
X125383883Y-76401240D01*
X125377332Y-76398185D01*
X125293329Y-76370349D01*
X125210797Y-76343001D01*
X125210795Y-76343000D01*
X125108010Y-76332500D01*
X123557998Y-76332500D01*
X123557981Y-76332501D01*
X123455203Y-76343000D01*
X123455200Y-76343001D01*
X123288667Y-76398185D01*
X123282117Y-76401240D01*
X123280802Y-76398420D01*
X123229482Y-76413000D01*
X122784012Y-76413000D01*
X122716973Y-76393315D01*
X122671218Y-76340511D01*
X122662338Y-76312903D01*
X122507296Y-75523599D01*
X122513690Y-75454026D01*
X122556685Y-75398951D01*
X122588014Y-75382661D01*
X122650522Y-75360789D01*
X122803262Y-75264816D01*
X122930816Y-75137262D01*
X123026789Y-74984522D01*
X123086368Y-74814255D01*
X123086369Y-74814249D01*
X123106565Y-74635003D01*
X123106565Y-74634996D01*
X123086369Y-74455750D01*
X123086368Y-74455745D01*
X123026788Y-74285476D01*
X122930815Y-74132737D01*
X122803262Y-74005184D01*
X122650523Y-73909211D01*
X122480254Y-73849631D01*
X122480249Y-73849630D01*
X122301004Y-73829435D01*
X122301003Y-73829435D01*
X122301001Y-73829435D01*
X122301000Y-73829435D01*
X122290785Y-73830585D01*
X122221965Y-73818530D01*
X122170586Y-73771180D01*
X122155231Y-73731268D01*
X121928443Y-72576713D01*
X122857500Y-72576713D01*
X122857500Y-72789287D01*
X122890754Y-72999243D01*
X122919473Y-73087632D01*
X122956444Y-73201414D01*
X123052951Y-73390820D01*
X123177890Y-73562786D01*
X123328213Y-73713109D01*
X123500179Y-73838048D01*
X123500181Y-73838049D01*
X123500184Y-73838051D01*
X123689588Y-73934557D01*
X123891757Y-74000246D01*
X124101713Y-74033500D01*
X124101714Y-74033500D01*
X124564286Y-74033500D01*
X124564287Y-74033500D01*
X124774243Y-74000246D01*
X124976412Y-73934557D01*
X125165816Y-73838051D01*
X125257857Y-73771180D01*
X125337786Y-73713109D01*
X125337788Y-73713106D01*
X125337792Y-73713104D01*
X125488104Y-73562792D01*
X125488106Y-73562788D01*
X125488109Y-73562786D01*
X125613048Y-73390820D01*
X125613047Y-73390820D01*
X125613051Y-73390816D01*
X125709557Y-73201412D01*
X125775246Y-72999243D01*
X125808500Y-72789287D01*
X125808500Y-72576713D01*
X125775246Y-72366757D01*
X125709557Y-72164588D01*
X125613051Y-71975184D01*
X125613049Y-71975181D01*
X125613048Y-71975179D01*
X125488109Y-71803213D01*
X125337786Y-71652890D01*
X125165820Y-71527951D01*
X124976414Y-71431444D01*
X124976413Y-71431443D01*
X124976412Y-71431443D01*
X124774243Y-71365754D01*
X124774241Y-71365753D01*
X124774240Y-71365753D01*
X124612957Y-71340208D01*
X124564287Y-71332500D01*
X124101713Y-71332500D01*
X124053042Y-71340208D01*
X123891760Y-71365753D01*
X123689585Y-71431444D01*
X123500179Y-71527951D01*
X123328213Y-71652890D01*
X123177890Y-71803213D01*
X123052951Y-71975179D01*
X122956444Y-72164585D01*
X122890753Y-72366760D01*
X122862639Y-72544267D01*
X122857500Y-72576713D01*
X121928443Y-72576713D01*
X121285000Y-69301000D01*
X121284999Y-69301000D01*
X119379999Y-69301000D01*
X116332000Y-72983998D01*
X116332000Y-76116560D01*
X116312315Y-76183599D01*
X116295681Y-76204241D01*
X116210184Y-76289737D01*
X116114211Y-76442476D01*
X116054631Y-76612745D01*
X116054630Y-76612750D01*
X116034435Y-76791996D01*
X116034435Y-76792003D01*
X116054630Y-76971249D01*
X116054632Y-76971257D01*
X116068205Y-77010046D01*
X116071766Y-77079825D01*
X116037037Y-77140452D01*
X115975044Y-77172679D01*
X115951163Y-77175000D01*
X113662000Y-77175000D01*
X113594961Y-77155315D01*
X113549206Y-77102511D01*
X113538000Y-77051000D01*
X113538000Y-76172103D01*
X113544959Y-76131148D01*
X113561369Y-76084251D01*
X113581565Y-75905003D01*
X113581565Y-75904996D01*
X113561369Y-75725750D01*
X113561368Y-75725745D01*
X113544282Y-75676917D01*
X113501789Y-75555478D01*
X113405816Y-75402738D01*
X113278262Y-75275184D01*
X113125523Y-75179211D01*
X112955254Y-75119631D01*
X112955249Y-75119630D01*
X112776004Y-75099435D01*
X112775996Y-75099435D01*
X112596750Y-75119630D01*
X112596745Y-75119631D01*
X112426476Y-75179211D01*
X112273737Y-75275184D01*
X112146184Y-75402737D01*
X112050211Y-75555476D01*
X111990631Y-75725745D01*
X111990630Y-75725750D01*
X111970435Y-75904996D01*
X111970435Y-75908000D01*
X111969885Y-75909870D01*
X111969655Y-75911919D01*
X111969296Y-75911878D01*
X111950750Y-75975039D01*
X111897946Y-76020794D01*
X111846435Y-76032000D01*
X109197357Y-76032000D01*
X109177959Y-76030473D01*
X109020287Y-76005500D01*
X108657713Y-76005500D01*
X108500041Y-76030473D01*
X108480643Y-76032000D01*
X103272555Y-76032000D01*
X103253157Y-76030473D01*
X103095483Y-76005500D01*
X103051287Y-75998500D01*
X102688713Y-75998500D01*
X102644517Y-76005500D01*
X102486843Y-76030473D01*
X102467445Y-76032000D01*
X101851000Y-76032000D01*
X101783961Y-76012315D01*
X101738206Y-75959511D01*
X101727000Y-75908000D01*
X101727000Y-74447617D01*
X101746685Y-74380578D01*
X101782547Y-74344224D01*
X102725224Y-73720107D01*
X102791989Y-73699511D01*
X102793677Y-73699500D01*
X103051286Y-73699500D01*
X103051287Y-73699500D01*
X103261243Y-73666246D01*
X103463412Y-73600557D01*
X103652816Y-73504051D01*
X103674789Y-73488086D01*
X103824786Y-73379109D01*
X103824788Y-73379106D01*
X103824792Y-73379104D01*
X103975104Y-73228792D01*
X103975106Y-73228788D01*
X103975109Y-73228786D01*
X104100048Y-73056820D01*
X104100047Y-73056820D01*
X104100051Y-73056816D01*
X104196557Y-72867412D01*
X104233449Y-72753869D01*
X104272882Y-72696200D01*
X104282896Y-72688820D01*
X104946131Y-72249713D01*
X107413500Y-72249713D01*
X107413500Y-72462286D01*
X107446160Y-72668497D01*
X107446754Y-72672243D01*
X107510169Y-72867414D01*
X107512444Y-72874414D01*
X107608951Y-73063820D01*
X107733890Y-73235786D01*
X107884213Y-73386109D01*
X108056179Y-73511048D01*
X108056181Y-73511049D01*
X108056184Y-73511051D01*
X108245588Y-73607557D01*
X108447757Y-73673246D01*
X108657713Y-73706500D01*
X108657714Y-73706500D01*
X109020286Y-73706500D01*
X109020287Y-73706500D01*
X109230243Y-73673246D01*
X109432412Y-73607557D01*
X109621816Y-73511051D01*
X109707583Y-73448738D01*
X109793786Y-73386109D01*
X109793788Y-73386106D01*
X109793792Y-73386104D01*
X109944104Y-73235792D01*
X109944106Y-73235788D01*
X109944109Y-73235786D01*
X110069048Y-73063820D01*
X110069047Y-73063820D01*
X110069051Y-73063816D01*
X110165557Y-72874412D01*
X110231246Y-72672243D01*
X110264500Y-72462287D01*
X110264500Y-72249713D01*
X110260110Y-72221998D01*
X111724532Y-72221998D01*
X111724532Y-72222001D01*
X111744364Y-72448686D01*
X111744366Y-72448697D01*
X111803258Y-72668488D01*
X111803261Y-72668497D01*
X111899431Y-72874732D01*
X111899432Y-72874734D01*
X112029954Y-73061141D01*
X112190858Y-73222045D01*
X112210491Y-73235792D01*
X112377266Y-73352568D01*
X112583504Y-73448739D01*
X112803308Y-73507635D01*
X112965230Y-73521801D01*
X113029998Y-73527468D01*
X113030000Y-73527468D01*
X113030002Y-73527468D01*
X113086673Y-73522509D01*
X113256692Y-73507635D01*
X113476496Y-73448739D01*
X113682734Y-73352568D01*
X113869139Y-73222047D01*
X114030047Y-73061139D01*
X114160568Y-72874734D01*
X114256739Y-72668496D01*
X114315635Y-72448692D01*
X114335468Y-72222000D01*
X114332956Y-72193293D01*
X114319524Y-72039760D01*
X114315635Y-71995308D01*
X114256739Y-71775504D01*
X114160568Y-71569266D01*
X114030047Y-71382861D01*
X114030045Y-71382858D01*
X113869141Y-71221954D01*
X113682734Y-71091432D01*
X113682732Y-71091431D01*
X113476497Y-70995261D01*
X113476488Y-70995258D01*
X113256697Y-70936366D01*
X113256693Y-70936365D01*
X113256692Y-70936365D01*
X113256691Y-70936364D01*
X113256686Y-70936364D01*
X113030002Y-70916532D01*
X113029998Y-70916532D01*
X112803313Y-70936364D01*
X112803302Y-70936366D01*
X112583511Y-70995258D01*
X112583502Y-70995261D01*
X112377267Y-71091431D01*
X112377265Y-71091432D01*
X112190858Y-71221954D01*
X112029954Y-71382858D01*
X111899432Y-71569265D01*
X111899431Y-71569267D01*
X111803261Y-71775502D01*
X111803258Y-71775511D01*
X111744366Y-71995302D01*
X111744364Y-71995313D01*
X111724532Y-72221998D01*
X110260110Y-72221998D01*
X110231246Y-72039757D01*
X110165557Y-71837588D01*
X110069051Y-71648184D01*
X110069049Y-71648181D01*
X110069048Y-71648179D01*
X109944109Y-71476213D01*
X109793786Y-71325890D01*
X109621820Y-71200951D01*
X109432414Y-71104444D01*
X109432413Y-71104443D01*
X109432412Y-71104443D01*
X109230243Y-71038754D01*
X109230241Y-71038753D01*
X109230240Y-71038753D01*
X109068957Y-71013208D01*
X109020287Y-71005500D01*
X108657713Y-71005500D01*
X108609042Y-71013208D01*
X108447760Y-71038753D01*
X108245585Y-71104444D01*
X108056179Y-71200951D01*
X107884213Y-71325890D01*
X107733890Y-71476213D01*
X107608951Y-71648179D01*
X107512444Y-71837585D01*
X107446753Y-72039760D01*
X107413500Y-72249713D01*
X104946131Y-72249713D01*
X109758703Y-69063458D01*
X109825466Y-69042863D01*
X109892767Y-69061634D01*
X109939237Y-69113810D01*
X109950374Y-69152968D01*
X109958630Y-69226250D01*
X109958631Y-69226254D01*
X110018211Y-69396523D01*
X110098010Y-69523522D01*
X110114184Y-69549262D01*
X110241738Y-69676816D01*
X110394478Y-69772789D01*
X110483148Y-69803816D01*
X110564745Y-69832368D01*
X110564750Y-69832369D01*
X110743996Y-69852565D01*
X110744000Y-69852565D01*
X110744004Y-69852565D01*
X110923249Y-69832369D01*
X110923252Y-69832368D01*
X110923255Y-69832368D01*
X111093522Y-69772789D01*
X111246262Y-69676816D01*
X111373816Y-69549262D01*
X111469789Y-69396522D01*
X111529368Y-69226255D01*
X111535256Y-69174000D01*
X111549565Y-69047003D01*
X111549565Y-69046996D01*
X116542435Y-69046996D01*
X116542435Y-69047003D01*
X116562630Y-69226249D01*
X116562631Y-69226254D01*
X116622211Y-69396523D01*
X116702010Y-69523522D01*
X116718184Y-69549262D01*
X116845738Y-69676816D01*
X116998478Y-69772789D01*
X117087148Y-69803816D01*
X117168745Y-69832368D01*
X117168750Y-69832369D01*
X117347996Y-69852565D01*
X117348000Y-69852565D01*
X117348004Y-69852565D01*
X117527249Y-69832369D01*
X117527252Y-69832368D01*
X117527255Y-69832368D01*
X117697522Y-69772789D01*
X117850262Y-69676816D01*
X117977816Y-69549262D01*
X118073789Y-69396522D01*
X118133368Y-69226255D01*
X118139256Y-69174000D01*
X118153565Y-69047003D01*
X118153565Y-69046996D01*
X122003435Y-69046996D01*
X122003435Y-69047003D01*
X122023630Y-69226249D01*
X122023631Y-69226254D01*
X122083211Y-69396523D01*
X122163010Y-69523522D01*
X122179184Y-69549262D01*
X122306738Y-69676816D01*
X122459478Y-69772789D01*
X122548148Y-69803816D01*
X122629745Y-69832368D01*
X122629750Y-69832369D01*
X122808996Y-69852565D01*
X122809000Y-69852565D01*
X122809004Y-69852565D01*
X122988249Y-69832369D01*
X122988252Y-69832368D01*
X122988255Y-69832368D01*
X123158522Y-69772789D01*
X123311262Y-69676816D01*
X123438816Y-69549262D01*
X123534789Y-69396522D01*
X123594368Y-69226255D01*
X123600256Y-69174000D01*
X123614565Y-69047003D01*
X123614565Y-69046996D01*
X123594369Y-68867750D01*
X123594368Y-68867745D01*
X123579228Y-68824478D01*
X123534789Y-68697478D01*
X123518615Y-68671738D01*
X123438815Y-68544737D01*
X123311262Y-68417184D01*
X123158523Y-68321211D01*
X122988254Y-68261631D01*
X122988249Y-68261630D01*
X122809004Y-68241435D01*
X122808996Y-68241435D01*
X122629750Y-68261630D01*
X122629745Y-68261631D01*
X122459476Y-68321211D01*
X122306737Y-68417184D01*
X122179184Y-68544737D01*
X122083211Y-68697476D01*
X122023631Y-68867745D01*
X122023630Y-68867750D01*
X122003435Y-69046996D01*
X118153565Y-69046996D01*
X118133369Y-68867750D01*
X118133368Y-68867745D01*
X118118228Y-68824478D01*
X118073789Y-68697478D01*
X118057615Y-68671738D01*
X117977815Y-68544737D01*
X117850262Y-68417184D01*
X117697523Y-68321211D01*
X117527254Y-68261631D01*
X117527249Y-68261630D01*
X117348004Y-68241435D01*
X117347996Y-68241435D01*
X117168750Y-68261630D01*
X117168745Y-68261631D01*
X116998476Y-68321211D01*
X116845737Y-68417184D01*
X116718184Y-68544737D01*
X116622211Y-68697476D01*
X116562631Y-68867745D01*
X116562630Y-68867750D01*
X116542435Y-69046996D01*
X111549565Y-69046996D01*
X111529369Y-68867750D01*
X111529368Y-68867745D01*
X111514228Y-68824478D01*
X111469789Y-68697478D01*
X111453615Y-68671738D01*
X111373815Y-68544737D01*
X111311259Y-68482181D01*
X111277774Y-68420858D01*
X111282758Y-68351166D01*
X111324630Y-68295233D01*
X111390094Y-68270816D01*
X111398940Y-68270500D01*
X113331448Y-68270500D01*
X113545428Y-68255196D01*
X113608687Y-68241435D01*
X113825037Y-68194371D01*
X113825037Y-68194370D01*
X113825046Y-68194369D01*
X114093161Y-68094367D01*
X114344315Y-67957226D01*
X114573395Y-67785739D01*
X114775739Y-67583395D01*
X114947226Y-67354315D01*
X115084367Y-67103161D01*
X115184369Y-66835046D01*
X115245196Y-66555428D01*
X115260500Y-66341448D01*
X115260500Y-63198552D01*
X115245196Y-62984572D01*
X115191834Y-62739269D01*
X115189000Y-62712911D01*
X115189000Y-62636362D01*
X115208685Y-62569323D01*
X115244215Y-62533189D01*
X118667011Y-60251326D01*
X118733710Y-60230518D01*
X118735794Y-60230500D01*
X123671646Y-60230500D01*
X123738685Y-60250185D01*
G37*
%TD.AperFunction*%
%TD*%
M02*
