%TF.GenerationSoftware,KiCad,Pcbnew,8.0.9-8.0.9-0~ubuntu22.04.1*%
%TF.CreationDate,2025-07-08T15:19:42+09:00*%
%TF.ProjectId,USB2DXL,55534232-4458-44c2-9e6b-696361645f70,rev?*%
%TF.SameCoordinates,Original*%
%TF.FileFunction,Copper,L3,Inr*%
%TF.FilePolarity,Positive*%
%FSLAX46Y46*%
G04 Gerber Fmt 4.6, Leading zero omitted, Abs format (unit mm)*
G04 Created by KiCad (PCBNEW 8.0.9-8.0.9-0~ubuntu22.04.1) date 2025-07-08 15:19:42*
%MOMM*%
%LPD*%
G01*
G04 APERTURE LIST*
G04 Aperture macros list*
%AMRoundRect*
0 Rectangle with rounded corners*
0 $1 Rounding radius*
0 $2 $3 $4 $5 $6 $7 $8 $9 X,Y pos of 4 corners*
0 Add a 4 corners polygon primitive as box body*
4,1,4,$2,$3,$4,$5,$6,$7,$8,$9,$2,$3,0*
0 Add four circle primitives for the rounded corners*
1,1,$1+$1,$2,$3*
1,1,$1+$1,$4,$5*
1,1,$1+$1,$6,$7*
1,1,$1+$1,$8,$9*
0 Add four rect primitives between the rounded corners*
20,1,$1+$1,$2,$3,$4,$5,0*
20,1,$1+$1,$4,$5,$6,$7,0*
20,1,$1+$1,$6,$7,$8,$9,0*
20,1,$1+$1,$8,$9,$2,$3,0*%
G04 Aperture macros list end*
%TA.AperFunction,ComponentPad*%
%ADD10RoundRect,0.250000X-0.725000X0.600000X-0.725000X-0.600000X0.725000X-0.600000X0.725000X0.600000X0*%
%TD*%
%TA.AperFunction,ComponentPad*%
%ADD11O,1.950000X1.700000*%
%TD*%
%TA.AperFunction,ComponentPad*%
%ADD12RoundRect,0.250000X-0.675000X0.600000X-0.675000X-0.600000X0.675000X-0.600000X0.675000X0.600000X0*%
%TD*%
%TA.AperFunction,ComponentPad*%
%ADD13O,1.850000X1.700000*%
%TD*%
%TA.AperFunction,HeatsinkPad*%
%ADD14O,1.000000X2.100000*%
%TD*%
%TA.AperFunction,HeatsinkPad*%
%ADD15O,1.000000X1.600000*%
%TD*%
%TA.AperFunction,ComponentPad*%
%ADD16RoundRect,1.500000X-1.500000X-1.500000X1.500000X-1.500000X1.500000X1.500000X-1.500000X1.500000X0*%
%TD*%
%TA.AperFunction,ComponentPad*%
%ADD17C,6.000000*%
%TD*%
%TA.AperFunction,ComponentPad*%
%ADD18R,1.600000X1.600000*%
%TD*%
%TA.AperFunction,ComponentPad*%
%ADD19C,1.600000*%
%TD*%
%TA.AperFunction,ViaPad*%
%ADD20C,0.600000*%
%TD*%
%TA.AperFunction,ViaPad*%
%ADD21C,0.500000*%
%TD*%
%TA.AperFunction,ViaPad*%
%ADD22C,0.700000*%
%TD*%
%TA.AperFunction,ViaPad*%
%ADD23C,0.400000*%
%TD*%
G04 APERTURE END LIST*
D10*
%TO.N,GNDPWR*%
%TO.C,J3*%
X67818000Y-86186000D03*
D11*
%TO.N,+12V*%
X67818000Y-88686000D03*
%TO.N,/DATA*%
X67818000Y-91186000D03*
%TD*%
D10*
%TO.N,GNDPWR*%
%TO.C,J5*%
X61298000Y-86186000D03*
D11*
%TO.N,+12V*%
X61298000Y-88686000D03*
%TO.N,/DATA*%
X61298000Y-91186000D03*
%TD*%
D12*
%TO.N,GNDPWR*%
%TO.C,J6*%
X53375000Y-71748000D03*
D13*
%TO.N,+12V*%
X53375000Y-74248000D03*
%TO.N,/A*%
X53375000Y-76748000D03*
%TO.N,/B*%
X53375000Y-79248000D03*
%TD*%
D12*
%TO.N,GNDPWR*%
%TO.C,J4*%
X59690000Y-71748000D03*
D13*
%TO.N,+12V*%
X59690000Y-74248000D03*
%TO.N,/A*%
X59690000Y-76748000D03*
%TO.N,/B*%
X59690000Y-79248000D03*
%TD*%
D14*
%TO.N,GND*%
%TO.C,J2*%
X78484000Y-86786000D03*
D15*
X78484000Y-90966000D03*
D14*
X87124000Y-86786000D03*
D15*
X87124000Y-90966000D03*
%TD*%
D16*
%TO.N,GNDPWR*%
%TO.C,J1*%
X55792000Y-58166000D03*
D17*
%TO.N,+12V*%
X62992000Y-58166000D03*
%TD*%
D12*
%TO.N,GNDPWR*%
%TO.C,J7*%
X66294000Y-71748000D03*
D13*
%TO.N,+12V*%
X66294000Y-74248000D03*
%TO.N,/A*%
X66294000Y-76748000D03*
%TO.N,/B*%
X66294000Y-79248000D03*
%TD*%
D18*
%TO.N,+12V*%
%TO.C,C10*%
X55086000Y-65786000D03*
D19*
%TO.N,GNDPWR*%
X53086000Y-65786000D03*
%TD*%
D20*
%TO.N,GND*%
X81635600Y-82245200D03*
X78435200Y-93522800D03*
X87071200Y-73964800D03*
X87122000Y-93421200D03*
X86054000Y-85871000D03*
X80924400Y-78536800D03*
X84328000Y-79756000D03*
X78028800Y-83616800D03*
X79349600Y-74879200D03*
X78611000Y-76758800D03*
X87020400Y-81991200D03*
X79554000Y-85871000D03*
%TO.N,+5V*%
X84836000Y-78232000D03*
X78387000Y-74932600D03*
D21*
X78357000Y-81697000D03*
D20*
X80008000Y-81686000D03*
D22*
%TO.N,+5VP*%
X69240400Y-64465200D03*
D20*
X75793600Y-77114400D03*
X74625200Y-92557600D03*
X72237600Y-86156800D03*
X76809600Y-62438200D03*
%TO.N,GNDPWR*%
X87731600Y-67106800D03*
X72644000Y-65176400D03*
X79171800Y-64389000D03*
X73202800Y-80467200D03*
X51663600Y-53543200D03*
X75793600Y-78028800D03*
X74218800Y-58115200D03*
X64262000Y-83210400D03*
X65176400Y-64329900D03*
X64312800Y-93116400D03*
X67259200Y-53187600D03*
X74269600Y-71729600D03*
X87122000Y-61010800D03*
X51460400Y-68224400D03*
X70256400Y-75336400D03*
X87122000Y-53238400D03*
X69748400Y-65938400D03*
X69291200Y-80467200D03*
X64516000Y-89966800D03*
X53136800Y-93065600D03*
X53086000Y-83566000D03*
X75742800Y-83616800D03*
X75488800Y-89052400D03*
X65176400Y-68580000D03*
X59537600Y-68275200D03*
D22*
%TO.N,+12V*%
X62636400Y-64242400D03*
D20*
%TO.N,Net-(F1-Pad1)*%
X85254000Y-85871000D03*
X80354000Y-85871000D03*
D21*
%TO.N,/TXNOW*%
X86055200Y-76869000D03*
D20*
X82042000Y-72136000D03*
%TO.N,Net-(U4-RO)*%
X74218800Y-63601600D03*
X74262065Y-68928065D03*
%TO.N,Net-(U5-Y1)*%
X71170800Y-80467200D03*
X71272400Y-65938400D03*
%TO.N,/TXD*%
X80772000Y-72136000D03*
D23*
X84310000Y-75742800D03*
D20*
%TO.N,/TX*%
X74168000Y-74025100D03*
X74168000Y-80467200D03*
%TO.N,/TXEN*%
X72263000Y-82931000D03*
X72263000Y-71069200D03*
%TO.N,/RX*%
X84076899Y-61282446D03*
X76708000Y-64262000D03*
%TD*%
%TA.AperFunction,Conductor*%
%TO.N,+5VP*%
G36*
X79191039Y-60471685D02*
G01*
X79236794Y-60524489D01*
X79248000Y-60576000D01*
X79248000Y-63464036D01*
X79228315Y-63531075D01*
X79175511Y-63576830D01*
X79137883Y-63587256D01*
X78992550Y-63603630D01*
X78992545Y-63603631D01*
X78822276Y-63663211D01*
X78669537Y-63759184D01*
X78541984Y-63886737D01*
X78446011Y-64039476D01*
X78386431Y-64209745D01*
X78386430Y-64209750D01*
X78366235Y-64388996D01*
X78366235Y-64389003D01*
X78386430Y-64568249D01*
X78386431Y-64568254D01*
X78446011Y-64738523D01*
X78501529Y-64826878D01*
X78541984Y-64891262D01*
X78669538Y-65018816D01*
X78822278Y-65114789D01*
X78992545Y-65174368D01*
X78992549Y-65174369D01*
X79068095Y-65182880D01*
X79137884Y-65190743D01*
X79202297Y-65217809D01*
X79241852Y-65275403D01*
X79248000Y-65313963D01*
X79248000Y-66497236D01*
X79228315Y-66564275D01*
X79212403Y-66584190D01*
X76200000Y-69646800D01*
X76200000Y-77148151D01*
X76180315Y-77215190D01*
X76127511Y-77260945D01*
X76058353Y-77270889D01*
X76035046Y-77265193D01*
X75972857Y-77243432D01*
X75972849Y-77243430D01*
X75793604Y-77223235D01*
X75793596Y-77223235D01*
X75614350Y-77243430D01*
X75614345Y-77243431D01*
X75444076Y-77303011D01*
X75291337Y-77398984D01*
X75163784Y-77526537D01*
X75067811Y-77679276D01*
X75008231Y-77849545D01*
X75008230Y-77849550D01*
X74988035Y-78028796D01*
X74988035Y-78028803D01*
X75008230Y-78208049D01*
X75008231Y-78208054D01*
X75067811Y-78378323D01*
X75163784Y-78531062D01*
X75291338Y-78658616D01*
X75444078Y-78754589D01*
X75552156Y-78792407D01*
X75614345Y-78814168D01*
X75614350Y-78814169D01*
X75793596Y-78834365D01*
X75793600Y-78834365D01*
X75793604Y-78834365D01*
X75972849Y-78814169D01*
X75972852Y-78814168D01*
X75972855Y-78814168D01*
X75972856Y-78814167D01*
X75972859Y-78814167D01*
X76035044Y-78792407D01*
X76104823Y-78788844D01*
X76165451Y-78823573D01*
X76197678Y-78885566D01*
X76200000Y-78909448D01*
X76200000Y-82753927D01*
X76180315Y-82820966D01*
X76127511Y-82866721D01*
X76058353Y-82876665D01*
X76035045Y-82870969D01*
X75922054Y-82831431D01*
X75922049Y-82831430D01*
X75742804Y-82811235D01*
X75742796Y-82811235D01*
X75563550Y-82831430D01*
X75563545Y-82831431D01*
X75393276Y-82891011D01*
X75240537Y-82986984D01*
X75112984Y-83114537D01*
X75017011Y-83267276D01*
X74957431Y-83437545D01*
X74957430Y-83437550D01*
X74937235Y-83616796D01*
X74937235Y-83616803D01*
X74957430Y-83796049D01*
X74957431Y-83796054D01*
X75017011Y-83966323D01*
X75112984Y-84119062D01*
X75240538Y-84246616D01*
X75393278Y-84342589D01*
X75450555Y-84362631D01*
X75563545Y-84402168D01*
X75563550Y-84402169D01*
X75742796Y-84422365D01*
X75742800Y-84422365D01*
X75742804Y-84422365D01*
X75922049Y-84402169D01*
X75922052Y-84402168D01*
X75922055Y-84402168D01*
X76035045Y-84362630D01*
X76104824Y-84359070D01*
X76165452Y-84393799D01*
X76197679Y-84455792D01*
X76200000Y-84479673D01*
X76200000Y-88332160D01*
X76180315Y-88399199D01*
X76127511Y-88444954D01*
X76058353Y-88454898D01*
X75996663Y-88426725D01*
X75996505Y-88426925D01*
X75995706Y-88426288D01*
X75994797Y-88425873D01*
X75992476Y-88423712D01*
X75991062Y-88422584D01*
X75838323Y-88326611D01*
X75668054Y-88267031D01*
X75668049Y-88267030D01*
X75488804Y-88246835D01*
X75488796Y-88246835D01*
X75309550Y-88267030D01*
X75309545Y-88267031D01*
X75139276Y-88326611D01*
X74986537Y-88422584D01*
X74858984Y-88550137D01*
X74763011Y-88702876D01*
X74703431Y-88873145D01*
X74703430Y-88873150D01*
X74683235Y-89052396D01*
X74683235Y-89052403D01*
X74703430Y-89231649D01*
X74703431Y-89231654D01*
X74763011Y-89401923D01*
X74858984Y-89554662D01*
X74986538Y-89682216D01*
X75076880Y-89738982D01*
X75130446Y-89772640D01*
X75139278Y-89778189D01*
X75309545Y-89837768D01*
X75309550Y-89837769D01*
X75488796Y-89857965D01*
X75488800Y-89857965D01*
X75488804Y-89857965D01*
X75668049Y-89837769D01*
X75668052Y-89837768D01*
X75668055Y-89837768D01*
X75838322Y-89778189D01*
X75991062Y-89682216D01*
X75991066Y-89682211D01*
X75996505Y-89677875D01*
X75997957Y-89679696D01*
X76049642Y-89651474D01*
X76119334Y-89656458D01*
X76175267Y-89698330D01*
X76199684Y-89763794D01*
X76200000Y-89772640D01*
X76200000Y-94061900D01*
X76180315Y-94128939D01*
X76127511Y-94174694D01*
X76076000Y-94185900D01*
X70736000Y-94185900D01*
X70668961Y-94166215D01*
X70623206Y-94113411D01*
X70612000Y-94061900D01*
X70612000Y-82930996D01*
X71457435Y-82930996D01*
X71457435Y-82931003D01*
X71477630Y-83110249D01*
X71477631Y-83110254D01*
X71537211Y-83280523D01*
X71633184Y-83433262D01*
X71760738Y-83560816D01*
X71913478Y-83656789D01*
X72083745Y-83716368D01*
X72083750Y-83716369D01*
X72262996Y-83736565D01*
X72263000Y-83736565D01*
X72263004Y-83736565D01*
X72442249Y-83716369D01*
X72442252Y-83716368D01*
X72442255Y-83716368D01*
X72612522Y-83656789D01*
X72765262Y-83560816D01*
X72892816Y-83433262D01*
X72988789Y-83280522D01*
X73048368Y-83110255D01*
X73048369Y-83110249D01*
X73068565Y-82931003D01*
X73068565Y-82930996D01*
X73048369Y-82751750D01*
X73048368Y-82751745D01*
X72988788Y-82581476D01*
X72907589Y-82452249D01*
X72892816Y-82428738D01*
X72765262Y-82301184D01*
X72612523Y-82205211D01*
X72442254Y-82145631D01*
X72442249Y-82145630D01*
X72263004Y-82125435D01*
X72262996Y-82125435D01*
X72083750Y-82145630D01*
X72083745Y-82145631D01*
X71913476Y-82205211D01*
X71760737Y-82301184D01*
X71633184Y-82428737D01*
X71537211Y-82581476D01*
X71477631Y-82751745D01*
X71477630Y-82751750D01*
X71457435Y-82930996D01*
X70612000Y-82930996D01*
X70612000Y-81285852D01*
X70631685Y-81218813D01*
X70684489Y-81173058D01*
X70753647Y-81163114D01*
X70801972Y-81180858D01*
X70821276Y-81192988D01*
X70821278Y-81192989D01*
X70991545Y-81252568D01*
X70991550Y-81252569D01*
X71170796Y-81272765D01*
X71170800Y-81272765D01*
X71170804Y-81272765D01*
X71350049Y-81252569D01*
X71350052Y-81252568D01*
X71350055Y-81252568D01*
X71520322Y-81192989D01*
X71673062Y-81097016D01*
X71800616Y-80969462D01*
X71896589Y-80816722D01*
X71956168Y-80646455D01*
X71956169Y-80646449D01*
X71976365Y-80467203D01*
X71976365Y-80467196D01*
X72397235Y-80467196D01*
X72397235Y-80467203D01*
X72417430Y-80646449D01*
X72417431Y-80646454D01*
X72477011Y-80816723D01*
X72529735Y-80900632D01*
X72572984Y-80969462D01*
X72700538Y-81097016D01*
X72853278Y-81192989D01*
X73023545Y-81252568D01*
X73023550Y-81252569D01*
X73202796Y-81272765D01*
X73202800Y-81272765D01*
X73202804Y-81272765D01*
X73382049Y-81252569D01*
X73382052Y-81252568D01*
X73382055Y-81252568D01*
X73552322Y-81192989D01*
X73599868Y-81163114D01*
X73619427Y-81150824D01*
X73686664Y-81131823D01*
X73751373Y-81150824D01*
X73818475Y-81192988D01*
X73988745Y-81252568D01*
X73988750Y-81252569D01*
X74167996Y-81272765D01*
X74168000Y-81272765D01*
X74168004Y-81272765D01*
X74347249Y-81252569D01*
X74347252Y-81252568D01*
X74347255Y-81252568D01*
X74517522Y-81192989D01*
X74670262Y-81097016D01*
X74797816Y-80969462D01*
X74893789Y-80816722D01*
X74953368Y-80646455D01*
X74953369Y-80646449D01*
X74973565Y-80467203D01*
X74973565Y-80467196D01*
X74953369Y-80287950D01*
X74953368Y-80287945D01*
X74893788Y-80117676D01*
X74797815Y-79964937D01*
X74670262Y-79837384D01*
X74517523Y-79741411D01*
X74347254Y-79681831D01*
X74347249Y-79681830D01*
X74168004Y-79661635D01*
X74167996Y-79661635D01*
X73988750Y-79681830D01*
X73988737Y-79681833D01*
X73818479Y-79741409D01*
X73751371Y-79783576D01*
X73684134Y-79802576D01*
X73619429Y-79783576D01*
X73552320Y-79741409D01*
X73382062Y-79681833D01*
X73382049Y-79681830D01*
X73202804Y-79661635D01*
X73202796Y-79661635D01*
X73023550Y-79681830D01*
X73023545Y-79681831D01*
X72853276Y-79741411D01*
X72700537Y-79837384D01*
X72572984Y-79964937D01*
X72477011Y-80117676D01*
X72417431Y-80287945D01*
X72417430Y-80287950D01*
X72397235Y-80467196D01*
X71976365Y-80467196D01*
X71956169Y-80287950D01*
X71956168Y-80287945D01*
X71896588Y-80117676D01*
X71800615Y-79964937D01*
X71673062Y-79837384D01*
X71520323Y-79741411D01*
X71350054Y-79681831D01*
X71350049Y-79681830D01*
X71170804Y-79661635D01*
X71170796Y-79661635D01*
X70991550Y-79681830D01*
X70991545Y-79681831D01*
X70821277Y-79741411D01*
X70801971Y-79753542D01*
X70734734Y-79772541D01*
X70667899Y-79752172D01*
X70622685Y-79698904D01*
X70612000Y-79648547D01*
X70612000Y-76126901D01*
X70631685Y-76059862D01*
X70670026Y-76021909D01*
X70758662Y-75966216D01*
X70886216Y-75838662D01*
X70982189Y-75685922D01*
X71041768Y-75515655D01*
X71042516Y-75509016D01*
X71061965Y-75336403D01*
X71061965Y-75336396D01*
X71041769Y-75157150D01*
X71041768Y-75157145D01*
X70982188Y-74986876D01*
X70886215Y-74834137D01*
X70758660Y-74706582D01*
X70670027Y-74650890D01*
X70623737Y-74598556D01*
X70612000Y-74545897D01*
X70612000Y-74025096D01*
X73362435Y-74025096D01*
X73362435Y-74025103D01*
X73382630Y-74204349D01*
X73382631Y-74204354D01*
X73442211Y-74374623D01*
X73538184Y-74527362D01*
X73665738Y-74654916D01*
X73818478Y-74750889D01*
X73988745Y-74810468D01*
X73988750Y-74810469D01*
X74167996Y-74830665D01*
X74168000Y-74830665D01*
X74168004Y-74830665D01*
X74347249Y-74810469D01*
X74347252Y-74810468D01*
X74347255Y-74810468D01*
X74517522Y-74750889D01*
X74670262Y-74654916D01*
X74797816Y-74527362D01*
X74893789Y-74374622D01*
X74953368Y-74204355D01*
X74965821Y-74093832D01*
X74973565Y-74025103D01*
X74973565Y-74025096D01*
X74953369Y-73845850D01*
X74953368Y-73845845D01*
X74893788Y-73675576D01*
X74797815Y-73522837D01*
X74670262Y-73395284D01*
X74517523Y-73299311D01*
X74347254Y-73239731D01*
X74347249Y-73239730D01*
X74168004Y-73219535D01*
X74167996Y-73219535D01*
X73988750Y-73239730D01*
X73988745Y-73239731D01*
X73818476Y-73299311D01*
X73665737Y-73395284D01*
X73538184Y-73522837D01*
X73442211Y-73675576D01*
X73382631Y-73845845D01*
X73382630Y-73845850D01*
X73362435Y-74025096D01*
X70612000Y-74025096D01*
X70612000Y-72644000D01*
X68840346Y-71069196D01*
X71457435Y-71069196D01*
X71457435Y-71069203D01*
X71477630Y-71248449D01*
X71477631Y-71248454D01*
X71537211Y-71418723D01*
X71619915Y-71550345D01*
X71633184Y-71571462D01*
X71760738Y-71699016D01*
X71913478Y-71794989D01*
X72083745Y-71854568D01*
X72083750Y-71854569D01*
X72262996Y-71874765D01*
X72263000Y-71874765D01*
X72263004Y-71874765D01*
X72442249Y-71854569D01*
X72442252Y-71854568D01*
X72442255Y-71854568D01*
X72612522Y-71794989D01*
X72716594Y-71729596D01*
X73464035Y-71729596D01*
X73464035Y-71729603D01*
X73484230Y-71908849D01*
X73484231Y-71908854D01*
X73543811Y-72079123D01*
X73639784Y-72231862D01*
X73767338Y-72359416D01*
X73920078Y-72455389D01*
X74049847Y-72500797D01*
X74090345Y-72514968D01*
X74090350Y-72514969D01*
X74269596Y-72535165D01*
X74269600Y-72535165D01*
X74269604Y-72535165D01*
X74448849Y-72514969D01*
X74448852Y-72514968D01*
X74448855Y-72514968D01*
X74619122Y-72455389D01*
X74771862Y-72359416D01*
X74899416Y-72231862D01*
X74995389Y-72079122D01*
X75054968Y-71908855D01*
X75061085Y-71854568D01*
X75075165Y-71729603D01*
X75075165Y-71729596D01*
X75054969Y-71550350D01*
X75054968Y-71550345D01*
X74995388Y-71380076D01*
X74956182Y-71317680D01*
X74899416Y-71227338D01*
X74771862Y-71099784D01*
X74723182Y-71069196D01*
X74619123Y-71003811D01*
X74448854Y-70944231D01*
X74448849Y-70944230D01*
X74269604Y-70924035D01*
X74269596Y-70924035D01*
X74090350Y-70944230D01*
X74090345Y-70944231D01*
X73920076Y-71003811D01*
X73767337Y-71099784D01*
X73639784Y-71227337D01*
X73543811Y-71380076D01*
X73484231Y-71550345D01*
X73484230Y-71550350D01*
X73464035Y-71729596D01*
X72716594Y-71729596D01*
X72765262Y-71699016D01*
X72892816Y-71571462D01*
X72988789Y-71418722D01*
X73048368Y-71248455D01*
X73048369Y-71248449D01*
X73068565Y-71069203D01*
X73068565Y-71069196D01*
X73048369Y-70889950D01*
X73048368Y-70889945D01*
X72988789Y-70719678D01*
X72963445Y-70679344D01*
X72892815Y-70566937D01*
X72765262Y-70439384D01*
X72612523Y-70343411D01*
X72442254Y-70283831D01*
X72442249Y-70283830D01*
X72263004Y-70263635D01*
X72262996Y-70263635D01*
X72083750Y-70283830D01*
X72083745Y-70283831D01*
X71913476Y-70343411D01*
X71760737Y-70439384D01*
X71633184Y-70566937D01*
X71537211Y-70719676D01*
X71477631Y-70889945D01*
X71477630Y-70889950D01*
X71457435Y-71069196D01*
X68840346Y-71069196D01*
X66431569Y-68928061D01*
X73456500Y-68928061D01*
X73456500Y-68928068D01*
X73476695Y-69107314D01*
X73476696Y-69107319D01*
X73536276Y-69277588D01*
X73632249Y-69430327D01*
X73759803Y-69557881D01*
X73850145Y-69614647D01*
X73901316Y-69646800D01*
X73912543Y-69653854D01*
X74082810Y-69713433D01*
X74082815Y-69713434D01*
X74262061Y-69733630D01*
X74262065Y-69733630D01*
X74262069Y-69733630D01*
X74441314Y-69713434D01*
X74441317Y-69713433D01*
X74441320Y-69713433D01*
X74611587Y-69653854D01*
X74764327Y-69557881D01*
X74891881Y-69430327D01*
X74987854Y-69277587D01*
X75047433Y-69107320D01*
X75067630Y-68928065D01*
X75047433Y-68748810D01*
X74987854Y-68578543D01*
X74974784Y-68557743D01*
X74891880Y-68425802D01*
X74764327Y-68298249D01*
X74611588Y-68202276D01*
X74441319Y-68142696D01*
X74441314Y-68142695D01*
X74262069Y-68122500D01*
X74262061Y-68122500D01*
X74082815Y-68142695D01*
X74082810Y-68142696D01*
X73912541Y-68202276D01*
X73759802Y-68298249D01*
X73632249Y-68425802D01*
X73536276Y-68578541D01*
X73476696Y-68748810D01*
X73476695Y-68748815D01*
X73456500Y-68928061D01*
X66431569Y-68928061D01*
X66081619Y-68616994D01*
X66044591Y-68557743D01*
X66040000Y-68524315D01*
X66040000Y-65938396D01*
X68942835Y-65938396D01*
X68942835Y-65938403D01*
X68963030Y-66117649D01*
X68963031Y-66117654D01*
X69022611Y-66287923D01*
X69091394Y-66397389D01*
X69118584Y-66440662D01*
X69246138Y-66568216D01*
X69398878Y-66664189D01*
X69569145Y-66723768D01*
X69569150Y-66723769D01*
X69748396Y-66743965D01*
X69748400Y-66743965D01*
X69748404Y-66743965D01*
X69927649Y-66723769D01*
X69927652Y-66723768D01*
X69927655Y-66723768D01*
X70097922Y-66664189D01*
X70250662Y-66568216D01*
X70378216Y-66440662D01*
X70405406Y-66397388D01*
X70457741Y-66351098D01*
X70526794Y-66340450D01*
X70590643Y-66368825D01*
X70615393Y-66397387D01*
X70642584Y-66440662D01*
X70770138Y-66568216D01*
X70922878Y-66664189D01*
X71093145Y-66723768D01*
X71093150Y-66723769D01*
X71272396Y-66743965D01*
X71272400Y-66743965D01*
X71272404Y-66743965D01*
X71451649Y-66723769D01*
X71451652Y-66723768D01*
X71451655Y-66723768D01*
X71621922Y-66664189D01*
X71774662Y-66568216D01*
X71902216Y-66440662D01*
X71998189Y-66287922D01*
X72057768Y-66117655D01*
X72057769Y-66117649D01*
X72073995Y-65973638D01*
X72101061Y-65909224D01*
X72158656Y-65869669D01*
X72228493Y-65867531D01*
X72263184Y-65882526D01*
X72294476Y-65902188D01*
X72294478Y-65902189D01*
X72464745Y-65961768D01*
X72464750Y-65961769D01*
X72643996Y-65981965D01*
X72644000Y-65981965D01*
X72644004Y-65981965D01*
X72823249Y-65961769D01*
X72823252Y-65961768D01*
X72823255Y-65961768D01*
X72993522Y-65902189D01*
X73146262Y-65806216D01*
X73273816Y-65678662D01*
X73369789Y-65525922D01*
X73429368Y-65355655D01*
X73438410Y-65275403D01*
X73449565Y-65176403D01*
X73449565Y-65176396D01*
X73429369Y-64997150D01*
X73429368Y-64997145D01*
X73369788Y-64826876D01*
X73273815Y-64674137D01*
X73146262Y-64546584D01*
X72993523Y-64450611D01*
X72823254Y-64391031D01*
X72823249Y-64391030D01*
X72644004Y-64370835D01*
X72643996Y-64370835D01*
X72464750Y-64391030D01*
X72464745Y-64391031D01*
X72294476Y-64450611D01*
X72141737Y-64546584D01*
X72014184Y-64674137D01*
X71918211Y-64826876D01*
X71858631Y-64997145D01*
X71858630Y-64997149D01*
X71842404Y-65141162D01*
X71815337Y-65205576D01*
X71757742Y-65245131D01*
X71687905Y-65247268D01*
X71653211Y-65232271D01*
X71621924Y-65212611D01*
X71451654Y-65153031D01*
X71451649Y-65153030D01*
X71272404Y-65132835D01*
X71272396Y-65132835D01*
X71093150Y-65153030D01*
X71093145Y-65153031D01*
X70922876Y-65212611D01*
X70770137Y-65308584D01*
X70642584Y-65436137D01*
X70642582Y-65436140D01*
X70615393Y-65479411D01*
X70563058Y-65525702D01*
X70494005Y-65536349D01*
X70430156Y-65507974D01*
X70405407Y-65479411D01*
X70378217Y-65436140D01*
X70378215Y-65436137D01*
X70250662Y-65308584D01*
X70097923Y-65212611D01*
X69927654Y-65153031D01*
X69927649Y-65153030D01*
X69748404Y-65132835D01*
X69748396Y-65132835D01*
X69569150Y-65153030D01*
X69569145Y-65153031D01*
X69398876Y-65212611D01*
X69246137Y-65308584D01*
X69118584Y-65436137D01*
X69022611Y-65588876D01*
X68963031Y-65759145D01*
X68963030Y-65759150D01*
X68942835Y-65938396D01*
X66040000Y-65938396D01*
X66040000Y-63601596D01*
X73413235Y-63601596D01*
X73413235Y-63601603D01*
X73433430Y-63780849D01*
X73433431Y-63780854D01*
X73493011Y-63951123D01*
X73548529Y-64039478D01*
X73588984Y-64103862D01*
X73716538Y-64231416D01*
X73869278Y-64327389D01*
X73993440Y-64370835D01*
X74039545Y-64386968D01*
X74039550Y-64386969D01*
X74218796Y-64407165D01*
X74218800Y-64407165D01*
X74218804Y-64407165D01*
X74398049Y-64386969D01*
X74398052Y-64386968D01*
X74398055Y-64386968D01*
X74568322Y-64327389D01*
X74672394Y-64261996D01*
X75902435Y-64261996D01*
X75902435Y-64262003D01*
X75922630Y-64441249D01*
X75922631Y-64441254D01*
X75982211Y-64611523D01*
X76021555Y-64674138D01*
X76078184Y-64764262D01*
X76205738Y-64891816D01*
X76358478Y-64987789D01*
X76447148Y-65018816D01*
X76528745Y-65047368D01*
X76528750Y-65047369D01*
X76707996Y-65067565D01*
X76708000Y-65067565D01*
X76708004Y-65067565D01*
X76887249Y-65047369D01*
X76887252Y-65047368D01*
X76887255Y-65047368D01*
X77057522Y-64987789D01*
X77210262Y-64891816D01*
X77337816Y-64764262D01*
X77433789Y-64611522D01*
X77493368Y-64441255D01*
X77499027Y-64391030D01*
X77513565Y-64262003D01*
X77513565Y-64261996D01*
X77493369Y-64082750D01*
X77493368Y-64082745D01*
X77478228Y-64039478D01*
X77433789Y-63912478D01*
X77417615Y-63886738D01*
X77394582Y-63850080D01*
X77337816Y-63759738D01*
X77210262Y-63632184D01*
X77164822Y-63603632D01*
X77057523Y-63536211D01*
X76887254Y-63476631D01*
X76887249Y-63476630D01*
X76708004Y-63456435D01*
X76707996Y-63456435D01*
X76528750Y-63476630D01*
X76528745Y-63476631D01*
X76358476Y-63536211D01*
X76205737Y-63632184D01*
X76078184Y-63759737D01*
X75982211Y-63912476D01*
X75922631Y-64082745D01*
X75922630Y-64082750D01*
X75902435Y-64261996D01*
X74672394Y-64261996D01*
X74721062Y-64231416D01*
X74848616Y-64103862D01*
X74944589Y-63951122D01*
X75004168Y-63780855D01*
X75004169Y-63780849D01*
X75024365Y-63601603D01*
X75024365Y-63601596D01*
X75004169Y-63422350D01*
X75004168Y-63422345D01*
X74944588Y-63252076D01*
X74848615Y-63099337D01*
X74721062Y-62971784D01*
X74568323Y-62875811D01*
X74398054Y-62816231D01*
X74398049Y-62816230D01*
X74218804Y-62796035D01*
X74218796Y-62796035D01*
X74039550Y-62816230D01*
X74039545Y-62816231D01*
X73869276Y-62875811D01*
X73716537Y-62971784D01*
X73588984Y-63099337D01*
X73493011Y-63252076D01*
X73433431Y-63422345D01*
X73433430Y-63422350D01*
X73413235Y-63601596D01*
X66040000Y-63601596D01*
X66040000Y-63043362D01*
X66059685Y-62976323D01*
X66076319Y-62955681D01*
X68543681Y-60488319D01*
X68605004Y-60454834D01*
X68631362Y-60452000D01*
X79124000Y-60452000D01*
X79191039Y-60471685D01*
G37*
%TD.AperFunction*%
%TD*%
%TA.AperFunction,Conductor*%
%TO.N,+12V*%
G36*
X66533914Y-52606585D02*
G01*
X66579669Y-52659389D01*
X66589613Y-52728547D01*
X66571869Y-52776872D01*
X66533411Y-52838076D01*
X66473831Y-53008345D01*
X66473830Y-53008350D01*
X66453635Y-53187596D01*
X66453635Y-53187603D01*
X66473830Y-53366849D01*
X66473831Y-53366854D01*
X66533411Y-53537123D01*
X66629384Y-53689862D01*
X66756938Y-53817416D01*
X66847280Y-53874182D01*
X66901887Y-53908494D01*
X66909678Y-53913389D01*
X67017756Y-53951207D01*
X67079945Y-53972968D01*
X67079950Y-53972969D01*
X67259196Y-53993165D01*
X67259200Y-53993165D01*
X67259204Y-53993165D01*
X67438449Y-53972969D01*
X67438452Y-53972968D01*
X67438455Y-53972968D01*
X67438456Y-53972967D01*
X67438459Y-53972967D01*
X67500644Y-53951207D01*
X67570423Y-53947644D01*
X67631051Y-53982373D01*
X67663278Y-54044366D01*
X67665600Y-54068248D01*
X67665600Y-59842375D01*
X67645915Y-59909414D01*
X67629928Y-59929404D01*
X64262001Y-63347598D01*
X64262000Y-63347599D01*
X64312800Y-70358000D01*
X64856540Y-70814353D01*
X64895236Y-70872529D01*
X64896337Y-70942390D01*
X64894530Y-70948337D01*
X64879001Y-70995199D01*
X64868500Y-71097983D01*
X64868500Y-72398001D01*
X64868501Y-72398018D01*
X64879000Y-72500796D01*
X64879001Y-72500799D01*
X64934185Y-72667331D01*
X64934186Y-72667334D01*
X65026288Y-72816656D01*
X65150344Y-72940712D01*
X65299666Y-73032814D01*
X65466203Y-73087999D01*
X65568991Y-73098500D01*
X67019008Y-73098499D01*
X67121797Y-73087999D01*
X67288334Y-73032814D01*
X67334013Y-73004639D01*
X67401398Y-72986199D01*
X67468062Y-73007120D01*
X67478821Y-73015196D01*
X69550548Y-74753967D01*
X69589243Y-74812141D01*
X69590344Y-74882002D01*
X69575826Y-74914917D01*
X69530611Y-74986877D01*
X69471031Y-75157145D01*
X69471030Y-75157150D01*
X69450835Y-75336396D01*
X69450835Y-75336403D01*
X69471030Y-75515649D01*
X69471031Y-75515654D01*
X69530611Y-75685923D01*
X69626584Y-75838662D01*
X69754138Y-75966216D01*
X69906878Y-76062189D01*
X69915718Y-76065282D01*
X69972496Y-76106002D01*
X69998245Y-76170953D01*
X69998767Y-76182754D01*
X69986477Y-79734732D01*
X69966561Y-79801703D01*
X69913599Y-79847275D01*
X69844406Y-79856979D01*
X69796506Y-79839297D01*
X69640723Y-79741411D01*
X69470454Y-79681831D01*
X69470449Y-79681830D01*
X69291204Y-79661635D01*
X69291196Y-79661635D01*
X69111950Y-79681830D01*
X69111945Y-79681831D01*
X68941676Y-79741411D01*
X68788937Y-79837384D01*
X68661384Y-79964937D01*
X68565411Y-80117676D01*
X68505831Y-80287945D01*
X68505830Y-80287950D01*
X68485635Y-80467196D01*
X68485635Y-80467203D01*
X68505830Y-80646449D01*
X68505831Y-80646454D01*
X68565411Y-80816723D01*
X68608044Y-80884572D01*
X68661384Y-80969462D01*
X68788938Y-81097016D01*
X68941678Y-81192989D01*
X68972343Y-81203719D01*
X69111945Y-81252568D01*
X69111950Y-81252569D01*
X69291196Y-81272765D01*
X69291200Y-81272765D01*
X69291204Y-81272765D01*
X69470449Y-81252569D01*
X69470452Y-81252568D01*
X69470455Y-81252568D01*
X69640722Y-81192989D01*
X69791424Y-81098296D01*
X69858659Y-81079296D01*
X69925494Y-81099663D01*
X69970709Y-81152931D01*
X69981394Y-81203719D01*
X69968282Y-84993289D01*
X69953791Y-89181431D01*
X69952028Y-89690829D01*
X69932112Y-89757800D01*
X69879150Y-89803372D01*
X69828029Y-89814400D01*
X65398748Y-89814400D01*
X65331709Y-89794715D01*
X65285954Y-89741911D01*
X65281706Y-89731354D01*
X65241789Y-89617278D01*
X65145815Y-89464537D01*
X65018262Y-89336984D01*
X64865523Y-89241011D01*
X64695254Y-89181431D01*
X64695249Y-89181430D01*
X64516004Y-89161235D01*
X64515996Y-89161235D01*
X64336750Y-89181430D01*
X64336745Y-89181431D01*
X64166476Y-89241011D01*
X64013737Y-89336984D01*
X63886184Y-89464537D01*
X63790210Y-89617278D01*
X63750294Y-89731354D01*
X63709572Y-89788130D01*
X63644619Y-89813878D01*
X63633252Y-89814400D01*
X59133635Y-89814400D01*
X59066596Y-89794715D01*
X59043735Y-89775805D01*
X55015904Y-85535983D01*
X59822500Y-85535983D01*
X59822500Y-86836001D01*
X59822501Y-86836018D01*
X59833000Y-86938796D01*
X59833001Y-86938799D01*
X59888185Y-87105331D01*
X59888187Y-87105336D01*
X59923069Y-87161888D01*
X59980288Y-87254656D01*
X60104344Y-87378712D01*
X60253666Y-87470814D01*
X60420203Y-87525999D01*
X60522991Y-87536500D01*
X62073008Y-87536499D01*
X62175797Y-87525999D01*
X62342334Y-87470814D01*
X62491656Y-87378712D01*
X62615712Y-87254656D01*
X62707814Y-87105334D01*
X62762999Y-86938797D01*
X62773500Y-86836009D01*
X62773499Y-85535992D01*
X62773498Y-85535983D01*
X66342500Y-85535983D01*
X66342500Y-86836001D01*
X66342501Y-86836018D01*
X66353000Y-86938796D01*
X66353001Y-86938799D01*
X66408185Y-87105331D01*
X66408187Y-87105336D01*
X66443069Y-87161888D01*
X66500288Y-87254656D01*
X66624344Y-87378712D01*
X66773666Y-87470814D01*
X66940203Y-87525999D01*
X67042991Y-87536500D01*
X68593008Y-87536499D01*
X68695797Y-87525999D01*
X68862334Y-87470814D01*
X69011656Y-87378712D01*
X69135712Y-87254656D01*
X69227814Y-87105334D01*
X69282999Y-86938797D01*
X69293500Y-86836009D01*
X69293499Y-85535992D01*
X69282999Y-85433203D01*
X69227814Y-85266666D01*
X69135712Y-85117344D01*
X69011656Y-84993288D01*
X68862334Y-84901186D01*
X68695797Y-84846001D01*
X68695795Y-84846000D01*
X68593010Y-84835500D01*
X67042998Y-84835500D01*
X67042981Y-84835501D01*
X66940203Y-84846000D01*
X66940200Y-84846001D01*
X66773668Y-84901185D01*
X66773663Y-84901187D01*
X66624342Y-84993289D01*
X66500289Y-85117342D01*
X66408187Y-85266663D01*
X66408186Y-85266666D01*
X66353001Y-85433203D01*
X66353001Y-85433204D01*
X66353000Y-85433204D01*
X66342500Y-85535983D01*
X62773498Y-85535983D01*
X62762999Y-85433203D01*
X62707814Y-85266666D01*
X62615712Y-85117344D01*
X62491656Y-84993288D01*
X62342334Y-84901186D01*
X62175797Y-84846001D01*
X62175795Y-84846000D01*
X62073010Y-84835500D01*
X60522998Y-84835500D01*
X60522981Y-84835501D01*
X60420203Y-84846000D01*
X60420200Y-84846001D01*
X60253668Y-84901185D01*
X60253663Y-84901187D01*
X60104342Y-84993289D01*
X59980289Y-85117342D01*
X59888187Y-85266663D01*
X59888186Y-85266666D01*
X59833001Y-85433203D01*
X59833001Y-85433204D01*
X59833000Y-85433204D01*
X59822500Y-85535983D01*
X55015904Y-85535983D01*
X53744631Y-84197801D01*
X53712729Y-84135640D01*
X53719498Y-84066099D01*
X53729538Y-84046423D01*
X53811788Y-83915524D01*
X53811789Y-83915522D01*
X53871368Y-83745255D01*
X53871369Y-83745249D01*
X53891565Y-83566003D01*
X53891565Y-83565996D01*
X53871369Y-83386750D01*
X53871368Y-83386745D01*
X53811788Y-83216476D01*
X53807968Y-83210396D01*
X63456435Y-83210396D01*
X63456435Y-83210403D01*
X63476630Y-83389649D01*
X63476631Y-83389654D01*
X63536211Y-83559923D01*
X63632184Y-83712662D01*
X63759738Y-83840216D01*
X63850080Y-83896982D01*
X63879586Y-83915522D01*
X63912478Y-83936189D01*
X64082745Y-83995768D01*
X64082750Y-83995769D01*
X64261996Y-84015965D01*
X64262000Y-84015965D01*
X64262004Y-84015965D01*
X64441249Y-83995769D01*
X64441252Y-83995768D01*
X64441255Y-83995768D01*
X64611522Y-83936189D01*
X64764262Y-83840216D01*
X64891816Y-83712662D01*
X64987789Y-83559922D01*
X65047368Y-83389655D01*
X65047369Y-83389649D01*
X65067565Y-83210403D01*
X65067565Y-83210396D01*
X65047369Y-83031150D01*
X65047368Y-83031145D01*
X65007072Y-82915986D01*
X64987789Y-82860878D01*
X64891816Y-82708138D01*
X64764262Y-82580584D01*
X64611523Y-82484611D01*
X64441254Y-82425031D01*
X64441249Y-82425030D01*
X64262004Y-82404835D01*
X64261996Y-82404835D01*
X64082750Y-82425030D01*
X64082745Y-82425031D01*
X63912476Y-82484611D01*
X63759737Y-82580584D01*
X63632184Y-82708137D01*
X63536211Y-82860876D01*
X63476631Y-83031145D01*
X63476630Y-83031150D01*
X63456435Y-83210396D01*
X53807968Y-83210396D01*
X53715815Y-83063737D01*
X53588262Y-82936184D01*
X53435523Y-82840211D01*
X53265254Y-82780631D01*
X53265249Y-82780630D01*
X53086004Y-82760435D01*
X53085996Y-82760435D01*
X52906750Y-82780630D01*
X52906745Y-82780631D01*
X52736476Y-82840211D01*
X52646120Y-82896986D01*
X52578883Y-82915986D01*
X52512048Y-82895618D01*
X52490248Y-82877397D01*
X50678200Y-80969977D01*
X50646298Y-80907816D01*
X50644100Y-80884572D01*
X50644100Y-76641713D01*
X51949500Y-76641713D01*
X51949500Y-76854286D01*
X51982753Y-77064239D01*
X52048444Y-77266414D01*
X52144951Y-77455820D01*
X52269890Y-77627786D01*
X52420209Y-77778105D01*
X52420214Y-77778109D01*
X52584793Y-77897682D01*
X52627459Y-77953011D01*
X52633438Y-78022625D01*
X52600833Y-78084420D01*
X52584793Y-78098318D01*
X52420214Y-78217890D01*
X52420209Y-78217894D01*
X52269890Y-78368213D01*
X52144951Y-78540179D01*
X52048444Y-78729585D01*
X51982753Y-78931760D01*
X51949500Y-79141713D01*
X51949500Y-79354287D01*
X51982754Y-79564243D01*
X52038149Y-79734732D01*
X52048444Y-79766414D01*
X52144951Y-79955820D01*
X52269890Y-80127786D01*
X52420213Y-80278109D01*
X52592179Y-80403048D01*
X52592181Y-80403049D01*
X52592184Y-80403051D01*
X52781588Y-80499557D01*
X52983757Y-80565246D01*
X53193713Y-80598500D01*
X53193714Y-80598500D01*
X53556286Y-80598500D01*
X53556287Y-80598500D01*
X53766243Y-80565246D01*
X53968412Y-80499557D01*
X54157816Y-80403051D01*
X54179789Y-80387086D01*
X54329786Y-80278109D01*
X54329788Y-80278106D01*
X54329792Y-80278104D01*
X54480104Y-80127792D01*
X54480106Y-80127788D01*
X54480109Y-80127786D01*
X54589086Y-79977789D01*
X54605051Y-79955816D01*
X54701557Y-79766412D01*
X54767246Y-79564243D01*
X54800500Y-79354287D01*
X54800500Y-79141713D01*
X54767246Y-78931757D01*
X54701557Y-78729588D01*
X54605051Y-78540184D01*
X54605049Y-78540181D01*
X54605048Y-78540179D01*
X54480109Y-78368213D01*
X54329792Y-78217896D01*
X54329784Y-78217890D01*
X54165204Y-78098316D01*
X54122540Y-78042989D01*
X54116561Y-77973376D01*
X54149166Y-77911580D01*
X54165199Y-77897686D01*
X54329792Y-77778104D01*
X54480104Y-77627792D01*
X54480106Y-77627788D01*
X54480109Y-77627786D01*
X54605048Y-77455820D01*
X54605047Y-77455820D01*
X54605051Y-77455816D01*
X54701557Y-77266412D01*
X54767246Y-77064243D01*
X54800500Y-76854287D01*
X54800500Y-76641713D01*
X58264500Y-76641713D01*
X58264500Y-76854286D01*
X58297753Y-77064239D01*
X58363444Y-77266414D01*
X58459951Y-77455820D01*
X58584890Y-77627786D01*
X58735209Y-77778105D01*
X58735214Y-77778109D01*
X58899793Y-77897682D01*
X58942459Y-77953011D01*
X58948438Y-78022625D01*
X58915833Y-78084420D01*
X58899793Y-78098318D01*
X58735214Y-78217890D01*
X58735209Y-78217894D01*
X58584890Y-78368213D01*
X58459951Y-78540179D01*
X58363444Y-78729585D01*
X58297753Y-78931760D01*
X58264500Y-79141713D01*
X58264500Y-79354287D01*
X58297754Y-79564243D01*
X58353149Y-79734732D01*
X58363444Y-79766414D01*
X58459951Y-79955820D01*
X58584890Y-80127786D01*
X58735213Y-80278109D01*
X58907179Y-80403048D01*
X58907181Y-80403049D01*
X58907184Y-80403051D01*
X59096588Y-80499557D01*
X59298757Y-80565246D01*
X59508713Y-80598500D01*
X59508714Y-80598500D01*
X59871286Y-80598500D01*
X59871287Y-80598500D01*
X60081243Y-80565246D01*
X60283412Y-80499557D01*
X60472816Y-80403051D01*
X60494789Y-80387086D01*
X60644786Y-80278109D01*
X60644788Y-80278106D01*
X60644792Y-80278104D01*
X60795104Y-80127792D01*
X60795106Y-80127788D01*
X60795109Y-80127786D01*
X60904086Y-79977789D01*
X60920051Y-79955816D01*
X61016557Y-79766412D01*
X61082246Y-79564243D01*
X61115500Y-79354287D01*
X61115500Y-79141713D01*
X61082246Y-78931757D01*
X61016557Y-78729588D01*
X60920051Y-78540184D01*
X60920049Y-78540181D01*
X60920048Y-78540179D01*
X60795109Y-78368213D01*
X60644792Y-78217896D01*
X60644784Y-78217890D01*
X60480204Y-78098316D01*
X60437540Y-78042989D01*
X60431561Y-77973376D01*
X60464166Y-77911580D01*
X60480199Y-77897686D01*
X60644792Y-77778104D01*
X60795104Y-77627792D01*
X60795106Y-77627788D01*
X60795109Y-77627786D01*
X60920048Y-77455820D01*
X60920047Y-77455820D01*
X60920051Y-77455816D01*
X61016557Y-77266412D01*
X61082246Y-77064243D01*
X61115500Y-76854287D01*
X61115500Y-76641713D01*
X64868500Y-76641713D01*
X64868500Y-76854286D01*
X64901753Y-77064239D01*
X64967444Y-77266414D01*
X65063951Y-77455820D01*
X65188890Y-77627786D01*
X65339209Y-77778105D01*
X65339214Y-77778109D01*
X65503793Y-77897682D01*
X65546459Y-77953011D01*
X65552438Y-78022625D01*
X65519833Y-78084420D01*
X65503793Y-78098318D01*
X65339214Y-78217890D01*
X65339209Y-78217894D01*
X65188890Y-78368213D01*
X65063951Y-78540179D01*
X64967444Y-78729585D01*
X64901753Y-78931760D01*
X64868500Y-79141713D01*
X64868500Y-79354287D01*
X64901754Y-79564243D01*
X64957149Y-79734732D01*
X64967444Y-79766414D01*
X65063951Y-79955820D01*
X65188890Y-80127786D01*
X65339213Y-80278109D01*
X65511179Y-80403048D01*
X65511181Y-80403049D01*
X65511184Y-80403051D01*
X65700588Y-80499557D01*
X65902757Y-80565246D01*
X66112713Y-80598500D01*
X66112714Y-80598500D01*
X66475286Y-80598500D01*
X66475287Y-80598500D01*
X66685243Y-80565246D01*
X66887412Y-80499557D01*
X67076816Y-80403051D01*
X67098789Y-80387086D01*
X67248786Y-80278109D01*
X67248788Y-80278106D01*
X67248792Y-80278104D01*
X67399104Y-80127792D01*
X67399106Y-80127788D01*
X67399109Y-80127786D01*
X67508086Y-79977789D01*
X67524051Y-79955816D01*
X67620557Y-79766412D01*
X67686246Y-79564243D01*
X67719500Y-79354287D01*
X67719500Y-79141713D01*
X67686246Y-78931757D01*
X67620557Y-78729588D01*
X67524051Y-78540184D01*
X67524049Y-78540181D01*
X67524048Y-78540179D01*
X67399109Y-78368213D01*
X67248792Y-78217896D01*
X67248784Y-78217890D01*
X67084204Y-78098316D01*
X67041540Y-78042989D01*
X67035561Y-77973376D01*
X67068166Y-77911580D01*
X67084199Y-77897686D01*
X67248792Y-77778104D01*
X67399104Y-77627792D01*
X67399106Y-77627788D01*
X67399109Y-77627786D01*
X67524048Y-77455820D01*
X67524047Y-77455820D01*
X67524051Y-77455816D01*
X67620557Y-77266412D01*
X67686246Y-77064243D01*
X67719500Y-76854287D01*
X67719500Y-76641713D01*
X67686246Y-76431757D01*
X67620557Y-76229588D01*
X67524051Y-76040184D01*
X67524049Y-76040181D01*
X67524048Y-76040179D01*
X67399109Y-75868213D01*
X67248786Y-75717890D01*
X67076820Y-75592951D01*
X66887414Y-75496444D01*
X66887413Y-75496443D01*
X66887412Y-75496443D01*
X66685243Y-75430754D01*
X66685241Y-75430753D01*
X66685240Y-75430753D01*
X66523957Y-75405208D01*
X66475287Y-75397500D01*
X66112713Y-75397500D01*
X66064042Y-75405208D01*
X65902760Y-75430753D01*
X65700585Y-75496444D01*
X65511179Y-75592951D01*
X65339213Y-75717890D01*
X65188890Y-75868213D01*
X65063951Y-76040179D01*
X64967444Y-76229585D01*
X64901753Y-76431760D01*
X64868500Y-76641713D01*
X61115500Y-76641713D01*
X61082246Y-76431757D01*
X61016557Y-76229588D01*
X60920051Y-76040184D01*
X60920049Y-76040181D01*
X60920048Y-76040179D01*
X60795109Y-75868213D01*
X60644786Y-75717890D01*
X60472820Y-75592951D01*
X60283414Y-75496444D01*
X60283413Y-75496443D01*
X60283412Y-75496443D01*
X60081243Y-75430754D01*
X60081241Y-75430753D01*
X60081240Y-75430753D01*
X59919957Y-75405208D01*
X59871287Y-75397500D01*
X59508713Y-75397500D01*
X59460042Y-75405208D01*
X59298760Y-75430753D01*
X59096585Y-75496444D01*
X58907179Y-75592951D01*
X58735213Y-75717890D01*
X58584890Y-75868213D01*
X58459951Y-76040179D01*
X58363444Y-76229585D01*
X58297753Y-76431760D01*
X58264500Y-76641713D01*
X54800500Y-76641713D01*
X54767246Y-76431757D01*
X54701557Y-76229588D01*
X54605051Y-76040184D01*
X54605049Y-76040181D01*
X54605048Y-76040179D01*
X54480109Y-75868213D01*
X54329786Y-75717890D01*
X54157820Y-75592951D01*
X53968414Y-75496444D01*
X53968413Y-75496443D01*
X53968412Y-75496443D01*
X53766243Y-75430754D01*
X53766241Y-75430753D01*
X53766240Y-75430753D01*
X53604957Y-75405208D01*
X53556287Y-75397500D01*
X53193713Y-75397500D01*
X53145042Y-75405208D01*
X52983760Y-75430753D01*
X52781585Y-75496444D01*
X52592179Y-75592951D01*
X52420213Y-75717890D01*
X52269890Y-75868213D01*
X52144951Y-76040179D01*
X52048444Y-76229585D01*
X51982753Y-76431760D01*
X51949500Y-76641713D01*
X50644100Y-76641713D01*
X50644100Y-71097983D01*
X51949500Y-71097983D01*
X51949500Y-72398001D01*
X51949501Y-72398018D01*
X51960000Y-72500796D01*
X51960001Y-72500799D01*
X52015185Y-72667331D01*
X52015186Y-72667334D01*
X52107288Y-72816656D01*
X52231344Y-72940712D01*
X52380666Y-73032814D01*
X52547203Y-73087999D01*
X52649991Y-73098500D01*
X54100008Y-73098499D01*
X54202797Y-73087999D01*
X54369334Y-73032814D01*
X54518656Y-72940712D01*
X54642712Y-72816656D01*
X54734814Y-72667334D01*
X54789999Y-72500797D01*
X54800500Y-72398009D01*
X54800499Y-71097992D01*
X54800498Y-71097983D01*
X58264500Y-71097983D01*
X58264500Y-72398001D01*
X58264501Y-72398018D01*
X58275000Y-72500796D01*
X58275001Y-72500799D01*
X58330185Y-72667331D01*
X58330186Y-72667334D01*
X58422288Y-72816656D01*
X58546344Y-72940712D01*
X58695666Y-73032814D01*
X58862203Y-73087999D01*
X58964991Y-73098500D01*
X60415008Y-73098499D01*
X60517797Y-73087999D01*
X60684334Y-73032814D01*
X60833656Y-72940712D01*
X60957712Y-72816656D01*
X61049814Y-72667334D01*
X61104999Y-72500797D01*
X61115500Y-72398009D01*
X61115499Y-71097992D01*
X61104999Y-70995203D01*
X61049814Y-70828666D01*
X60957712Y-70679344D01*
X60833656Y-70555288D01*
X60684334Y-70463186D01*
X60517797Y-70408001D01*
X60517795Y-70408000D01*
X60415010Y-70397500D01*
X58964998Y-70397500D01*
X58964981Y-70397501D01*
X58862203Y-70408000D01*
X58862200Y-70408001D01*
X58695668Y-70463185D01*
X58695663Y-70463187D01*
X58546342Y-70555289D01*
X58422289Y-70679342D01*
X58330187Y-70828663D01*
X58330186Y-70828666D01*
X58275001Y-70995203D01*
X58275001Y-70995204D01*
X58275000Y-70995204D01*
X58264500Y-71097983D01*
X54800498Y-71097983D01*
X54789999Y-70995203D01*
X54734814Y-70828666D01*
X54642712Y-70679344D01*
X54518656Y-70555288D01*
X54369334Y-70463186D01*
X54202797Y-70408001D01*
X54202795Y-70408000D01*
X54100010Y-70397500D01*
X52649998Y-70397500D01*
X52649981Y-70397501D01*
X52547203Y-70408000D01*
X52547200Y-70408001D01*
X52380668Y-70463185D01*
X52380663Y-70463187D01*
X52231342Y-70555289D01*
X52107289Y-70679342D01*
X52015187Y-70828663D01*
X52015186Y-70828666D01*
X51960001Y-70995203D01*
X51960001Y-70995204D01*
X51960000Y-70995204D01*
X51949500Y-71097983D01*
X50644100Y-71097983D01*
X50644100Y-68839540D01*
X50663785Y-68772501D01*
X50716589Y-68726746D01*
X50785747Y-68716802D01*
X50849303Y-68745827D01*
X50855781Y-68751859D01*
X50958138Y-68854216D01*
X51038984Y-68905015D01*
X51077986Y-68929522D01*
X51110878Y-68950189D01*
X51256053Y-69000988D01*
X51281145Y-69009768D01*
X51281150Y-69009769D01*
X51460396Y-69029965D01*
X51460400Y-69029965D01*
X51460404Y-69029965D01*
X51639649Y-69009769D01*
X51639652Y-69009768D01*
X51639655Y-69009768D01*
X51809922Y-68950189D01*
X51962662Y-68854216D01*
X52090216Y-68726662D01*
X52186189Y-68573922D01*
X52245768Y-68403655D01*
X52260241Y-68275203D01*
X52260242Y-68275196D01*
X58732035Y-68275196D01*
X58732035Y-68275203D01*
X58752230Y-68454449D01*
X58752231Y-68454454D01*
X58811811Y-68624723D01*
X58896344Y-68759255D01*
X58907784Y-68777462D01*
X59035338Y-68905016D01*
X59188078Y-69000989D01*
X59270887Y-69029965D01*
X59358345Y-69060568D01*
X59358350Y-69060569D01*
X59537596Y-69080765D01*
X59537600Y-69080765D01*
X59537604Y-69080765D01*
X59716849Y-69060569D01*
X59716852Y-69060568D01*
X59716855Y-69060568D01*
X59887122Y-69000989D01*
X60039862Y-68905016D01*
X60167416Y-68777462D01*
X60263389Y-68624722D01*
X60322968Y-68454455D01*
X60328692Y-68403654D01*
X60343165Y-68275203D01*
X60343165Y-68275196D01*
X60322969Y-68095950D01*
X60322968Y-68095945D01*
X60263388Y-67925676D01*
X60181047Y-67794632D01*
X60167416Y-67772938D01*
X60039862Y-67645384D01*
X59887123Y-67549411D01*
X59716854Y-67489831D01*
X59716849Y-67489830D01*
X59537604Y-67469635D01*
X59537596Y-67469635D01*
X59358350Y-67489830D01*
X59358345Y-67489831D01*
X59188076Y-67549411D01*
X59035337Y-67645384D01*
X58907784Y-67772937D01*
X58811811Y-67925676D01*
X58752231Y-68095945D01*
X58752230Y-68095950D01*
X58732035Y-68275196D01*
X52260242Y-68275196D01*
X52265965Y-68224403D01*
X52265965Y-68224396D01*
X52245769Y-68045150D01*
X52245768Y-68045145D01*
X52212540Y-67950184D01*
X52186189Y-67874878D01*
X52090216Y-67722138D01*
X51962662Y-67594584D01*
X51890770Y-67549411D01*
X51809923Y-67498611D01*
X51639654Y-67439031D01*
X51639649Y-67439030D01*
X51460404Y-67418835D01*
X51460396Y-67418835D01*
X51281150Y-67439030D01*
X51281145Y-67439031D01*
X51110876Y-67498611D01*
X50958137Y-67594584D01*
X50855781Y-67696941D01*
X50794458Y-67730426D01*
X50724766Y-67725442D01*
X50668833Y-67683570D01*
X50644416Y-67618106D01*
X50644100Y-67609260D01*
X50644100Y-65785998D01*
X51780532Y-65785998D01*
X51780532Y-65786001D01*
X51800364Y-66012686D01*
X51800366Y-66012697D01*
X51859258Y-66232488D01*
X51859261Y-66232497D01*
X51955431Y-66438732D01*
X51955432Y-66438734D01*
X52085954Y-66625141D01*
X52246858Y-66786045D01*
X52246861Y-66786047D01*
X52433266Y-66916568D01*
X52639504Y-67012739D01*
X52859308Y-67071635D01*
X53021230Y-67085801D01*
X53085998Y-67091468D01*
X53086000Y-67091468D01*
X53086002Y-67091468D01*
X53142673Y-67086509D01*
X53312692Y-67071635D01*
X53532496Y-67012739D01*
X53738734Y-66916568D01*
X53925139Y-66786047D01*
X54086047Y-66625139D01*
X54216568Y-66438734D01*
X54312739Y-66232496D01*
X54371635Y-66012692D01*
X54391468Y-65786000D01*
X54389118Y-65759145D01*
X54371635Y-65559313D01*
X54371635Y-65559308D01*
X54312739Y-65339504D01*
X54216568Y-65133266D01*
X54086047Y-64946861D01*
X54086045Y-64946858D01*
X53925141Y-64785954D01*
X53738734Y-64655432D01*
X53738732Y-64655431D01*
X53532497Y-64559261D01*
X53532488Y-64559258D01*
X53312697Y-64500366D01*
X53312693Y-64500365D01*
X53312692Y-64500365D01*
X53312691Y-64500364D01*
X53312686Y-64500364D01*
X53086002Y-64480532D01*
X53085998Y-64480532D01*
X52859313Y-64500364D01*
X52859302Y-64500366D01*
X52639511Y-64559258D01*
X52639502Y-64559261D01*
X52433267Y-64655431D01*
X52433265Y-64655432D01*
X52246858Y-64785954D01*
X52085954Y-64946858D01*
X51955432Y-65133265D01*
X51955431Y-65133267D01*
X51859261Y-65339502D01*
X51859258Y-65339511D01*
X51800366Y-65559302D01*
X51800364Y-65559313D01*
X51780532Y-65785998D01*
X50644100Y-65785998D01*
X50644100Y-56594549D01*
X52291500Y-56594549D01*
X52291500Y-59737450D01*
X52306804Y-59951433D01*
X52367628Y-60231037D01*
X52467635Y-60499166D01*
X52604770Y-60750309D01*
X52604775Y-60750317D01*
X52776254Y-60979387D01*
X52776270Y-60979405D01*
X52978594Y-61181729D01*
X52978612Y-61181745D01*
X53207682Y-61353224D01*
X53207690Y-61353229D01*
X53458833Y-61490364D01*
X53458832Y-61490364D01*
X53458836Y-61490365D01*
X53458839Y-61490367D01*
X53726954Y-61590369D01*
X53726960Y-61590370D01*
X53726962Y-61590371D01*
X54006566Y-61651195D01*
X54006568Y-61651195D01*
X54006572Y-61651196D01*
X54220552Y-61666500D01*
X57363448Y-61666500D01*
X57577428Y-61651196D01*
X57857046Y-61590369D01*
X58125161Y-61490367D01*
X58376315Y-61353226D01*
X58605395Y-61181739D01*
X58807739Y-60979395D01*
X58979226Y-60750315D01*
X59116367Y-60499161D01*
X59216369Y-60231046D01*
X59277196Y-59951428D01*
X59292500Y-59737448D01*
X59292500Y-56594552D01*
X59277196Y-56380572D01*
X59216369Y-56100954D01*
X59116367Y-55832839D01*
X58979226Y-55581685D01*
X58979224Y-55581682D01*
X58807745Y-55352612D01*
X58807729Y-55352594D01*
X58605405Y-55150270D01*
X58605387Y-55150254D01*
X58376317Y-54978775D01*
X58376309Y-54978770D01*
X58125166Y-54841635D01*
X58125167Y-54841635D01*
X58017915Y-54801632D01*
X57857046Y-54741631D01*
X57857043Y-54741630D01*
X57857037Y-54741628D01*
X57577433Y-54680804D01*
X57363450Y-54665500D01*
X57363448Y-54665500D01*
X54220552Y-54665500D01*
X54220549Y-54665500D01*
X54006566Y-54680804D01*
X53726962Y-54741628D01*
X53458833Y-54841635D01*
X53207690Y-54978770D01*
X53207682Y-54978775D01*
X52978612Y-55150254D01*
X52978594Y-55150270D01*
X52776270Y-55352594D01*
X52776254Y-55352612D01*
X52604775Y-55581682D01*
X52604770Y-55581690D01*
X52467635Y-55832833D01*
X52367628Y-56100962D01*
X52306804Y-56380566D01*
X52291500Y-56594549D01*
X50644100Y-56594549D01*
X50644100Y-54390466D01*
X50644365Y-54382356D01*
X50647890Y-54328569D01*
X50658964Y-54159607D01*
X50661079Y-54143553D01*
X50703830Y-53928626D01*
X50708021Y-53912980D01*
X50709545Y-53908490D01*
X50749728Y-53851336D01*
X50814435Y-53824978D01*
X50883121Y-53837787D01*
X50933977Y-53885697D01*
X50937199Y-53891748D01*
X50937810Y-53892721D01*
X50937811Y-53892722D01*
X51033784Y-54045462D01*
X51161338Y-54173016D01*
X51251680Y-54229782D01*
X51289099Y-54253294D01*
X51314078Y-54268989D01*
X51484345Y-54328568D01*
X51484350Y-54328569D01*
X51663596Y-54348765D01*
X51663600Y-54348765D01*
X51663604Y-54348765D01*
X51842849Y-54328569D01*
X51842852Y-54328568D01*
X51842855Y-54328568D01*
X52013122Y-54268989D01*
X52165862Y-54173016D01*
X52293416Y-54045462D01*
X52389389Y-53892722D01*
X52448968Y-53722455D01*
X52448969Y-53722449D01*
X52469165Y-53543203D01*
X52469165Y-53543196D01*
X52448969Y-53363950D01*
X52448968Y-53363945D01*
X52389388Y-53193676D01*
X52293415Y-53040937D01*
X52165860Y-52913382D01*
X52064000Y-52849379D01*
X52017710Y-52797045D01*
X52007062Y-52727991D01*
X52035437Y-52664143D01*
X52093827Y-52625771D01*
X52105762Y-52622773D01*
X52200753Y-52603879D01*
X52216809Y-52601764D01*
X52421658Y-52588338D01*
X52439558Y-52587165D01*
X52447667Y-52586900D01*
X52483482Y-52586900D01*
X66466875Y-52586900D01*
X66533914Y-52606585D01*
G37*
%TD.AperFunction*%
%TD*%
%TA.AperFunction,Conductor*%
%TO.N,+5V*%
G36*
X86265639Y-73385269D02*
G01*
X86332667Y-73404988D01*
X86378394Y-73457816D01*
X86388302Y-73526980D01*
X86370567Y-73575240D01*
X86345412Y-73615274D01*
X86285831Y-73785545D01*
X86285830Y-73785550D01*
X86265635Y-73964796D01*
X86265635Y-73964803D01*
X86285830Y-74144049D01*
X86285831Y-74144054D01*
X86345411Y-74314323D01*
X86384755Y-74376938D01*
X86441384Y-74467062D01*
X86568938Y-74594616D01*
X86721678Y-74690589D01*
X86891945Y-74750168D01*
X86891950Y-74750169D01*
X87071196Y-74770365D01*
X87071200Y-74770365D01*
X87071204Y-74770365D01*
X87250449Y-74750169D01*
X87250452Y-74750168D01*
X87250455Y-74750168D01*
X87420722Y-74690589D01*
X87573462Y-74594616D01*
X87701016Y-74467062D01*
X87796989Y-74314322D01*
X87856568Y-74144055D01*
X87862227Y-74093830D01*
X87876765Y-73964803D01*
X87876765Y-73964796D01*
X87856569Y-73785550D01*
X87856568Y-73785545D01*
X87796988Y-73615275D01*
X87772358Y-73576078D01*
X87753357Y-73508842D01*
X87773724Y-73442006D01*
X87826991Y-73396792D01*
X87877409Y-73386106D01*
X88119169Y-73386231D01*
X88186193Y-73405949D01*
X88231921Y-73458777D01*
X88243100Y-73510230D01*
X88243100Y-82478269D01*
X88223415Y-82545308D01*
X88170611Y-82591063D01*
X88119664Y-82602268D01*
X87805876Y-82603694D01*
X87738747Y-82584314D01*
X87692753Y-82531719D01*
X87682495Y-82462606D01*
X87700316Y-82413727D01*
X87746189Y-82340722D01*
X87805768Y-82170455D01*
X87817543Y-82065950D01*
X87825965Y-81991203D01*
X87825965Y-81991196D01*
X87805769Y-81811950D01*
X87805768Y-81811945D01*
X87746188Y-81641676D01*
X87650215Y-81488937D01*
X87522662Y-81361384D01*
X87369923Y-81265411D01*
X87199654Y-81205831D01*
X87199649Y-81205830D01*
X87020404Y-81185635D01*
X87020396Y-81185635D01*
X86841150Y-81205830D01*
X86841145Y-81205831D01*
X86670876Y-81265411D01*
X86518137Y-81361384D01*
X86390584Y-81488937D01*
X86294611Y-81641676D01*
X86235031Y-81811945D01*
X86235030Y-81811950D01*
X86214835Y-81991196D01*
X86214835Y-81991203D01*
X86235030Y-82170449D01*
X86235031Y-82170454D01*
X86294611Y-82340723D01*
X86344951Y-82420838D01*
X86363951Y-82488075D01*
X86343583Y-82554910D01*
X86290315Y-82600124D01*
X86240521Y-82610809D01*
X82525175Y-82627697D01*
X82458046Y-82608317D01*
X82412052Y-82555722D01*
X82401794Y-82486609D01*
X82407571Y-82462740D01*
X82420966Y-82424460D01*
X82420967Y-82424457D01*
X82420968Y-82424455D01*
X82421376Y-82420838D01*
X82441165Y-82245203D01*
X82441165Y-82245196D01*
X82420969Y-82065950D01*
X82420968Y-82065945D01*
X82394815Y-81991203D01*
X82361389Y-81895678D01*
X82265416Y-81742938D01*
X82137862Y-81615384D01*
X81985123Y-81519411D01*
X81814854Y-81459831D01*
X81814849Y-81459830D01*
X81635604Y-81439635D01*
X81635596Y-81439635D01*
X81456350Y-81459830D01*
X81456345Y-81459831D01*
X81286076Y-81519411D01*
X81133337Y-81615384D01*
X81005784Y-81742937D01*
X80909811Y-81895676D01*
X80850231Y-82065945D01*
X80850230Y-82065950D01*
X80830035Y-82245196D01*
X80830035Y-82245203D01*
X80850230Y-82424449D01*
X80850232Y-82424457D01*
X80866453Y-82470814D01*
X80870014Y-82540593D01*
X80835285Y-82601220D01*
X80773291Y-82633447D01*
X80749975Y-82635767D01*
X77391364Y-82651033D01*
X77324235Y-82631653D01*
X77278241Y-82579058D01*
X77266800Y-82527034D01*
X77266800Y-79755996D01*
X83522435Y-79755996D01*
X83522435Y-79756003D01*
X83542630Y-79935249D01*
X83542631Y-79935254D01*
X83602211Y-80105523D01*
X83698184Y-80258262D01*
X83825738Y-80385816D01*
X83978478Y-80481789D01*
X84148745Y-80541368D01*
X84148750Y-80541369D01*
X84327996Y-80561565D01*
X84328000Y-80561565D01*
X84328004Y-80561565D01*
X84507249Y-80541369D01*
X84507252Y-80541368D01*
X84507255Y-80541368D01*
X84677522Y-80481789D01*
X84830262Y-80385816D01*
X84957816Y-80258262D01*
X85053789Y-80105522D01*
X85113368Y-79935255D01*
X85133565Y-79756000D01*
X85113368Y-79576745D01*
X85053789Y-79406478D01*
X84957816Y-79253738D01*
X84830262Y-79126184D01*
X84677523Y-79030211D01*
X84507254Y-78970631D01*
X84507249Y-78970630D01*
X84328004Y-78950435D01*
X84327996Y-78950435D01*
X84148750Y-78970630D01*
X84148745Y-78970631D01*
X83978476Y-79030211D01*
X83825737Y-79126184D01*
X83698184Y-79253737D01*
X83602211Y-79406476D01*
X83542631Y-79576745D01*
X83542630Y-79576750D01*
X83522435Y-79755996D01*
X77266800Y-79755996D01*
X77266800Y-78536796D01*
X80118835Y-78536796D01*
X80118835Y-78536803D01*
X80139030Y-78716049D01*
X80139031Y-78716054D01*
X80198611Y-78886323D01*
X80289023Y-79030211D01*
X80294584Y-79039062D01*
X80422138Y-79166616D01*
X80512480Y-79223382D01*
X80560791Y-79253738D01*
X80574878Y-79262589D01*
X80745145Y-79322168D01*
X80745150Y-79322169D01*
X80924396Y-79342365D01*
X80924400Y-79342365D01*
X80924404Y-79342365D01*
X81103649Y-79322169D01*
X81103652Y-79322168D01*
X81103655Y-79322168D01*
X81273922Y-79262589D01*
X81426662Y-79166616D01*
X81554216Y-79039062D01*
X81650189Y-78886322D01*
X81709768Y-78716055D01*
X81729965Y-78536800D01*
X81709768Y-78357545D01*
X81650189Y-78187278D01*
X81554216Y-78034538D01*
X81426662Y-77906984D01*
X81273923Y-77811011D01*
X81103654Y-77751431D01*
X81103649Y-77751430D01*
X80924404Y-77731235D01*
X80924396Y-77731235D01*
X80745150Y-77751430D01*
X80745145Y-77751431D01*
X80574876Y-77811011D01*
X80422137Y-77906984D01*
X80294584Y-78034537D01*
X80198611Y-78187276D01*
X80139031Y-78357545D01*
X80139030Y-78357550D01*
X80118835Y-78536796D01*
X77266800Y-78536796D01*
X77266800Y-76758796D01*
X77805435Y-76758796D01*
X77805435Y-76758803D01*
X77825630Y-76938049D01*
X77825631Y-76938054D01*
X77885211Y-77108323D01*
X77981184Y-77261062D01*
X78108738Y-77388616D01*
X78199080Y-77445382D01*
X78221512Y-77459477D01*
X78261478Y-77484589D01*
X78431745Y-77544168D01*
X78431750Y-77544169D01*
X78610996Y-77564365D01*
X78611000Y-77564365D01*
X78611004Y-77564365D01*
X78790249Y-77544169D01*
X78790252Y-77544168D01*
X78790255Y-77544168D01*
X78960522Y-77484589D01*
X79113262Y-77388616D01*
X79240816Y-77261062D01*
X79336789Y-77108322D01*
X79396368Y-76938055D01*
X79396369Y-76938049D01*
X79404149Y-76868997D01*
X85299951Y-76868997D01*
X85299951Y-76869002D01*
X85318885Y-77037056D01*
X85374745Y-77196694D01*
X85374747Y-77196697D01*
X85464718Y-77339884D01*
X85464723Y-77339890D01*
X85584309Y-77459476D01*
X85584315Y-77459481D01*
X85727502Y-77549452D01*
X85727505Y-77549454D01*
X85727509Y-77549455D01*
X85727510Y-77549456D01*
X85770118Y-77564365D01*
X85887143Y-77605314D01*
X86055197Y-77624249D01*
X86055200Y-77624249D01*
X86055203Y-77624249D01*
X86223256Y-77605314D01*
X86223259Y-77605313D01*
X86382890Y-77549456D01*
X86382892Y-77549454D01*
X86382894Y-77549454D01*
X86382897Y-77549452D01*
X86526084Y-77459481D01*
X86526085Y-77459480D01*
X86526090Y-77459477D01*
X86645677Y-77339890D01*
X86645681Y-77339884D01*
X86735652Y-77196697D01*
X86735654Y-77196694D01*
X86735654Y-77196692D01*
X86735656Y-77196690D01*
X86791513Y-77037059D01*
X86791513Y-77037058D01*
X86791514Y-77037056D01*
X86810449Y-76869002D01*
X86810449Y-76868997D01*
X86791514Y-76700943D01*
X86735654Y-76541305D01*
X86735652Y-76541302D01*
X86645681Y-76398115D01*
X86645676Y-76398109D01*
X86526090Y-76278523D01*
X86526084Y-76278518D01*
X86382897Y-76188547D01*
X86382894Y-76188545D01*
X86223256Y-76132685D01*
X86055203Y-76113751D01*
X86055197Y-76113751D01*
X85887143Y-76132685D01*
X85727505Y-76188545D01*
X85727502Y-76188547D01*
X85584315Y-76278518D01*
X85584309Y-76278523D01*
X85464723Y-76398109D01*
X85464718Y-76398115D01*
X85374747Y-76541302D01*
X85374745Y-76541305D01*
X85318885Y-76700943D01*
X85299951Y-76868997D01*
X79404149Y-76868997D01*
X79416565Y-76758803D01*
X79416565Y-76758796D01*
X79396369Y-76579550D01*
X79396368Y-76579545D01*
X79336788Y-76409276D01*
X79240815Y-76256537D01*
X79113262Y-76128984D01*
X78960523Y-76033011D01*
X78790254Y-75973431D01*
X78790249Y-75973430D01*
X78611004Y-75953235D01*
X78610996Y-75953235D01*
X78431750Y-75973430D01*
X78431745Y-75973431D01*
X78261476Y-76033011D01*
X78108737Y-76128984D01*
X77981184Y-76256537D01*
X77885211Y-76409276D01*
X77825631Y-76579545D01*
X77825630Y-76579550D01*
X77805435Y-76758796D01*
X77266800Y-76758796D01*
X77266800Y-75742800D01*
X83604355Y-75742800D01*
X83624859Y-75911669D01*
X83624860Y-75911674D01*
X83685182Y-76070731D01*
X83714877Y-76113751D01*
X83781817Y-76210729D01*
X83858341Y-76278523D01*
X83909150Y-76323536D01*
X84059773Y-76402589D01*
X84059775Y-76402590D01*
X84224944Y-76443300D01*
X84395056Y-76443300D01*
X84560225Y-76402590D01*
X84639692Y-76360881D01*
X84710849Y-76323536D01*
X84710850Y-76323534D01*
X84710852Y-76323534D01*
X84838183Y-76210729D01*
X84934818Y-76070730D01*
X84995140Y-75911672D01*
X85015645Y-75742800D01*
X84995140Y-75573928D01*
X84934818Y-75414870D01*
X84838183Y-75274871D01*
X84710852Y-75162066D01*
X84710849Y-75162063D01*
X84560226Y-75083010D01*
X84395056Y-75042300D01*
X84224944Y-75042300D01*
X84059773Y-75083010D01*
X83909150Y-75162063D01*
X83781816Y-75274872D01*
X83685182Y-75414868D01*
X83624860Y-75573925D01*
X83624859Y-75573930D01*
X83604355Y-75742800D01*
X77266800Y-75742800D01*
X77266800Y-74879196D01*
X78544035Y-74879196D01*
X78544035Y-74879203D01*
X78564230Y-75058449D01*
X78564231Y-75058454D01*
X78623811Y-75228723D01*
X78652808Y-75274871D01*
X78719784Y-75381462D01*
X78847338Y-75509016D01*
X79000078Y-75604989D01*
X79170345Y-75664568D01*
X79170350Y-75664569D01*
X79349596Y-75684765D01*
X79349600Y-75684765D01*
X79349604Y-75684765D01*
X79528849Y-75664569D01*
X79528852Y-75664568D01*
X79528855Y-75664568D01*
X79699122Y-75604989D01*
X79851862Y-75509016D01*
X79979416Y-75381462D01*
X80075389Y-75228722D01*
X80134968Y-75058455D01*
X80134969Y-75058449D01*
X80155165Y-74879203D01*
X80155165Y-74879196D01*
X80134969Y-74699950D01*
X80134968Y-74699945D01*
X80075388Y-74529676D01*
X79979415Y-74376937D01*
X79851862Y-74249384D01*
X79699123Y-74153411D01*
X79528854Y-74093831D01*
X79528849Y-74093830D01*
X79349604Y-74073635D01*
X79349596Y-74073635D01*
X79170350Y-74093830D01*
X79170345Y-74093831D01*
X79000076Y-74153411D01*
X78847337Y-74249384D01*
X78719784Y-74376937D01*
X78623811Y-74529676D01*
X78564231Y-74699945D01*
X78564230Y-74699950D01*
X78544035Y-74879196D01*
X77266800Y-74879196D01*
X77266800Y-73504664D01*
X77286485Y-73437625D01*
X77339289Y-73391870D01*
X77390862Y-73380664D01*
X86265639Y-73385269D01*
G37*
%TD.AperFunction*%
%TD*%
M02*
