M48
; DRILL file {KiCad 8.0.9-8.0.9-0~ubuntu22.04.1} date 2025-08-01T23:19:18+0900
; FORMAT={-:-/ absolute / inch / decimal}
; #@! TF.CreationDate,2025-08-01T23:19:18+09:00
; #@! TF.GenerationSoftware,Kicad,Pcbnew,8.0.9-8.0.9-0~ubuntu22.04.1
; #@! TF.FileFunction,Plated,1,4,PTH
FMAT,2
INCH
; #@! TA.AperFunction,Plated,PTH,ViaDrill
T1C0.0098
; #@! TA.AperFunction,Plated,PTH,ViaDrill
T2C0.0118
; #@! TA.AperFunction,Plated,PTH,ComponentDrill
T3C0.0236
; #@! TA.AperFunction,Plated,PTH,ComponentDrill
T4C0.0315
; #@! TA.AperFunction,Plated,PTH,ComponentDrill
T5C0.0335
; #@! TA.AperFunction,Plated,PTH,ComponentDrill
T6C0.0374
; #@! TA.AperFunction,Plated,PTH,ComponentDrill
T7C0.1772
%
G90
G05
T1
X4.62Y-3.6724
X4.62Y-3.7234
X4.695Y-3.7034
X4.71Y-3.7534
X4.72Y-3.6884
X4.72Y-3.7934
X4.745Y-3.6545
X4.8119Y-3.8334
X4.8489Y-3.2384
X4.855Y-3.6734
X4.87Y-3.8234
X4.905Y-3.6734
T2
X3.935Y-2.7084
X3.935Y-3.2584
X3.935Y-3.8334
X3.94Y-3.3684
X4.12Y-3.5834
X4.125Y-3.0934
X4.145Y-2.7084
X4.15Y-3.3684
X4.15Y-3.4684
X4.17Y-3.0452
X4.17Y-3.1437
X4.21Y-3.5484
X4.21Y-3.8384
X4.21Y-4.1684
X4.215Y-3.2634
X4.245Y-2.4034
X4.255Y-3.4734
X4.27Y-3.8484
X4.3178Y-3.4784
X4.32Y-3.2684
X4.36Y-2.7184
X4.375Y-3.6434
X4.38Y-3.5534
X4.422Y-3.8657
X4.43Y-3.8184
X4.44Y-2.9884
X4.45Y-3.7534
X4.4535Y-3.8657
X4.47Y-3.2384
X4.5383Y-3.1184
X4.54Y-3.2384
X4.545Y-2.99
X4.545Y-3.0234
X4.555Y-3.9934
X4.555Y-4.1684
X4.56Y-3.7534
X4.572Y-3.5628
X4.5724Y-3.6584
X4.6Y-3.0233
X4.62Y-2.7184
X4.62Y-2.9784
X4.625Y-3.5584
X4.645Y-3.4334
X4.6465Y-3.8657
X4.6619Y-3.066
X4.678Y-3.8657
X4.6798Y-2.8134
X4.68Y-3.0234
X4.68Y-3.7684
X4.685Y-2.9084
X4.69Y-3.1684
X4.76Y-3.4734
X4.78Y-3.0134
X4.795Y-3.1834
X4.8111Y-3.2384
X4.815Y-2.9384
X4.835Y-2.7184
X4.85Y-2.4134
X4.905Y-3.308
X4.9181Y-3.796
X4.925Y-3.5634
X4.94Y-3.9884
X4.945Y-4.1684
X4.951Y-3.2114
X4.99Y-3.7534
X5.04Y-3.1884
X5.1451Y-3.2384
X5.16Y-2.7234
X5.165Y-3.6034
X5.17Y-3.7984
X5.17Y-3.9834
X5.18Y-3.3734
X5.18Y-3.7434
T4
X4.45Y-2.8434
X4.5287Y-2.8434
T5
X4.05Y-2.8484
X4.05Y-2.9468
X4.05Y-3.0452
X4.05Y-3.1437
X4.285Y-2.8487
X4.285Y-2.9471
X4.285Y-3.0455
X4.285Y-3.1439
T6
X4.05Y-3.4531
X4.05Y-3.5515
X4.05Y-3.65
X4.05Y-3.7484
X4.895Y-2.8615
X4.895Y-2.96
X4.895Y-3.0584
X5.085Y-2.8615
X5.085Y-2.96
X5.085Y-3.0584
T7
X4.4Y-2.55
X4.6835Y-2.55
T3
G00X4.3799Y-3.8801
M15
G01X4.3799Y-3.9234
M16
G05
G00X4.3799Y-4.0545
M15
G01X4.3799Y-4.0781
M16
G05
G00X4.7201Y-3.8801
M15
G01X4.7201Y-3.9234
M16
G05
G00X4.7201Y-4.0545
M15
G01X4.7201Y-4.0781
M16
G05
M30
