%TF.GenerationSoftware,KiCad,Pcbnew,8.0.9-8.0.9-0~ubuntu22.04.1*%
%TF.CreationDate,2025-08-01T23:19:18+09:00*%
%TF.ProjectId,USB2DXL,55534232-4458-44c2-9e6b-696361645f70,rev?*%
%TF.SameCoordinates,Original*%
%TF.FileFunction,Copper,L2,Inr*%
%TF.FilePolarity,Positive*%
%FSLAX46Y46*%
G04 Gerber Fmt 4.6, Leading zero omitted, Abs format (unit mm)*
G04 Created by KiCad (PCBNEW 8.0.9-8.0.9-0~ubuntu22.04.1) date 2025-08-01 23:19:18*
%MOMM*%
%LPD*%
G01*
G04 APERTURE LIST*
G04 Aperture macros list*
%AMRoundRect*
0 Rectangle with rounded corners*
0 $1 Rounding radius*
0 $2 $3 $4 $5 $6 $7 $8 $9 X,Y pos of 4 corners*
0 Add a 4 corners polygon primitive as box body*
4,1,4,$2,$3,$4,$5,$6,$7,$8,$9,$2,$3,0*
0 Add four circle primitives for the rounded corners*
1,1,$1+$1,$2,$3*
1,1,$1+$1,$4,$5*
1,1,$1+$1,$6,$7*
1,1,$1+$1,$8,$9*
0 Add four rect primitives between the rounded corners*
20,1,$1+$1,$2,$3,$4,$5,0*
20,1,$1+$1,$4,$5,$6,$7,0*
20,1,$1+$1,$6,$7,$8,$9,0*
20,1,$1+$1,$8,$9,$2,$3,0*%
G04 Aperture macros list end*
%TA.AperFunction,ComponentPad*%
%ADD10RoundRect,0.250000X0.675000X-0.600000X0.675000X0.600000X-0.675000X0.600000X-0.675000X-0.600000X0*%
%TD*%
%TA.AperFunction,ComponentPad*%
%ADD11O,1.850000X1.700000*%
%TD*%
%TA.AperFunction,ComponentPad*%
%ADD12RoundRect,0.250000X0.725000X-0.600000X0.725000X0.600000X-0.725000X0.600000X-0.725000X-0.600000X0*%
%TD*%
%TA.AperFunction,ComponentPad*%
%ADD13O,1.950000X1.700000*%
%TD*%
%TA.AperFunction,HeatsinkPad*%
%ADD14O,1.000000X2.100000*%
%TD*%
%TA.AperFunction,HeatsinkPad*%
%ADD15O,1.000000X1.600000*%
%TD*%
%TA.AperFunction,ComponentPad*%
%ADD16R,1.600000X1.600000*%
%TD*%
%TA.AperFunction,ComponentPad*%
%ADD17C,1.600000*%
%TD*%
%TA.AperFunction,ComponentPad*%
%ADD18RoundRect,1.500000X-1.500000X-1.500000X1.500000X-1.500000X1.500000X1.500000X-1.500000X1.500000X0*%
%TD*%
%TA.AperFunction,ComponentPad*%
%ADD19C,6.000000*%
%TD*%
%TA.AperFunction,ViaPad*%
%ADD20C,0.500000*%
%TD*%
%TA.AperFunction,ViaPad*%
%ADD21C,0.600000*%
%TD*%
%TA.AperFunction,ViaPad*%
%ADD22C,0.400000*%
%TD*%
G04 APERTURE END LIST*
D10*
%TO.N,/DATA-*%
%TO.C,J7*%
X108839000Y-79856000D03*
D11*
%TO.N,/DATA+*%
X108839000Y-77356000D03*
%TO.N,+12V*%
X108839000Y-74856000D03*
%TO.N,GNDPWR*%
X108839000Y-72356000D03*
%TD*%
D12*
%TO.N,GND*%
%TO.C,J4*%
X102870000Y-95209000D03*
D13*
%TO.N,+5V*%
X102870000Y-92709000D03*
%TO.N,/TX_pin*%
X102870000Y-90209000D03*
%TO.N,/RXD*%
X102870000Y-87709000D03*
%TD*%
D14*
%TO.N,GND*%
%TO.C,J2*%
X111250000Y-99105000D03*
D15*
X111250000Y-103285000D03*
D14*
X119890000Y-99105000D03*
D15*
X119890000Y-103285000D03*
%TD*%
D13*
%TO.N,/DATA*%
%TO.C,J3*%
X124333000Y-72683000D03*
%TO.N,+12V*%
X124333000Y-75183000D03*
D12*
%TO.N,GNDPWR*%
X124333000Y-77683000D03*
%TD*%
D16*
%TO.N,+12V*%
%TO.C,C10*%
X115030000Y-72222000D03*
D17*
%TO.N,GNDPWR*%
X113030000Y-72222000D03*
%TD*%
D10*
%TO.N,/DATA-*%
%TO.C,J6*%
X102870000Y-79849000D03*
D11*
%TO.N,/DATA+*%
X102870000Y-77349000D03*
%TO.N,+12V*%
X102870000Y-74849000D03*
%TO.N,GNDPWR*%
X102870000Y-72349000D03*
%TD*%
D18*
%TO.N,GNDPWR*%
%TO.C,J1*%
X111760000Y-64770000D03*
D19*
%TO.N,+12V*%
X118960000Y-64770000D03*
%TD*%
D12*
%TO.N,GNDPWR*%
%TO.C,J5*%
X129159000Y-77683000D03*
D13*
%TO.N,+12V*%
X129159000Y-75183000D03*
%TO.N,/DATA*%
X129159000Y-72683000D03*
%TD*%
D20*
%TO.N,GNDPWR*%
X123162000Y-82255000D03*
%TO.N,GND*%
X123317000Y-93304000D03*
X120523000Y-92824000D03*
D21*
%TO.N,+5VP*%
X118868000Y-71460000D03*
%TO.N,GNDPWR*%
X118999000Y-73873000D03*
%TO.N,+5VP*%
X121412000Y-76540000D03*
X116840000Y-76792000D03*
X122202000Y-82255000D03*
X130685000Y-82255000D03*
%TO.N,GNDPWR*%
X128016000Y-80985000D03*
X122301000Y-74635000D03*
X117348000Y-75651000D03*
X107823000Y-61046000D03*
X123190000Y-61300000D03*
X131064000Y-69174000D03*
X122809000Y-69047000D03*
X117348000Y-69047000D03*
X110744000Y-69047000D03*
X105283000Y-68793000D03*
X99949000Y-68793000D03*
X104775000Y-78572000D03*
X99949000Y-82763000D03*
X107061000Y-82890000D03*
X109728000Y-83017000D03*
X125755400Y-81569200D03*
X121793000Y-80858000D03*
X119126000Y-80477000D03*
X120904000Y-88224000D03*
X131572000Y-85684000D03*
X108077000Y-88224000D03*
%TO.N,GND*%
X115824000Y-95336000D03*
X118872000Y-95717000D03*
X131318000Y-101178000D03*
X115697000Y-101432000D03*
X125476000Y-101305000D03*
X125603000Y-105877000D03*
X115697000Y-105877000D03*
X131318000Y-96479000D03*
X126746000Y-95336000D03*
X125095000Y-90510000D03*
X131191000Y-91526000D03*
X106934000Y-90129000D03*
%TO.N,+5VP*%
X109672000Y-88351000D03*
%TO.N,Net-(U4-RO)*%
X117983000Y-87208000D03*
X118411000Y-77876000D03*
%TO.N,/TX*%
X118872000Y-76794000D03*
X124587000Y-84024000D03*
%TO.N,GND*%
X111125000Y-92542000D03*
X113030000Y-95336000D03*
X104648000Y-91018000D03*
X106934000Y-97495000D03*
X106934000Y-105877000D03*
X99949000Y-97368000D03*
X100076000Y-85557000D03*
X105410000Y-85557000D03*
X105410000Y-88097000D03*
X111252000Y-90256000D03*
X117475000Y-90383000D03*
%TO.N,+5V*%
X131572000Y-95082000D03*
X124921000Y-96418000D03*
D22*
X119888000Y-93685000D03*
X119634000Y-95336000D03*
%TO.N,/TX_pin*%
X119888000Y-96352000D03*
%TO.N,/TX_usb*%
X122221000Y-97368000D03*
%TO.N,/TXD*%
X124587000Y-93304000D03*
X123698000Y-97114000D03*
%TO.N,+5V*%
X117348000Y-94574000D03*
X117348000Y-93280000D03*
D21*
%TO.N,/TXNOW*%
X116138205Y-92922553D03*
X116128500Y-90494000D03*
%TO.N,+5V*%
X112522000Y-96987000D03*
X108458000Y-97749000D03*
%TO.N,/DATA-*%
X105918000Y-79849000D03*
%TO.N,/DATA+*%
X105918000Y-77349000D03*
%TO.N,GNDPWR*%
X113538000Y-82255000D03*
X115273500Y-79207000D03*
%TO.N,+5VP*%
X115316000Y-82255000D03*
%TO.N,GNDPWR*%
X112776000Y-75905000D03*
%TO.N,+12V*%
X115443000Y-76794000D03*
X115443000Y-75946000D03*
%TO.N,GND*%
X118820000Y-98190000D03*
X112320000Y-98190000D03*
%TO.N,+5V*%
X113120000Y-98190000D03*
X118020000Y-98190000D03*
D22*
%TO.N,/TX_usb*%
X119253000Y-94066000D03*
%TD*%
%TA.AperFunction,Conductor*%
%TO.N,GND*%
G36*
X106496039Y-84687685D02*
G01*
X106541794Y-84740489D01*
X106553000Y-84792000D01*
X106553000Y-89621000D01*
X115582850Y-89621000D01*
X115649889Y-89640685D01*
X115695644Y-89693489D01*
X115705588Y-89762647D01*
X115676563Y-89826203D01*
X115648824Y-89849992D01*
X115639016Y-89856154D01*
X115626237Y-89864184D01*
X115498684Y-89991737D01*
X115402711Y-90144476D01*
X115343131Y-90314745D01*
X115343130Y-90314750D01*
X115322935Y-90493996D01*
X115322935Y-90494003D01*
X115343130Y-90673249D01*
X115343131Y-90673254D01*
X115402711Y-90843523D01*
X115448767Y-90916820D01*
X115498684Y-90996262D01*
X115626238Y-91123816D01*
X115778978Y-91219789D01*
X115949245Y-91279368D01*
X115949250Y-91279369D01*
X116128496Y-91299565D01*
X116128500Y-91299565D01*
X116128504Y-91299565D01*
X116307749Y-91279369D01*
X116307752Y-91279368D01*
X116307755Y-91279368D01*
X116478022Y-91219789D01*
X116630762Y-91123816D01*
X116758316Y-90996262D01*
X116854289Y-90843522D01*
X116913868Y-90673255D01*
X116930545Y-90525243D01*
X116934065Y-90494003D01*
X116934065Y-90493996D01*
X116913869Y-90314750D01*
X116913868Y-90314745D01*
X116854288Y-90144476D01*
X116758315Y-89991737D01*
X116630762Y-89864184D01*
X116608177Y-89849992D01*
X116561887Y-89797660D01*
X116551238Y-89728606D01*
X116579613Y-89664758D01*
X116638003Y-89626386D01*
X116674150Y-89621000D01*
X131755500Y-89621000D01*
X131822539Y-89640685D01*
X131868294Y-89693489D01*
X131879500Y-89745000D01*
X131879500Y-94172325D01*
X131859815Y-94239364D01*
X131807011Y-94285119D01*
X131741617Y-94295545D01*
X131572004Y-94276435D01*
X131571996Y-94276435D01*
X131392750Y-94296630D01*
X131392745Y-94296631D01*
X131222476Y-94356211D01*
X131069737Y-94452184D01*
X130942184Y-94579737D01*
X130846211Y-94732476D01*
X130786631Y-94902745D01*
X130786630Y-94902750D01*
X130766435Y-95081996D01*
X130766435Y-95082003D01*
X130786630Y-95261249D01*
X130786631Y-95261254D01*
X130846211Y-95431523D01*
X130892298Y-95504869D01*
X130942184Y-95584262D01*
X131069738Y-95711816D01*
X131100508Y-95731150D01*
X131216334Y-95803929D01*
X131222478Y-95807789D01*
X131264500Y-95822493D01*
X131392745Y-95867368D01*
X131392750Y-95867369D01*
X131571996Y-95887565D01*
X131572000Y-95887565D01*
X131572003Y-95887565D01*
X131741616Y-95868454D01*
X131810438Y-95880508D01*
X131861818Y-95927857D01*
X131879500Y-95991674D01*
X131879500Y-102381947D01*
X131879351Y-102388032D01*
X131861502Y-102751335D01*
X131860309Y-102763444D01*
X131807388Y-103120217D01*
X131805014Y-103132153D01*
X131717373Y-103482035D01*
X131713840Y-103493680D01*
X131592335Y-103833262D01*
X131587679Y-103844504D01*
X131433462Y-104170570D01*
X131427725Y-104181302D01*
X131242303Y-104490659D01*
X131235543Y-104500777D01*
X131020678Y-104790488D01*
X131012958Y-104799894D01*
X130770743Y-105067138D01*
X130762138Y-105075743D01*
X130494894Y-105317958D01*
X130485488Y-105325678D01*
X130195777Y-105540543D01*
X130185659Y-105547303D01*
X129876302Y-105732725D01*
X129865570Y-105738462D01*
X129539504Y-105892679D01*
X129528262Y-105897335D01*
X129188680Y-106018840D01*
X129177035Y-106022373D01*
X128827153Y-106110014D01*
X128815217Y-106112388D01*
X128458444Y-106165309D01*
X128446335Y-106166502D01*
X128083033Y-106184351D01*
X128076948Y-106184500D01*
X103063052Y-106184500D01*
X103056967Y-106184351D01*
X102693664Y-106166502D01*
X102681555Y-106165309D01*
X102324782Y-106112388D01*
X102312846Y-106110014D01*
X101962964Y-106022373D01*
X101951323Y-106018841D01*
X101611734Y-105897334D01*
X101600495Y-105892679D01*
X101274429Y-105738462D01*
X101263702Y-105732727D01*
X100954340Y-105547303D01*
X100944222Y-105540543D01*
X100654511Y-105325678D01*
X100645105Y-105317958D01*
X100602479Y-105279324D01*
X100377853Y-105075735D01*
X100369264Y-105067146D01*
X100127041Y-104799894D01*
X100119321Y-104790488D01*
X99904456Y-104500777D01*
X99897696Y-104490659D01*
X99712267Y-104181290D01*
X99706543Y-104170582D01*
X99552317Y-103844497D01*
X99547669Y-103833275D01*
X99426154Y-103493663D01*
X99422629Y-103482046D01*
X99334982Y-103132140D01*
X99332613Y-103120230D01*
X99279689Y-102763440D01*
X99278497Y-102751334D01*
X99260649Y-102388031D01*
X99260500Y-102381947D01*
X99260500Y-101903549D01*
X101169500Y-101903549D01*
X101169500Y-102126450D01*
X101169501Y-102126466D01*
X101198594Y-102347452D01*
X101198595Y-102347457D01*
X101198596Y-102347463D01*
X101256290Y-102562780D01*
X101256293Y-102562790D01*
X101263091Y-102579201D01*
X101341595Y-102768726D01*
X101453052Y-102961774D01*
X101453057Y-102961780D01*
X101453058Y-102961782D01*
X101588751Y-103138622D01*
X101588757Y-103138629D01*
X101746370Y-103296242D01*
X101746377Y-103296248D01*
X101872294Y-103392867D01*
X101923226Y-103431948D01*
X102116274Y-103543405D01*
X102322219Y-103628710D01*
X102537537Y-103686404D01*
X102758543Y-103715500D01*
X102758550Y-103715500D01*
X102981450Y-103715500D01*
X102981457Y-103715500D01*
X103202463Y-103686404D01*
X103417781Y-103628710D01*
X103623726Y-103543405D01*
X103816774Y-103431948D01*
X103993624Y-103296247D01*
X104151247Y-103138624D01*
X104286948Y-102961774D01*
X104398405Y-102768726D01*
X104483710Y-102562781D01*
X104541404Y-102347463D01*
X104570500Y-102126457D01*
X104570500Y-101903549D01*
X126569500Y-101903549D01*
X126569500Y-102126450D01*
X126569501Y-102126466D01*
X126598594Y-102347452D01*
X126598595Y-102347457D01*
X126598596Y-102347463D01*
X126656290Y-102562780D01*
X126656293Y-102562790D01*
X126663091Y-102579201D01*
X126741595Y-102768726D01*
X126853052Y-102961774D01*
X126853057Y-102961780D01*
X126853058Y-102961782D01*
X126988751Y-103138622D01*
X126988757Y-103138629D01*
X127146370Y-103296242D01*
X127146377Y-103296248D01*
X127272294Y-103392867D01*
X127323226Y-103431948D01*
X127516274Y-103543405D01*
X127722219Y-103628710D01*
X127937537Y-103686404D01*
X128158543Y-103715500D01*
X128158550Y-103715500D01*
X128381450Y-103715500D01*
X128381457Y-103715500D01*
X128602463Y-103686404D01*
X128817781Y-103628710D01*
X129023726Y-103543405D01*
X129216774Y-103431948D01*
X129393624Y-103296247D01*
X129551247Y-103138624D01*
X129686948Y-102961774D01*
X129798405Y-102768726D01*
X129883710Y-102562781D01*
X129941404Y-102347463D01*
X129970500Y-102126457D01*
X129970500Y-101903543D01*
X129941404Y-101682537D01*
X129883710Y-101467219D01*
X129798405Y-101261274D01*
X129686948Y-101068226D01*
X129551247Y-100891376D01*
X129551242Y-100891370D01*
X129393629Y-100733757D01*
X129393622Y-100733751D01*
X129216782Y-100598058D01*
X129216780Y-100598057D01*
X129216774Y-100598052D01*
X129023726Y-100486595D01*
X129023722Y-100486593D01*
X128817790Y-100401293D01*
X128817783Y-100401291D01*
X128817781Y-100401290D01*
X128602463Y-100343596D01*
X128602457Y-100343595D01*
X128602452Y-100343594D01*
X128381466Y-100314501D01*
X128381463Y-100314500D01*
X128381457Y-100314500D01*
X128158543Y-100314500D01*
X128158537Y-100314500D01*
X128158533Y-100314501D01*
X127937547Y-100343594D01*
X127937540Y-100343595D01*
X127937537Y-100343596D01*
X127722219Y-100401290D01*
X127722209Y-100401293D01*
X127516277Y-100486593D01*
X127516273Y-100486595D01*
X127323226Y-100598052D01*
X127323217Y-100598058D01*
X127146377Y-100733751D01*
X127146370Y-100733757D01*
X126988757Y-100891370D01*
X126988751Y-100891377D01*
X126853058Y-101068217D01*
X126853052Y-101068226D01*
X126741595Y-101261273D01*
X126741593Y-101261277D01*
X126656293Y-101467209D01*
X126656290Y-101467219D01*
X126598597Y-101682534D01*
X126598594Y-101682547D01*
X126569501Y-101903533D01*
X126569500Y-101903549D01*
X104570500Y-101903549D01*
X104570500Y-101903543D01*
X104541404Y-101682537D01*
X104483710Y-101467219D01*
X104398405Y-101261274D01*
X104286948Y-101068226D01*
X104151247Y-100891376D01*
X104151242Y-100891370D01*
X103993629Y-100733757D01*
X103993622Y-100733751D01*
X103816782Y-100598058D01*
X103816780Y-100598057D01*
X103816774Y-100598052D01*
X103623726Y-100486595D01*
X103623722Y-100486593D01*
X103417790Y-100401293D01*
X103417783Y-100401291D01*
X103417781Y-100401290D01*
X103202463Y-100343596D01*
X103202457Y-100343595D01*
X103202452Y-100343594D01*
X102981466Y-100314501D01*
X102981463Y-100314500D01*
X102981457Y-100314500D01*
X102758543Y-100314500D01*
X102758537Y-100314500D01*
X102758533Y-100314501D01*
X102537547Y-100343594D01*
X102537540Y-100343595D01*
X102537537Y-100343596D01*
X102322219Y-100401290D01*
X102322209Y-100401293D01*
X102116277Y-100486593D01*
X102116273Y-100486595D01*
X101923226Y-100598052D01*
X101923217Y-100598058D01*
X101746377Y-100733751D01*
X101746370Y-100733757D01*
X101588757Y-100891370D01*
X101588751Y-100891377D01*
X101453058Y-101068217D01*
X101453052Y-101068226D01*
X101341595Y-101261273D01*
X101341593Y-101261277D01*
X101256293Y-101467209D01*
X101256290Y-101467219D01*
X101198597Y-101682534D01*
X101198594Y-101682547D01*
X101169501Y-101903533D01*
X101169500Y-101903549D01*
X99260500Y-101903549D01*
X99260500Y-99578982D01*
X112254500Y-99578982D01*
X112254500Y-99691018D01*
X112283497Y-99799237D01*
X112339515Y-99896263D01*
X112418737Y-99975485D01*
X112515763Y-100031503D01*
X112623982Y-100060500D01*
X112623984Y-100060500D01*
X112736016Y-100060500D01*
X112736018Y-100060500D01*
X112844237Y-100031503D01*
X112941263Y-99975485D01*
X113020485Y-99896263D01*
X113076503Y-99799237D01*
X113105500Y-99691018D01*
X113105500Y-99578982D01*
X118034500Y-99578982D01*
X118034500Y-99691018D01*
X118063497Y-99799237D01*
X118119515Y-99896263D01*
X118198737Y-99975485D01*
X118295763Y-100031503D01*
X118403982Y-100060500D01*
X118403984Y-100060500D01*
X118516016Y-100060500D01*
X118516018Y-100060500D01*
X118624237Y-100031503D01*
X118721263Y-99975485D01*
X118800485Y-99896263D01*
X118856503Y-99799237D01*
X118885500Y-99691018D01*
X118885500Y-99578982D01*
X118856503Y-99470763D01*
X118800485Y-99373737D01*
X118721263Y-99294515D01*
X118624237Y-99238497D01*
X118516018Y-99209500D01*
X118403982Y-99209500D01*
X118295763Y-99238497D01*
X118295760Y-99238498D01*
X118198740Y-99294513D01*
X118198734Y-99294517D01*
X118119517Y-99373734D01*
X118119513Y-99373740D01*
X118063498Y-99470760D01*
X118063497Y-99470763D01*
X118034500Y-99578982D01*
X113105500Y-99578982D01*
X113076503Y-99470763D01*
X113020485Y-99373737D01*
X112941263Y-99294515D01*
X112844237Y-99238497D01*
X112736018Y-99209500D01*
X112623982Y-99209500D01*
X112515763Y-99238497D01*
X112515760Y-99238498D01*
X112418740Y-99294513D01*
X112418734Y-99294517D01*
X112339517Y-99373734D01*
X112339513Y-99373740D01*
X112283498Y-99470760D01*
X112283497Y-99470763D01*
X112254500Y-99578982D01*
X99260500Y-99578982D01*
X99260500Y-97748996D01*
X107652435Y-97748996D01*
X107652435Y-97749003D01*
X107672630Y-97928249D01*
X107672631Y-97928254D01*
X107732211Y-98098523D01*
X107789688Y-98189996D01*
X107828184Y-98251262D01*
X107955738Y-98378816D01*
X108108478Y-98474789D01*
X108278745Y-98534368D01*
X108278750Y-98534369D01*
X108457996Y-98554565D01*
X108458000Y-98554565D01*
X108458004Y-98554565D01*
X108637249Y-98534369D01*
X108637252Y-98534368D01*
X108637255Y-98534368D01*
X108807522Y-98474789D01*
X108960262Y-98378816D01*
X109087816Y-98251262D01*
X109183789Y-98098522D01*
X109243368Y-97928255D01*
X109253258Y-97840478D01*
X109263565Y-97749003D01*
X109263565Y-97748996D01*
X109243369Y-97569750D01*
X109243368Y-97569745D01*
X109213580Y-97484616D01*
X109183789Y-97399478D01*
X109087816Y-97246738D01*
X108960262Y-97119184D01*
X108952012Y-97114000D01*
X108807523Y-97023211D01*
X108704027Y-96986996D01*
X111716435Y-96986996D01*
X111716435Y-96987003D01*
X111736630Y-97166249D01*
X111736631Y-97166254D01*
X111796211Y-97336523D01*
X111839007Y-97404632D01*
X111892184Y-97489262D01*
X112019738Y-97616816D01*
X112132608Y-97687737D01*
X112172478Y-97712789D01*
X112292787Y-97754887D01*
X112349563Y-97795609D01*
X112375311Y-97860562D01*
X112368875Y-97912884D01*
X112334631Y-98010745D01*
X112334630Y-98010750D01*
X112314435Y-98189996D01*
X112314435Y-98190003D01*
X112334630Y-98369249D01*
X112334631Y-98369254D01*
X112394211Y-98539523D01*
X112403663Y-98554565D01*
X112490184Y-98692262D01*
X112617738Y-98819816D01*
X112770478Y-98915789D01*
X112940745Y-98975368D01*
X112940750Y-98975369D01*
X113119996Y-98995565D01*
X113120000Y-98995565D01*
X113120004Y-98995565D01*
X113299249Y-98975369D01*
X113299252Y-98975368D01*
X113299255Y-98975368D01*
X113469522Y-98915789D01*
X113622262Y-98819816D01*
X113749816Y-98692262D01*
X113845789Y-98539522D01*
X113905368Y-98369255D01*
X113905369Y-98369249D01*
X113925565Y-98190003D01*
X113925565Y-98189996D01*
X117214435Y-98189996D01*
X117214435Y-98190003D01*
X117234630Y-98369249D01*
X117234631Y-98369254D01*
X117294211Y-98539523D01*
X117303663Y-98554565D01*
X117390184Y-98692262D01*
X117517738Y-98819816D01*
X117670478Y-98915789D01*
X117840745Y-98975368D01*
X117840750Y-98975369D01*
X118019996Y-98995565D01*
X118020000Y-98995565D01*
X118020004Y-98995565D01*
X118199249Y-98975369D01*
X118199252Y-98975368D01*
X118199255Y-98975368D01*
X118369522Y-98915789D01*
X118522262Y-98819816D01*
X118649816Y-98692262D01*
X118745789Y-98539522D01*
X118805368Y-98369255D01*
X118805369Y-98369249D01*
X118825565Y-98190003D01*
X118825565Y-98189996D01*
X118805369Y-98010750D01*
X118805368Y-98010745D01*
X118783669Y-97948734D01*
X118745789Y-97840478D01*
X118742929Y-97835927D01*
X118702993Y-97772368D01*
X118649816Y-97687738D01*
X118522262Y-97560184D01*
X118490647Y-97540319D01*
X118369523Y-97464211D01*
X118199254Y-97404631D01*
X118199249Y-97404630D01*
X118020004Y-97384435D01*
X118019996Y-97384435D01*
X117840750Y-97404630D01*
X117840745Y-97404631D01*
X117670476Y-97464211D01*
X117517737Y-97560184D01*
X117390184Y-97687737D01*
X117294211Y-97840476D01*
X117234631Y-98010745D01*
X117234630Y-98010750D01*
X117214435Y-98189996D01*
X113925565Y-98189996D01*
X113905369Y-98010750D01*
X113905368Y-98010745D01*
X113883669Y-97948734D01*
X113845789Y-97840478D01*
X113842929Y-97835927D01*
X113802993Y-97772368D01*
X113749816Y-97687738D01*
X113622262Y-97560184D01*
X113590647Y-97540319D01*
X113469521Y-97464210D01*
X113386297Y-97435089D01*
X113349211Y-97422112D01*
X113292436Y-97381391D01*
X113287128Y-97368000D01*
X121515355Y-97368000D01*
X121535859Y-97536869D01*
X121535860Y-97536874D01*
X121596182Y-97695931D01*
X121649925Y-97773790D01*
X121692817Y-97835929D01*
X121779682Y-97912884D01*
X121820150Y-97948736D01*
X121938308Y-98010750D01*
X121970775Y-98027790D01*
X122135944Y-98068500D01*
X122306056Y-98068500D01*
X122471225Y-98027790D01*
X122550692Y-97986081D01*
X122621849Y-97948736D01*
X122621850Y-97948734D01*
X122621852Y-97948734D01*
X122749183Y-97835929D01*
X122845818Y-97695930D01*
X122904833Y-97540317D01*
X122947009Y-97484616D01*
X123012606Y-97460558D01*
X123080797Y-97475784D01*
X123122823Y-97513848D01*
X123169815Y-97581927D01*
X123169816Y-97581928D01*
X123169817Y-97581929D01*
X123233482Y-97638331D01*
X123297150Y-97694736D01*
X123445066Y-97772368D01*
X123447775Y-97773790D01*
X123612944Y-97814500D01*
X123783056Y-97814500D01*
X123948225Y-97773790D01*
X124027692Y-97732081D01*
X124098849Y-97694736D01*
X124098850Y-97694734D01*
X124098852Y-97694734D01*
X124226183Y-97581929D01*
X124322818Y-97441930D01*
X124383140Y-97282872D01*
X124388625Y-97237694D01*
X124416246Y-97173518D01*
X124474180Y-97134460D01*
X124544032Y-97132925D01*
X124565529Y-97140924D01*
X124571475Y-97143788D01*
X124741745Y-97203368D01*
X124741750Y-97203369D01*
X124920996Y-97223565D01*
X124921000Y-97223565D01*
X124921004Y-97223565D01*
X125100249Y-97203369D01*
X125100252Y-97203368D01*
X125100255Y-97203368D01*
X125270522Y-97143789D01*
X125423262Y-97047816D01*
X125550816Y-96920262D01*
X125646789Y-96767522D01*
X125706368Y-96597255D01*
X125714974Y-96520874D01*
X125726565Y-96418003D01*
X125726565Y-96417996D01*
X125706369Y-96238750D01*
X125706368Y-96238745D01*
X125646788Y-96068476D01*
X125558431Y-95927857D01*
X125550816Y-95915738D01*
X125423262Y-95788184D01*
X125396337Y-95771266D01*
X125270523Y-95692211D01*
X125100254Y-95632631D01*
X125100249Y-95632630D01*
X124921004Y-95612435D01*
X124920996Y-95612435D01*
X124741750Y-95632630D01*
X124741745Y-95632631D01*
X124571476Y-95692211D01*
X124418737Y-95788184D01*
X124291184Y-95915737D01*
X124195211Y-96068476D01*
X124135631Y-96238745D01*
X124135630Y-96238749D01*
X124122547Y-96354873D01*
X124095481Y-96419287D01*
X124037886Y-96458842D01*
X123968049Y-96460979D01*
X123955510Y-96456147D01*
X123955237Y-96456869D01*
X123948227Y-96454210D01*
X123783056Y-96413500D01*
X123612944Y-96413500D01*
X123447773Y-96454210D01*
X123297150Y-96533263D01*
X123169816Y-96646072D01*
X123073182Y-96786068D01*
X123073182Y-96786069D01*
X123014167Y-96941681D01*
X122971989Y-96997384D01*
X122906392Y-97021441D01*
X122838201Y-97006214D01*
X122796176Y-96968152D01*
X122749183Y-96900071D01*
X122621852Y-96787266D01*
X122621849Y-96787263D01*
X122471226Y-96708210D01*
X122306056Y-96667500D01*
X122135944Y-96667500D01*
X121970773Y-96708210D01*
X121820150Y-96787263D01*
X121692816Y-96900072D01*
X121596182Y-97040068D01*
X121535860Y-97199125D01*
X121535859Y-97199130D01*
X121515355Y-97368000D01*
X113287128Y-97368000D01*
X113266688Y-97316439D01*
X113273125Y-97264115D01*
X113307367Y-97166259D01*
X113307369Y-97166249D01*
X113327565Y-96987003D01*
X113327565Y-96986996D01*
X113307369Y-96807750D01*
X113307368Y-96807745D01*
X113262644Y-96679931D01*
X113247789Y-96637478D01*
X113222511Y-96597249D01*
X113174522Y-96520874D01*
X113151816Y-96484738D01*
X113024262Y-96357184D01*
X113016012Y-96352000D01*
X112871523Y-96261211D01*
X112701254Y-96201631D01*
X112701249Y-96201630D01*
X112522004Y-96181435D01*
X112521996Y-96181435D01*
X112342750Y-96201630D01*
X112342745Y-96201631D01*
X112172476Y-96261211D01*
X112019737Y-96357184D01*
X111892184Y-96484737D01*
X111796211Y-96637476D01*
X111736631Y-96807745D01*
X111736630Y-96807750D01*
X111716435Y-96986996D01*
X108704027Y-96986996D01*
X108637254Y-96963631D01*
X108637249Y-96963630D01*
X108458004Y-96943435D01*
X108457996Y-96943435D01*
X108278750Y-96963630D01*
X108278745Y-96963631D01*
X108108476Y-97023211D01*
X107955737Y-97119184D01*
X107828184Y-97246737D01*
X107732211Y-97399476D01*
X107672631Y-97569745D01*
X107672630Y-97569750D01*
X107652435Y-97748996D01*
X99260500Y-97748996D01*
X99260500Y-87602713D01*
X101394500Y-87602713D01*
X101394500Y-87815287D01*
X101427754Y-88025243D01*
X101492334Y-88224000D01*
X101493444Y-88227414D01*
X101589951Y-88416820D01*
X101714890Y-88588786D01*
X101865209Y-88739105D01*
X101865214Y-88739109D01*
X102029793Y-88858682D01*
X102072459Y-88914011D01*
X102078438Y-88983625D01*
X102045833Y-89045420D01*
X102029793Y-89059318D01*
X101865214Y-89178890D01*
X101865209Y-89178894D01*
X101714890Y-89329213D01*
X101589951Y-89501179D01*
X101493444Y-89690585D01*
X101427753Y-89892760D01*
X101394500Y-90102713D01*
X101394500Y-90315286D01*
X101422805Y-90494000D01*
X101427754Y-90525243D01*
X101475846Y-90673255D01*
X101493444Y-90727414D01*
X101589951Y-90916820D01*
X101714890Y-91088786D01*
X101865209Y-91239105D01*
X101865214Y-91239109D01*
X102029793Y-91358682D01*
X102072459Y-91414011D01*
X102078438Y-91483625D01*
X102045833Y-91545420D01*
X102029793Y-91559318D01*
X101865214Y-91678890D01*
X101865209Y-91678894D01*
X101714890Y-91829213D01*
X101589951Y-92001179D01*
X101493444Y-92190585D01*
X101427753Y-92392760D01*
X101394500Y-92602713D01*
X101394500Y-92815286D01*
X101427748Y-93025210D01*
X101427754Y-93025243D01*
X101490083Y-93217072D01*
X101493444Y-93227414D01*
X101589951Y-93416820D01*
X101714890Y-93588786D01*
X101865213Y-93739109D01*
X102037179Y-93864048D01*
X102037181Y-93864049D01*
X102037184Y-93864051D01*
X102226588Y-93960557D01*
X102428757Y-94026246D01*
X102638713Y-94059500D01*
X102638714Y-94059500D01*
X103101286Y-94059500D01*
X103101287Y-94059500D01*
X103311243Y-94026246D01*
X103513412Y-93960557D01*
X103702816Y-93864051D01*
X103743925Y-93834184D01*
X103874786Y-93739109D01*
X103874788Y-93739106D01*
X103874792Y-93739104D01*
X104025104Y-93588792D01*
X104025106Y-93588788D01*
X104025109Y-93588786D01*
X104150048Y-93416820D01*
X104150047Y-93416820D01*
X104150051Y-93416816D01*
X104246557Y-93227412D01*
X104312246Y-93025243D01*
X104328511Y-92922549D01*
X115332640Y-92922549D01*
X115332640Y-92922556D01*
X115352835Y-93101802D01*
X115352836Y-93101807D01*
X115412416Y-93272076D01*
X115465822Y-93357070D01*
X115508389Y-93424815D01*
X115635943Y-93552369D01*
X115788683Y-93648342D01*
X115893446Y-93685000D01*
X115958950Y-93707921D01*
X115958955Y-93707922D01*
X116138201Y-93728118D01*
X116138205Y-93728118D01*
X116138209Y-93728118D01*
X116317454Y-93707922D01*
X116317457Y-93707921D01*
X116317460Y-93707921D01*
X116487727Y-93648342D01*
X116570852Y-93596110D01*
X116638087Y-93577110D01*
X116704923Y-93597477D01*
X116738872Y-93630661D01*
X116739749Y-93631931D01*
X116819819Y-93747932D01*
X116917179Y-93834185D01*
X116954306Y-93893374D01*
X116953538Y-93963240D01*
X116917179Y-94019815D01*
X116819818Y-94106069D01*
X116723182Y-94246068D01*
X116662860Y-94405125D01*
X116662859Y-94405130D01*
X116642355Y-94574000D01*
X116662859Y-94742869D01*
X116662860Y-94742874D01*
X116723182Y-94901931D01*
X116785475Y-94992177D01*
X116819817Y-95041929D01*
X116925505Y-95135560D01*
X116947150Y-95154736D01*
X117097773Y-95233789D01*
X117097775Y-95233790D01*
X117262944Y-95274500D01*
X117433056Y-95274500D01*
X117598225Y-95233790D01*
X117725234Y-95167130D01*
X117748849Y-95154736D01*
X117748850Y-95154734D01*
X117748852Y-95154734D01*
X117876183Y-95041929D01*
X117972818Y-94901930D01*
X118033140Y-94742872D01*
X118053645Y-94574000D01*
X118033140Y-94405128D01*
X117972818Y-94246070D01*
X117965086Y-94234869D01*
X117908527Y-94152929D01*
X117876183Y-94106071D01*
X117830952Y-94066000D01*
X118547355Y-94066000D01*
X118567859Y-94234869D01*
X118567860Y-94234874D01*
X118628182Y-94393931D01*
X118668392Y-94452184D01*
X118724817Y-94533929D01*
X118830505Y-94627560D01*
X118852150Y-94646736D01*
X119002774Y-94725790D01*
X119009790Y-94728451D01*
X119009092Y-94730290D01*
X119060705Y-94760329D01*
X119092505Y-94822543D01*
X119085621Y-94892073D01*
X119072715Y-94916026D01*
X119009183Y-95008068D01*
X119009182Y-95008068D01*
X118948860Y-95167125D01*
X118948859Y-95167130D01*
X118928355Y-95336000D01*
X118948859Y-95504869D01*
X118948860Y-95504874D01*
X119009182Y-95663931D01*
X119049212Y-95721923D01*
X119090067Y-95781112D01*
X119105818Y-95803930D01*
X119222032Y-95906887D01*
X119259159Y-95966076D01*
X119258391Y-96035942D01*
X119255747Y-96043672D01*
X119202861Y-96183122D01*
X119202859Y-96183130D01*
X119182355Y-96352000D01*
X119202859Y-96520869D01*
X119202860Y-96520874D01*
X119263182Y-96679931D01*
X119325475Y-96770177D01*
X119359817Y-96819929D01*
X119450278Y-96900070D01*
X119487150Y-96932736D01*
X119610327Y-96997384D01*
X119637775Y-97011790D01*
X119802944Y-97052500D01*
X119973056Y-97052500D01*
X120138225Y-97011790D01*
X120221371Y-96968151D01*
X120288849Y-96932736D01*
X120288850Y-96932734D01*
X120288852Y-96932734D01*
X120416183Y-96819929D01*
X120512818Y-96679930D01*
X120573140Y-96520872D01*
X120593645Y-96352000D01*
X120573140Y-96183128D01*
X120512818Y-96024070D01*
X120416183Y-95884071D01*
X120398555Y-95868454D01*
X120299967Y-95781112D01*
X120262840Y-95721923D01*
X120263608Y-95652057D01*
X120266245Y-95644345D01*
X120319140Y-95504872D01*
X120339645Y-95336000D01*
X120319140Y-95167128D01*
X120314440Y-95154736D01*
X120258817Y-95008068D01*
X120186120Y-94902750D01*
X120162183Y-94868071D01*
X120034852Y-94755266D01*
X120034849Y-94755263D01*
X119884225Y-94676209D01*
X119877210Y-94673549D01*
X119877906Y-94671712D01*
X119826281Y-94641657D01*
X119794490Y-94579438D01*
X119801384Y-94509909D01*
X119814280Y-94485979D01*
X119846668Y-94439057D01*
X119900952Y-94395069D01*
X119948717Y-94385500D01*
X119973056Y-94385500D01*
X120138225Y-94344790D01*
X120217692Y-94303081D01*
X120288849Y-94265736D01*
X120288850Y-94265734D01*
X120288852Y-94265734D01*
X120416183Y-94152929D01*
X120512818Y-94012930D01*
X120573140Y-93853872D01*
X120593645Y-93685000D01*
X120573140Y-93516128D01*
X120512818Y-93357070D01*
X120481667Y-93311941D01*
X120476186Y-93304000D01*
X123881355Y-93304000D01*
X123901859Y-93472869D01*
X123901860Y-93472874D01*
X123962182Y-93631931D01*
X123973510Y-93648342D01*
X124058817Y-93771929D01*
X124162798Y-93864048D01*
X124186150Y-93884736D01*
X124335727Y-93963240D01*
X124336775Y-93963790D01*
X124501944Y-94004500D01*
X124672056Y-94004500D01*
X124837225Y-93963790D01*
X124964234Y-93897130D01*
X124987849Y-93884736D01*
X124987850Y-93884734D01*
X124987852Y-93884734D01*
X125115183Y-93771929D01*
X125211818Y-93631930D01*
X125272140Y-93472872D01*
X125292645Y-93304000D01*
X125272140Y-93135128D01*
X125211818Y-92976070D01*
X125115183Y-92836071D01*
X125010464Y-92743298D01*
X124987849Y-92723263D01*
X124837226Y-92644210D01*
X124672056Y-92603500D01*
X124501944Y-92603500D01*
X124336773Y-92644210D01*
X124186150Y-92723263D01*
X124058816Y-92836072D01*
X123962182Y-92976068D01*
X123901860Y-93135125D01*
X123901859Y-93135130D01*
X123881355Y-93304000D01*
X120476186Y-93304000D01*
X120423322Y-93227414D01*
X120416183Y-93217071D01*
X120296598Y-93111128D01*
X120288849Y-93104263D01*
X120138226Y-93025210D01*
X119973056Y-92984500D01*
X119802944Y-92984500D01*
X119637773Y-93025210D01*
X119487150Y-93104263D01*
X119359818Y-93217070D01*
X119359817Y-93217071D01*
X119321851Y-93272075D01*
X119294333Y-93311941D01*
X119240050Y-93355931D01*
X119192283Y-93365500D01*
X119167944Y-93365500D01*
X119002773Y-93406210D01*
X118852150Y-93485263D01*
X118776405Y-93552368D01*
X118725488Y-93597477D01*
X118724816Y-93598072D01*
X118628182Y-93738068D01*
X118567860Y-93897125D01*
X118567859Y-93897130D01*
X118547355Y-94066000D01*
X117830952Y-94066000D01*
X117778818Y-94019814D01*
X117741693Y-93960626D01*
X117742461Y-93890761D01*
X117778818Y-93834185D01*
X117876183Y-93747929D01*
X117972818Y-93607930D01*
X118033140Y-93448872D01*
X118053645Y-93280000D01*
X118033140Y-93111128D01*
X118030536Y-93104263D01*
X118011231Y-93053358D01*
X117972818Y-92952070D01*
X117876183Y-92812071D01*
X117748852Y-92699266D01*
X117748849Y-92699263D01*
X117598226Y-92620210D01*
X117433056Y-92579500D01*
X117262944Y-92579500D01*
X117097774Y-92620209D01*
X117041428Y-92649783D01*
X116972920Y-92663508D01*
X116907867Y-92638015D01*
X116866923Y-92581399D01*
X116866831Y-92581141D01*
X116863994Y-92573031D01*
X116768021Y-92420291D01*
X116640467Y-92292737D01*
X116487728Y-92196764D01*
X116317459Y-92137184D01*
X116317454Y-92137183D01*
X116138209Y-92116988D01*
X116138201Y-92116988D01*
X115958955Y-92137183D01*
X115958950Y-92137184D01*
X115788681Y-92196764D01*
X115635942Y-92292737D01*
X115508389Y-92420290D01*
X115412416Y-92573029D01*
X115352836Y-92743298D01*
X115352835Y-92743303D01*
X115332640Y-92922549D01*
X104328511Y-92922549D01*
X104345500Y-92815287D01*
X104345500Y-92602713D01*
X104312246Y-92392757D01*
X104246557Y-92190588D01*
X104150051Y-92001184D01*
X104150049Y-92001181D01*
X104150048Y-92001179D01*
X104025109Y-91829213D01*
X103874792Y-91678896D01*
X103874784Y-91678890D01*
X103710204Y-91559316D01*
X103667540Y-91503989D01*
X103661561Y-91434376D01*
X103694166Y-91372580D01*
X103710199Y-91358686D01*
X103874792Y-91239104D01*
X104025104Y-91088792D01*
X104025106Y-91088788D01*
X104025109Y-91088786D01*
X104150048Y-90916820D01*
X104150047Y-90916820D01*
X104150051Y-90916816D01*
X104246557Y-90727412D01*
X104312246Y-90525243D01*
X104345500Y-90315287D01*
X104345500Y-90102713D01*
X104312246Y-89892757D01*
X104246557Y-89690588D01*
X104150051Y-89501184D01*
X104150049Y-89501181D01*
X104150048Y-89501179D01*
X104025109Y-89329213D01*
X103874792Y-89178896D01*
X103844056Y-89156565D01*
X103710204Y-89059316D01*
X103667540Y-89003989D01*
X103661561Y-88934376D01*
X103694166Y-88872580D01*
X103710199Y-88858686D01*
X103874792Y-88739104D01*
X104025104Y-88588792D01*
X104025106Y-88588788D01*
X104025109Y-88588786D01*
X104150048Y-88416820D01*
X104150047Y-88416820D01*
X104150051Y-88416816D01*
X104246557Y-88227412D01*
X104312246Y-88025243D01*
X104345500Y-87815287D01*
X104345500Y-87602713D01*
X104312246Y-87392757D01*
X104246557Y-87190588D01*
X104150051Y-87001184D01*
X104150049Y-87001181D01*
X104150048Y-87001179D01*
X104025109Y-86829213D01*
X103874786Y-86678890D01*
X103702820Y-86553951D01*
X103513414Y-86457444D01*
X103513413Y-86457443D01*
X103513412Y-86457443D01*
X103311243Y-86391754D01*
X103311241Y-86391753D01*
X103311240Y-86391753D01*
X103149957Y-86366208D01*
X103101287Y-86358500D01*
X102638713Y-86358500D01*
X102590042Y-86366208D01*
X102428760Y-86391753D01*
X102226585Y-86457444D01*
X102037179Y-86553951D01*
X101865213Y-86678890D01*
X101714890Y-86829213D01*
X101589951Y-87001179D01*
X101493444Y-87190585D01*
X101427753Y-87392760D01*
X101400373Y-87565632D01*
X101394500Y-87602713D01*
X99260500Y-87602713D01*
X99260500Y-84792000D01*
X99280185Y-84724961D01*
X99332989Y-84679206D01*
X99384500Y-84668000D01*
X106429000Y-84668000D01*
X106496039Y-84687685D01*
G37*
%TD.AperFunction*%
%TD*%
%TA.AperFunction,Conductor*%
%TO.N,GNDPWR*%
G36*
X128083032Y-60230649D02*
G01*
X128147797Y-60233830D01*
X128446338Y-60248497D01*
X128458440Y-60249689D01*
X128815230Y-60302613D01*
X128827140Y-60304982D01*
X129177046Y-60392629D01*
X129188663Y-60396154D01*
X129528275Y-60517669D01*
X129539497Y-60522317D01*
X129865582Y-60676543D01*
X129876290Y-60682267D01*
X130064308Y-60794961D01*
X130185659Y-60867696D01*
X130195777Y-60874456D01*
X130485488Y-61089321D01*
X130494894Y-61097041D01*
X130762146Y-61339264D01*
X130770735Y-61347853D01*
X130850861Y-61436258D01*
X131012958Y-61615105D01*
X131020678Y-61624511D01*
X131235543Y-61914222D01*
X131242303Y-61924340D01*
X131386577Y-62165047D01*
X131427725Y-62233697D01*
X131433460Y-62244425D01*
X131477054Y-62336597D01*
X131587679Y-62570495D01*
X131592334Y-62581734D01*
X131700621Y-62884376D01*
X131713840Y-62921319D01*
X131717373Y-62932964D01*
X131805014Y-63282846D01*
X131807388Y-63294782D01*
X131860309Y-63651555D01*
X131861502Y-63663664D01*
X131879351Y-64026967D01*
X131879500Y-64033052D01*
X131879500Y-85941000D01*
X131859815Y-86008039D01*
X131807011Y-86053794D01*
X131755500Y-86065000D01*
X121285000Y-86065000D01*
X121285000Y-88481000D01*
X121265315Y-88548039D01*
X121212511Y-88593794D01*
X121161000Y-88605000D01*
X110587702Y-88605000D01*
X110520663Y-88585315D01*
X110474908Y-88532511D01*
X110464482Y-88467116D01*
X110477565Y-88351002D01*
X110477565Y-88350996D01*
X110457369Y-88171750D01*
X110457368Y-88171745D01*
X110397789Y-88001478D01*
X110301816Y-87848738D01*
X110174262Y-87721184D01*
X110156880Y-87710262D01*
X110021523Y-87625211D01*
X109851254Y-87565631D01*
X109851249Y-87565630D01*
X109672004Y-87545435D01*
X109671996Y-87545435D01*
X109492750Y-87565630D01*
X109492745Y-87565631D01*
X109322476Y-87625211D01*
X109169737Y-87721184D01*
X109042184Y-87848737D01*
X108946211Y-88001476D01*
X108886631Y-88171745D01*
X108886630Y-88171750D01*
X108866435Y-88350996D01*
X108866435Y-88351002D01*
X108879518Y-88467116D01*
X108867464Y-88535938D01*
X108820115Y-88587318D01*
X108756298Y-88605000D01*
X107947000Y-88605000D01*
X107879961Y-88585315D01*
X107834206Y-88532511D01*
X107823000Y-88481000D01*
X107823000Y-87207996D01*
X117177435Y-87207996D01*
X117177435Y-87208003D01*
X117197630Y-87387249D01*
X117197631Y-87387254D01*
X117257211Y-87557523D01*
X117280595Y-87594738D01*
X117353184Y-87710262D01*
X117480738Y-87837816D01*
X117633478Y-87933789D01*
X117803745Y-87993368D01*
X117803750Y-87993369D01*
X117982996Y-88013565D01*
X117983000Y-88013565D01*
X117983004Y-88013565D01*
X118162249Y-87993369D01*
X118162252Y-87993368D01*
X118162255Y-87993368D01*
X118332522Y-87933789D01*
X118485262Y-87837816D01*
X118612816Y-87710262D01*
X118708789Y-87557522D01*
X118768368Y-87387255D01*
X118776889Y-87311632D01*
X118788565Y-87208003D01*
X118788565Y-87207996D01*
X118768369Y-87028750D01*
X118768368Y-87028745D01*
X118708788Y-86858476D01*
X118612815Y-86705737D01*
X118485262Y-86578184D01*
X118332523Y-86482211D01*
X118162254Y-86422631D01*
X118162249Y-86422630D01*
X117983004Y-86402435D01*
X117982996Y-86402435D01*
X117803750Y-86422630D01*
X117803745Y-86422631D01*
X117633476Y-86482211D01*
X117480737Y-86578184D01*
X117353184Y-86705737D01*
X117257211Y-86858476D01*
X117197631Y-87028745D01*
X117197630Y-87028750D01*
X117177435Y-87207996D01*
X107823000Y-87207996D01*
X107823000Y-84023996D01*
X123781435Y-84023996D01*
X123781435Y-84024003D01*
X123801630Y-84203249D01*
X123801631Y-84203254D01*
X123861211Y-84373523D01*
X123957184Y-84526262D01*
X124084738Y-84653816D01*
X124237478Y-84749789D01*
X124299902Y-84771632D01*
X124407745Y-84809368D01*
X124407750Y-84809369D01*
X124586996Y-84829565D01*
X124587000Y-84829565D01*
X124587004Y-84829565D01*
X124766249Y-84809369D01*
X124766252Y-84809368D01*
X124766255Y-84809368D01*
X124936522Y-84749789D01*
X125089262Y-84653816D01*
X125216816Y-84526262D01*
X125312789Y-84373522D01*
X125372368Y-84203255D01*
X125392565Y-84024000D01*
X125372368Y-83844745D01*
X125312789Y-83674478D01*
X125216816Y-83521738D01*
X125089262Y-83394184D01*
X124979970Y-83325511D01*
X124936523Y-83298211D01*
X124766254Y-83238631D01*
X124766249Y-83238630D01*
X124587004Y-83218435D01*
X124586996Y-83218435D01*
X124407750Y-83238630D01*
X124407745Y-83238631D01*
X124237476Y-83298211D01*
X124084737Y-83394184D01*
X123957184Y-83521737D01*
X123861211Y-83674476D01*
X123801631Y-83844745D01*
X123801630Y-83844750D01*
X123781435Y-84023996D01*
X107823000Y-84023996D01*
X107823000Y-83398000D01*
X99384500Y-83398000D01*
X99317461Y-83378315D01*
X99271706Y-83325511D01*
X99260500Y-83274000D01*
X99260500Y-82254996D01*
X114510435Y-82254996D01*
X114510435Y-82255003D01*
X114530630Y-82434249D01*
X114530631Y-82434254D01*
X114590211Y-82604523D01*
X114686184Y-82757262D01*
X114813738Y-82884816D01*
X114966478Y-82980789D01*
X115136745Y-83040368D01*
X115136750Y-83040369D01*
X115315996Y-83060565D01*
X115316000Y-83060565D01*
X115316004Y-83060565D01*
X115495249Y-83040369D01*
X115495252Y-83040368D01*
X115495255Y-83040368D01*
X115665522Y-82980789D01*
X115818262Y-82884816D01*
X115945816Y-82757262D01*
X116041789Y-82604522D01*
X116101368Y-82434255D01*
X116121565Y-82255000D01*
X116121565Y-82254996D01*
X121396435Y-82254996D01*
X121396435Y-82255003D01*
X121416630Y-82434249D01*
X121416631Y-82434254D01*
X121476211Y-82604523D01*
X121572184Y-82757262D01*
X121699738Y-82884816D01*
X121852478Y-82980789D01*
X122022745Y-83040368D01*
X122022750Y-83040369D01*
X122201996Y-83060565D01*
X122202000Y-83060565D01*
X122202004Y-83060565D01*
X122381249Y-83040369D01*
X122381252Y-83040368D01*
X122381255Y-83040368D01*
X122551522Y-82980789D01*
X122704262Y-82884816D01*
X122831816Y-82757262D01*
X122927789Y-82604522D01*
X122987368Y-82434255D01*
X123007565Y-82255000D01*
X123007565Y-82254996D01*
X129879435Y-82254996D01*
X129879435Y-82255003D01*
X129899630Y-82434249D01*
X129899631Y-82434254D01*
X129959211Y-82604523D01*
X130055184Y-82757262D01*
X130182738Y-82884816D01*
X130335478Y-82980789D01*
X130505745Y-83040368D01*
X130505750Y-83040369D01*
X130684996Y-83060565D01*
X130685000Y-83060565D01*
X130685004Y-83060565D01*
X130864249Y-83040369D01*
X130864252Y-83040368D01*
X130864255Y-83040368D01*
X131034522Y-82980789D01*
X131187262Y-82884816D01*
X131314816Y-82757262D01*
X131410789Y-82604522D01*
X131470368Y-82434255D01*
X131490565Y-82255000D01*
X131470368Y-82075745D01*
X131410789Y-81905478D01*
X131314816Y-81752738D01*
X131187262Y-81625184D01*
X131034523Y-81529211D01*
X130864254Y-81469631D01*
X130864249Y-81469630D01*
X130685004Y-81449435D01*
X130684996Y-81449435D01*
X130505750Y-81469630D01*
X130505745Y-81469631D01*
X130335476Y-81529211D01*
X130182737Y-81625184D01*
X130055184Y-81752737D01*
X129959211Y-81905476D01*
X129899631Y-82075745D01*
X129899630Y-82075750D01*
X129879435Y-82254996D01*
X123007565Y-82254996D01*
X122987368Y-82075745D01*
X122927789Y-81905478D01*
X122831816Y-81752738D01*
X122704262Y-81625184D01*
X122551523Y-81529211D01*
X122381254Y-81469631D01*
X122381249Y-81469630D01*
X122202004Y-81449435D01*
X122201996Y-81449435D01*
X122022750Y-81469630D01*
X122022745Y-81469631D01*
X121852476Y-81529211D01*
X121699737Y-81625184D01*
X121572184Y-81752737D01*
X121476211Y-81905476D01*
X121416631Y-82075745D01*
X121416630Y-82075750D01*
X121396435Y-82254996D01*
X116121565Y-82254996D01*
X116101368Y-82075745D01*
X116041789Y-81905478D01*
X115945816Y-81752738D01*
X115818262Y-81625184D01*
X115665523Y-81529211D01*
X115495254Y-81469631D01*
X115495249Y-81469630D01*
X115316004Y-81449435D01*
X115315996Y-81449435D01*
X115136750Y-81469630D01*
X115136745Y-81469631D01*
X114966476Y-81529211D01*
X114813737Y-81625184D01*
X114686184Y-81752737D01*
X114590211Y-81905476D01*
X114530631Y-82075745D01*
X114530630Y-82075750D01*
X114510435Y-82254996D01*
X99260500Y-82254996D01*
X99260500Y-74742713D01*
X101444500Y-74742713D01*
X101444500Y-74955286D01*
X101477023Y-75160632D01*
X101477754Y-75165243D01*
X101518058Y-75289286D01*
X101543444Y-75367414D01*
X101639951Y-75556820D01*
X101764890Y-75728786D01*
X101915209Y-75879105D01*
X101915214Y-75879109D01*
X102079793Y-75998682D01*
X102122459Y-76054011D01*
X102128438Y-76123625D01*
X102095833Y-76185420D01*
X102079793Y-76199318D01*
X101915214Y-76318890D01*
X101915209Y-76318894D01*
X101764890Y-76469213D01*
X101639951Y-76641179D01*
X101543444Y-76830585D01*
X101477753Y-77032760D01*
X101444500Y-77242713D01*
X101444500Y-77455286D01*
X101467351Y-77599565D01*
X101477754Y-77665243D01*
X101488567Y-77698523D01*
X101543444Y-77867414D01*
X101639951Y-78056820D01*
X101764890Y-78228786D01*
X101903705Y-78367601D01*
X101937190Y-78428924D01*
X101932206Y-78498616D01*
X101890334Y-78554549D01*
X101881121Y-78560821D01*
X101726342Y-78656289D01*
X101602289Y-78780342D01*
X101510187Y-78929663D01*
X101510185Y-78929668D01*
X101482349Y-79013670D01*
X101455001Y-79096203D01*
X101455001Y-79096204D01*
X101455000Y-79096204D01*
X101444500Y-79198983D01*
X101444500Y-80499001D01*
X101444501Y-80499018D01*
X101455000Y-80601796D01*
X101455001Y-80601799D01*
X101510185Y-80768331D01*
X101510187Y-80768336D01*
X101514505Y-80775336D01*
X101602288Y-80917656D01*
X101726344Y-81041712D01*
X101875666Y-81133814D01*
X102042203Y-81188999D01*
X102144991Y-81199500D01*
X103595008Y-81199499D01*
X103697797Y-81188999D01*
X103864334Y-81133814D01*
X104013656Y-81041712D01*
X104137712Y-80917656D01*
X104229814Y-80768334D01*
X104284999Y-80601797D01*
X104295500Y-80499009D01*
X104295499Y-79848996D01*
X105112435Y-79848996D01*
X105112435Y-79849003D01*
X105132630Y-80028249D01*
X105132631Y-80028254D01*
X105192211Y-80198523D01*
X105288184Y-80351262D01*
X105415738Y-80478816D01*
X105568478Y-80574789D01*
X105665673Y-80608799D01*
X105738745Y-80634368D01*
X105738750Y-80634369D01*
X105917996Y-80654565D01*
X105918000Y-80654565D01*
X105918004Y-80654565D01*
X106097249Y-80634369D01*
X106097252Y-80634368D01*
X106097255Y-80634368D01*
X106267522Y-80574789D01*
X106420262Y-80478816D01*
X106547816Y-80351262D01*
X106643789Y-80198522D01*
X106703368Y-80028255D01*
X106723565Y-79849000D01*
X106703368Y-79669745D01*
X106643789Y-79499478D01*
X106547816Y-79346738D01*
X106420262Y-79219184D01*
X106399267Y-79205992D01*
X106267523Y-79123211D01*
X106097254Y-79063631D01*
X106097249Y-79063630D01*
X105918004Y-79043435D01*
X105917996Y-79043435D01*
X105738750Y-79063630D01*
X105738745Y-79063631D01*
X105568476Y-79123211D01*
X105415737Y-79219184D01*
X105288184Y-79346737D01*
X105192211Y-79499476D01*
X105132631Y-79669745D01*
X105132630Y-79669750D01*
X105112435Y-79848996D01*
X104295499Y-79848996D01*
X104295499Y-79198992D01*
X104284999Y-79096203D01*
X104229814Y-78929666D01*
X104137712Y-78780344D01*
X104013656Y-78656288D01*
X103864334Y-78564186D01*
X103864333Y-78564185D01*
X103858878Y-78560821D01*
X103812154Y-78508873D01*
X103800931Y-78439910D01*
X103828775Y-78375828D01*
X103836272Y-78367623D01*
X103975104Y-78228792D01*
X104100051Y-78056816D01*
X104196557Y-77867412D01*
X104262246Y-77665243D01*
X104295500Y-77455287D01*
X104295500Y-77348996D01*
X105112435Y-77348996D01*
X105112435Y-77349003D01*
X105132630Y-77528249D01*
X105132631Y-77528254D01*
X105192211Y-77698523D01*
X105288184Y-77851262D01*
X105415738Y-77978816D01*
X105506080Y-78035582D01*
X105551014Y-78063816D01*
X105568478Y-78074789D01*
X105738745Y-78134368D01*
X105738750Y-78134369D01*
X105917996Y-78154565D01*
X105918000Y-78154565D01*
X105918004Y-78154565D01*
X106097249Y-78134369D01*
X106097252Y-78134368D01*
X106097255Y-78134368D01*
X106267522Y-78074789D01*
X106420262Y-77978816D01*
X106547816Y-77851262D01*
X106643789Y-77698522D01*
X106703368Y-77528255D01*
X106703445Y-77527571D01*
X106723565Y-77349003D01*
X106723565Y-77348996D01*
X106703369Y-77169750D01*
X106703368Y-77169745D01*
X106696533Y-77150211D01*
X106643789Y-76999478D01*
X106627311Y-76973254D01*
X106604582Y-76937080D01*
X106547816Y-76846738D01*
X106420262Y-76719184D01*
X106267523Y-76623211D01*
X106097254Y-76563631D01*
X106097249Y-76563630D01*
X105918004Y-76543435D01*
X105917996Y-76543435D01*
X105738750Y-76563630D01*
X105738745Y-76563631D01*
X105568476Y-76623211D01*
X105415737Y-76719184D01*
X105288184Y-76846737D01*
X105192211Y-76999476D01*
X105132631Y-77169745D01*
X105132630Y-77169750D01*
X105112435Y-77348996D01*
X104295500Y-77348996D01*
X104295500Y-77242713D01*
X104262246Y-77032757D01*
X104196557Y-76830588D01*
X104100051Y-76641184D01*
X104100049Y-76641181D01*
X104100048Y-76641179D01*
X103975109Y-76469213D01*
X103824792Y-76318896D01*
X103787412Y-76291738D01*
X103660204Y-76199316D01*
X103617540Y-76143989D01*
X103611561Y-76074376D01*
X103644166Y-76012580D01*
X103660199Y-75998686D01*
X103824792Y-75879104D01*
X103975104Y-75728792D01*
X103975106Y-75728788D01*
X103975109Y-75728786D01*
X104100048Y-75556820D01*
X104100047Y-75556820D01*
X104100051Y-75556816D01*
X104196557Y-75367412D01*
X104262246Y-75165243D01*
X104295500Y-74955287D01*
X104295500Y-74749713D01*
X107413500Y-74749713D01*
X107413500Y-74962286D01*
X107445644Y-75165239D01*
X107446754Y-75172243D01*
X107510169Y-75367414D01*
X107512444Y-75374414D01*
X107608951Y-75563820D01*
X107733890Y-75735786D01*
X107884209Y-75886105D01*
X107884214Y-75886109D01*
X108048793Y-76005682D01*
X108091459Y-76061011D01*
X108097438Y-76130625D01*
X108064833Y-76192420D01*
X108048793Y-76206318D01*
X107884214Y-76325890D01*
X107884209Y-76325894D01*
X107733890Y-76476213D01*
X107608951Y-76648179D01*
X107512444Y-76837585D01*
X107446753Y-77039760D01*
X107423599Y-77185952D01*
X107413500Y-77249713D01*
X107413500Y-77462287D01*
X107423534Y-77525644D01*
X107445644Y-77665239D01*
X107446754Y-77672243D01*
X107510169Y-77867414D01*
X107512444Y-77874414D01*
X107608951Y-78063820D01*
X107733890Y-78235786D01*
X107872705Y-78374601D01*
X107906190Y-78435924D01*
X107901206Y-78505616D01*
X107859334Y-78561549D01*
X107850121Y-78567821D01*
X107695342Y-78663289D01*
X107571289Y-78787342D01*
X107479187Y-78936663D01*
X107479186Y-78936666D01*
X107424001Y-79103203D01*
X107424001Y-79103204D01*
X107424000Y-79103204D01*
X107413500Y-79205983D01*
X107413500Y-80506001D01*
X107413501Y-80506018D01*
X107424000Y-80608796D01*
X107424001Y-80608799D01*
X107439167Y-80654565D01*
X107479186Y-80775334D01*
X107571288Y-80924656D01*
X107695344Y-81048712D01*
X107844666Y-81140814D01*
X108011203Y-81195999D01*
X108113991Y-81206500D01*
X109564008Y-81206499D01*
X109666797Y-81195999D01*
X109833334Y-81140814D01*
X109982656Y-81048712D01*
X110106712Y-80924656D01*
X110198814Y-80775334D01*
X110253999Y-80608797D01*
X110264500Y-80506009D01*
X110264499Y-79205992D01*
X110253999Y-79103203D01*
X110198814Y-78936666D01*
X110106712Y-78787344D01*
X109982656Y-78663288D01*
X109833334Y-78571186D01*
X109833333Y-78571185D01*
X109827878Y-78567821D01*
X109781154Y-78515873D01*
X109769931Y-78446910D01*
X109797775Y-78382828D01*
X109805272Y-78374623D01*
X109944104Y-78235792D01*
X110003119Y-78154565D01*
X110069048Y-78063820D01*
X110069047Y-78063820D01*
X110069051Y-78063816D01*
X110164750Y-77875996D01*
X117605435Y-77875996D01*
X117605435Y-77876003D01*
X117625630Y-78055249D01*
X117625631Y-78055254D01*
X117685211Y-78225523D01*
X117774485Y-78367600D01*
X117781184Y-78378262D01*
X117908738Y-78505816D01*
X118061478Y-78601789D01*
X118217227Y-78656288D01*
X118231745Y-78661368D01*
X118231750Y-78661369D01*
X118410996Y-78681565D01*
X118411000Y-78681565D01*
X118411004Y-78681565D01*
X118590249Y-78661369D01*
X118590252Y-78661368D01*
X118590255Y-78661368D01*
X118760522Y-78601789D01*
X118913262Y-78505816D01*
X119040816Y-78378262D01*
X119136789Y-78225522D01*
X119196368Y-78055255D01*
X119216565Y-77876000D01*
X119216386Y-77874414D01*
X119196369Y-77696753D01*
X119196368Y-77696746D01*
X119187794Y-77672243D01*
X119182801Y-77657975D01*
X119179239Y-77588199D01*
X119213968Y-77527571D01*
X119233865Y-77512032D01*
X119374262Y-77423816D01*
X119501816Y-77296262D01*
X119597789Y-77143522D01*
X119657368Y-76973255D01*
X119657369Y-76973249D01*
X119677565Y-76794003D01*
X119677565Y-76793996D01*
X119657369Y-76614750D01*
X119657368Y-76614745D01*
X119639482Y-76563630D01*
X119631212Y-76539996D01*
X120606435Y-76539996D01*
X120606435Y-76540003D01*
X120626630Y-76719249D01*
X120626631Y-76719254D01*
X120686211Y-76889523D01*
X120776212Y-77032757D01*
X120782184Y-77042262D01*
X120909738Y-77169816D01*
X121000080Y-77226582D01*
X121031273Y-77246182D01*
X121062478Y-77265789D01*
X121149565Y-77296262D01*
X121232745Y-77325368D01*
X121232750Y-77325369D01*
X121411996Y-77345565D01*
X121412000Y-77345565D01*
X121412004Y-77345565D01*
X121591249Y-77325369D01*
X121591252Y-77325368D01*
X121591255Y-77325368D01*
X121761522Y-77265789D01*
X121914262Y-77169816D01*
X122041816Y-77042262D01*
X122137789Y-76889522D01*
X122197368Y-76719255D01*
X122205376Y-76648184D01*
X122217565Y-76540003D01*
X122217565Y-76539996D01*
X122197369Y-76360750D01*
X122197368Y-76360745D01*
X122173221Y-76291737D01*
X122137789Y-76190478D01*
X122121267Y-76164184D01*
X122081312Y-76100595D01*
X122041816Y-76037738D01*
X121914262Y-75910184D01*
X121761523Y-75814211D01*
X121591254Y-75754631D01*
X121591249Y-75754630D01*
X121412004Y-75734435D01*
X121411996Y-75734435D01*
X121232750Y-75754630D01*
X121232745Y-75754631D01*
X121062476Y-75814211D01*
X120909737Y-75910184D01*
X120782184Y-76037737D01*
X120686211Y-76190476D01*
X120626631Y-76360745D01*
X120626630Y-76360750D01*
X120606435Y-76539996D01*
X119631212Y-76539996D01*
X119597789Y-76444478D01*
X119596532Y-76442478D01*
X119530916Y-76338051D01*
X119501816Y-76291738D01*
X119374262Y-76164184D01*
X119342122Y-76143989D01*
X119221523Y-76068211D01*
X119051254Y-76008631D01*
X119051249Y-76008630D01*
X118872004Y-75988435D01*
X118871996Y-75988435D01*
X118692750Y-76008630D01*
X118692745Y-76008631D01*
X118522476Y-76068211D01*
X118369737Y-76164184D01*
X118242184Y-76291737D01*
X118146211Y-76444476D01*
X118086631Y-76614745D01*
X118086630Y-76614750D01*
X118066435Y-76793996D01*
X118066435Y-76794003D01*
X118086630Y-76973249D01*
X118086632Y-76973257D01*
X118100197Y-77012023D01*
X118103758Y-77081802D01*
X118069029Y-77142429D01*
X118049128Y-77157970D01*
X117908739Y-77246182D01*
X117781184Y-77373737D01*
X117685211Y-77526476D01*
X117625631Y-77696745D01*
X117625630Y-77696750D01*
X117605435Y-77875996D01*
X110164750Y-77875996D01*
X110165557Y-77874412D01*
X110231246Y-77672243D01*
X110264500Y-77462287D01*
X110264500Y-77249713D01*
X110231246Y-77039757D01*
X110165557Y-76837588D01*
X110069051Y-76648184D01*
X110069049Y-76648181D01*
X110069048Y-76648179D01*
X109944109Y-76476213D01*
X109793792Y-76325896D01*
X109784157Y-76318896D01*
X109629204Y-76206316D01*
X109586540Y-76150989D01*
X109580561Y-76081376D01*
X109613166Y-76019580D01*
X109629199Y-76005686D01*
X109711356Y-75945996D01*
X114637435Y-75945996D01*
X114637435Y-75946003D01*
X114657630Y-76125249D01*
X114657633Y-76125262D01*
X114717209Y-76295520D01*
X114722558Y-76304033D01*
X114741554Y-76371271D01*
X114722558Y-76435967D01*
X114717209Y-76444479D01*
X114657633Y-76614737D01*
X114657630Y-76614750D01*
X114637435Y-76793996D01*
X114637435Y-76794003D01*
X114657630Y-76973249D01*
X114657631Y-76973254D01*
X114717211Y-77143523D01*
X114803452Y-77280774D01*
X114813184Y-77296262D01*
X114940738Y-77423816D01*
X115093478Y-77519789D01*
X115258029Y-77577368D01*
X115263745Y-77579368D01*
X115263750Y-77579369D01*
X115442996Y-77599565D01*
X115443000Y-77599565D01*
X115443004Y-77599565D01*
X115622249Y-77579369D01*
X115622252Y-77579368D01*
X115622255Y-77579368D01*
X115792522Y-77519789D01*
X115945262Y-77423816D01*
X116054819Y-77314259D01*
X116116142Y-77280774D01*
X116185834Y-77285758D01*
X116230181Y-77314259D01*
X116337738Y-77421816D01*
X116490478Y-77517789D01*
X116573767Y-77546933D01*
X116660745Y-77577368D01*
X116660750Y-77577369D01*
X116839996Y-77597565D01*
X116840000Y-77597565D01*
X116840004Y-77597565D01*
X117019249Y-77577369D01*
X117019252Y-77577368D01*
X117019255Y-77577368D01*
X117189522Y-77517789D01*
X117342262Y-77421816D01*
X117469816Y-77294262D01*
X117565789Y-77141522D01*
X117625368Y-76971255D01*
X117640429Y-76837585D01*
X117645565Y-76792003D01*
X117645565Y-76791996D01*
X117625369Y-76612750D01*
X117625368Y-76612745D01*
X117577593Y-76476213D01*
X117565789Y-76442478D01*
X117469816Y-76289738D01*
X117342262Y-76162184D01*
X117313305Y-76143989D01*
X117189523Y-76066211D01*
X117019254Y-76006631D01*
X117019249Y-76006630D01*
X116840004Y-75986435D01*
X116839996Y-75986435D01*
X116660750Y-76006630D01*
X116660745Y-76006631D01*
X116490476Y-76066211D01*
X116433578Y-76101963D01*
X116366341Y-76120963D01*
X116299506Y-76100595D01*
X116254292Y-76047327D01*
X116244386Y-75983085D01*
X116248565Y-75946000D01*
X116242347Y-75890816D01*
X116228369Y-75766750D01*
X116228368Y-75766745D01*
X116168788Y-75596476D01*
X116107692Y-75499243D01*
X116072816Y-75443738D01*
X115945262Y-75316184D01*
X115902454Y-75289286D01*
X115792523Y-75220211D01*
X115622254Y-75160631D01*
X115622249Y-75160630D01*
X115443004Y-75140435D01*
X115442996Y-75140435D01*
X115263750Y-75160630D01*
X115263745Y-75160631D01*
X115093476Y-75220211D01*
X114940737Y-75316184D01*
X114813184Y-75443737D01*
X114717211Y-75596476D01*
X114657631Y-75766745D01*
X114657630Y-75766750D01*
X114637435Y-75945996D01*
X109711356Y-75945996D01*
X109793792Y-75886104D01*
X109944104Y-75735792D01*
X109944106Y-75735788D01*
X109944109Y-75735786D01*
X110069048Y-75563820D01*
X110069047Y-75563820D01*
X110069051Y-75563816D01*
X110165557Y-75374412D01*
X110231246Y-75172243D01*
X110264500Y-74962287D01*
X110264500Y-74749713D01*
X110231246Y-74539757D01*
X110165557Y-74337588D01*
X110069051Y-74148184D01*
X110069049Y-74148181D01*
X110069048Y-74148179D01*
X109944109Y-73976213D01*
X109793786Y-73825890D01*
X109621820Y-73700951D01*
X109432414Y-73604444D01*
X109432413Y-73604443D01*
X109432412Y-73604443D01*
X109230243Y-73538754D01*
X109230241Y-73538753D01*
X109230240Y-73538753D01*
X109068957Y-73513208D01*
X109020287Y-73505500D01*
X108657713Y-73505500D01*
X108609042Y-73513208D01*
X108447760Y-73538753D01*
X108245585Y-73604444D01*
X108056179Y-73700951D01*
X107884213Y-73825890D01*
X107733890Y-73976213D01*
X107608951Y-74148179D01*
X107512444Y-74337585D01*
X107446753Y-74539760D01*
X107413500Y-74749713D01*
X104295500Y-74749713D01*
X104295500Y-74742713D01*
X104262246Y-74532757D01*
X104196557Y-74330588D01*
X104100051Y-74141184D01*
X104100049Y-74141181D01*
X104100048Y-74141179D01*
X103975109Y-73969213D01*
X103824786Y-73818890D01*
X103652820Y-73693951D01*
X103463414Y-73597444D01*
X103463413Y-73597443D01*
X103463412Y-73597443D01*
X103261243Y-73531754D01*
X103261241Y-73531753D01*
X103261240Y-73531753D01*
X103095483Y-73505500D01*
X103051287Y-73498500D01*
X102688713Y-73498500D01*
X102644517Y-73505500D01*
X102478760Y-73531753D01*
X102276585Y-73597444D01*
X102087179Y-73693951D01*
X101915213Y-73818890D01*
X101764890Y-73969213D01*
X101639951Y-74141179D01*
X101543444Y-74330585D01*
X101477753Y-74532760D01*
X101444500Y-74742713D01*
X99260500Y-74742713D01*
X99260500Y-71374135D01*
X113729500Y-71374135D01*
X113729500Y-73069870D01*
X113729501Y-73069876D01*
X113735908Y-73129483D01*
X113786202Y-73264328D01*
X113786206Y-73264335D01*
X113872452Y-73379544D01*
X113872455Y-73379547D01*
X113987664Y-73465793D01*
X113987671Y-73465797D01*
X114122517Y-73516091D01*
X114122516Y-73516091D01*
X114129444Y-73516835D01*
X114182127Y-73522500D01*
X115877872Y-73522499D01*
X115937483Y-73516091D01*
X116072331Y-73465796D01*
X116187546Y-73379546D01*
X116273796Y-73264331D01*
X116324091Y-73129483D01*
X116330500Y-73069873D01*
X116330500Y-72576713D01*
X122857500Y-72576713D01*
X122857500Y-72789287D01*
X122890754Y-72999243D01*
X122933071Y-73129482D01*
X122956444Y-73201414D01*
X123052951Y-73390820D01*
X123177890Y-73562786D01*
X123328209Y-73713105D01*
X123328214Y-73713109D01*
X123492793Y-73832682D01*
X123535459Y-73888011D01*
X123541438Y-73957625D01*
X123508833Y-74019420D01*
X123492793Y-74033318D01*
X123328214Y-74152890D01*
X123328209Y-74152894D01*
X123177890Y-74303213D01*
X123052951Y-74475179D01*
X122956444Y-74664585D01*
X122890753Y-74866760D01*
X122857500Y-75076713D01*
X122857500Y-75289286D01*
X122881962Y-75443737D01*
X122890754Y-75499243D01*
X122911736Y-75563820D01*
X122956444Y-75701414D01*
X123052951Y-75890820D01*
X123177890Y-76062786D01*
X123328213Y-76213109D01*
X123500179Y-76338048D01*
X123500181Y-76338049D01*
X123500184Y-76338051D01*
X123689588Y-76434557D01*
X123891757Y-76500246D01*
X124101713Y-76533500D01*
X124101714Y-76533500D01*
X124564286Y-76533500D01*
X124564287Y-76533500D01*
X124774243Y-76500246D01*
X124976412Y-76434557D01*
X125165816Y-76338051D01*
X125224353Y-76295522D01*
X125337786Y-76213109D01*
X125337788Y-76213106D01*
X125337792Y-76213104D01*
X125488104Y-76062792D01*
X125488106Y-76062788D01*
X125488109Y-76062786D01*
X125613048Y-75890820D01*
X125613047Y-75890820D01*
X125613051Y-75890816D01*
X125709557Y-75701412D01*
X125775246Y-75499243D01*
X125808500Y-75289287D01*
X125808500Y-75076713D01*
X125775246Y-74866757D01*
X125709557Y-74664588D01*
X125613051Y-74475184D01*
X125613049Y-74475181D01*
X125613048Y-74475179D01*
X125488109Y-74303213D01*
X125337792Y-74152896D01*
X125321665Y-74141179D01*
X125173204Y-74033316D01*
X125130540Y-73977989D01*
X125124561Y-73908376D01*
X125157166Y-73846580D01*
X125173199Y-73832686D01*
X125337792Y-73713104D01*
X125488104Y-73562792D01*
X125488106Y-73562788D01*
X125488109Y-73562786D01*
X125613048Y-73390820D01*
X125613047Y-73390820D01*
X125613051Y-73390816D01*
X125709557Y-73201412D01*
X125775246Y-72999243D01*
X125808500Y-72789287D01*
X125808500Y-72576713D01*
X127683500Y-72576713D01*
X127683500Y-72789287D01*
X127716754Y-72999243D01*
X127759071Y-73129482D01*
X127782444Y-73201414D01*
X127878951Y-73390820D01*
X128003890Y-73562786D01*
X128154209Y-73713105D01*
X128154214Y-73713109D01*
X128318793Y-73832682D01*
X128361459Y-73888011D01*
X128367438Y-73957625D01*
X128334833Y-74019420D01*
X128318793Y-74033318D01*
X128154214Y-74152890D01*
X128154209Y-74152894D01*
X128003890Y-74303213D01*
X127878951Y-74475179D01*
X127782444Y-74664585D01*
X127716753Y-74866760D01*
X127683500Y-75076713D01*
X127683500Y-75289286D01*
X127707962Y-75443737D01*
X127716754Y-75499243D01*
X127737736Y-75563820D01*
X127782444Y-75701414D01*
X127878951Y-75890820D01*
X128003890Y-76062786D01*
X128154213Y-76213109D01*
X128326179Y-76338048D01*
X128326181Y-76338049D01*
X128326184Y-76338051D01*
X128515588Y-76434557D01*
X128717757Y-76500246D01*
X128927713Y-76533500D01*
X128927714Y-76533500D01*
X129390286Y-76533500D01*
X129390287Y-76533500D01*
X129600243Y-76500246D01*
X129802412Y-76434557D01*
X129991816Y-76338051D01*
X130050353Y-76295522D01*
X130163786Y-76213109D01*
X130163788Y-76213106D01*
X130163792Y-76213104D01*
X130314104Y-76062792D01*
X130314106Y-76062788D01*
X130314109Y-76062786D01*
X130439048Y-75890820D01*
X130439047Y-75890820D01*
X130439051Y-75890816D01*
X130535557Y-75701412D01*
X130601246Y-75499243D01*
X130634500Y-75289287D01*
X130634500Y-75076713D01*
X130601246Y-74866757D01*
X130535557Y-74664588D01*
X130439051Y-74475184D01*
X130439049Y-74475181D01*
X130439048Y-74475179D01*
X130314109Y-74303213D01*
X130163792Y-74152896D01*
X130147665Y-74141179D01*
X129999204Y-74033316D01*
X129956540Y-73977989D01*
X129950561Y-73908376D01*
X129983166Y-73846580D01*
X129999199Y-73832686D01*
X130163792Y-73713104D01*
X130314104Y-73562792D01*
X130314106Y-73562788D01*
X130314109Y-73562786D01*
X130439048Y-73390820D01*
X130439047Y-73390820D01*
X130439051Y-73390816D01*
X130535557Y-73201412D01*
X130601246Y-72999243D01*
X130634500Y-72789287D01*
X130634500Y-72576713D01*
X130601246Y-72366757D01*
X130535557Y-72164588D01*
X130439051Y-71975184D01*
X130439049Y-71975181D01*
X130439048Y-71975179D01*
X130314109Y-71803213D01*
X130163786Y-71652890D01*
X129991820Y-71527951D01*
X129802414Y-71431444D01*
X129802413Y-71431443D01*
X129802412Y-71431443D01*
X129600243Y-71365754D01*
X129600241Y-71365753D01*
X129600240Y-71365753D01*
X129438957Y-71340208D01*
X129390287Y-71332500D01*
X128927713Y-71332500D01*
X128879042Y-71340208D01*
X128717760Y-71365753D01*
X128515585Y-71431444D01*
X128326179Y-71527951D01*
X128154213Y-71652890D01*
X128003890Y-71803213D01*
X127878951Y-71975179D01*
X127782444Y-72164585D01*
X127716753Y-72366760D01*
X127683500Y-72576713D01*
X125808500Y-72576713D01*
X125775246Y-72366757D01*
X125709557Y-72164588D01*
X125613051Y-71975184D01*
X125613049Y-71975181D01*
X125613048Y-71975179D01*
X125488109Y-71803213D01*
X125337786Y-71652890D01*
X125165820Y-71527951D01*
X124976414Y-71431444D01*
X124976413Y-71431443D01*
X124976412Y-71431443D01*
X124774243Y-71365754D01*
X124774241Y-71365753D01*
X124774240Y-71365753D01*
X124612957Y-71340208D01*
X124564287Y-71332500D01*
X124101713Y-71332500D01*
X124053042Y-71340208D01*
X123891760Y-71365753D01*
X123689585Y-71431444D01*
X123500179Y-71527951D01*
X123328213Y-71652890D01*
X123177890Y-71803213D01*
X123052951Y-71975179D01*
X122956444Y-72164585D01*
X122890753Y-72366760D01*
X122857500Y-72576713D01*
X116330500Y-72576713D01*
X116330499Y-71459996D01*
X118062435Y-71459996D01*
X118062435Y-71460003D01*
X118082630Y-71639249D01*
X118082631Y-71639254D01*
X118142211Y-71809523D01*
X118238184Y-71962262D01*
X118365738Y-72089816D01*
X118518478Y-72185789D01*
X118688745Y-72245368D01*
X118688750Y-72245369D01*
X118867996Y-72265565D01*
X118868000Y-72265565D01*
X118868004Y-72265565D01*
X119047249Y-72245369D01*
X119047252Y-72245368D01*
X119047255Y-72245368D01*
X119217522Y-72185789D01*
X119370262Y-72089816D01*
X119497816Y-71962262D01*
X119593789Y-71809522D01*
X119653368Y-71639255D01*
X119673565Y-71460000D01*
X119670347Y-71431443D01*
X119653369Y-71280750D01*
X119653368Y-71280745D01*
X119593789Y-71110478D01*
X119497816Y-70957738D01*
X119370262Y-70830184D01*
X119217523Y-70734211D01*
X119047254Y-70674631D01*
X119047249Y-70674630D01*
X118868004Y-70654435D01*
X118867996Y-70654435D01*
X118688750Y-70674630D01*
X118688745Y-70674631D01*
X118518476Y-70734211D01*
X118365737Y-70830184D01*
X118238184Y-70957737D01*
X118142211Y-71110476D01*
X118082631Y-71280745D01*
X118082630Y-71280750D01*
X118062435Y-71459996D01*
X116330499Y-71459996D01*
X116330499Y-71374128D01*
X116324091Y-71314517D01*
X116273796Y-71179669D01*
X116273795Y-71179668D01*
X116273793Y-71179664D01*
X116187547Y-71064455D01*
X116187544Y-71064452D01*
X116072335Y-70978206D01*
X116072328Y-70978202D01*
X115937482Y-70927908D01*
X115937483Y-70927908D01*
X115877883Y-70921501D01*
X115877881Y-70921500D01*
X115877873Y-70921500D01*
X115877864Y-70921500D01*
X114182129Y-70921500D01*
X114182123Y-70921501D01*
X114122516Y-70927908D01*
X113987671Y-70978202D01*
X113987664Y-70978206D01*
X113872455Y-71064452D01*
X113872452Y-71064455D01*
X113786206Y-71179664D01*
X113786202Y-71179671D01*
X113735908Y-71314517D01*
X113730400Y-71365753D01*
X113729501Y-71374123D01*
X113729500Y-71374135D01*
X99260500Y-71374135D01*
X99260500Y-64033052D01*
X99260649Y-64026968D01*
X99267056Y-63896549D01*
X101169500Y-63896549D01*
X101169500Y-64119450D01*
X101169501Y-64119466D01*
X101198594Y-64340452D01*
X101198595Y-64340457D01*
X101198596Y-64340463D01*
X101256290Y-64555780D01*
X101256293Y-64555790D01*
X101341593Y-64761722D01*
X101341595Y-64761726D01*
X101453052Y-64954774D01*
X101453057Y-64954780D01*
X101453058Y-64954782D01*
X101588751Y-65131622D01*
X101588757Y-65131629D01*
X101746370Y-65289242D01*
X101746376Y-65289247D01*
X101923226Y-65424948D01*
X102116274Y-65536405D01*
X102322219Y-65621710D01*
X102537537Y-65679404D01*
X102758543Y-65708500D01*
X102758550Y-65708500D01*
X102981450Y-65708500D01*
X102981457Y-65708500D01*
X103202463Y-65679404D01*
X103417781Y-65621710D01*
X103623726Y-65536405D01*
X103816774Y-65424948D01*
X103993624Y-65289247D01*
X104151247Y-65131624D01*
X104286948Y-64954774D01*
X104393629Y-64769999D01*
X115454696Y-64769999D01*
X115454696Y-64770000D01*
X115473898Y-65136405D01*
X115531294Y-65498788D01*
X115531294Y-65498790D01*
X115626260Y-65853206D01*
X115757746Y-66195739D01*
X115924320Y-66522656D01*
X116124147Y-66830364D01*
X116124149Y-66830366D01*
X116355051Y-67115506D01*
X116614494Y-67374949D01*
X116614498Y-67374952D01*
X116899635Y-67605852D01*
X117207343Y-67805679D01*
X117207348Y-67805682D01*
X117534264Y-67972255D01*
X117876801Y-68103742D01*
X118231206Y-68198705D01*
X118593596Y-68256102D01*
X118939734Y-68274241D01*
X118959999Y-68275304D01*
X118960000Y-68275304D01*
X118960001Y-68275304D01*
X118979203Y-68274297D01*
X119326404Y-68256102D01*
X119688794Y-68198705D01*
X120043199Y-68103742D01*
X120385736Y-67972255D01*
X120712652Y-67805682D01*
X121020366Y-67605851D01*
X121305506Y-67374949D01*
X121564949Y-67115506D01*
X121795851Y-66830366D01*
X121995682Y-66522652D01*
X122162255Y-66195736D01*
X122293742Y-65853199D01*
X122388705Y-65498794D01*
X122446102Y-65136404D01*
X122465304Y-64770000D01*
X122446102Y-64403596D01*
X122388705Y-64041206D01*
X122349944Y-63896549D01*
X126569500Y-63896549D01*
X126569500Y-64119450D01*
X126569501Y-64119466D01*
X126598594Y-64340452D01*
X126598595Y-64340457D01*
X126598596Y-64340463D01*
X126656290Y-64555780D01*
X126656293Y-64555790D01*
X126741593Y-64761722D01*
X126741595Y-64761726D01*
X126853052Y-64954774D01*
X126853057Y-64954780D01*
X126853058Y-64954782D01*
X126988751Y-65131622D01*
X126988757Y-65131629D01*
X127146370Y-65289242D01*
X127146376Y-65289247D01*
X127323226Y-65424948D01*
X127516274Y-65536405D01*
X127722219Y-65621710D01*
X127937537Y-65679404D01*
X128158543Y-65708500D01*
X128158550Y-65708500D01*
X128381450Y-65708500D01*
X128381457Y-65708500D01*
X128602463Y-65679404D01*
X128817781Y-65621710D01*
X129023726Y-65536405D01*
X129216774Y-65424948D01*
X129393624Y-65289247D01*
X129551247Y-65131624D01*
X129686948Y-64954774D01*
X129798405Y-64761726D01*
X129883710Y-64555781D01*
X129941404Y-64340463D01*
X129970500Y-64119457D01*
X129970500Y-63896543D01*
X129941404Y-63675537D01*
X129883710Y-63460219D01*
X129798405Y-63254274D01*
X129686948Y-63061226D01*
X129551247Y-62884376D01*
X129551242Y-62884370D01*
X129393629Y-62726757D01*
X129393622Y-62726751D01*
X129216782Y-62591058D01*
X129216780Y-62591057D01*
X129216774Y-62591052D01*
X129023726Y-62479595D01*
X129023722Y-62479593D01*
X128817790Y-62394293D01*
X128817783Y-62394291D01*
X128817781Y-62394290D01*
X128602463Y-62336596D01*
X128602457Y-62336595D01*
X128602452Y-62336594D01*
X128381466Y-62307501D01*
X128381463Y-62307500D01*
X128381457Y-62307500D01*
X128158543Y-62307500D01*
X128158537Y-62307500D01*
X128158533Y-62307501D01*
X127937547Y-62336594D01*
X127937540Y-62336595D01*
X127937537Y-62336596D01*
X127722219Y-62394290D01*
X127722209Y-62394293D01*
X127516277Y-62479593D01*
X127516273Y-62479595D01*
X127323226Y-62591052D01*
X127323217Y-62591058D01*
X127146377Y-62726751D01*
X127146370Y-62726757D01*
X126988757Y-62884370D01*
X126988751Y-62884377D01*
X126853058Y-63061217D01*
X126853052Y-63061226D01*
X126741595Y-63254273D01*
X126741593Y-63254277D01*
X126656293Y-63460209D01*
X126656290Y-63460219D01*
X126601778Y-63663664D01*
X126598597Y-63675534D01*
X126598594Y-63675547D01*
X126569501Y-63896533D01*
X126569500Y-63896549D01*
X122349944Y-63896549D01*
X122293742Y-63686801D01*
X122162255Y-63344264D01*
X121995682Y-63017348D01*
X121940883Y-62932964D01*
X121795852Y-62709635D01*
X121564952Y-62424498D01*
X121564949Y-62424494D01*
X121305506Y-62165051D01*
X121020366Y-61934149D01*
X121020364Y-61934147D01*
X120712656Y-61734320D01*
X120385739Y-61567746D01*
X120043206Y-61436260D01*
X120043199Y-61436258D01*
X119688794Y-61341295D01*
X119688790Y-61341294D01*
X119688789Y-61341294D01*
X119326405Y-61283898D01*
X118960001Y-61264696D01*
X118959999Y-61264696D01*
X118593594Y-61283898D01*
X118231211Y-61341294D01*
X118231209Y-61341294D01*
X117876793Y-61436260D01*
X117534260Y-61567746D01*
X117207343Y-61734320D01*
X116899635Y-61934147D01*
X116614498Y-62165047D01*
X116614490Y-62165054D01*
X116355054Y-62424490D01*
X116355047Y-62424498D01*
X116124147Y-62709635D01*
X115924320Y-63017343D01*
X115757746Y-63344260D01*
X115626260Y-63686793D01*
X115531294Y-64041209D01*
X115531294Y-64041211D01*
X115473898Y-64403594D01*
X115454696Y-64769999D01*
X104393629Y-64769999D01*
X104398405Y-64761726D01*
X104483710Y-64555781D01*
X104541404Y-64340463D01*
X104570500Y-64119457D01*
X104570500Y-63896543D01*
X104541404Y-63675537D01*
X104483710Y-63460219D01*
X104398405Y-63254274D01*
X104286948Y-63061226D01*
X104151247Y-62884376D01*
X104151242Y-62884370D01*
X103993629Y-62726757D01*
X103993622Y-62726751D01*
X103816782Y-62591058D01*
X103816780Y-62591057D01*
X103816774Y-62591052D01*
X103623726Y-62479595D01*
X103623722Y-62479593D01*
X103417790Y-62394293D01*
X103417783Y-62394291D01*
X103417781Y-62394290D01*
X103202463Y-62336596D01*
X103202457Y-62336595D01*
X103202452Y-62336594D01*
X102981466Y-62307501D01*
X102981463Y-62307500D01*
X102981457Y-62307500D01*
X102758543Y-62307500D01*
X102758537Y-62307500D01*
X102758533Y-62307501D01*
X102537547Y-62336594D01*
X102537540Y-62336595D01*
X102537537Y-62336596D01*
X102322219Y-62394290D01*
X102322209Y-62394293D01*
X102116277Y-62479593D01*
X102116273Y-62479595D01*
X101923226Y-62591052D01*
X101923217Y-62591058D01*
X101746377Y-62726751D01*
X101746370Y-62726757D01*
X101588757Y-62884370D01*
X101588751Y-62884377D01*
X101453058Y-63061217D01*
X101453052Y-63061226D01*
X101341595Y-63254273D01*
X101341593Y-63254277D01*
X101256293Y-63460209D01*
X101256290Y-63460219D01*
X101201778Y-63663664D01*
X101198597Y-63675534D01*
X101198594Y-63675547D01*
X101169501Y-63896533D01*
X101169500Y-63896549D01*
X99267056Y-63896549D01*
X99270041Y-63835799D01*
X99278497Y-63663659D01*
X99279690Y-63651555D01*
X99332614Y-63294765D01*
X99334981Y-63282863D01*
X99422631Y-62932947D01*
X99426152Y-62921341D01*
X99547672Y-62581717D01*
X99552314Y-62570509D01*
X99706547Y-62244409D01*
X99712262Y-62233717D01*
X99897704Y-61924327D01*
X99904447Y-61914234D01*
X100119329Y-61624500D01*
X100127032Y-61615115D01*
X100369273Y-61347843D01*
X100377843Y-61339273D01*
X100645115Y-61097032D01*
X100654500Y-61089329D01*
X100944234Y-60874447D01*
X100954327Y-60867704D01*
X101263717Y-60682262D01*
X101274409Y-60676547D01*
X101600509Y-60522314D01*
X101611717Y-60517672D01*
X101951341Y-60396152D01*
X101962947Y-60392631D01*
X102312863Y-60304981D01*
X102324765Y-60302614D01*
X102681561Y-60249689D01*
X102693659Y-60248497D01*
X103002885Y-60233305D01*
X103056968Y-60230649D01*
X103063052Y-60230500D01*
X103099882Y-60230500D01*
X128040118Y-60230500D01*
X128076948Y-60230500D01*
X128083032Y-60230649D01*
G37*
%TD.AperFunction*%
%TD*%
M02*
