%TF.GenerationSoftware,KiCad,Pcbnew,8.0.9-8.0.9-0~ubuntu22.04.1*%
%TF.CreationDate,2025-08-01T23:19:18+09:00*%
%TF.ProjectId,USB2DXL,55534232-4458-44c2-9e6b-696361645f70,rev?*%
%TF.SameCoordinates,Original*%
%TF.FileFunction,Legend,Bot*%
%TF.FilePolarity,Positive*%
%FSLAX46Y46*%
G04 Gerber Fmt 4.6, Leading zero omitted, Abs format (unit mm)*
G04 Created by KiCad (PCBNEW 8.0.9-8.0.9-0~ubuntu22.04.1) date 2025-08-01 23:19:18*
%MOMM*%
%LPD*%
G01*
G04 APERTURE LIST*
G04 Aperture macros list*
%AMRoundRect*
0 Rectangle with rounded corners*
0 $1 Rounding radius*
0 $2 $3 $4 $5 $6 $7 $8 $9 X,Y pos of 4 corners*
0 Add a 4 corners polygon primitive as box body*
4,1,4,$2,$3,$4,$5,$6,$7,$8,$9,$2,$3,0*
0 Add four circle primitives for the rounded corners*
1,1,$1+$1,$2,$3*
1,1,$1+$1,$4,$5*
1,1,$1+$1,$6,$7*
1,1,$1+$1,$8,$9*
0 Add four rect primitives between the rounded corners*
20,1,$1+$1,$2,$3,$4,$5,0*
20,1,$1+$1,$4,$5,$6,$7,0*
20,1,$1+$1,$6,$7,$8,$9,0*
20,1,$1+$1,$8,$9,$2,$3,0*%
G04 Aperture macros list end*
%ADD10C,0.200000*%
%ADD11RoundRect,0.250000X0.675000X-0.600000X0.675000X0.600000X-0.675000X0.600000X-0.675000X-0.600000X0*%
%ADD12O,1.850000X1.700000*%
%ADD13C,3.200000*%
%ADD14RoundRect,0.250000X0.725000X-0.600000X0.725000X0.600000X-0.725000X0.600000X-0.725000X-0.600000X0*%
%ADD15O,1.950000X1.700000*%
%ADD16C,0.650000*%
%ADD17O,1.000000X2.100000*%
%ADD18O,1.000000X1.600000*%
%ADD19R,1.600000X1.600000*%
%ADD20C,1.600000*%
%ADD21RoundRect,1.500000X-1.500000X-1.500000X1.500000X-1.500000X1.500000X1.500000X-1.500000X1.500000X0*%
%ADD22C,6.000000*%
G04 APERTURE END LIST*
D10*
G36*
X114892712Y-88884912D02*
G01*
X114936859Y-88899750D01*
X114977654Y-88926798D01*
X115001583Y-88954460D01*
X115020957Y-88999638D01*
X115024786Y-89034816D01*
X115016606Y-89085061D01*
X115001583Y-89115172D01*
X114967281Y-89151395D01*
X114936370Y-89170127D01*
X114889030Y-89185754D01*
X114842337Y-89190154D01*
X114792145Y-89185147D01*
X114748059Y-89170127D01*
X114705618Y-89141091D01*
X114683823Y-89115172D01*
X114664245Y-89069994D01*
X114660376Y-89034816D01*
X114668642Y-88984571D01*
X114683823Y-88954460D01*
X114717662Y-88918323D01*
X114748059Y-88899750D01*
X114795241Y-88884313D01*
X114842825Y-88879966D01*
X114892712Y-88884912D01*
G37*
G36*
X114893219Y-88455544D02*
G01*
X114920250Y-88466707D01*
X114959034Y-88496535D01*
X114974228Y-88516777D01*
X114991859Y-88564707D01*
X114993767Y-88589317D01*
X114984301Y-88638915D01*
X114973739Y-88659170D01*
X114939390Y-88695703D01*
X114919273Y-88708263D01*
X114870602Y-88724202D01*
X114842337Y-88726337D01*
X114791809Y-88719277D01*
X114765156Y-88708263D01*
X114725276Y-88677409D01*
X114711422Y-88659415D01*
X114693350Y-88612954D01*
X114691394Y-88589317D01*
X114699809Y-88539564D01*
X114710934Y-88516777D01*
X114744727Y-88479468D01*
X114764667Y-88466707D01*
X114811226Y-88450965D01*
X114842825Y-88448389D01*
X114893219Y-88455544D01*
G37*
G36*
X115964388Y-88970336D02*
G01*
X115652002Y-88970336D01*
X115652002Y-88559519D01*
X115964388Y-88970336D01*
G37*
G36*
X117785219Y-88771766D02*
G01*
X117588603Y-88771766D01*
X117537081Y-88765277D01*
X117492415Y-88743772D01*
X117479182Y-88732443D01*
X117450256Y-88689460D01*
X117439236Y-88638302D01*
X117438882Y-88625953D01*
X117445533Y-88575464D01*
X117469737Y-88529329D01*
X117479182Y-88519219D01*
X117523175Y-88491345D01*
X117571720Y-88480991D01*
X117588603Y-88480385D01*
X117785219Y-88480385D01*
X117785219Y-88771766D01*
G37*
G36*
X119527159Y-89163532D02*
G01*
X119299280Y-89163532D01*
X119247640Y-89157365D01*
X119203028Y-89136928D01*
X119189859Y-89126163D01*
X119161108Y-89084797D01*
X119150155Y-89034761D01*
X119149803Y-89022604D01*
X119157470Y-88972608D01*
X119182701Y-88930455D01*
X119189859Y-88923441D01*
X119233730Y-88897320D01*
X119282343Y-88887618D01*
X119299280Y-88887049D01*
X119527159Y-88887049D01*
X119527159Y-89163532D01*
G37*
G36*
X119527159Y-88730001D02*
G01*
X119320773Y-88730001D01*
X119272060Y-88723409D01*
X119228982Y-88699733D01*
X119224542Y-88695563D01*
X119197480Y-88651665D01*
X119189859Y-88600796D01*
X119198591Y-88550116D01*
X119224786Y-88511404D01*
X119269150Y-88485866D01*
X119320773Y-88478675D01*
X119527159Y-88478675D01*
X119527159Y-88730001D01*
G37*
G36*
X121795422Y-89457581D02*
G01*
X110271595Y-89457581D01*
X110271595Y-89157426D01*
X110382706Y-89157426D01*
X110382706Y-89324000D01*
X111025065Y-89324000D01*
X111025065Y-88482827D01*
X111190418Y-88482827D01*
X111483753Y-88482827D01*
X111483753Y-89324000D01*
X111672797Y-89324000D01*
X111672797Y-88482827D01*
X111966133Y-88482827D01*
X112052106Y-88482827D01*
X112345442Y-88482827D01*
X112345442Y-89324000D01*
X112534486Y-89324000D01*
X112534486Y-88482827D01*
X112827822Y-88482827D01*
X112827822Y-88318207D01*
X112052106Y-88318207D01*
X112052106Y-88482827D01*
X111966133Y-88482827D01*
X111966133Y-88318207D01*
X111190418Y-88318207D01*
X111190418Y-88482827D01*
X111025065Y-88482827D01*
X111025065Y-88318207D01*
X110835044Y-88318207D01*
X110835044Y-89157426D01*
X110382706Y-89157426D01*
X110271595Y-89157426D01*
X110271595Y-88294760D01*
X112940662Y-88294760D01*
X113322658Y-89324000D01*
X113503886Y-89324000D01*
X113377249Y-88982792D01*
X113630404Y-88982792D01*
X113633426Y-89033870D01*
X113642494Y-89082077D01*
X113659920Y-89132880D01*
X113678764Y-89169882D01*
X113708980Y-89213301D01*
X113745224Y-89251232D01*
X113787497Y-89283677D01*
X113813586Y-89299331D01*
X113858313Y-89319954D01*
X113906276Y-89334685D01*
X113957475Y-89343524D01*
X114011911Y-89346470D01*
X114065690Y-89343524D01*
X114117363Y-89334685D01*
X114166929Y-89319954D01*
X114214388Y-89299331D01*
X114258520Y-89273014D01*
X114298102Y-89241445D01*
X114333136Y-89204626D01*
X114363621Y-89162555D01*
X114244680Y-89043853D01*
X114468157Y-89043853D01*
X114472879Y-89097157D01*
X114487047Y-89146549D01*
X114510660Y-89192030D01*
X114516517Y-89200657D01*
X114550071Y-89240384D01*
X114590591Y-89274388D01*
X114633013Y-89300096D01*
X114648408Y-89307635D01*
X114697599Y-89326408D01*
X114750924Y-89339037D01*
X114801795Y-89345105D01*
X114842092Y-89346470D01*
X114895459Y-89344043D01*
X114945651Y-89336761D01*
X114998322Y-89322767D01*
X115036510Y-89307635D01*
X115081049Y-89283472D01*
X115123829Y-89251187D01*
X115159550Y-89213176D01*
X115168889Y-89200657D01*
X115194263Y-89156006D01*
X115210239Y-89107539D01*
X115216817Y-89055256D01*
X115217005Y-89044341D01*
X115212306Y-88992998D01*
X115205578Y-88970336D01*
X115337905Y-88970336D01*
X115337905Y-89122988D01*
X115465644Y-89122988D01*
X115465644Y-89324000D01*
X115652002Y-89324000D01*
X115652002Y-89122988D01*
X116145372Y-89122988D01*
X116145372Y-89032618D01*
X116270913Y-89032618D01*
X116274835Y-89083361D01*
X116288392Y-89135663D01*
X116311634Y-89183672D01*
X116320494Y-89197237D01*
X116355394Y-89238535D01*
X116393493Y-89270359D01*
X116437929Y-89297121D01*
X116459713Y-89307391D01*
X116506409Y-89324488D01*
X116556860Y-89336700D01*
X116611067Y-89344027D01*
X116661578Y-89346432D01*
X116669029Y-89346470D01*
X116724739Y-89344191D01*
X116778603Y-89337354D01*
X116830620Y-89325958D01*
X116836778Y-89324000D01*
X117148722Y-89324000D01*
X117380508Y-89324000D01*
X117655255Y-88933944D01*
X117785219Y-88933944D01*
X117785219Y-89324000D01*
X117975240Y-89324000D01*
X117975240Y-89169394D01*
X118148408Y-89169394D01*
X118148408Y-89324000D01*
X118820808Y-89324000D01*
X118820808Y-89169150D01*
X118676820Y-89033106D01*
X118958073Y-89033106D01*
X118962271Y-89085399D01*
X118974864Y-89133589D01*
X118998415Y-89181860D01*
X119001060Y-89186002D01*
X119034625Y-89227819D01*
X119072101Y-89259723D01*
X119116207Y-89285807D01*
X119120983Y-89288096D01*
X119171525Y-89307029D01*
X119221214Y-89318074D01*
X119274882Y-89323439D01*
X119300013Y-89324000D01*
X119717180Y-89324000D01*
X119717180Y-89032618D01*
X119907200Y-89032618D01*
X119911122Y-89083361D01*
X119924680Y-89135663D01*
X119947921Y-89183672D01*
X119956782Y-89197237D01*
X119991682Y-89238535D01*
X120029781Y-89270359D01*
X120074217Y-89297121D01*
X120096000Y-89307391D01*
X120142696Y-89324488D01*
X120193148Y-89336700D01*
X120247354Y-89344027D01*
X120297866Y-89346432D01*
X120305316Y-89346470D01*
X120361027Y-89344191D01*
X120414891Y-89337354D01*
X120466908Y-89325958D01*
X120517079Y-89310005D01*
X120544919Y-89298842D01*
X120591498Y-89275853D01*
X120634851Y-89248774D01*
X120674979Y-89217603D01*
X120711881Y-89182342D01*
X120731520Y-89160357D01*
X120606468Y-89033351D01*
X120573670Y-89071191D01*
X120535542Y-89104356D01*
X120523669Y-89112974D01*
X120479718Y-89139427D01*
X120432494Y-89159803D01*
X120418401Y-89164509D01*
X120368045Y-89176697D01*
X120316567Y-89182060D01*
X120301653Y-89182339D01*
X120252479Y-89179344D01*
X120200616Y-89167551D01*
X120154374Y-89144481D01*
X120119110Y-89109489D01*
X120101238Y-89062339D01*
X120099908Y-89043120D01*
X120111285Y-88992817D01*
X120145417Y-88954105D01*
X120151688Y-88949819D01*
X120198874Y-88927349D01*
X120869517Y-88927349D01*
X120872171Y-88987179D01*
X120880131Y-89042716D01*
X120893399Y-89093959D01*
X120911974Y-89140909D01*
X120935855Y-89183566D01*
X120971518Y-89229086D01*
X120978205Y-89236072D01*
X121021748Y-89273590D01*
X121071044Y-89303346D01*
X121116519Y-89322213D01*
X121165989Y-89335689D01*
X121219454Y-89343775D01*
X121276914Y-89346470D01*
X121334381Y-89343775D01*
X121387864Y-89335689D01*
X121437363Y-89322213D01*
X121482880Y-89303346D01*
X121532242Y-89273590D01*
X121575868Y-89236072D01*
X121612722Y-89191582D01*
X121641951Y-89140909D01*
X121660483Y-89093959D01*
X121673721Y-89042716D01*
X121681664Y-88987179D01*
X121684311Y-88927349D01*
X121684311Y-88318207D01*
X121494290Y-88318207D01*
X121494290Y-88927349D01*
X121490718Y-88981250D01*
X121480002Y-89029382D01*
X121459407Y-89076632D01*
X121437138Y-89108333D01*
X121396828Y-89143753D01*
X121347646Y-89166055D01*
X121295795Y-89174910D01*
X121276914Y-89175500D01*
X121222629Y-89170187D01*
X121175454Y-89154248D01*
X121131376Y-89124075D01*
X121116203Y-89108333D01*
X121088103Y-89066763D01*
X121069199Y-89017890D01*
X121060116Y-88968316D01*
X121058073Y-88927349D01*
X121058073Y-88318207D01*
X120869517Y-88318207D01*
X120869517Y-88927349D01*
X120198874Y-88927349D01*
X120200277Y-88926681D01*
X120249521Y-88911897D01*
X120302507Y-88900605D01*
X120324612Y-88896819D01*
X120381090Y-88886734D01*
X120432679Y-88874646D01*
X120488132Y-88857496D01*
X120536544Y-88837460D01*
X120584125Y-88810439D01*
X120601583Y-88797656D01*
X120640265Y-88759325D01*
X120667895Y-88714675D01*
X120684473Y-88663704D01*
X120689912Y-88613921D01*
X120689999Y-88606414D01*
X120686212Y-88555334D01*
X120673122Y-88503156D01*
X120650682Y-88455796D01*
X120642127Y-88442527D01*
X120608429Y-88402050D01*
X120567480Y-88367632D01*
X120524427Y-88341836D01*
X120508771Y-88334327D01*
X120458753Y-88315555D01*
X120411050Y-88304026D01*
X120360293Y-88297351D01*
X120313376Y-88295493D01*
X120260028Y-88297702D01*
X120208550Y-88304329D01*
X120158942Y-88315373D01*
X120111204Y-88330836D01*
X120084765Y-88341655D01*
X120040585Y-88363662D01*
X119993900Y-88393250D01*
X119951276Y-88427570D01*
X119912712Y-88466622D01*
X119908177Y-88471836D01*
X120030055Y-88598354D01*
X120065718Y-88558936D01*
X120104625Y-88525863D01*
X120146776Y-88499135D01*
X120155595Y-88494551D01*
X120201448Y-88475746D01*
X120250163Y-88463906D01*
X120301740Y-88459031D01*
X120312399Y-88458891D01*
X120361773Y-88462254D01*
X120412331Y-88475169D01*
X120447221Y-88493330D01*
X120481616Y-88528746D01*
X120497093Y-88578416D01*
X120497535Y-88589806D01*
X120485384Y-88637128D01*
X120448931Y-88672604D01*
X120402449Y-88693281D01*
X120354423Y-88707075D01*
X120302262Y-88718104D01*
X120280404Y-88721941D01*
X120222886Y-88732720D01*
X120170318Y-88745669D01*
X120122699Y-88760788D01*
X120072089Y-88781797D01*
X120028606Y-88805931D01*
X119997815Y-88828431D01*
X119962507Y-88863997D01*
X119932774Y-88910884D01*
X119916050Y-88957370D01*
X119907997Y-89008952D01*
X119907200Y-89032618D01*
X119717180Y-89032618D01*
X119717180Y-88318207D01*
X119309294Y-88318207D01*
X119258667Y-88320796D01*
X119206765Y-88329746D01*
X119159443Y-88345087D01*
X119146140Y-88350936D01*
X119101781Y-88376415D01*
X119061750Y-88411385D01*
X119037452Y-88442527D01*
X119013638Y-88489490D01*
X119001464Y-88537488D01*
X118998373Y-88580280D01*
X119000295Y-88600796D01*
X119002991Y-88629585D01*
X119018561Y-88678632D01*
X119037452Y-88712171D01*
X119070940Y-88751498D01*
X119113152Y-88783750D01*
X119127840Y-88791573D01*
X119120250Y-88794481D01*
X119075633Y-88817961D01*
X119034212Y-88850070D01*
X119000815Y-88888759D01*
X118976480Y-88933364D01*
X118962247Y-88983223D01*
X118958952Y-89022604D01*
X118958073Y-89033106D01*
X118676820Y-89033106D01*
X118466656Y-88834537D01*
X118431691Y-88799183D01*
X118398365Y-88762104D01*
X118386545Y-88747586D01*
X118358629Y-88706233D01*
X118344290Y-88675779D01*
X118332610Y-88627839D01*
X118331346Y-88605437D01*
X118338279Y-88555022D01*
X118361253Y-88510917D01*
X118373355Y-88497726D01*
X118415911Y-88470177D01*
X118465808Y-88458410D01*
X118487661Y-88457426D01*
X118539865Y-88463513D01*
X118588522Y-88481773D01*
X118609782Y-88494307D01*
X118650792Y-88527520D01*
X118683813Y-88563961D01*
X118712634Y-88603569D01*
X118715784Y-88608368D01*
X118838150Y-88486735D01*
X118806963Y-88447769D01*
X118769002Y-88408561D01*
X118728568Y-88375031D01*
X118685662Y-88347179D01*
X118680124Y-88344097D01*
X118634695Y-88322833D01*
X118587556Y-88307644D01*
X118538708Y-88298531D01*
X118488150Y-88295493D01*
X118438217Y-88297813D01*
X118386167Y-88305971D01*
X118338483Y-88320001D01*
X118309120Y-88332618D01*
X118264984Y-88358650D01*
X118227527Y-88390645D01*
X118196749Y-88428602D01*
X118191394Y-88436909D01*
X118169370Y-88481450D01*
X118155502Y-88530809D01*
X118149996Y-88579352D01*
X118149629Y-88596400D01*
X118153337Y-88648970D01*
X118164463Y-88699121D01*
X118172099Y-88721452D01*
X118192959Y-88766137D01*
X118219443Y-88808366D01*
X118246349Y-88843818D01*
X118278665Y-88881200D01*
X118312516Y-88917218D01*
X118351190Y-88955862D01*
X118388987Y-88991829D01*
X118576810Y-89169394D01*
X118148408Y-89169394D01*
X117975240Y-89169394D01*
X117975240Y-88318207D01*
X117588603Y-88318207D01*
X117539434Y-88320635D01*
X117487732Y-88329168D01*
X117439854Y-88343844D01*
X117410062Y-88357042D01*
X117365163Y-88384143D01*
X117326943Y-88417206D01*
X117295401Y-88456232D01*
X117289894Y-88464753D01*
X117267225Y-88510196D01*
X117252952Y-88560122D01*
X117247285Y-88608890D01*
X117246907Y-88625953D01*
X117250308Y-88675853D01*
X117262062Y-88727172D01*
X117282212Y-88774151D01*
X117289894Y-88787398D01*
X117320100Y-88827746D01*
X117356985Y-88862083D01*
X117400548Y-88890409D01*
X117410062Y-88895353D01*
X117451346Y-88912344D01*
X117148722Y-89324000D01*
X116836778Y-89324000D01*
X116880791Y-89310005D01*
X116908631Y-89298842D01*
X116955210Y-89275853D01*
X116998564Y-89248774D01*
X117038692Y-89217603D01*
X117075594Y-89182342D01*
X117095233Y-89160357D01*
X116970180Y-89033351D01*
X116937382Y-89071191D01*
X116899254Y-89104356D01*
X116887382Y-89112974D01*
X116843431Y-89139427D01*
X116796207Y-89159803D01*
X116782113Y-89164509D01*
X116731757Y-89176697D01*
X116680279Y-89182060D01*
X116665365Y-89182339D01*
X116616191Y-89179344D01*
X116564329Y-89167551D01*
X116518087Y-89144481D01*
X116482822Y-89109489D01*
X116464950Y-89062339D01*
X116463621Y-89043120D01*
X116474998Y-88992817D01*
X116509130Y-88954105D01*
X116515400Y-88949819D01*
X116563989Y-88926681D01*
X116613234Y-88911897D01*
X116666219Y-88900605D01*
X116688324Y-88896819D01*
X116744803Y-88886734D01*
X116796392Y-88874646D01*
X116851845Y-88857496D01*
X116900256Y-88837460D01*
X116947837Y-88810439D01*
X116965295Y-88797656D01*
X117003977Y-88759325D01*
X117031607Y-88714675D01*
X117048185Y-88663704D01*
X117053625Y-88613921D01*
X117053711Y-88606414D01*
X117049925Y-88555334D01*
X117036835Y-88503156D01*
X117014395Y-88455796D01*
X117005840Y-88442527D01*
X116972142Y-88402050D01*
X116931193Y-88367632D01*
X116888139Y-88341836D01*
X116872483Y-88334327D01*
X116822466Y-88315555D01*
X116774762Y-88304026D01*
X116724005Y-88297351D01*
X116677089Y-88295493D01*
X116623741Y-88297702D01*
X116572263Y-88304329D01*
X116522655Y-88315373D01*
X116474917Y-88330836D01*
X116448478Y-88341655D01*
X116404297Y-88363662D01*
X116357613Y-88393250D01*
X116314989Y-88427570D01*
X116276425Y-88466622D01*
X116271890Y-88471836D01*
X116393767Y-88598354D01*
X116429430Y-88558936D01*
X116468338Y-88525863D01*
X116510488Y-88499135D01*
X116519308Y-88494551D01*
X116565161Y-88475746D01*
X116613876Y-88463906D01*
X116665453Y-88459031D01*
X116676112Y-88458891D01*
X116725485Y-88462254D01*
X116776043Y-88475169D01*
X116810934Y-88493330D01*
X116845328Y-88528746D01*
X116860806Y-88578416D01*
X116861248Y-88589806D01*
X116849097Y-88637128D01*
X116812644Y-88672604D01*
X116766161Y-88693281D01*
X116718136Y-88707075D01*
X116665975Y-88718104D01*
X116644116Y-88721941D01*
X116586599Y-88732720D01*
X116534030Y-88745669D01*
X116486411Y-88760788D01*
X116435801Y-88781797D01*
X116392319Y-88805931D01*
X116361527Y-88828431D01*
X116326219Y-88863997D01*
X116296487Y-88910884D01*
X116279762Y-88957370D01*
X116271709Y-89008952D01*
X116270913Y-89032618D01*
X116145372Y-89032618D01*
X116145372Y-88970336D01*
X115652002Y-88318207D01*
X115465644Y-88318207D01*
X115465644Y-88970336D01*
X115337905Y-88970336D01*
X115205578Y-88970336D01*
X115198210Y-88945518D01*
X115174716Y-88901903D01*
X115168889Y-88893644D01*
X115135287Y-88855347D01*
X115094624Y-88822584D01*
X115051991Y-88797829D01*
X115036510Y-88790573D01*
X115028074Y-88787495D01*
X115061354Y-88770219D01*
X115102682Y-88739254D01*
X115136161Y-88702401D01*
X115162356Y-88656720D01*
X115176461Y-88606506D01*
X115179147Y-88570510D01*
X115174039Y-88517320D01*
X115158714Y-88468574D01*
X115135916Y-88428117D01*
X115102270Y-88388751D01*
X115060774Y-88355619D01*
X115016237Y-88330908D01*
X114966325Y-88312232D01*
X114918019Y-88301338D01*
X114866505Y-88296046D01*
X114842581Y-88295493D01*
X114788893Y-88298294D01*
X114738837Y-88306698D01*
X114687479Y-88322608D01*
X114668191Y-88330908D01*
X114624042Y-88355619D01*
X114582805Y-88388751D01*
X114549245Y-88428117D01*
X114524632Y-88472822D01*
X114510236Y-88521972D01*
X114506014Y-88570510D01*
X114507965Y-88589317D01*
X114511094Y-88619484D01*
X114528221Y-88668566D01*
X114549001Y-88702401D01*
X114582450Y-88739254D01*
X114623692Y-88770219D01*
X114656683Y-88787395D01*
X114648408Y-88790573D01*
X114603987Y-88813854D01*
X114561292Y-88845023D01*
X114525610Y-88881774D01*
X114516272Y-88893888D01*
X114490899Y-88936764D01*
X114474923Y-88983265D01*
X114468344Y-89033392D01*
X114468319Y-89034816D01*
X114468157Y-89043853D01*
X114244680Y-89043853D01*
X114241743Y-89040922D01*
X114215034Y-89082300D01*
X114181081Y-89120433D01*
X114142337Y-89150831D01*
X114095762Y-89174198D01*
X114046166Y-89186781D01*
X114011422Y-89189177D01*
X113959926Y-89183620D01*
X113911270Y-89164669D01*
X113870983Y-89132269D01*
X113841086Y-89089450D01*
X113823599Y-89039243D01*
X113818471Y-88987189D01*
X113823408Y-88937543D01*
X113839558Y-88890740D01*
X113840941Y-88888026D01*
X113869381Y-88847072D01*
X113902490Y-88819638D01*
X113948545Y-88800199D01*
X113996279Y-88794725D01*
X114046044Y-88800953D01*
X114094221Y-88819638D01*
X114133852Y-88848682D01*
X114164359Y-88889104D01*
X114167738Y-88895353D01*
X114328938Y-88895353D01*
X114262504Y-88318207D01*
X113678275Y-88318207D01*
X113678275Y-88472569D01*
X114116781Y-88472569D01*
X114146360Y-88717983D01*
X114110997Y-88688266D01*
X114082253Y-88671138D01*
X114034912Y-88652236D01*
X113983380Y-88642058D01*
X113946698Y-88640120D01*
X113896408Y-88643713D01*
X113844382Y-88656135D01*
X113796412Y-88677430D01*
X113782811Y-88685549D01*
X113741137Y-88716914D01*
X113705569Y-88754528D01*
X113676107Y-88798392D01*
X113670948Y-88807914D01*
X113651349Y-88852951D01*
X113638164Y-88901234D01*
X113631393Y-88952763D01*
X113630404Y-88982792D01*
X113377249Y-88982792D01*
X113121890Y-88294760D01*
X112940662Y-88294760D01*
X110271595Y-88294760D01*
X110271595Y-88183649D01*
X121795422Y-88183649D01*
X121795422Y-89457581D01*
G37*
%LPC*%
D11*
%TO.C,J7*%
X108839000Y-79856000D03*
D12*
X108839000Y-77356000D03*
X108839000Y-74856000D03*
X108839000Y-72356000D03*
%TD*%
D13*
%TO.C,REF\u002A\u002A*%
X102870000Y-64008000D03*
%TD*%
D14*
%TO.C,J4*%
X102870000Y-95209000D03*
D15*
X102870000Y-92709000D03*
X102870000Y-90209000D03*
X102870000Y-87709000D03*
%TD*%
D16*
%TO.C,J2*%
X112680000Y-99635000D03*
X118460000Y-99635000D03*
D17*
X111250000Y-99105000D03*
D18*
X111250000Y-103285000D03*
D17*
X119890000Y-99105000D03*
D18*
X119890000Y-103285000D03*
%TD*%
D13*
%TO.C,REF\u002A\u002A*%
X128270000Y-64008000D03*
%TD*%
%TO.C,REF\u002A\u002A*%
X102870000Y-102015000D03*
%TD*%
D15*
%TO.C,J3*%
X124333000Y-72683000D03*
X124333000Y-75183000D03*
D14*
X124333000Y-77683000D03*
%TD*%
D19*
%TO.C,C10*%
X115030000Y-72222000D03*
D20*
X113030000Y-72222000D03*
%TD*%
D11*
%TO.C,J6*%
X102870000Y-79849000D03*
D12*
X102870000Y-77349000D03*
X102870000Y-74849000D03*
X102870000Y-72349000D03*
%TD*%
D21*
%TO.C,J1*%
X111760000Y-64770000D03*
D22*
X118960000Y-64770000D03*
%TD*%
D14*
%TO.C,J5*%
X129159000Y-77683000D03*
D15*
X129159000Y-75183000D03*
X129159000Y-72683000D03*
%TD*%
D13*
%TO.C,REF\u002A\u002A*%
X128270000Y-102015000D03*
%TD*%
%LPD*%
M02*
