%TF.GenerationSoftware,KiCad,Pcbnew,8.0.9-8.0.9-0~ubuntu22.04.1*%
%TF.CreationDate,2025-08-01T23:19:18+09:00*%
%TF.ProjectId,USB2DXL,55534232-4458-44c2-9e6b-696361645f70,rev?*%
%TF.SameCoordinates,Original*%
%TF.FileFunction,Copper,L1,Top*%
%TF.FilePolarity,Positive*%
%FSLAX46Y46*%
G04 Gerber Fmt 4.6, Leading zero omitted, Abs format (unit mm)*
G04 Created by KiCad (PCBNEW 8.0.9-8.0.9-0~ubuntu22.04.1) date 2025-08-01 23:19:18*
%MOMM*%
%LPD*%
G01*
G04 APERTURE LIST*
G04 Aperture macros list*
%AMRoundRect*
0 Rectangle with rounded corners*
0 $1 Rounding radius*
0 $2 $3 $4 $5 $6 $7 $8 $9 X,Y pos of 4 corners*
0 Add a 4 corners polygon primitive as box body*
4,1,4,$2,$3,$4,$5,$6,$7,$8,$9,$2,$3,0*
0 Add four circle primitives for the rounded corners*
1,1,$1+$1,$2,$3*
1,1,$1+$1,$4,$5*
1,1,$1+$1,$6,$7*
1,1,$1+$1,$8,$9*
0 Add four rect primitives between the rounded corners*
20,1,$1+$1,$2,$3,$4,$5,0*
20,1,$1+$1,$4,$5,$6,$7,0*
20,1,$1+$1,$6,$7,$8,$9,0*
20,1,$1+$1,$8,$9,$2,$3,0*%
%AMFreePoly0*
4,1,9,3.862500,-0.866500,0.737500,-0.866500,0.737500,-0.450000,-0.737500,-0.450000,-0.737500,0.450000,0.737500,0.450000,0.737500,0.866500,3.862500,0.866500,3.862500,-0.866500,3.862500,-0.866500,$1*%
G04 Aperture macros list end*
%TA.AperFunction,ComponentPad*%
%ADD10RoundRect,0.250000X0.675000X-0.600000X0.675000X0.600000X-0.675000X0.600000X-0.675000X-0.600000X0*%
%TD*%
%TA.AperFunction,ComponentPad*%
%ADD11O,1.850000X1.700000*%
%TD*%
%TA.AperFunction,ComponentPad*%
%ADD12RoundRect,0.250000X0.725000X-0.600000X0.725000X0.600000X-0.725000X0.600000X-0.725000X-0.600000X0*%
%TD*%
%TA.AperFunction,ComponentPad*%
%ADD13O,1.950000X1.700000*%
%TD*%
%TA.AperFunction,SMDPad,CuDef*%
%ADD14R,0.600000X1.450000*%
%TD*%
%TA.AperFunction,SMDPad,CuDef*%
%ADD15R,0.300000X1.450000*%
%TD*%
%TA.AperFunction,HeatsinkPad*%
%ADD16O,1.000000X2.100000*%
%TD*%
%TA.AperFunction,HeatsinkPad*%
%ADD17O,1.000000X1.600000*%
%TD*%
%TA.AperFunction,SMDPad,CuDef*%
%ADD18RoundRect,0.162500X-0.617500X-0.162500X0.617500X-0.162500X0.617500X0.162500X-0.617500X0.162500X0*%
%TD*%
%TA.AperFunction,SMDPad,CuDef*%
%ADD19RoundRect,0.140000X0.170000X-0.140000X0.170000X0.140000X-0.170000X0.140000X-0.170000X-0.140000X0*%
%TD*%
%TA.AperFunction,SMDPad,CuDef*%
%ADD20RoundRect,0.140000X-0.140000X-0.170000X0.140000X-0.170000X0.140000X0.170000X-0.140000X0.170000X0*%
%TD*%
%TA.AperFunction,SMDPad,CuDef*%
%ADD21RoundRect,0.087500X-0.087500X0.537500X-0.087500X-0.537500X0.087500X-0.537500X0.087500X0.537500X0*%
%TD*%
%TA.AperFunction,SMDPad,CuDef*%
%ADD22RoundRect,0.225000X0.225000X0.250000X-0.225000X0.250000X-0.225000X-0.250000X0.225000X-0.250000X0*%
%TD*%
%TA.AperFunction,SMDPad,CuDef*%
%ADD23RoundRect,0.250000X0.325000X0.450000X-0.325000X0.450000X-0.325000X-0.450000X0.325000X-0.450000X0*%
%TD*%
%TA.AperFunction,SMDPad,CuDef*%
%ADD24RoundRect,0.140000X0.140000X0.170000X-0.140000X0.170000X-0.140000X-0.170000X0.140000X-0.170000X0*%
%TD*%
%TA.AperFunction,SMDPad,CuDef*%
%ADD25RoundRect,0.135000X0.185000X-0.135000X0.185000X0.135000X-0.185000X0.135000X-0.185000X-0.135000X0*%
%TD*%
%TA.AperFunction,SMDPad,CuDef*%
%ADD26RoundRect,0.135000X0.135000X0.185000X-0.135000X0.185000X-0.135000X-0.185000X0.135000X-0.185000X0*%
%TD*%
%TA.AperFunction,SMDPad,CuDef*%
%ADD27R,1.460500X0.558800*%
%TD*%
%TA.AperFunction,SMDPad,CuDef*%
%ADD28RoundRect,0.135000X-0.185000X0.135000X-0.185000X-0.135000X0.185000X-0.135000X0.185000X0.135000X0*%
%TD*%
%TA.AperFunction,SMDPad,CuDef*%
%ADD29RoundRect,0.135000X-0.135000X-0.185000X0.135000X-0.185000X0.135000X0.185000X-0.135000X0.185000X0*%
%TD*%
%TA.AperFunction,SMDPad,CuDef*%
%ADD30RoundRect,0.218750X-0.218750X-0.256250X0.218750X-0.256250X0.218750X0.256250X-0.218750X0.256250X0*%
%TD*%
%TA.AperFunction,ComponentPad*%
%ADD31R,1.600000X1.600000*%
%TD*%
%TA.AperFunction,ComponentPad*%
%ADD32C,1.600000*%
%TD*%
%TA.AperFunction,SMDPad,CuDef*%
%ADD33RoundRect,0.218750X0.256250X-0.218750X0.256250X0.218750X-0.256250X0.218750X-0.256250X-0.218750X0*%
%TD*%
%TA.AperFunction,SMDPad,CuDef*%
%ADD34RoundRect,0.225000X0.425000X0.225000X-0.425000X0.225000X-0.425000X-0.225000X0.425000X-0.225000X0*%
%TD*%
%TA.AperFunction,SMDPad,CuDef*%
%ADD35FreePoly0,180.000000*%
%TD*%
%TA.AperFunction,ComponentPad*%
%ADD36RoundRect,1.500000X-1.500000X-1.500000X1.500000X-1.500000X1.500000X1.500000X-1.500000X1.500000X0*%
%TD*%
%TA.AperFunction,ComponentPad*%
%ADD37C,6.000000*%
%TD*%
%TA.AperFunction,SMDPad,CuDef*%
%ADD38RoundRect,0.140000X-0.170000X0.140000X-0.170000X-0.140000X0.170000X-0.140000X0.170000X0.140000X0*%
%TD*%
%TA.AperFunction,SMDPad,CuDef*%
%ADD39RoundRect,0.087500X-0.725000X-0.087500X0.725000X-0.087500X0.725000X0.087500X-0.725000X0.087500X0*%
%TD*%
%TA.AperFunction,SMDPad,CuDef*%
%ADD40RoundRect,0.075000X0.225000X-0.955000X0.225000X0.955000X-0.225000X0.955000X-0.225000X-0.955000X0*%
%TD*%
%TA.AperFunction,ViaPad*%
%ADD41C,0.500000*%
%TD*%
%TA.AperFunction,ViaPad*%
%ADD42C,0.600000*%
%TD*%
%TA.AperFunction,ViaPad*%
%ADD43C,0.400000*%
%TD*%
%TA.AperFunction,Conductor*%
%ADD44C,0.500000*%
%TD*%
%TA.AperFunction,Conductor*%
%ADD45C,0.200000*%
%TD*%
%TA.AperFunction,Conductor*%
%ADD46C,1.000000*%
%TD*%
G04 APERTURE END LIST*
D10*
%TO.P,J7,1,Pin_1*%
%TO.N,/DATA-*%
X108839000Y-79856000D03*
D11*
%TO.P,J7,2,Pin_2*%
%TO.N,/DATA+*%
X108839000Y-77356000D03*
%TO.P,J7,3,Pin_3*%
%TO.N,+12V*%
X108839000Y-74856000D03*
%TO.P,J7,4,Pin_4*%
%TO.N,GNDPWR*%
X108839000Y-72356000D03*
%TD*%
D12*
%TO.P,J4,1,Pin_1*%
%TO.N,GND*%
X102870000Y-95209000D03*
D13*
%TO.P,J4,2,Pin_2*%
%TO.N,+5V*%
X102870000Y-92709000D03*
%TO.P,J4,3,Pin_3*%
%TO.N,/TX_pin*%
X102870000Y-90209000D03*
%TO.P,J4,4,Pin_4*%
%TO.N,/RXD*%
X102870000Y-87709000D03*
%TD*%
D14*
%TO.P,J2,A1,GND*%
%TO.N,GND*%
X112320000Y-98190000D03*
%TO.P,J2,A4,VBUS*%
%TO.N,+5V*%
X113120000Y-98190000D03*
D15*
%TO.P,J2,A5,CC1*%
%TO.N,Net-(J2-CC1)*%
X114320000Y-98190000D03*
%TO.P,J2,A6,D+*%
%TO.N,/D+*%
X115320000Y-98190000D03*
%TO.P,J2,A7,D-*%
%TO.N,/D-*%
X115820000Y-98190000D03*
%TO.P,J2,A8,SBU1*%
%TO.N,unconnected-(J2-SBU1-PadA8)*%
X116820000Y-98190000D03*
D14*
%TO.P,J2,A9,VBUS*%
%TO.N,+5V*%
X118020000Y-98190000D03*
%TO.P,J2,A12,GND*%
%TO.N,GND*%
X118820000Y-98190000D03*
%TO.P,J2,B1,GND*%
X118820000Y-98190000D03*
%TO.P,J2,B4,VBUS*%
%TO.N,+5V*%
X118020000Y-98190000D03*
D15*
%TO.P,J2,B5,CC2*%
%TO.N,Net-(J2-CC2)*%
X117320000Y-98190000D03*
%TO.P,J2,B6,D+*%
%TO.N,/D+*%
X116320000Y-98190000D03*
%TO.P,J2,B7,D-*%
%TO.N,/D-*%
X114820000Y-98190000D03*
%TO.P,J2,B8,SBU2*%
%TO.N,unconnected-(J2-SBU2-PadB8)*%
X113820000Y-98190000D03*
D14*
%TO.P,J2,B9,VBUS*%
%TO.N,+5V*%
X113120000Y-98190000D03*
%TO.P,J2,B12,GND*%
%TO.N,GND*%
X112320000Y-98190000D03*
D16*
%TO.P,J2,S1,SHIELD*%
X111250000Y-99105000D03*
D17*
X111250000Y-103285000D03*
D16*
X119890000Y-99105000D03*
D17*
X119890000Y-103285000D03*
%TD*%
D18*
%TO.P,U6,5,VCC*%
%TO.N,+5VP*%
X121111000Y-77876000D03*
%TO.P,U6,4*%
%TO.N,/RX*%
X121111000Y-79776000D03*
%TO.P,U6,3,GND*%
%TO.N,GNDPWR*%
X118411000Y-79776000D03*
%TO.P,U6,2*%
%TO.N,Net-(U5-Y1)*%
X118411000Y-78826000D03*
%TO.P,U6,1*%
%TO.N,Net-(U4-RO)*%
X118411000Y-77876000D03*
%TD*%
D19*
%TO.P,C4,1*%
%TO.N,+5V*%
X120523000Y-93784000D03*
%TO.P,C4,2*%
%TO.N,GND*%
X120523000Y-92824000D03*
%TD*%
D20*
%TO.P,C2,2*%
%TO.N,GND*%
X118336000Y-95209000D03*
%TO.P,C2,1*%
%TO.N,+5V*%
X117376000Y-95209000D03*
%TD*%
D18*
%TO.P,U7,1*%
%TO.N,/TX_pin*%
X122221000Y-96418000D03*
%TO.P,U7,2*%
%TO.N,/TX_usb*%
X122221000Y-97368000D03*
%TO.P,U7,3,GND*%
%TO.N,GND*%
X122221000Y-98318000D03*
%TO.P,U7,4*%
%TO.N,/TXD*%
X124921000Y-98318000D03*
%TO.P,U7,5,VCC*%
%TO.N,+5V*%
X124921000Y-96418000D03*
%TD*%
D21*
%TO.P,U5,1,G^{-}*%
%TO.N,/TXEN*%
X120396000Y-72851000D03*
%TO.P,U5,2,A1*%
%TO.N,Net-(U5-A1)*%
X119896000Y-72851000D03*
%TO.P,U5,3,Y2*%
X119396000Y-72851000D03*
%TO.P,U5,4,GND*%
%TO.N,GNDPWR*%
X118896000Y-72851000D03*
%TO.P,U5,5,A2*%
%TO.N,/TX*%
X118896000Y-75651000D03*
%TO.P,U5,6,Y1*%
%TO.N,Net-(U5-Y1)*%
X119396000Y-75651000D03*
%TO.P,U5,7,G*%
%TO.N,/TXEN*%
X119896000Y-75651000D03*
%TO.P,U5,8,V_{cc}*%
%TO.N,+5VP*%
X120396000Y-75651000D03*
%TD*%
D22*
%TO.P,C6,1*%
%TO.N,+12V*%
X115443000Y-75946000D03*
%TO.P,C6,2*%
%TO.N,GNDPWR*%
X113893000Y-75946000D03*
%TD*%
D23*
%TO.P,D3,1,K*%
%TO.N,GNDPWR*%
X127000000Y-68453000D03*
%TO.P,D3,2,A*%
%TO.N,Net-(D3-A)*%
X124950000Y-68453000D03*
%TD*%
D24*
%TO.P,C7,1*%
%TO.N,+5VP*%
X115316000Y-82255000D03*
%TO.P,C7,2*%
%TO.N,GNDPWR*%
X114356000Y-82255000D03*
%TD*%
D25*
%TO.P,R15,1*%
%TO.N,/TX_pin*%
X120650000Y-96354000D03*
%TO.P,R15,2*%
%TO.N,+5V*%
X120650000Y-95334000D03*
%TD*%
%TO.P,R12,1*%
%TO.N,Net-(U4-RO)*%
X116840000Y-77812000D03*
%TO.P,R12,2*%
%TO.N,+5VP*%
X116840000Y-76792000D03*
%TD*%
D26*
%TO.P,R7,2*%
%TO.N,/DATA-*%
X108638150Y-86319000D03*
%TO.P,R7,1*%
%TO.N,Net-(U4-B)*%
X109658150Y-86319000D03*
%TD*%
D24*
%TO.P,C1,1*%
%TO.N,+5V*%
X111887000Y-96352000D03*
%TO.P,C1,2*%
%TO.N,GND*%
X110927000Y-96352000D03*
%TD*%
D27*
%TO.P,U4,8,VCC*%
%TO.N,+5VP*%
X111252000Y-87716000D03*
%TO.P,U4,7,B*%
%TO.N,Net-(U4-B)*%
X111252000Y-86446000D03*
%TO.P,U4,6,A*%
%TO.N,Net-(U4-A)*%
X111252000Y-85176000D03*
%TO.P,U4,5,GND*%
%TO.N,GNDPWR*%
X111252000Y-83906000D03*
%TO.P,U4,4,DI*%
%TO.N,/TX*%
X116700300Y-83906000D03*
%TO.P,U4,3,DE*%
%TO.N,/TXEN*%
X116700300Y-85176000D03*
%TO.P,U4,2,\u002ARE*%
X116700300Y-86446000D03*
%TO.P,U4,1,RO*%
%TO.N,Net-(U4-RO)*%
X116700300Y-87716000D03*
%TD*%
D28*
%TO.P,R14,1*%
%TO.N,+12V*%
X124587000Y-66036000D03*
%TO.P,R14,2*%
%TO.N,Net-(D3-A)*%
X124587000Y-67056000D03*
%TD*%
D29*
%TO.P,R2,1*%
%TO.N,Net-(J2-CC2)*%
X117344000Y-96352000D03*
%TO.P,R2,2*%
%TO.N,GND*%
X118364000Y-96352000D03*
%TD*%
D20*
%TO.P,C5,1*%
%TO.N,+5VP*%
X122202000Y-82255000D03*
%TO.P,C5,2*%
%TO.N,GNDPWR*%
X123162000Y-82255000D03*
%TD*%
D13*
%TO.P,J3,3,Pin_3*%
%TO.N,/DATA*%
X124333000Y-72683000D03*
%TO.P,J3,2,Pin_2*%
%TO.N,+12V*%
X124333000Y-75183000D03*
D12*
%TO.P,J3,1,Pin_1*%
%TO.N,GNDPWR*%
X124333000Y-77683000D03*
%TD*%
D26*
%TO.P,R11,1*%
%TO.N,Net-(U5-A1)*%
X119888000Y-71460000D03*
%TO.P,R11,2*%
%TO.N,+5VP*%
X118868000Y-71460000D03*
%TD*%
%TO.P,R4,1*%
%TO.N,/TXNOW*%
X116128500Y-90494000D03*
%TO.P,R4,2*%
%TO.N,Net-(D2-A)*%
X115108500Y-90494000D03*
%TD*%
D30*
%TO.P,D2,1,K*%
%TO.N,GND*%
X112263500Y-90240000D03*
%TO.P,D2,2,A*%
%TO.N,Net-(D2-A)*%
X113838500Y-90240000D03*
%TD*%
D25*
%TO.P,R1,1*%
%TO.N,Net-(J2-CC1)*%
X114173000Y-96479000D03*
%TO.P,R1,2*%
%TO.N,GND*%
X114173000Y-95459000D03*
%TD*%
D28*
%TO.P,R3,1*%
%TO.N,+5V*%
X108458000Y-98552000D03*
%TO.P,R3,2*%
%TO.N,Net-(D1-A)*%
X108458000Y-99572000D03*
%TD*%
D31*
%TO.P,C10,1*%
%TO.N,+12V*%
X115030000Y-72222000D03*
D32*
%TO.P,C10,2*%
%TO.N,GNDPWR*%
X113030000Y-72222000D03*
%TD*%
D33*
%TO.P,D1,1,K*%
%TO.N,GND*%
X108458000Y-102417000D03*
%TO.P,D1,2,A*%
%TO.N,Net-(D1-A)*%
X108458000Y-100842000D03*
%TD*%
D20*
%TO.P,C3,1*%
%TO.N,Net-(U1-V3)*%
X118974500Y-91510000D03*
%TO.P,C3,2*%
%TO.N,GND*%
X119934500Y-91510000D03*
%TD*%
D34*
%TO.P,U3,1,OUT*%
%TO.N,+5VP*%
X115361000Y-80707000D03*
D35*
%TO.P,U3,2,GND*%
%TO.N,GNDPWR*%
X115273500Y-79207000D03*
D34*
%TO.P,U3,3,IN*%
%TO.N,+12V*%
X115361000Y-77707000D03*
%TD*%
D28*
%TO.P,R9,2*%
%TO.N,/DATA-*%
X108642150Y-85303000D03*
%TO.P,R9,1*%
%TO.N,/DATA+*%
X108642150Y-84283000D03*
%TD*%
D10*
%TO.P,J6,1,Pin_1*%
%TO.N,/DATA-*%
X102870000Y-79849000D03*
D11*
%TO.P,J6,2,Pin_2*%
%TO.N,/DATA+*%
X102870000Y-77349000D03*
%TO.P,J6,3,Pin_3*%
%TO.N,+12V*%
X102870000Y-74849000D03*
%TO.P,J6,4,Pin_4*%
%TO.N,GNDPWR*%
X102870000Y-72349000D03*
%TD*%
D36*
%TO.P,J1,1,Pin_1*%
%TO.N,GNDPWR*%
X111760000Y-64770000D03*
D37*
%TO.P,J1,2,Pin_2*%
%TO.N,+12V*%
X118960000Y-64770000D03*
%TD*%
D12*
%TO.P,J5,1,Pin_1*%
%TO.N,GNDPWR*%
X129159000Y-77683000D03*
D13*
%TO.P,J5,2,Pin_2*%
%TO.N,+12V*%
X129159000Y-75183000D03*
%TO.P,J5,3,Pin_3*%
%TO.N,/DATA*%
X129159000Y-72683000D03*
%TD*%
D29*
%TO.P,R10,1*%
%TO.N,Net-(U5-A1)*%
X119886000Y-70444000D03*
%TO.P,R10,2*%
%TO.N,/DATA*%
X120906000Y-70444000D03*
%TD*%
D26*
%TO.P,R5,1*%
%TO.N,+5V*%
X130810000Y-95082000D03*
%TO.P,R5,2*%
%TO.N,Net-(U2-EN1)*%
X129790000Y-95082000D03*
%TD*%
D19*
%TO.P,C9,1*%
%TO.N,+5VP*%
X121412000Y-75623000D03*
%TO.P,C9,2*%
%TO.N,GNDPWR*%
X121412000Y-74663000D03*
%TD*%
D38*
%TO.P,R13,1*%
%TO.N,Net-(U5-Y1)*%
X116840000Y-78826000D03*
%TO.P,R13,2*%
%TO.N,+5VP*%
X116840000Y-79786000D03*
%TD*%
D39*
%TO.P,U1,1,UD+*%
%TO.N,/D+*%
X113123000Y-91780000D03*
%TO.P,U1,2,UD-*%
%TO.N,/D-*%
X113123000Y-92280000D03*
%TO.P,U1,3,GND*%
%TO.N,GND*%
X113123000Y-92780000D03*
%TO.P,U1,4,~{RTS}*%
%TO.N,unconnected-(U1-~{RTS}-Pad4)*%
X113123000Y-93280000D03*
%TO.P,U1,5,~{CTS}*%
%TO.N,unconnected-(U1-~{CTS}-Pad5)*%
X113123000Y-93780000D03*
%TO.P,U1,6,TNOW*%
%TO.N,/TXNOW*%
X117348000Y-93780000D03*
%TO.P,U1,7,VCC*%
%TO.N,+5V*%
X117348000Y-93280000D03*
%TO.P,U1,8,TXD*%
%TO.N,/TX_usb*%
X117348000Y-92780000D03*
%TO.P,U1,9,RXD*%
%TO.N,/RXD*%
X117348000Y-92280000D03*
%TO.P,U1,10,V3*%
%TO.N,Net-(U1-V3)*%
X117348000Y-91780000D03*
%TD*%
D25*
%TO.P,R8,2*%
%TO.N,/DATA+*%
X109658150Y-84281000D03*
%TO.P,R8,1*%
%TO.N,Net-(U4-A)*%
X109658150Y-85301000D03*
%TD*%
D29*
%TO.P,R6,1*%
%TO.N,Net-(U2-EN2)*%
X129665000Y-82255000D03*
%TO.P,R6,2*%
%TO.N,+5VP*%
X130685000Y-82255000D03*
%TD*%
D24*
%TO.P,C8,1*%
%TO.N,+5VP*%
X109672000Y-87716000D03*
%TO.P,C8,2*%
%TO.N,GNDPWR*%
X108712000Y-87716000D03*
%TD*%
D40*
%TO.P,U2,1,VCC1*%
%TO.N,+5V*%
X122047000Y-93304000D03*
%TO.P,U2,2,GND1*%
%TO.N,GND*%
X123317000Y-93304000D03*
%TO.P,U2,3,INA*%
%TO.N,/TXD*%
X124587000Y-93304000D03*
%TO.P,U2,4,INB*%
%TO.N,/TXNOW*%
X125857000Y-93304000D03*
%TO.P,U2,5,INC*%
%TO.N,unconnected-(U2-INC-Pad5)*%
X127127000Y-93304000D03*
%TO.P,U2,6,OUTD*%
%TO.N,/RXD*%
X128397000Y-93304000D03*
%TO.P,U2,7,EN1*%
%TO.N,Net-(U2-EN1)*%
X129667000Y-93304000D03*
%TO.P,U2,8,GND1-1*%
%TO.N,GND*%
X130937000Y-93304000D03*
%TO.P,U2,9,GND2*%
%TO.N,GNDPWR*%
X130937000Y-84024000D03*
%TO.P,U2,10,EN2*%
%TO.N,Net-(U2-EN2)*%
X129667000Y-84024000D03*
%TO.P,U2,11,IND*%
%TO.N,/RX*%
X128397000Y-84024000D03*
%TO.P,U2,12,OUTC*%
%TO.N,unconnected-(U2-OUTC-Pad12)*%
X127127000Y-84024000D03*
%TO.P,U2,13,OUTB*%
%TO.N,/TXEN*%
X125857000Y-84024000D03*
%TO.P,U2,14,OUTA*%
%TO.N,/TX*%
X124587000Y-84024000D03*
%TO.P,U2,15,GND2-1*%
%TO.N,GNDPWR*%
X123317000Y-84024000D03*
%TO.P,U2,16,VCC2*%
%TO.N,+5VP*%
X122047000Y-84024000D03*
%TD*%
D41*
%TO.N,GNDPWR*%
X123162000Y-82255000D03*
%TO.N,GND*%
X123317000Y-93304000D03*
X120523000Y-92824000D03*
D42*
%TO.N,+5VP*%
X118868000Y-71460000D03*
%TO.N,GNDPWR*%
X118999000Y-73873000D03*
%TO.N,+5VP*%
X121412000Y-76540000D03*
X116840000Y-76792000D03*
X122202000Y-82255000D03*
X130685000Y-82255000D03*
%TO.N,GNDPWR*%
X128016000Y-80985000D03*
X122301000Y-74635000D03*
X117348000Y-75651000D03*
X107823000Y-61046000D03*
X123190000Y-61300000D03*
X131064000Y-69174000D03*
X122809000Y-69047000D03*
X117348000Y-69047000D03*
X110744000Y-69047000D03*
X105283000Y-68793000D03*
X99949000Y-68793000D03*
X104775000Y-78572000D03*
X99949000Y-82763000D03*
X107061000Y-82890000D03*
X109728000Y-83017000D03*
X125755400Y-81569200D03*
X121793000Y-80858000D03*
X119126000Y-80477000D03*
X120904000Y-88224000D03*
X131572000Y-85684000D03*
X108077000Y-88224000D03*
%TO.N,GND*%
X115824000Y-95336000D03*
X118872000Y-95717000D03*
X131318000Y-101178000D03*
X115697000Y-101432000D03*
X125476000Y-101305000D03*
X125603000Y-105877000D03*
X115697000Y-105877000D03*
X131318000Y-96479000D03*
X126746000Y-95336000D03*
X125095000Y-90510000D03*
X131191000Y-91526000D03*
X106934000Y-90129000D03*
%TO.N,+5VP*%
X109672000Y-88351000D03*
%TO.N,Net-(U4-RO)*%
X117983000Y-87208000D03*
X118411000Y-77876000D03*
%TO.N,/TX*%
X118872000Y-76794000D03*
X124587000Y-84024000D03*
%TO.N,GND*%
X111125000Y-92542000D03*
X113030000Y-95336000D03*
X104648000Y-91018000D03*
X106934000Y-97495000D03*
X106934000Y-105877000D03*
X99949000Y-97368000D03*
X100076000Y-85557000D03*
X105410000Y-85557000D03*
X105410000Y-88097000D03*
X111252000Y-90256000D03*
X117475000Y-90383000D03*
%TO.N,+5V*%
X131572000Y-95082000D03*
X124921000Y-96418000D03*
D43*
X119888000Y-93685000D03*
X119634000Y-95336000D03*
%TO.N,/TX_pin*%
X119888000Y-96352000D03*
%TO.N,/TX_usb*%
X122221000Y-97368000D03*
%TO.N,/TXD*%
X124587000Y-93304000D03*
X123698000Y-97114000D03*
%TO.N,+5V*%
X117348000Y-94574000D03*
X117348000Y-93280000D03*
D42*
%TO.N,/TXNOW*%
X116138205Y-92922553D03*
X116128500Y-90494000D03*
%TO.N,+5V*%
X112522000Y-96987000D03*
X108458000Y-97749000D03*
%TO.N,/DATA-*%
X105918000Y-79849000D03*
%TO.N,/DATA+*%
X105918000Y-77349000D03*
%TO.N,GNDPWR*%
X113538000Y-82255000D03*
X115273500Y-79207000D03*
%TO.N,+5VP*%
X115316000Y-82255000D03*
%TO.N,GNDPWR*%
X112776000Y-75905000D03*
%TO.N,+12V*%
X115443000Y-76794000D03*
X115443000Y-75946000D03*
%TO.N,GND*%
X118820000Y-98190000D03*
X112320000Y-98190000D03*
%TO.N,+5V*%
X113120000Y-98190000D03*
X118020000Y-98190000D03*
D43*
%TO.N,/TX_usb*%
X119253000Y-94066000D03*
%TD*%
D44*
%TO.N,+12V*%
X124587000Y-66036000D02*
X120226000Y-66036000D01*
X120226000Y-66036000D02*
X118960000Y-64770000D01*
%TO.N,Net-(D3-A)*%
X124950000Y-68453000D02*
X124950000Y-67419000D01*
X124950000Y-67419000D02*
X124587000Y-67056000D01*
D45*
%TO.N,GND*%
X113123000Y-92780000D02*
X111363000Y-92780000D01*
X111363000Y-92780000D02*
X111125000Y-92542000D01*
%TO.N,/TXNOW*%
X117348000Y-93780000D02*
X118142000Y-94574000D01*
X125857000Y-94333999D02*
X125857000Y-93304000D01*
X118142000Y-94574000D02*
X125616999Y-94574000D01*
X125616999Y-94574000D02*
X125857000Y-94333999D01*
%TO.N,/RXD*%
X117348000Y-92280000D02*
X121166000Y-92280000D01*
X121166000Y-92280000D02*
X121539000Y-91907000D01*
X121539000Y-91907000D02*
X127635000Y-91907000D01*
X127635000Y-91907000D02*
X128397000Y-92669000D01*
X128397000Y-92669000D02*
X128397000Y-93304000D01*
%TO.N,GNDPWR*%
X118896000Y-73770000D02*
X118999000Y-73873000D01*
X118896000Y-72851000D02*
X118896000Y-73770000D01*
%TO.N,+5VP*%
X121412000Y-76540000D02*
X121412000Y-77575000D01*
X121412000Y-77575000D02*
X121111000Y-77876000D01*
X121412000Y-76540000D02*
X121412000Y-75623000D01*
X116840000Y-79786000D02*
X116840000Y-80096000D01*
X116840000Y-80096000D02*
X116205000Y-80731000D01*
X116205000Y-80731000D02*
X115385000Y-80731000D01*
X115385000Y-80731000D02*
X115361000Y-80707000D01*
%TO.N,/TXEN*%
X125857000Y-84024000D02*
X125857000Y-85053999D01*
X125857000Y-85053999D02*
X124972999Y-85938000D01*
X124972999Y-85938000D02*
X116700300Y-85938000D01*
X116700300Y-85938000D02*
X116700300Y-86446000D01*
%TO.N,GNDPWR*%
X121412000Y-74663000D02*
X122273000Y-74663000D01*
X122273000Y-74663000D02*
X122301000Y-74635000D01*
%TO.N,/DATA*%
X120906000Y-70444000D02*
X122094000Y-70444000D01*
X122094000Y-70444000D02*
X124333000Y-72683000D01*
X129159000Y-72683000D02*
X124333000Y-72683000D01*
%TO.N,GNDPWR*%
X118425000Y-79776000D02*
X119126000Y-80477000D01*
X118411000Y-79776000D02*
X118425000Y-79776000D01*
%TO.N,+5VP*%
X109672000Y-88351000D02*
X109672000Y-87716000D01*
%TO.N,Net-(U4-RO)*%
X117475000Y-87716000D02*
X117983000Y-87208000D01*
X116700300Y-87716000D02*
X117475000Y-87716000D01*
%TO.N,/TX*%
X116700300Y-83906000D02*
X117151150Y-83906000D01*
X117151150Y-83906000D02*
X118548150Y-85303000D01*
X118548150Y-85303000D02*
X124337999Y-85303000D01*
X124337999Y-85303000D02*
X124587000Y-85053999D01*
X124587000Y-85053999D02*
X124587000Y-84024000D01*
X118872000Y-76794000D02*
X118872000Y-75675000D01*
X118872000Y-75675000D02*
X118896000Y-75651000D01*
%TO.N,/TXEN*%
X116700300Y-85176000D02*
X116700300Y-86446000D01*
X119896000Y-75651000D02*
X119896000Y-79858156D01*
X119896000Y-79858156D02*
X121782844Y-81745000D01*
X121782844Y-81745000D02*
X124712000Y-81745000D01*
X124712000Y-81745000D02*
X125857000Y-82890000D01*
X125857000Y-82890000D02*
X125857000Y-84024000D01*
%TO.N,/RX*%
X121111000Y-79776000D02*
X125178999Y-79776000D01*
X125178999Y-79776000D02*
X128397000Y-82994001D01*
X128397000Y-82994001D02*
X128397000Y-84024000D01*
%TO.N,+5V*%
X130810000Y-95082000D02*
X131572000Y-95082000D01*
X119987000Y-93784000D02*
X119888000Y-93685000D01*
X120523000Y-93784000D02*
X119987000Y-93784000D01*
X119636000Y-95334000D02*
X119634000Y-95336000D01*
X120650000Y-95334000D02*
X119636000Y-95334000D01*
%TO.N,/TX_pin*%
X119890000Y-96354000D02*
X119888000Y-96352000D01*
X120650000Y-96354000D02*
X119890000Y-96354000D01*
%TO.N,/TX_usb*%
X119253000Y-94066000D02*
X119253000Y-93963490D01*
X119253000Y-93963490D02*
X118069510Y-92780000D01*
X118069510Y-92780000D02*
X117348000Y-92780000D01*
%TO.N,/TXD*%
X124921000Y-98318000D02*
X124902000Y-98318000D01*
X124902000Y-98318000D02*
X123698000Y-97114000D01*
%TO.N,+5V*%
X120523000Y-93784000D02*
X121567000Y-93784000D01*
X121567000Y-93784000D02*
X122047000Y-93304000D01*
X117348000Y-94574000D02*
X117348000Y-95181000D01*
X117348000Y-95181000D02*
X117376000Y-95209000D01*
%TO.N,/TX_pin*%
X120650000Y-96354000D02*
X122157000Y-96354000D01*
X122157000Y-96354000D02*
X122221000Y-96418000D01*
%TO.N,Net-(D2-A)*%
X115108500Y-90494000D02*
X114092500Y-90494000D01*
X114092500Y-90494000D02*
X113838500Y-90240000D01*
%TO.N,/TXNOW*%
X116138205Y-93382704D02*
X116138205Y-92922553D01*
X116535501Y-93780000D02*
X116138205Y-93382704D01*
X117348000Y-93780000D02*
X116535501Y-93780000D01*
%TO.N,/RXD*%
X102870000Y-87709000D02*
X106566000Y-91405000D01*
X106566000Y-91405000D02*
X115660501Y-91405000D01*
X115660501Y-91405000D02*
X116535501Y-92280000D01*
X116535501Y-92280000D02*
X117348000Y-92280000D01*
%TO.N,Net-(U1-V3)*%
X117348000Y-91780000D02*
X118704500Y-91780000D01*
X118704500Y-91780000D02*
X118974500Y-91510000D01*
%TO.N,/D-*%
X114299300Y-92542000D02*
X114300000Y-92542000D01*
X114820000Y-93062700D02*
X114238409Y-92481109D01*
%TO.N,/D+*%
X115320000Y-93993713D02*
X115320000Y-93891192D01*
%TO.N,/D-*%
X114820000Y-93993713D02*
X114820000Y-93891192D01*
%TO.N,/D+*%
X114427000Y-92034000D02*
X114173000Y-91780000D01*
%TO.N,/D-*%
X114820000Y-93891192D02*
X114820000Y-93062700D01*
%TO.N,/D+*%
X114427700Y-92034000D02*
X114427000Y-92034000D01*
X114173000Y-91780000D02*
X113123000Y-91780000D01*
X115320000Y-92926300D02*
X114427700Y-92034000D01*
X115320000Y-93891192D02*
X115320000Y-92926300D01*
%TO.N,/D-*%
X114820000Y-98190000D02*
X114820000Y-93993713D01*
X114238409Y-92481109D02*
X114299300Y-92542000D01*
%TO.N,/D+*%
X115320000Y-98190000D02*
X115320000Y-93993713D01*
%TO.N,/D-*%
X114300000Y-92542000D02*
X114038000Y-92280000D01*
X114038000Y-92280000D02*
X113123000Y-92280000D01*
%TO.N,/D+*%
X115320000Y-98190000D02*
X115320000Y-97415000D01*
X116320000Y-97415000D02*
X116320000Y-98190000D01*
X115320000Y-97415000D02*
X115470000Y-97265000D01*
X116170000Y-97265000D02*
X116320000Y-97415000D01*
X115470000Y-97265000D02*
X116170000Y-97265000D01*
%TO.N,/D-*%
X114820000Y-98190000D02*
X114820000Y-99115000D01*
X114820000Y-99115000D02*
X114851000Y-99146000D01*
X114851000Y-99146000D02*
X115789000Y-99146000D01*
X115789000Y-99146000D02*
X115820000Y-99115000D01*
X115820000Y-99115000D02*
X115820000Y-98190000D01*
%TO.N,+5V*%
X112522000Y-96987000D02*
X113120000Y-97585000D01*
%TO.N,Net-(D1-A)*%
X108458000Y-99572000D02*
X108458000Y-100842000D01*
%TO.N,+5V*%
X108458000Y-98552000D02*
X108458000Y-97749000D01*
X111887000Y-96352000D02*
X112522000Y-96987000D01*
X113120000Y-97585000D02*
X113120000Y-98190000D01*
%TO.N,Net-(U2-EN1)*%
X129667000Y-93304000D02*
X129667000Y-94959000D01*
X129667000Y-94959000D02*
X129790000Y-95082000D01*
%TO.N,GNDPWR*%
X123162000Y-82255000D02*
X123162000Y-83869000D01*
X123162000Y-83869000D02*
X123317000Y-84024000D01*
%TO.N,+5VP*%
X122202000Y-82255000D02*
X122202000Y-83869000D01*
X122202000Y-83869000D02*
X122047000Y-84024000D01*
%TO.N,Net-(U2-EN2)*%
X129665000Y-82255000D02*
X129665000Y-84022000D01*
X129665000Y-84022000D02*
X129667000Y-84024000D01*
%TO.N,/TXEN*%
X119896000Y-75651000D02*
X119896000Y-74885010D01*
X119896000Y-74885010D02*
X120396000Y-74385010D01*
X120396000Y-74385010D02*
X120396000Y-72851000D01*
%TO.N,+5VP*%
X111252000Y-87716000D02*
X109672000Y-87716000D01*
%TO.N,/DATA+*%
X108642150Y-84283000D02*
X108642150Y-81577474D01*
X108642150Y-81577474D02*
X107714000Y-80649324D01*
X107714000Y-80649324D02*
X107714000Y-79145000D01*
%TO.N,/DATA-*%
X108122150Y-84560502D02*
X108122150Y-84005498D01*
%TO.N,/DATA+*%
X107714000Y-79145000D02*
X105918000Y-77349000D01*
%TO.N,/DATA-*%
X108192150Y-81763842D02*
X107264020Y-80835712D01*
X108642150Y-85303000D02*
X108192150Y-84853000D01*
X108192150Y-84853000D02*
X108192150Y-84630502D01*
X107264020Y-80835712D02*
X107264020Y-79849000D01*
X108192150Y-84630502D02*
X108122150Y-84560502D01*
X107264020Y-79849000D02*
X105918000Y-79849000D01*
X108122150Y-84005498D02*
X108192150Y-83935498D01*
X108192150Y-83935498D02*
X108192150Y-81763842D01*
X108832000Y-79849000D02*
X108839000Y-79856000D01*
X108638150Y-86319000D02*
X108638150Y-85307000D01*
X108638150Y-85307000D02*
X108642150Y-85303000D01*
%TO.N,Net-(U4-B)*%
X109658150Y-86319000D02*
X111125000Y-86319000D01*
X111125000Y-86319000D02*
X111252000Y-86446000D01*
%TO.N,/DATA+*%
X109658150Y-84281000D02*
X108644150Y-84281000D01*
X108644150Y-84281000D02*
X108642150Y-84283000D01*
%TO.N,Net-(U4-A)*%
X111252000Y-85176000D02*
X109783150Y-85176000D01*
X109783150Y-85176000D02*
X109658150Y-85301000D01*
%TO.N,Net-(U5-Y1)*%
X119396000Y-75651000D02*
X119396000Y-78620999D01*
X119396000Y-78620999D02*
X119190999Y-78826000D01*
X119190999Y-78826000D02*
X118411000Y-78826000D01*
%TO.N,Net-(U5-A1)*%
X119396000Y-72851000D02*
X119896000Y-72851000D01*
%TO.N,Net-(J2-CC1)*%
X114173000Y-96352000D02*
X114173000Y-97114000D01*
X114173000Y-97114000D02*
X114320000Y-97261000D01*
X114320000Y-97261000D02*
X114320000Y-98190000D01*
%TO.N,Net-(J2-CC2)*%
X117348000Y-96352000D02*
X117348000Y-98162000D01*
X117348000Y-98162000D02*
X117320000Y-98190000D01*
%TO.N,+5VP*%
X121412000Y-75623000D02*
X120424000Y-75623000D01*
X120424000Y-75623000D02*
X120396000Y-75651000D01*
%TO.N,Net-(U5-A1)*%
X119896000Y-72851000D02*
X119896000Y-70454000D01*
X119896000Y-70454000D02*
X119886000Y-70444000D01*
%TO.N,Net-(U4-RO)*%
X118411000Y-77876000D02*
X116904000Y-77876000D01*
X116904000Y-77876000D02*
X116840000Y-77812000D01*
%TO.N,Net-(U5-Y1)*%
X118411000Y-78826000D02*
X116840000Y-78826000D01*
D44*
%TO.N,GNDPWR*%
X114356000Y-82255000D02*
X113538000Y-82255000D01*
D46*
%TO.N,+5VP*%
X115361000Y-80707000D02*
X115361000Y-82210000D01*
X115361000Y-82210000D02*
X115316000Y-82255000D01*
D44*
%TO.N,GNDPWR*%
X112776000Y-75905000D02*
X113852000Y-75905000D01*
X113852000Y-75905000D02*
X113893000Y-75946000D01*
D46*
%TO.N,+12V*%
X115443000Y-76794000D02*
X115443000Y-77625000D01*
X115443000Y-75946000D02*
X115443000Y-76794000D01*
X115443000Y-77625000D02*
X115361000Y-77707000D01*
D45*
%TO.N,/DATA+*%
X108832000Y-77349000D02*
X108839000Y-77356000D01*
%TD*%
%TA.AperFunction,Conductor*%
%TO.N,GND*%
G36*
X106496039Y-84687685D02*
G01*
X106541794Y-84740489D01*
X106553000Y-84792000D01*
X106553000Y-89621000D01*
X112810524Y-89621000D01*
X112877563Y-89640685D01*
X112923318Y-89693489D01*
X112933262Y-89762647D01*
X112928231Y-89783999D01*
X112910564Y-89837315D01*
X112910564Y-89837316D01*
X112910563Y-89837316D01*
X112900500Y-89935818D01*
X112900500Y-90544181D01*
X112910563Y-90642683D01*
X112911981Y-90649302D01*
X112910451Y-90649629D01*
X112912570Y-90711332D01*
X112876834Y-90771372D01*
X112814312Y-90802560D01*
X112792464Y-90804500D01*
X106866097Y-90804500D01*
X106799058Y-90784815D01*
X106778416Y-90768181D01*
X104298102Y-88287867D01*
X104264617Y-88226544D01*
X104267851Y-88161874D01*
X104312246Y-88025243D01*
X104345500Y-87815287D01*
X104345500Y-87602713D01*
X104312246Y-87392757D01*
X104246557Y-87190588D01*
X104150051Y-87001184D01*
X104150049Y-87001181D01*
X104150048Y-87001179D01*
X104025109Y-86829213D01*
X103874786Y-86678890D01*
X103702820Y-86553951D01*
X103513414Y-86457444D01*
X103513413Y-86457443D01*
X103513412Y-86457443D01*
X103311243Y-86391754D01*
X103311241Y-86391753D01*
X103311240Y-86391753D01*
X103149957Y-86366208D01*
X103101287Y-86358500D01*
X102638713Y-86358500D01*
X102590042Y-86366208D01*
X102428760Y-86391753D01*
X102226585Y-86457444D01*
X102037179Y-86553951D01*
X101865213Y-86678890D01*
X101714890Y-86829213D01*
X101589951Y-87001179D01*
X101493444Y-87190585D01*
X101427753Y-87392760D01*
X101397837Y-87581645D01*
X101394500Y-87602713D01*
X101394500Y-87815287D01*
X101427754Y-88025243D01*
X101492334Y-88224000D01*
X101493444Y-88227414D01*
X101589951Y-88416820D01*
X101714890Y-88588786D01*
X101865209Y-88739105D01*
X101865214Y-88739109D01*
X102029793Y-88858682D01*
X102072459Y-88914011D01*
X102078438Y-88983625D01*
X102045833Y-89045420D01*
X102029793Y-89059318D01*
X101865214Y-89178890D01*
X101865209Y-89178894D01*
X101714890Y-89329213D01*
X101589951Y-89501179D01*
X101493444Y-89690585D01*
X101427753Y-89892760D01*
X101394500Y-90102713D01*
X101394500Y-90315286D01*
X101422805Y-90494000D01*
X101427754Y-90525243D01*
X101488218Y-90711332D01*
X101493444Y-90727414D01*
X101589951Y-90916820D01*
X101714890Y-91088786D01*
X101865209Y-91239105D01*
X101865214Y-91239109D01*
X102029793Y-91358682D01*
X102072459Y-91414011D01*
X102078438Y-91483625D01*
X102045833Y-91545420D01*
X102029793Y-91559318D01*
X101865214Y-91678890D01*
X101865209Y-91678894D01*
X101714890Y-91829213D01*
X101589951Y-92001179D01*
X101493444Y-92190585D01*
X101427753Y-92392760D01*
X101394500Y-92602713D01*
X101394500Y-92815286D01*
X101427748Y-93025210D01*
X101427754Y-93025243D01*
X101469574Y-93153952D01*
X101493444Y-93227414D01*
X101589951Y-93416820D01*
X101714890Y-93588786D01*
X101865213Y-93739109D01*
X102037179Y-93864048D01*
X102037181Y-93864049D01*
X102037184Y-93864051D01*
X102226588Y-93960557D01*
X102428757Y-94026246D01*
X102638713Y-94059500D01*
X102638714Y-94059500D01*
X103101286Y-94059500D01*
X103101287Y-94059500D01*
X103311243Y-94026246D01*
X103513412Y-93960557D01*
X103702816Y-93864051D01*
X103724789Y-93848086D01*
X103874786Y-93739109D01*
X103874788Y-93739106D01*
X103874792Y-93739104D01*
X104025104Y-93588792D01*
X104025106Y-93588788D01*
X104025109Y-93588786D01*
X104150048Y-93416820D01*
X104150047Y-93416820D01*
X104150051Y-93416816D01*
X104246557Y-93227412D01*
X104312246Y-93025243D01*
X104345500Y-92815287D01*
X104345500Y-92602713D01*
X104312246Y-92392757D01*
X104246557Y-92190588D01*
X104150051Y-92001184D01*
X104150049Y-92001181D01*
X104150048Y-92001179D01*
X104025109Y-91829213D01*
X103874792Y-91678896D01*
X103825634Y-91643181D01*
X103710204Y-91559316D01*
X103667540Y-91503989D01*
X103661561Y-91434376D01*
X103694166Y-91372580D01*
X103710199Y-91358686D01*
X103874792Y-91239104D01*
X104025104Y-91088792D01*
X104025106Y-91088788D01*
X104025109Y-91088786D01*
X104150048Y-90916820D01*
X104150047Y-90916820D01*
X104150051Y-90916816D01*
X104246557Y-90727412D01*
X104312246Y-90525243D01*
X104345500Y-90315287D01*
X104345500Y-90315281D01*
X104345925Y-90312598D01*
X104375854Y-90249463D01*
X104435165Y-90212531D01*
X104505028Y-90213529D01*
X104556079Y-90244314D01*
X106081139Y-91769374D01*
X106081149Y-91769385D01*
X106085479Y-91773715D01*
X106085480Y-91773716D01*
X106197284Y-91885520D01*
X106197286Y-91885521D01*
X106197290Y-91885524D01*
X106334209Y-91964573D01*
X106334216Y-91964577D01*
X106414381Y-91986057D01*
X106486942Y-92005500D01*
X106486943Y-92005500D01*
X111688150Y-92005500D01*
X111755189Y-92025185D01*
X111800944Y-92077989D01*
X111811089Y-92145683D01*
X111810001Y-92153944D01*
X111810000Y-92153966D01*
X111810000Y-92406047D01*
X111825135Y-92520997D01*
X111825136Y-92521002D01*
X111884382Y-92664036D01*
X111915442Y-92704515D01*
X111940635Y-92769684D01*
X111926596Y-92838129D01*
X111915442Y-92855485D01*
X111884382Y-92895963D01*
X111825136Y-93038997D01*
X111825135Y-93039002D01*
X111810000Y-93153952D01*
X111810000Y-93406047D01*
X111824189Y-93513814D01*
X111824189Y-93546186D01*
X111810000Y-93653952D01*
X111810000Y-93906047D01*
X111817177Y-93960555D01*
X111824244Y-94014234D01*
X111825135Y-94020997D01*
X111825136Y-94021002D01*
X111884382Y-94164036D01*
X111904964Y-94190859D01*
X111978633Y-94286867D01*
X112101463Y-94381117D01*
X112101462Y-94381117D01*
X112179689Y-94413519D01*
X112244501Y-94440365D01*
X112359460Y-94455500D01*
X112359467Y-94455500D01*
X113886533Y-94455500D01*
X113886540Y-94455500D01*
X114001499Y-94440365D01*
X114048048Y-94421084D01*
X114117517Y-94413615D01*
X114179996Y-94444890D01*
X114215648Y-94504979D01*
X114219500Y-94535645D01*
X114219500Y-95584500D01*
X114199815Y-95651539D01*
X114147011Y-95697294D01*
X114095501Y-95708500D01*
X113923830Y-95708500D01*
X113923808Y-95708501D01*
X113887794Y-95711335D01*
X113733611Y-95756129D01*
X113733606Y-95756131D01*
X113595404Y-95837863D01*
X113595396Y-95837869D01*
X113481869Y-95951396D01*
X113481863Y-95951404D01*
X113400131Y-96089606D01*
X113400129Y-96089611D01*
X113355335Y-96243791D01*
X113355334Y-96243797D01*
X113352500Y-96279811D01*
X113352500Y-96386060D01*
X113332815Y-96453099D01*
X113280011Y-96498854D01*
X113210853Y-96508798D01*
X113147297Y-96479773D01*
X113140819Y-96473741D01*
X113024262Y-96357184D01*
X112871522Y-96261211D01*
X112749687Y-96218579D01*
X112692911Y-96177857D01*
X112667164Y-96112904D01*
X112667024Y-96111264D01*
X112666359Y-96102820D01*
X112664643Y-96081007D01*
X112660515Y-96066799D01*
X112619495Y-95925609D01*
X112619494Y-95925606D01*
X112619494Y-95925605D01*
X112537117Y-95786313D01*
X112537115Y-95786311D01*
X112537112Y-95786307D01*
X112422692Y-95671887D01*
X112422684Y-95671881D01*
X112288459Y-95592501D01*
X112283395Y-95589506D01*
X112283394Y-95589505D01*
X112283393Y-95589505D01*
X112283390Y-95589504D01*
X112127997Y-95544357D01*
X112127991Y-95544356D01*
X112091697Y-95541500D01*
X112091690Y-95541500D01*
X111682310Y-95541500D01*
X111682302Y-95541500D01*
X111646008Y-95544356D01*
X111646002Y-95544357D01*
X111490609Y-95589504D01*
X111490606Y-95589505D01*
X111351315Y-95671881D01*
X111351307Y-95671887D01*
X111236887Y-95786307D01*
X111236881Y-95786315D01*
X111154505Y-95925606D01*
X111154504Y-95925609D01*
X111109357Y-96081002D01*
X111109356Y-96081008D01*
X111106500Y-96117302D01*
X111106500Y-96586697D01*
X111109356Y-96622991D01*
X111109357Y-96622997D01*
X111154504Y-96778390D01*
X111154505Y-96778393D01*
X111236881Y-96917684D01*
X111236887Y-96917692D01*
X111351307Y-97032112D01*
X111351311Y-97032115D01*
X111351313Y-97032117D01*
X111490605Y-97114494D01*
X111531587Y-97126400D01*
X111646002Y-97159642D01*
X111646005Y-97159642D01*
X111646007Y-97159643D01*
X111652956Y-97160189D01*
X111656210Y-97160446D01*
X111721498Y-97185329D01*
X111762970Y-97241560D01*
X111763523Y-97243109D01*
X111796209Y-97336519D01*
X111796211Y-97336522D01*
X111892184Y-97489262D01*
X112019738Y-97616816D01*
X112172478Y-97712789D01*
X112236454Y-97735175D01*
X112293230Y-97775897D01*
X112318978Y-97840850D01*
X112319500Y-97852217D01*
X112319500Y-98138082D01*
X112318720Y-98151965D01*
X112314435Y-98189997D01*
X112314435Y-98190002D01*
X112318720Y-98228034D01*
X112319500Y-98241917D01*
X112319500Y-98962870D01*
X112319501Y-98962876D01*
X112325908Y-99022483D01*
X112376202Y-99157328D01*
X112376204Y-99157331D01*
X112388752Y-99174093D01*
X112413169Y-99239558D01*
X112398317Y-99307830D01*
X112377167Y-99336084D01*
X112339518Y-99373733D01*
X112339513Y-99373740D01*
X112283498Y-99470760D01*
X112283497Y-99470763D01*
X112254500Y-99578982D01*
X112254500Y-99691018D01*
X112275982Y-99771188D01*
X112283497Y-99799236D01*
X112283498Y-99799239D01*
X112288097Y-99807204D01*
X112339515Y-99896263D01*
X112418737Y-99975485D01*
X112515763Y-100031503D01*
X112623982Y-100060500D01*
X112623984Y-100060500D01*
X112736016Y-100060500D01*
X112736018Y-100060500D01*
X112844237Y-100031503D01*
X112941263Y-99975485D01*
X113020485Y-99896263D01*
X113076503Y-99799237D01*
X113105500Y-99691018D01*
X113105500Y-99578982D01*
X113103520Y-99571592D01*
X113105181Y-99501746D01*
X113144342Y-99443882D01*
X113208569Y-99416376D01*
X113223294Y-99415499D01*
X113467871Y-99415499D01*
X113467872Y-99415499D01*
X113527483Y-99409091D01*
X113527486Y-99409089D01*
X113531744Y-99408632D01*
X113558254Y-99408632D01*
X113562514Y-99409089D01*
X113562517Y-99409091D01*
X113622127Y-99415500D01*
X114017872Y-99415499D01*
X114017873Y-99415498D01*
X114017885Y-99415498D01*
X114056744Y-99411320D01*
X114083252Y-99411320D01*
X114122127Y-99415500D01*
X114228503Y-99415499D01*
X114295542Y-99435183D01*
X114335889Y-99477498D01*
X114339475Y-99483709D01*
X114339479Y-99483714D01*
X114339480Y-99483716D01*
X114370480Y-99514716D01*
X114434746Y-99578982D01*
X114482284Y-99626520D01*
X114482286Y-99626521D01*
X114482290Y-99626524D01*
X114593995Y-99691016D01*
X114619216Y-99705577D01*
X114771943Y-99746501D01*
X114771945Y-99746501D01*
X114937654Y-99746501D01*
X114937670Y-99746500D01*
X115702331Y-99746500D01*
X115702347Y-99746501D01*
X115709943Y-99746501D01*
X115868054Y-99746501D01*
X115868057Y-99746501D01*
X116020785Y-99705577D01*
X116046002Y-99691018D01*
X116074477Y-99674578D01*
X116074478Y-99674577D01*
X116157716Y-99626520D01*
X116269520Y-99514716D01*
X116300520Y-99483716D01*
X116300649Y-99483491D01*
X116304111Y-99477498D01*
X116354678Y-99429283D01*
X116411497Y-99415499D01*
X116517872Y-99415499D01*
X116517885Y-99415498D01*
X116556744Y-99411320D01*
X116583252Y-99411320D01*
X116622127Y-99415500D01*
X117017872Y-99415499D01*
X117017873Y-99415498D01*
X117017885Y-99415498D01*
X117056744Y-99411320D01*
X117083252Y-99411320D01*
X117122127Y-99415500D01*
X117517872Y-99415499D01*
X117577483Y-99409091D01*
X117577486Y-99409089D01*
X117581744Y-99408632D01*
X117608254Y-99408632D01*
X117612514Y-99409089D01*
X117612517Y-99409091D01*
X117672127Y-99415500D01*
X117916705Y-99415499D01*
X117983744Y-99435183D01*
X118029499Y-99487987D01*
X118039443Y-99557146D01*
X118036481Y-99571587D01*
X118034500Y-99578982D01*
X118034500Y-99691018D01*
X118055982Y-99771188D01*
X118063497Y-99799236D01*
X118063498Y-99799239D01*
X118068097Y-99807204D01*
X118119515Y-99896263D01*
X118198737Y-99975485D01*
X118295763Y-100031503D01*
X118403982Y-100060500D01*
X118403984Y-100060500D01*
X118516016Y-100060500D01*
X118516018Y-100060500D01*
X118624237Y-100031503D01*
X118721263Y-99975485D01*
X118800485Y-99896263D01*
X118856503Y-99799237D01*
X118885500Y-99691018D01*
X118885500Y-99578982D01*
X118856503Y-99470763D01*
X118800485Y-99373737D01*
X118762832Y-99336084D01*
X118729347Y-99274761D01*
X118734331Y-99205069D01*
X118751245Y-99174095D01*
X118763796Y-99157331D01*
X118814091Y-99022483D01*
X118820500Y-98962873D01*
X118820499Y-98241917D01*
X118821279Y-98228034D01*
X118825565Y-98190000D01*
X118825565Y-98189998D01*
X118821279Y-98151963D01*
X118820499Y-98138078D01*
X118820499Y-97417129D01*
X118820498Y-97417123D01*
X118818601Y-97399478D01*
X118814091Y-97357517D01*
X118806260Y-97336522D01*
X118763797Y-97222671D01*
X118763793Y-97222664D01*
X118677547Y-97107455D01*
X118677544Y-97107452D01*
X118562335Y-97021206D01*
X118562328Y-97021202D01*
X118427482Y-96970908D01*
X118427483Y-96970908D01*
X118367883Y-96964501D01*
X118367881Y-96964500D01*
X118367873Y-96964500D01*
X118367865Y-96964500D01*
X118180731Y-96964500D01*
X118113692Y-96944815D01*
X118067937Y-96892011D01*
X118057993Y-96822853D01*
X118064765Y-96798904D01*
X118064693Y-96798884D01*
X118111664Y-96637208D01*
X118111665Y-96637202D01*
X118112783Y-96622993D01*
X118114500Y-96601181D01*
X118114499Y-96102820D01*
X118111665Y-96066796D01*
X118066869Y-95912607D01*
X118059214Y-95899664D01*
X118052059Y-95887565D01*
X118043039Y-95872314D01*
X118025856Y-95804591D01*
X118043037Y-95746075D01*
X118108494Y-95635395D01*
X118120957Y-95592500D01*
X118153642Y-95479997D01*
X118153643Y-95479991D01*
X118155292Y-95459037D01*
X118156500Y-95443690D01*
X118156500Y-95298500D01*
X118176185Y-95231461D01*
X118228989Y-95185706D01*
X118280500Y-95174500D01*
X118807998Y-95174500D01*
X118875037Y-95194185D01*
X118920792Y-95246989D01*
X118931093Y-95313445D01*
X118928942Y-95331169D01*
X118928355Y-95336000D01*
X118948859Y-95504869D01*
X118948860Y-95504874D01*
X119009182Y-95663931D01*
X119065880Y-95746071D01*
X119093657Y-95786313D01*
X119105818Y-95803930D01*
X119222032Y-95906887D01*
X119259159Y-95966076D01*
X119258391Y-96035942D01*
X119255747Y-96043672D01*
X119202861Y-96183122D01*
X119202859Y-96183130D01*
X119182355Y-96352000D01*
X119202859Y-96520869D01*
X119202860Y-96520874D01*
X119263182Y-96679931D01*
X119292715Y-96722716D01*
X119359817Y-96819929D01*
X119446007Y-96896286D01*
X119487150Y-96932736D01*
X119637773Y-97011789D01*
X119637775Y-97011790D01*
X119802944Y-97052500D01*
X119973055Y-97052500D01*
X119973056Y-97052500D01*
X120062453Y-97030465D01*
X120132254Y-97033534D01*
X120155247Y-97044129D01*
X120210607Y-97076869D01*
X120251268Y-97088682D01*
X120364791Y-97121664D01*
X120364794Y-97121664D01*
X120364796Y-97121665D01*
X120400819Y-97124500D01*
X120816500Y-97124499D01*
X120883539Y-97144183D01*
X120929294Y-97196987D01*
X120940500Y-97248499D01*
X120940500Y-97584098D01*
X120946568Y-97650882D01*
X120946571Y-97650893D01*
X120994467Y-97804598D01*
X120994468Y-97804600D01*
X120994469Y-97804602D01*
X121077764Y-97942388D01*
X121077766Y-97942391D01*
X121191608Y-98056233D01*
X121191610Y-98056234D01*
X121191612Y-98056236D01*
X121329398Y-98139531D01*
X121483113Y-98187430D01*
X121549909Y-98193500D01*
X122892090Y-98193499D01*
X122892097Y-98193499D01*
X122927780Y-98190257D01*
X122996325Y-98203794D01*
X123046671Y-98252241D01*
X123063000Y-98313748D01*
X123063000Y-98765000D01*
X123630819Y-98765000D01*
X123697858Y-98784685D01*
X123736936Y-98824850D01*
X123777766Y-98892391D01*
X123891608Y-99006233D01*
X123891610Y-99006234D01*
X123891612Y-99006236D01*
X124029398Y-99089531D01*
X124183113Y-99137430D01*
X124249909Y-99143500D01*
X125592090Y-99143499D01*
X125592097Y-99143499D01*
X125658882Y-99137431D01*
X125658885Y-99137430D01*
X125658887Y-99137430D01*
X125812602Y-99089531D01*
X125950388Y-99006236D01*
X126064236Y-98892388D01*
X126105064Y-98824849D01*
X126156592Y-98777662D01*
X126211181Y-98765000D01*
X126238000Y-98765000D01*
X126238000Y-94903928D01*
X126239826Y-94903928D01*
X126243344Y-94857439D01*
X126285446Y-94801679D01*
X126311888Y-94786693D01*
X126372233Y-94761698D01*
X126416514Y-94727720D01*
X126481683Y-94702526D01*
X126550128Y-94716564D01*
X126567486Y-94727720D01*
X126611767Y-94761698D01*
X126751764Y-94819687D01*
X126864280Y-94834500D01*
X126864287Y-94834500D01*
X127389713Y-94834500D01*
X127389720Y-94834500D01*
X127502236Y-94819687D01*
X127642233Y-94761698D01*
X127686514Y-94727720D01*
X127751683Y-94702526D01*
X127820128Y-94716564D01*
X127837486Y-94727720D01*
X127881767Y-94761698D01*
X128021764Y-94819687D01*
X128134280Y-94834500D01*
X128134287Y-94834500D01*
X128659713Y-94834500D01*
X128659720Y-94834500D01*
X128772236Y-94819687D01*
X128848050Y-94788283D01*
X128917516Y-94780815D01*
X128979995Y-94812089D01*
X129015648Y-94872178D01*
X129019500Y-94902845D01*
X129019500Y-95331169D01*
X129019501Y-95331191D01*
X129022335Y-95367205D01*
X129067129Y-95521388D01*
X129067131Y-95521393D01*
X129148863Y-95659595D01*
X129148869Y-95659603D01*
X129262396Y-95773130D01*
X129262400Y-95773133D01*
X129262402Y-95773135D01*
X129400607Y-95854869D01*
X129400614Y-95854871D01*
X129554791Y-95899664D01*
X129554794Y-95899664D01*
X129554796Y-95899665D01*
X129590819Y-95902500D01*
X129989180Y-95902499D01*
X130025204Y-95899665D01*
X130179393Y-95854869D01*
X130236882Y-95820869D01*
X130304602Y-95803688D01*
X130363117Y-95820869D01*
X130420607Y-95854869D01*
X130420610Y-95854869D01*
X130420612Y-95854871D01*
X130574791Y-95899664D01*
X130574794Y-95899664D01*
X130574796Y-95899665D01*
X130610819Y-95902500D01*
X131009180Y-95902499D01*
X131045204Y-95899665D01*
X131199393Y-95854869D01*
X131208347Y-95849573D01*
X131276068Y-95832389D01*
X131312424Y-95839262D01*
X131333343Y-95846582D01*
X131392740Y-95867367D01*
X131392750Y-95867369D01*
X131571996Y-95887565D01*
X131572000Y-95887565D01*
X131572003Y-95887565D01*
X131741616Y-95868454D01*
X131810438Y-95880508D01*
X131861818Y-95927857D01*
X131879500Y-95991674D01*
X131879500Y-102381947D01*
X131879351Y-102388032D01*
X131861502Y-102751335D01*
X131860309Y-102763444D01*
X131807388Y-103120217D01*
X131805014Y-103132153D01*
X131717373Y-103482035D01*
X131713840Y-103493680D01*
X131592335Y-103833262D01*
X131587679Y-103844504D01*
X131433462Y-104170570D01*
X131427725Y-104181302D01*
X131242303Y-104490659D01*
X131235543Y-104500777D01*
X131020678Y-104790488D01*
X131012958Y-104799894D01*
X130770743Y-105067138D01*
X130762138Y-105075743D01*
X130494894Y-105317958D01*
X130485488Y-105325678D01*
X130195777Y-105540543D01*
X130185659Y-105547303D01*
X129876302Y-105732725D01*
X129865570Y-105738462D01*
X129539504Y-105892679D01*
X129528262Y-105897335D01*
X129188680Y-106018840D01*
X129177035Y-106022373D01*
X128827153Y-106110014D01*
X128815217Y-106112388D01*
X128458444Y-106165309D01*
X128446335Y-106166502D01*
X128083033Y-106184351D01*
X128076948Y-106184500D01*
X103063052Y-106184500D01*
X103056967Y-106184351D01*
X102693664Y-106166502D01*
X102681555Y-106165309D01*
X102324782Y-106112388D01*
X102312846Y-106110014D01*
X101962964Y-106022373D01*
X101951323Y-106018841D01*
X101611734Y-105897334D01*
X101600495Y-105892679D01*
X101274429Y-105738462D01*
X101263702Y-105732727D01*
X100954340Y-105547303D01*
X100944222Y-105540543D01*
X100654511Y-105325678D01*
X100645105Y-105317958D01*
X100602479Y-105279324D01*
X100377853Y-105075735D01*
X100369264Y-105067146D01*
X100127041Y-104799894D01*
X100119321Y-104790488D01*
X99904456Y-104500777D01*
X99897696Y-104490659D01*
X99712267Y-104181290D01*
X99706543Y-104170582D01*
X99552317Y-103844497D01*
X99547669Y-103833275D01*
X99426154Y-103493663D01*
X99422629Y-103482046D01*
X99334982Y-103132140D01*
X99332613Y-103120230D01*
X99279689Y-102763440D01*
X99278497Y-102751334D01*
X99260649Y-102388031D01*
X99260500Y-102381947D01*
X99260500Y-101903549D01*
X101169500Y-101903549D01*
X101169500Y-102126450D01*
X101169501Y-102126466D01*
X101198594Y-102347452D01*
X101198595Y-102347457D01*
X101198596Y-102347463D01*
X101256290Y-102562780D01*
X101256293Y-102562790D01*
X101263091Y-102579201D01*
X101341595Y-102768726D01*
X101453052Y-102961774D01*
X101453057Y-102961780D01*
X101453058Y-102961782D01*
X101588751Y-103138622D01*
X101588757Y-103138629D01*
X101746370Y-103296242D01*
X101746377Y-103296248D01*
X101872294Y-103392867D01*
X101923226Y-103431948D01*
X102116274Y-103543405D01*
X102322219Y-103628710D01*
X102537537Y-103686404D01*
X102758543Y-103715500D01*
X102758550Y-103715500D01*
X102981450Y-103715500D01*
X102981457Y-103715500D01*
X103202463Y-103686404D01*
X103417781Y-103628710D01*
X103623726Y-103543405D01*
X103816774Y-103431948D01*
X103993624Y-103296247D01*
X104151247Y-103138624D01*
X104286948Y-102961774D01*
X104398405Y-102768726D01*
X104483710Y-102562781D01*
X104541404Y-102347463D01*
X104570500Y-102126457D01*
X104570500Y-101903549D01*
X126569500Y-101903549D01*
X126569500Y-102126450D01*
X126569501Y-102126466D01*
X126598594Y-102347452D01*
X126598595Y-102347457D01*
X126598596Y-102347463D01*
X126656290Y-102562780D01*
X126656293Y-102562790D01*
X126663091Y-102579201D01*
X126741595Y-102768726D01*
X126853052Y-102961774D01*
X126853057Y-102961780D01*
X126853058Y-102961782D01*
X126988751Y-103138622D01*
X126988757Y-103138629D01*
X127146370Y-103296242D01*
X127146377Y-103296248D01*
X127272294Y-103392867D01*
X127323226Y-103431948D01*
X127516274Y-103543405D01*
X127722219Y-103628710D01*
X127937537Y-103686404D01*
X128158543Y-103715500D01*
X128158550Y-103715500D01*
X128381450Y-103715500D01*
X128381457Y-103715500D01*
X128602463Y-103686404D01*
X128817781Y-103628710D01*
X129023726Y-103543405D01*
X129216774Y-103431948D01*
X129393624Y-103296247D01*
X129551247Y-103138624D01*
X129686948Y-102961774D01*
X129798405Y-102768726D01*
X129883710Y-102562781D01*
X129941404Y-102347463D01*
X129970500Y-102126457D01*
X129970500Y-101903543D01*
X129941404Y-101682537D01*
X129883710Y-101467219D01*
X129798405Y-101261274D01*
X129686948Y-101068226D01*
X129551247Y-100891376D01*
X129551242Y-100891370D01*
X129393629Y-100733757D01*
X129393622Y-100733751D01*
X129216782Y-100598058D01*
X129216780Y-100598057D01*
X129216774Y-100598052D01*
X129023726Y-100486595D01*
X129023722Y-100486593D01*
X128817790Y-100401293D01*
X128817783Y-100401291D01*
X128817781Y-100401290D01*
X128602463Y-100343596D01*
X128602457Y-100343595D01*
X128602452Y-100343594D01*
X128381466Y-100314501D01*
X128381463Y-100314500D01*
X128381457Y-100314500D01*
X128158543Y-100314500D01*
X128158537Y-100314500D01*
X128158533Y-100314501D01*
X127937547Y-100343594D01*
X127937540Y-100343595D01*
X127937537Y-100343596D01*
X127722219Y-100401290D01*
X127722209Y-100401293D01*
X127516277Y-100486593D01*
X127516273Y-100486595D01*
X127323226Y-100598052D01*
X127323217Y-100598058D01*
X127146377Y-100733751D01*
X127146370Y-100733757D01*
X126988757Y-100891370D01*
X126988751Y-100891377D01*
X126853058Y-101068217D01*
X126853052Y-101068226D01*
X126741595Y-101261273D01*
X126741593Y-101261277D01*
X126656293Y-101467209D01*
X126656290Y-101467219D01*
X126598597Y-101682534D01*
X126598594Y-101682547D01*
X126569501Y-101903533D01*
X126569500Y-101903549D01*
X104570500Y-101903549D01*
X104570500Y-101903543D01*
X104541404Y-101682537D01*
X104483710Y-101467219D01*
X104398405Y-101261274D01*
X104286948Y-101068226D01*
X104151247Y-100891376D01*
X104151242Y-100891370D01*
X103993629Y-100733757D01*
X103993622Y-100733751D01*
X103816782Y-100598058D01*
X103816780Y-100598057D01*
X103816774Y-100598052D01*
X103777398Y-100575318D01*
X107482500Y-100575318D01*
X107482500Y-101108681D01*
X107492563Y-101207183D01*
X107545450Y-101366784D01*
X107545455Y-101366795D01*
X107633716Y-101509887D01*
X107633719Y-101509891D01*
X107752608Y-101628780D01*
X107752612Y-101628783D01*
X107895704Y-101717044D01*
X107895707Y-101717045D01*
X107895713Y-101717049D01*
X108055315Y-101769936D01*
X108153826Y-101780000D01*
X108153831Y-101780000D01*
X108762169Y-101780000D01*
X108762174Y-101780000D01*
X108860685Y-101769936D01*
X109020287Y-101717049D01*
X109163391Y-101628781D01*
X109282281Y-101509891D01*
X109370549Y-101366787D01*
X109423436Y-101207185D01*
X109433500Y-101108674D01*
X109433500Y-100575326D01*
X109423436Y-100476815D01*
X109370549Y-100317213D01*
X109370545Y-100317207D01*
X109370544Y-100317204D01*
X109282283Y-100174112D01*
X109282280Y-100174108D01*
X109238937Y-100130765D01*
X109205452Y-100069442D01*
X109210436Y-99999750D01*
X109219885Y-99979966D01*
X109230869Y-99961393D01*
X109275665Y-99807204D01*
X109278500Y-99771181D01*
X109278499Y-99372820D01*
X109275665Y-99336796D01*
X109230869Y-99182607D01*
X109196869Y-99125117D01*
X109179688Y-99057398D01*
X109196869Y-98998882D01*
X109230869Y-98941393D01*
X109245106Y-98892391D01*
X109275664Y-98787208D01*
X109275664Y-98787206D01*
X109275665Y-98787204D01*
X109278500Y-98751181D01*
X109278499Y-98352820D01*
X109275665Y-98316796D01*
X109230869Y-98162607D01*
X109216557Y-98138407D01*
X109199375Y-98070686D01*
X109206249Y-98034333D01*
X109243368Y-97928255D01*
X109243368Y-97928253D01*
X109243369Y-97928251D01*
X109263565Y-97749003D01*
X109263565Y-97748996D01*
X109243369Y-97569750D01*
X109243368Y-97569745D01*
X109183788Y-97399476D01*
X109144229Y-97336519D01*
X109087816Y-97246738D01*
X108960262Y-97119184D01*
X108952798Y-97114494D01*
X108807523Y-97023211D01*
X108637254Y-96963631D01*
X108637249Y-96963630D01*
X108458004Y-96943435D01*
X108457996Y-96943435D01*
X108278750Y-96963630D01*
X108278745Y-96963631D01*
X108108476Y-97023211D01*
X107955737Y-97119184D01*
X107828184Y-97246737D01*
X107732211Y-97399476D01*
X107672631Y-97569745D01*
X107672630Y-97569750D01*
X107652435Y-97748996D01*
X107652435Y-97749003D01*
X107672630Y-97928249D01*
X107672632Y-97928257D01*
X107709750Y-98034334D01*
X107713311Y-98104113D01*
X107699441Y-98138407D01*
X107685133Y-98162600D01*
X107685130Y-98162608D01*
X107640335Y-98316791D01*
X107640334Y-98316797D01*
X107637500Y-98352811D01*
X107637500Y-98751169D01*
X107637501Y-98751191D01*
X107640335Y-98787205D01*
X107685129Y-98941388D01*
X107685132Y-98941395D01*
X107719128Y-98998881D01*
X107736309Y-99066605D01*
X107719128Y-99125119D01*
X107685132Y-99182604D01*
X107685129Y-99182611D01*
X107640335Y-99336791D01*
X107640334Y-99336797D01*
X107637500Y-99372811D01*
X107637500Y-99771169D01*
X107637501Y-99771191D01*
X107640335Y-99807205D01*
X107685129Y-99961388D01*
X107685132Y-99961396D01*
X107696114Y-99979966D01*
X107713294Y-100047691D01*
X107691133Y-100113953D01*
X107677063Y-100130763D01*
X107633720Y-100174107D01*
X107633716Y-100174112D01*
X107545455Y-100317204D01*
X107545450Y-100317215D01*
X107536708Y-100343597D01*
X107492564Y-100476815D01*
X107492564Y-100476816D01*
X107492563Y-100476816D01*
X107482500Y-100575318D01*
X103777398Y-100575318D01*
X103623726Y-100486595D01*
X103623722Y-100486593D01*
X103417790Y-100401293D01*
X103417783Y-100401291D01*
X103417781Y-100401290D01*
X103202463Y-100343596D01*
X103202457Y-100343595D01*
X103202452Y-100343594D01*
X102981466Y-100314501D01*
X102981463Y-100314500D01*
X102981457Y-100314500D01*
X102758543Y-100314500D01*
X102758537Y-100314500D01*
X102758533Y-100314501D01*
X102537547Y-100343594D01*
X102537540Y-100343595D01*
X102537537Y-100343596D01*
X102322219Y-100401290D01*
X102322209Y-100401293D01*
X102116277Y-100486593D01*
X102116273Y-100486595D01*
X101923226Y-100598052D01*
X101923217Y-100598058D01*
X101746377Y-100733751D01*
X101746370Y-100733757D01*
X101588757Y-100891370D01*
X101588751Y-100891377D01*
X101453058Y-101068217D01*
X101453052Y-101068226D01*
X101341595Y-101261273D01*
X101341593Y-101261277D01*
X101256293Y-101467209D01*
X101256290Y-101467219D01*
X101198597Y-101682534D01*
X101198594Y-101682547D01*
X101169501Y-101903533D01*
X101169500Y-101903549D01*
X99260500Y-101903549D01*
X99260500Y-84792000D01*
X99280185Y-84724961D01*
X99332989Y-84679206D01*
X99384500Y-84668000D01*
X106429000Y-84668000D01*
X106496039Y-84687685D01*
G37*
%TD.AperFunction*%
%TA.AperFunction,Conductor*%
G36*
X116125703Y-94219884D02*
G01*
X116132181Y-94225916D01*
X116166785Y-94260520D01*
X116166786Y-94260521D01*
X116166788Y-94260522D01*
X116177492Y-94266702D01*
X116203173Y-94286408D01*
X116203631Y-94286866D01*
X116326463Y-94381117D01*
X116326462Y-94381117D01*
X116404689Y-94413519D01*
X116469501Y-94440365D01*
X116534542Y-94448928D01*
X116598436Y-94477193D01*
X116636908Y-94535517D01*
X116642355Y-94571866D01*
X116642355Y-94574000D01*
X116658488Y-94706872D01*
X116647027Y-94775795D01*
X116644047Y-94781352D01*
X116643504Y-94782608D01*
X116598357Y-94938002D01*
X116598356Y-94938008D01*
X116595500Y-94974302D01*
X116595500Y-95443697D01*
X116598356Y-95479991D01*
X116598357Y-95479997D01*
X116643504Y-95635390D01*
X116643505Y-95635393D01*
X116643506Y-95635395D01*
X116665087Y-95671887D01*
X116676960Y-95691962D01*
X116694143Y-95759686D01*
X116676960Y-95818203D01*
X116621133Y-95912602D01*
X116621129Y-95912611D01*
X116576335Y-96066791D01*
X116576334Y-96066797D01*
X116573500Y-96102811D01*
X116573500Y-96590970D01*
X116553815Y-96658009D01*
X116501011Y-96703764D01*
X116431853Y-96713708D01*
X116402053Y-96705533D01*
X116401793Y-96705425D01*
X116378639Y-96699221D01*
X116249057Y-96664499D01*
X116090943Y-96664499D01*
X116083347Y-96664499D01*
X116083331Y-96664500D01*
X116044500Y-96664500D01*
X115977461Y-96644815D01*
X115931706Y-96592011D01*
X115920500Y-96540500D01*
X115920500Y-94313597D01*
X115940185Y-94246558D01*
X115992989Y-94200803D01*
X116062147Y-94190859D01*
X116125703Y-94219884D01*
G37*
%TD.AperFunction*%
%TA.AperFunction,Conductor*%
G36*
X131822539Y-89640685D02*
G01*
X131868294Y-89693489D01*
X131879500Y-89745000D01*
X131879500Y-94172325D01*
X131859815Y-94239364D01*
X131807011Y-94285119D01*
X131741617Y-94295545D01*
X131572004Y-94276435D01*
X131571996Y-94276435D01*
X131392746Y-94296631D01*
X131392742Y-94296632D01*
X131312421Y-94324736D01*
X131242642Y-94328297D01*
X131208349Y-94314427D01*
X131199394Y-94309131D01*
X131199391Y-94309130D01*
X131045208Y-94264335D01*
X131045202Y-94264334D01*
X131009181Y-94261500D01*
X130610830Y-94261500D01*
X130610813Y-94261501D01*
X130601218Y-94262256D01*
X130532842Y-94247886D01*
X130483090Y-94198830D01*
X130467500Y-94138637D01*
X130467500Y-92311286D01*
X130467499Y-92311272D01*
X130461855Y-92268403D01*
X130452687Y-92198764D01*
X130394698Y-92058767D01*
X130302451Y-91938549D01*
X130182233Y-91846302D01*
X130182229Y-91846300D01*
X130118801Y-91820027D01*
X130042236Y-91788313D01*
X130028171Y-91786461D01*
X129929727Y-91773500D01*
X129929720Y-91773500D01*
X129404280Y-91773500D01*
X129404272Y-91773500D01*
X129291764Y-91788313D01*
X129291763Y-91788313D01*
X129151766Y-91846301D01*
X129107486Y-91880279D01*
X129042316Y-91905473D01*
X128973871Y-91891434D01*
X128956514Y-91880279D01*
X128912233Y-91846301D01*
X128813239Y-91805297D01*
X128772236Y-91788313D01*
X128758171Y-91786461D01*
X128659727Y-91773500D01*
X128659720Y-91773500D01*
X128402097Y-91773500D01*
X128335058Y-91753815D01*
X128314416Y-91737181D01*
X128122590Y-91545355D01*
X128122588Y-91545352D01*
X128003717Y-91426481D01*
X128003709Y-91426475D01*
X127895587Y-91364051D01*
X127895587Y-91364052D01*
X127866783Y-91347422D01*
X127810881Y-91332443D01*
X127714057Y-91306499D01*
X127555943Y-91306499D01*
X127548347Y-91306499D01*
X127548331Y-91306500D01*
X121625670Y-91306500D01*
X121625654Y-91306499D01*
X121618058Y-91306499D01*
X121459943Y-91306499D01*
X121383579Y-91326961D01*
X121307214Y-91347423D01*
X121307209Y-91347426D01*
X121170290Y-91426475D01*
X121170282Y-91426481D01*
X120953584Y-91643181D01*
X120892261Y-91676666D01*
X120865903Y-91679500D01*
X119879000Y-91679500D01*
X119811961Y-91659815D01*
X119766206Y-91607011D01*
X119755000Y-91555500D01*
X119755000Y-91275317D01*
X119754999Y-91275302D01*
X119752150Y-91239103D01*
X119752143Y-91239007D01*
X119706994Y-91083605D01*
X119624617Y-90944313D01*
X119624615Y-90944311D01*
X119624612Y-90944307D01*
X119510192Y-90829887D01*
X119510184Y-90829881D01*
X119411250Y-90771372D01*
X119370895Y-90747506D01*
X119370894Y-90747505D01*
X119370893Y-90747505D01*
X119370890Y-90747504D01*
X119215497Y-90702357D01*
X119215491Y-90702356D01*
X119179197Y-90699500D01*
X119179190Y-90699500D01*
X118769810Y-90699500D01*
X118769802Y-90699500D01*
X118733508Y-90702356D01*
X118733502Y-90702357D01*
X118578109Y-90747504D01*
X118578106Y-90747505D01*
X118438815Y-90829881D01*
X118438807Y-90829887D01*
X118324387Y-90944307D01*
X118324383Y-90944313D01*
X118262816Y-91048416D01*
X118211746Y-91096099D01*
X118143004Y-91108602D01*
X118139900Y-91108233D01*
X118111552Y-91104501D01*
X118111544Y-91104500D01*
X118111540Y-91104500D01*
X118111533Y-91104500D01*
X116966096Y-91104500D01*
X116899057Y-91084815D01*
X116853302Y-91032011D01*
X116843358Y-90962853D01*
X116849542Y-90940985D01*
X116849193Y-90940884D01*
X116896164Y-90779208D01*
X116896165Y-90779202D01*
X116896781Y-90771372D01*
X116899000Y-90743181D01*
X116898999Y-90736822D01*
X116905958Y-90695858D01*
X116913868Y-90673255D01*
X116917313Y-90642685D01*
X116934065Y-90494003D01*
X116934065Y-90493996D01*
X116913868Y-90314747D01*
X116913868Y-90314745D01*
X116905957Y-90292136D01*
X116898999Y-90251182D01*
X116898999Y-90244831D01*
X116898998Y-90244806D01*
X116896537Y-90213529D01*
X116896165Y-90208796D01*
X116851369Y-90054607D01*
X116769635Y-89916402D01*
X116769633Y-89916400D01*
X116769630Y-89916396D01*
X116685915Y-89832681D01*
X116652430Y-89771358D01*
X116657414Y-89701666D01*
X116699286Y-89645733D01*
X116764750Y-89621316D01*
X116773596Y-89621000D01*
X131755500Y-89621000D01*
X131822539Y-89640685D01*
G37*
%TD.AperFunction*%
%TA.AperFunction,Conductor*%
G36*
X123729539Y-92527185D02*
G01*
X123775294Y-92579989D01*
X123786500Y-92631500D01*
X123786500Y-93849500D01*
X123766815Y-93916539D01*
X123714011Y-93962294D01*
X123662500Y-93973500D01*
X122971500Y-93973500D01*
X122904461Y-93953815D01*
X122858706Y-93901011D01*
X122847500Y-93849500D01*
X122847500Y-92631500D01*
X122867185Y-92564461D01*
X122919989Y-92518706D01*
X122971500Y-92507500D01*
X123662500Y-92507500D01*
X123729539Y-92527185D01*
G37*
%TD.AperFunction*%
%TD*%
%TA.AperFunction,Conductor*%
%TO.N,GNDPWR*%
G36*
X108028203Y-86928233D02*
G01*
X108034681Y-86934265D01*
X108110546Y-87010130D01*
X108110550Y-87010133D01*
X108110552Y-87010135D01*
X108248757Y-87091869D01*
X108289418Y-87103682D01*
X108402941Y-87136664D01*
X108402944Y-87136664D01*
X108402946Y-87136665D01*
X108438969Y-87139500D01*
X108817963Y-87139499D01*
X108885002Y-87159183D01*
X108930757Y-87211987D01*
X108940701Y-87281146D01*
X108937039Y-87298094D01*
X108894357Y-87445002D01*
X108894356Y-87445008D01*
X108891500Y-87481302D01*
X108891500Y-87950697D01*
X108894356Y-87986991D01*
X108894357Y-87986997D01*
X108909109Y-88037771D01*
X108908910Y-88107640D01*
X108907075Y-88113319D01*
X108886631Y-88171745D01*
X108886631Y-88171746D01*
X108866435Y-88350996D01*
X108866435Y-88351002D01*
X108879518Y-88467116D01*
X108867464Y-88535938D01*
X108820115Y-88587318D01*
X108756298Y-88605000D01*
X107947000Y-88605000D01*
X107879961Y-88585315D01*
X107834206Y-88532511D01*
X107823000Y-88481000D01*
X107823000Y-87021946D01*
X107842685Y-86954907D01*
X107895489Y-86909152D01*
X107964647Y-86899208D01*
X108028203Y-86928233D01*
G37*
%TD.AperFunction*%
%TA.AperFunction,Conductor*%
G36*
X128083032Y-60230649D02*
G01*
X128147797Y-60233830D01*
X128446338Y-60248497D01*
X128458440Y-60249689D01*
X128815230Y-60302613D01*
X128827140Y-60304982D01*
X129177046Y-60392629D01*
X129188663Y-60396154D01*
X129528275Y-60517669D01*
X129539497Y-60522317D01*
X129865582Y-60676543D01*
X129876290Y-60682267D01*
X130064308Y-60794961D01*
X130185659Y-60867696D01*
X130195777Y-60874456D01*
X130485488Y-61089321D01*
X130494894Y-61097041D01*
X130762146Y-61339264D01*
X130770735Y-61347853D01*
X130850861Y-61436258D01*
X131012958Y-61615105D01*
X131020678Y-61624511D01*
X131235543Y-61914222D01*
X131242303Y-61924340D01*
X131386577Y-62165047D01*
X131427725Y-62233697D01*
X131433460Y-62244425D01*
X131477054Y-62336597D01*
X131587679Y-62570495D01*
X131592334Y-62581734D01*
X131700621Y-62884376D01*
X131713840Y-62921319D01*
X131717373Y-62932964D01*
X131805014Y-63282846D01*
X131807388Y-63294782D01*
X131860309Y-63651555D01*
X131861502Y-63663664D01*
X131879351Y-64026967D01*
X131879500Y-64033052D01*
X131879500Y-85941000D01*
X131859815Y-86008039D01*
X131807011Y-86053794D01*
X131755500Y-86065000D01*
X130553000Y-86065000D01*
X130485961Y-86045315D01*
X130440206Y-85992511D01*
X130429000Y-85941000D01*
X130429000Y-85211086D01*
X130438439Y-85163633D01*
X130452687Y-85129236D01*
X130467500Y-85016720D01*
X130467500Y-83199499D01*
X130487185Y-83132460D01*
X130539989Y-83086705D01*
X130591496Y-83075499D01*
X130884180Y-83075499D01*
X130920204Y-83072665D01*
X131074393Y-83027869D01*
X131212598Y-82946135D01*
X131326135Y-82832598D01*
X131407869Y-82694393D01*
X131452665Y-82540204D01*
X131455500Y-82504181D01*
X131455499Y-82497822D01*
X131462458Y-82456858D01*
X131470368Y-82434255D01*
X131473951Y-82402461D01*
X131490565Y-82255003D01*
X131490565Y-82254996D01*
X131470368Y-82075747D01*
X131470368Y-82075745D01*
X131462457Y-82053136D01*
X131455499Y-82012182D01*
X131455499Y-82005831D01*
X131455498Y-82005806D01*
X131453173Y-81976258D01*
X131452665Y-81969796D01*
X131407869Y-81815607D01*
X131326135Y-81677402D01*
X131326133Y-81677400D01*
X131326130Y-81677396D01*
X131212603Y-81563869D01*
X131212595Y-81563863D01*
X131074393Y-81482131D01*
X131074388Y-81482129D01*
X130920208Y-81437335D01*
X130920202Y-81437334D01*
X130884181Y-81434500D01*
X130485830Y-81434500D01*
X130485808Y-81434501D01*
X130449794Y-81437335D01*
X130295608Y-81482130D01*
X130294056Y-81482802D01*
X130291410Y-81483349D01*
X130288116Y-81484307D01*
X130288040Y-81484047D01*
X130244811Y-81493000D01*
X130105189Y-81493000D01*
X130061959Y-81484047D01*
X130061884Y-81484307D01*
X130058589Y-81483349D01*
X130055944Y-81482802D01*
X130054391Y-81482130D01*
X129900208Y-81437335D01*
X129900202Y-81437334D01*
X129864181Y-81434500D01*
X129465830Y-81434500D01*
X129465808Y-81434501D01*
X129429794Y-81437335D01*
X129275608Y-81482130D01*
X129274056Y-81482802D01*
X129271410Y-81483349D01*
X129268116Y-81484307D01*
X129268040Y-81484047D01*
X129224811Y-81493000D01*
X127796597Y-81493000D01*
X127729558Y-81473315D01*
X127708916Y-81456681D01*
X125666589Y-79414355D01*
X125666587Y-79414352D01*
X125547716Y-79295481D01*
X125547715Y-79295480D01*
X125460903Y-79245360D01*
X125460903Y-79245359D01*
X125460899Y-79245358D01*
X125410784Y-79216423D01*
X125258056Y-79175499D01*
X125099942Y-79175499D01*
X125092346Y-79175499D01*
X125092330Y-79175500D01*
X122552000Y-79175500D01*
X122484961Y-79155815D01*
X122439206Y-79103011D01*
X122428000Y-79051500D01*
X122428000Y-76664000D01*
X122447685Y-76596961D01*
X122500489Y-76551206D01*
X122552000Y-76540000D01*
X124230790Y-76540000D01*
X124237504Y-76536334D01*
X124263862Y-76533500D01*
X124529138Y-76533500D01*
X124551274Y-76540000D01*
X124587000Y-76540000D01*
X129183790Y-76540000D01*
X129190504Y-76536334D01*
X129216862Y-76533500D01*
X129390286Y-76533500D01*
X129390287Y-76533500D01*
X129600243Y-76500246D01*
X129802412Y-76434557D01*
X129991816Y-76338051D01*
X130018189Y-76318890D01*
X130163786Y-76213109D01*
X130163788Y-76213106D01*
X130163792Y-76213104D01*
X130314104Y-76062792D01*
X130314106Y-76062788D01*
X130314109Y-76062786D01*
X130439048Y-75890820D01*
X130439047Y-75890820D01*
X130439051Y-75890816D01*
X130535557Y-75701412D01*
X130601246Y-75499243D01*
X130634500Y-75289287D01*
X130634500Y-75076713D01*
X130601246Y-74866757D01*
X130535557Y-74664588D01*
X130439051Y-74475184D01*
X130439049Y-74475181D01*
X130439048Y-74475179D01*
X130314109Y-74303213D01*
X130163792Y-74152896D01*
X130147665Y-74141179D01*
X129999204Y-74033316D01*
X129956540Y-73977989D01*
X129950561Y-73908376D01*
X129983166Y-73846580D01*
X129999199Y-73832686D01*
X130163792Y-73713104D01*
X130314104Y-73562792D01*
X130314106Y-73562788D01*
X130314109Y-73562786D01*
X130439048Y-73390820D01*
X130439047Y-73390820D01*
X130439051Y-73390816D01*
X130535557Y-73201412D01*
X130601246Y-72999243D01*
X130634500Y-72789287D01*
X130634500Y-72576713D01*
X130601246Y-72366757D01*
X130535557Y-72164588D01*
X130439051Y-71975184D01*
X130439049Y-71975181D01*
X130439048Y-71975179D01*
X130314109Y-71803213D01*
X130163786Y-71652890D01*
X129991820Y-71527951D01*
X129802414Y-71431444D01*
X129802413Y-71431443D01*
X129802412Y-71431443D01*
X129600243Y-71365754D01*
X129600241Y-71365753D01*
X129600240Y-71365753D01*
X129438957Y-71340208D01*
X129390287Y-71332500D01*
X128927713Y-71332500D01*
X128879042Y-71340208D01*
X128717760Y-71365753D01*
X128515585Y-71431444D01*
X128326179Y-71527951D01*
X128154213Y-71652890D01*
X128003890Y-71803213D01*
X127878948Y-71975184D01*
X127878947Y-71975185D01*
X127858765Y-72014795D01*
X127810791Y-72065591D01*
X127748281Y-72082500D01*
X125743719Y-72082500D01*
X125676680Y-72062815D01*
X125633235Y-72014795D01*
X125613052Y-71975185D01*
X125613051Y-71975184D01*
X125488109Y-71803213D01*
X125337786Y-71652890D01*
X125165820Y-71527951D01*
X124976414Y-71431444D01*
X124976413Y-71431443D01*
X124976412Y-71431443D01*
X124774243Y-71365754D01*
X124774241Y-71365753D01*
X124774240Y-71365753D01*
X124612957Y-71340208D01*
X124564287Y-71332500D01*
X124101713Y-71332500D01*
X124033721Y-71343268D01*
X123931052Y-71359530D01*
X123861758Y-71350575D01*
X123823973Y-71324738D01*
X122581590Y-70082355D01*
X122581588Y-70082352D01*
X122462717Y-69963481D01*
X122462709Y-69963475D01*
X122343106Y-69894423D01*
X122343106Y-69894422D01*
X122343101Y-69894421D01*
X122337058Y-69890932D01*
X122325786Y-69884423D01*
X122287603Y-69874192D01*
X122173057Y-69843499D01*
X122014943Y-69843499D01*
X122007347Y-69843499D01*
X122007331Y-69843500D01*
X121575595Y-69843500D01*
X121508556Y-69823815D01*
X121487918Y-69807185D01*
X121433598Y-69752865D01*
X121381930Y-69722309D01*
X121295393Y-69671131D01*
X121295388Y-69671129D01*
X121141208Y-69626335D01*
X121141202Y-69626334D01*
X121105181Y-69623500D01*
X120706830Y-69623500D01*
X120706808Y-69623501D01*
X120670794Y-69626335D01*
X120516611Y-69671129D01*
X120516604Y-69671132D01*
X120459119Y-69705128D01*
X120391395Y-69722309D01*
X120332881Y-69705128D01*
X120275395Y-69671132D01*
X120275388Y-69671129D01*
X120121208Y-69626335D01*
X120121202Y-69626334D01*
X120085181Y-69623500D01*
X119686830Y-69623500D01*
X119686808Y-69623501D01*
X119650794Y-69626335D01*
X119496611Y-69671129D01*
X119496606Y-69671131D01*
X119358404Y-69752863D01*
X119358396Y-69752869D01*
X119244869Y-69866396D01*
X119244863Y-69866404D01*
X119163131Y-70004606D01*
X119163129Y-70004611D01*
X119118335Y-70158791D01*
X119118334Y-70158797D01*
X119115500Y-70194811D01*
X119115500Y-70515500D01*
X119095815Y-70582539D01*
X119043011Y-70628294D01*
X118991500Y-70639500D01*
X118668830Y-70639500D01*
X118668808Y-70639501D01*
X118632794Y-70642335D01*
X118478611Y-70687129D01*
X118478606Y-70687131D01*
X118340404Y-70768863D01*
X118340396Y-70768869D01*
X118226869Y-70882396D01*
X118226863Y-70882404D01*
X118145131Y-71020606D01*
X118145129Y-71020611D01*
X118100335Y-71174791D01*
X118100334Y-71174797D01*
X118097500Y-71210811D01*
X118097500Y-71217185D01*
X118090542Y-71258139D01*
X118082631Y-71280747D01*
X118062435Y-71459996D01*
X118062435Y-71460003D01*
X118082630Y-71639248D01*
X118082632Y-71639254D01*
X118090543Y-71661865D01*
X118097500Y-71702802D01*
X118097500Y-71709178D01*
X118100335Y-71745205D01*
X118145129Y-71899388D01*
X118145131Y-71899393D01*
X118219732Y-72025537D01*
X118237000Y-72088658D01*
X118237000Y-74941502D01*
X118235939Y-74957687D01*
X118220501Y-75074949D01*
X118220500Y-75074966D01*
X118220500Y-75908000D01*
X118200815Y-75975039D01*
X118148011Y-76020794D01*
X118096500Y-76032000D01*
X117169234Y-76032000D01*
X117134640Y-76027076D01*
X117125204Y-76024335D01*
X117125201Y-76024334D01*
X117125202Y-76024334D01*
X117089188Y-76021500D01*
X117089181Y-76021500D01*
X117082812Y-76021500D01*
X117041857Y-76014541D01*
X117019256Y-76006632D01*
X117019246Y-76006630D01*
X116840004Y-75986435D01*
X116839996Y-75986435D01*
X116660748Y-76006630D01*
X116638130Y-76014544D01*
X116597196Y-76021500D01*
X116590818Y-76021500D01*
X116577223Y-76022570D01*
X116508846Y-76008203D01*
X116459092Y-75959149D01*
X116443500Y-75898952D01*
X116443500Y-75847456D01*
X116405052Y-75654170D01*
X116405051Y-75654167D01*
X116405051Y-75654165D01*
X116397549Y-75636055D01*
X116388754Y-75601206D01*
X116383349Y-75548292D01*
X116330003Y-75387303D01*
X116329999Y-75387297D01*
X116329998Y-75387294D01*
X116240970Y-75242959D01*
X116240967Y-75242955D01*
X116121044Y-75123032D01*
X116121040Y-75123029D01*
X115976705Y-75034001D01*
X115976699Y-75033998D01*
X115976697Y-75033997D01*
X115976694Y-75033996D01*
X115815709Y-74980651D01*
X115716352Y-74970500D01*
X115716345Y-74970500D01*
X115679434Y-74970500D01*
X115655243Y-74968117D01*
X115614442Y-74960001D01*
X115541543Y-74945500D01*
X115541541Y-74945500D01*
X115344459Y-74945500D01*
X115311569Y-74952041D01*
X115230745Y-74968118D01*
X115206558Y-74970500D01*
X115169663Y-74970500D01*
X115169643Y-74970501D01*
X115070292Y-74980650D01*
X115070289Y-74980651D01*
X114909305Y-75033996D01*
X114909294Y-75034001D01*
X114764959Y-75123029D01*
X114764955Y-75123032D01*
X114645032Y-75242955D01*
X114645029Y-75242959D01*
X114556001Y-75387294D01*
X114555996Y-75387305D01*
X114502651Y-75548290D01*
X114502650Y-75548296D01*
X114497243Y-75601214D01*
X114488450Y-75636051D01*
X114480950Y-75654161D01*
X114480948Y-75654167D01*
X114442500Y-75847456D01*
X114442500Y-76898126D01*
X114422815Y-76965165D01*
X114406181Y-76985807D01*
X114363032Y-77028955D01*
X114363029Y-77028959D01*
X114274001Y-77173294D01*
X114273996Y-77173305D01*
X114220651Y-77334290D01*
X114210500Y-77433647D01*
X114210500Y-77980337D01*
X114210501Y-77980355D01*
X114220650Y-78079707D01*
X114220651Y-78079710D01*
X114273996Y-78240694D01*
X114274001Y-78240705D01*
X114363029Y-78385040D01*
X114363032Y-78385044D01*
X114482955Y-78504967D01*
X114482959Y-78504970D01*
X114627294Y-78593998D01*
X114627297Y-78593999D01*
X114627303Y-78594003D01*
X114788292Y-78647349D01*
X114887655Y-78657500D01*
X115016608Y-78657499D01*
X115064065Y-78666939D01*
X115066963Y-78668139D01*
X115069164Y-78669051D01*
X115069168Y-78669051D01*
X115069169Y-78669052D01*
X115262455Y-78707499D01*
X115262458Y-78707500D01*
X115262460Y-78707500D01*
X115459542Y-78707500D01*
X115459543Y-78707499D01*
X115652836Y-78669051D01*
X115657935Y-78666938D01*
X115705390Y-78657499D01*
X115834338Y-78657499D01*
X115834344Y-78657499D01*
X115892899Y-78651517D01*
X115961590Y-78664286D01*
X116012475Y-78712166D01*
X116029500Y-78774875D01*
X116029500Y-79030697D01*
X116032356Y-79066991D01*
X116032357Y-79066997D01*
X116077504Y-79222391D01*
X116077506Y-79222397D01*
X116089620Y-79242880D01*
X116106801Y-79310604D01*
X116089620Y-79369120D01*
X116077506Y-79389602D01*
X116077504Y-79389608D01*
X116032357Y-79545002D01*
X116032356Y-79545008D01*
X116029500Y-79581302D01*
X116029500Y-79639123D01*
X116009815Y-79706162D01*
X115957011Y-79751917D01*
X115892899Y-79762481D01*
X115834357Y-79756500D01*
X115834345Y-79756500D01*
X115705386Y-79756500D01*
X115657936Y-79747062D01*
X115652835Y-79744949D01*
X115652828Y-79744947D01*
X115459543Y-79706500D01*
X115459541Y-79706500D01*
X115262459Y-79706500D01*
X115262457Y-79706500D01*
X115069167Y-79744948D01*
X115069165Y-79744948D01*
X115064056Y-79747065D01*
X115016613Y-79756500D01*
X114887663Y-79756500D01*
X114887644Y-79756501D01*
X114788292Y-79766650D01*
X114788289Y-79766651D01*
X114627305Y-79819996D01*
X114627294Y-79820001D01*
X114482959Y-79909029D01*
X114482955Y-79909032D01*
X114363032Y-80028955D01*
X114363029Y-80028959D01*
X114274001Y-80173294D01*
X114273996Y-80173305D01*
X114220651Y-80334290D01*
X114210500Y-80433647D01*
X114210500Y-80980337D01*
X114210501Y-80980355D01*
X114220650Y-81079707D01*
X114220651Y-81079710D01*
X114263659Y-81209498D01*
X114273997Y-81240697D01*
X114342038Y-81351009D01*
X114360500Y-81416104D01*
X114360500Y-81923173D01*
X114355162Y-81959164D01*
X114353947Y-81963166D01*
X114315500Y-82156455D01*
X114315500Y-82353544D01*
X114353947Y-82546828D01*
X114353949Y-82546836D01*
X114429367Y-82728910D01*
X114429372Y-82728920D01*
X114537854Y-82891275D01*
X114558732Y-82957953D01*
X114540247Y-83025333D01*
X114488268Y-83072023D01*
X114484130Y-83073911D01*
X111982250Y-84160000D01*
X111982249Y-84160001D01*
X111978814Y-84275778D01*
X111957150Y-84342204D01*
X111903012Y-84386373D01*
X111854869Y-84396100D01*
X110602649Y-84396100D01*
X110535610Y-84376415D01*
X110489855Y-84323611D01*
X110478649Y-84272100D01*
X110478649Y-84081831D01*
X110478648Y-84081806D01*
X110478184Y-84075914D01*
X110475815Y-84045796D01*
X110431019Y-83891607D01*
X110349285Y-83753402D01*
X110349283Y-83753400D01*
X110349280Y-83753396D01*
X110235753Y-83639869D01*
X110235745Y-83639863D01*
X110097543Y-83558131D01*
X110097538Y-83558129D01*
X109943358Y-83513335D01*
X109943352Y-83513334D01*
X109907331Y-83510500D01*
X109408980Y-83510500D01*
X109408955Y-83510501D01*
X109376375Y-83513065D01*
X109307998Y-83498699D01*
X109258243Y-83449646D01*
X109242650Y-83389447D01*
X109242650Y-81498417D01*
X109242649Y-81498413D01*
X109229526Y-81449436D01*
X109229526Y-81449435D01*
X109206256Y-81362591D01*
X109207919Y-81292743D01*
X109247081Y-81234881D01*
X109311309Y-81207376D01*
X109326031Y-81206499D01*
X109564002Y-81206499D01*
X109564008Y-81206499D01*
X109666797Y-81195999D01*
X109833334Y-81140814D01*
X109982656Y-81048712D01*
X110106712Y-80924656D01*
X110198814Y-80775334D01*
X110253999Y-80608797D01*
X110264500Y-80506009D01*
X110264499Y-80176331D01*
X110284183Y-80109293D01*
X110285461Y-80107577D01*
X110285446Y-80106000D01*
X110285447Y-80106000D01*
X110261274Y-77493578D01*
X110262796Y-77473041D01*
X110264500Y-77462287D01*
X110264500Y-77249713D01*
X110260115Y-77222028D01*
X110258593Y-77203777D01*
X110257011Y-77032760D01*
X110239418Y-75131565D01*
X110240939Y-75111034D01*
X110264500Y-74962287D01*
X110264500Y-74749713D01*
X110231246Y-74539757D01*
X110165557Y-74337588D01*
X110069051Y-74148184D01*
X110069049Y-74148181D01*
X110069048Y-74148179D01*
X109944109Y-73976213D01*
X109793786Y-73825890D01*
X109621820Y-73700951D01*
X109432414Y-73604444D01*
X109432413Y-73604443D01*
X109432412Y-73604443D01*
X109230243Y-73538754D01*
X109230241Y-73538753D01*
X109230240Y-73538753D01*
X109068957Y-73513208D01*
X109020287Y-73505500D01*
X108657713Y-73505500D01*
X108609042Y-73513208D01*
X108447760Y-73538753D01*
X108245585Y-73604444D01*
X108056179Y-73700951D01*
X107884213Y-73825890D01*
X107733890Y-73976213D01*
X107608951Y-74148179D01*
X107512444Y-74337585D01*
X107446753Y-74539760D01*
X107413499Y-74749715D01*
X107413117Y-74754576D01*
X107411999Y-74754488D01*
X107393815Y-74816418D01*
X107383648Y-74830077D01*
X105946504Y-76506744D01*
X105887929Y-76544834D01*
X105866240Y-76549266D01*
X105738750Y-76563630D01*
X105568478Y-76623210D01*
X105415737Y-76719184D01*
X105288184Y-76846737D01*
X105192211Y-76999476D01*
X105132631Y-77169745D01*
X105132630Y-77169750D01*
X105112435Y-77348996D01*
X105112435Y-77349003D01*
X105132630Y-77528251D01*
X105149041Y-77575148D01*
X105156000Y-77616103D01*
X105156000Y-79581892D01*
X105149042Y-79622846D01*
X105132632Y-79669742D01*
X105132630Y-79669750D01*
X105112435Y-79848996D01*
X105112435Y-79849003D01*
X105132630Y-80028249D01*
X105132631Y-80028254D01*
X105192211Y-80198523D01*
X105277520Y-80334290D01*
X105288184Y-80351262D01*
X105415738Y-80478816D01*
X105568478Y-80574789D01*
X105738745Y-80634368D01*
X105738750Y-80634369D01*
X105917996Y-80654565D01*
X105918000Y-80654565D01*
X105918004Y-80654565D01*
X106097249Y-80634369D01*
X106097252Y-80634368D01*
X106097255Y-80634368D01*
X106164157Y-80610957D01*
X106205112Y-80604000D01*
X106539520Y-80604000D01*
X106606559Y-80623685D01*
X106652314Y-80676489D01*
X106663520Y-80728000D01*
X106663520Y-80749042D01*
X106663519Y-80749060D01*
X106663519Y-80914766D01*
X106663518Y-80914766D01*
X106704444Y-81067501D01*
X106704445Y-81067502D01*
X106721449Y-81096953D01*
X106721450Y-81096954D01*
X106783497Y-81204424D01*
X106783501Y-81204429D01*
X106902369Y-81323297D01*
X106902375Y-81323302D01*
X107555331Y-81976258D01*
X107588816Y-82037581D01*
X107591650Y-82063939D01*
X107591650Y-83274000D01*
X107571965Y-83341039D01*
X107519161Y-83386794D01*
X107467650Y-83398000D01*
X99384500Y-83398000D01*
X99317461Y-83378315D01*
X99271706Y-83325511D01*
X99260500Y-83274000D01*
X99260500Y-74742713D01*
X101444500Y-74742713D01*
X101444500Y-74955287D01*
X101445609Y-74962287D01*
X101470784Y-75121240D01*
X101477754Y-75165243D01*
X101518058Y-75289286D01*
X101543444Y-75367414D01*
X101639951Y-75556820D01*
X101764890Y-75728786D01*
X101915209Y-75879105D01*
X101915214Y-75879109D01*
X102079793Y-75998682D01*
X102122459Y-76054011D01*
X102128438Y-76123625D01*
X102095833Y-76185420D01*
X102079793Y-76199318D01*
X101915214Y-76318890D01*
X101915209Y-76318894D01*
X101764890Y-76469213D01*
X101639951Y-76641179D01*
X101543444Y-76830585D01*
X101477753Y-77032760D01*
X101455493Y-77173305D01*
X101444500Y-77242713D01*
X101444500Y-77455287D01*
X101445609Y-77462287D01*
X101477753Y-77665239D01*
X101543444Y-77867414D01*
X101639951Y-78056820D01*
X101764890Y-78228786D01*
X101903705Y-78367601D01*
X101937190Y-78428924D01*
X101932206Y-78498616D01*
X101890334Y-78554549D01*
X101881121Y-78560821D01*
X101726342Y-78656289D01*
X101602289Y-78780342D01*
X101510187Y-78929663D01*
X101510186Y-78929666D01*
X101455001Y-79096203D01*
X101455001Y-79096204D01*
X101455000Y-79096204D01*
X101444500Y-79198983D01*
X101444500Y-80499001D01*
X101444501Y-80499018D01*
X101455000Y-80601796D01*
X101455001Y-80601799D01*
X101510185Y-80768331D01*
X101510187Y-80768336D01*
X101514505Y-80775336D01*
X101602288Y-80917656D01*
X101726344Y-81041712D01*
X101875666Y-81133814D01*
X102042203Y-81188999D01*
X102144991Y-81199500D01*
X103595008Y-81199499D01*
X103697797Y-81188999D01*
X103864334Y-81133814D01*
X104013656Y-81041712D01*
X104137712Y-80917656D01*
X104229814Y-80768334D01*
X104284999Y-80601797D01*
X104295500Y-80499009D01*
X104295499Y-79198992D01*
X104284999Y-79096203D01*
X104229814Y-78929666D01*
X104137712Y-78780344D01*
X104013656Y-78656288D01*
X103864334Y-78564186D01*
X103864333Y-78564185D01*
X103858878Y-78560821D01*
X103812154Y-78508873D01*
X103800931Y-78439910D01*
X103828775Y-78375828D01*
X103836272Y-78367623D01*
X103975104Y-78228792D01*
X104100051Y-78056816D01*
X104196557Y-77867412D01*
X104262246Y-77665243D01*
X104295500Y-77455287D01*
X104295500Y-77242713D01*
X104262246Y-77032757D01*
X104196557Y-76830588D01*
X104100051Y-76641184D01*
X104100049Y-76641181D01*
X104100048Y-76641179D01*
X103975109Y-76469213D01*
X103824792Y-76318896D01*
X103824784Y-76318890D01*
X103660204Y-76199316D01*
X103617540Y-76143989D01*
X103611561Y-76074376D01*
X103644166Y-76012580D01*
X103660199Y-75998686D01*
X103824792Y-75879104D01*
X103975104Y-75728792D01*
X103975106Y-75728788D01*
X103975109Y-75728786D01*
X104100048Y-75556820D01*
X104100047Y-75556820D01*
X104100051Y-75556816D01*
X104196557Y-75367412D01*
X104262246Y-75165243D01*
X104295500Y-74955287D01*
X104295500Y-74742713D01*
X104262246Y-74532757D01*
X104196557Y-74330588D01*
X104100051Y-74141184D01*
X104100049Y-74141181D01*
X104100048Y-74141179D01*
X103975109Y-73969213D01*
X103824786Y-73818890D01*
X103652820Y-73693951D01*
X103463414Y-73597444D01*
X103463413Y-73597443D01*
X103463412Y-73597443D01*
X103261243Y-73531754D01*
X103261241Y-73531753D01*
X103261240Y-73531753D01*
X103095483Y-73505500D01*
X103051287Y-73498500D01*
X102688713Y-73498500D01*
X102644517Y-73505500D01*
X102478760Y-73531753D01*
X102276585Y-73597444D01*
X102087179Y-73693951D01*
X101915213Y-73818890D01*
X101764890Y-73969213D01*
X101639951Y-74141179D01*
X101543444Y-74330585D01*
X101477753Y-74532760D01*
X101456874Y-74664585D01*
X101444500Y-74742713D01*
X99260500Y-74742713D01*
X99260500Y-71374135D01*
X113729500Y-71374135D01*
X113729500Y-73069870D01*
X113729501Y-73069876D01*
X113735908Y-73129483D01*
X113786202Y-73264328D01*
X113786206Y-73264335D01*
X113872452Y-73379544D01*
X113872455Y-73379547D01*
X113987664Y-73465793D01*
X113987671Y-73465797D01*
X114122517Y-73516091D01*
X114122516Y-73516091D01*
X114129444Y-73516835D01*
X114182127Y-73522500D01*
X115877872Y-73522499D01*
X115937483Y-73516091D01*
X116072331Y-73465796D01*
X116187546Y-73379546D01*
X116273796Y-73264331D01*
X116324091Y-73129483D01*
X116330500Y-73069873D01*
X116330499Y-71374128D01*
X116324091Y-71314517D01*
X116303063Y-71258139D01*
X116273797Y-71179671D01*
X116273793Y-71179664D01*
X116187547Y-71064455D01*
X116187544Y-71064452D01*
X116072335Y-70978206D01*
X116072328Y-70978202D01*
X115937482Y-70927908D01*
X115937483Y-70927908D01*
X115877883Y-70921501D01*
X115877881Y-70921500D01*
X115877873Y-70921500D01*
X115877864Y-70921500D01*
X114182129Y-70921500D01*
X114182123Y-70921501D01*
X114122516Y-70927908D01*
X113987671Y-70978202D01*
X113987664Y-70978206D01*
X113872455Y-71064452D01*
X113872452Y-71064455D01*
X113786206Y-71179664D01*
X113786202Y-71179671D01*
X113735908Y-71314517D01*
X113732032Y-71350575D01*
X113729501Y-71374123D01*
X113729500Y-71374135D01*
X99260500Y-71374135D01*
X99260500Y-64033052D01*
X99260649Y-64026968D01*
X99267056Y-63896549D01*
X101169500Y-63896549D01*
X101169500Y-64119450D01*
X101169501Y-64119466D01*
X101198594Y-64340452D01*
X101198595Y-64340457D01*
X101198596Y-64340463D01*
X101256290Y-64555780D01*
X101256293Y-64555790D01*
X101341593Y-64761722D01*
X101341595Y-64761726D01*
X101453052Y-64954774D01*
X101453057Y-64954780D01*
X101453058Y-64954782D01*
X101588751Y-65131622D01*
X101588757Y-65131629D01*
X101746370Y-65289242D01*
X101746376Y-65289247D01*
X101923226Y-65424948D01*
X102116274Y-65536405D01*
X102322219Y-65621710D01*
X102537537Y-65679404D01*
X102758543Y-65708500D01*
X102758550Y-65708500D01*
X102981450Y-65708500D01*
X102981457Y-65708500D01*
X103202463Y-65679404D01*
X103417781Y-65621710D01*
X103623726Y-65536405D01*
X103816774Y-65424948D01*
X103993624Y-65289247D01*
X104151247Y-65131624D01*
X104286948Y-64954774D01*
X104393629Y-64769999D01*
X115454696Y-64769999D01*
X115454696Y-64770000D01*
X115473898Y-65136405D01*
X115501889Y-65313131D01*
X115531295Y-65498794D01*
X115533869Y-65508402D01*
X115626260Y-65853206D01*
X115757746Y-66195739D01*
X115924320Y-66522656D01*
X116124147Y-66830364D01*
X116145570Y-66856819D01*
X116355051Y-67115506D01*
X116614494Y-67374949D01*
X116701479Y-67445388D01*
X116899635Y-67605852D01*
X117207343Y-67805679D01*
X117207348Y-67805682D01*
X117534264Y-67972255D01*
X117876801Y-68103742D01*
X118231206Y-68198705D01*
X118593596Y-68256102D01*
X118939734Y-68274241D01*
X118959999Y-68275304D01*
X118960000Y-68275304D01*
X118960001Y-68275304D01*
X118979203Y-68274297D01*
X119326404Y-68256102D01*
X119688794Y-68198705D01*
X120043199Y-68103742D01*
X120385736Y-67972255D01*
X120712652Y-67805682D01*
X121020366Y-67605851D01*
X121305506Y-67374949D01*
X121564949Y-67115506D01*
X121794153Y-66832462D01*
X121851638Y-66792753D01*
X121890517Y-66786500D01*
X123642500Y-66786500D01*
X123709539Y-66806185D01*
X123755294Y-66858989D01*
X123766500Y-66910500D01*
X123766500Y-67255169D01*
X123766501Y-67255191D01*
X123769335Y-67291205D01*
X123814129Y-67445388D01*
X123814131Y-67445393D01*
X123895863Y-67583595D01*
X123895869Y-67583603D01*
X123899978Y-67587712D01*
X123933463Y-67649035D01*
X123930003Y-67714397D01*
X123885001Y-67850203D01*
X123885000Y-67850204D01*
X123874500Y-67952983D01*
X123874500Y-68953001D01*
X123874501Y-68953019D01*
X123885000Y-69055796D01*
X123885001Y-69055799D01*
X123940185Y-69222331D01*
X123940186Y-69222334D01*
X124032288Y-69371656D01*
X124156344Y-69495712D01*
X124305666Y-69587814D01*
X124472203Y-69642999D01*
X124574991Y-69653500D01*
X125325008Y-69653499D01*
X125325016Y-69653498D01*
X125325019Y-69653498D01*
X125381302Y-69647748D01*
X125427797Y-69642999D01*
X125594334Y-69587814D01*
X125743656Y-69495712D01*
X125867712Y-69371656D01*
X125959814Y-69222334D01*
X126014999Y-69055797D01*
X126025500Y-68953009D01*
X126025499Y-67952992D01*
X126014999Y-67850203D01*
X125959814Y-67683666D01*
X125867712Y-67534344D01*
X125743656Y-67410288D01*
X125743653Y-67410286D01*
X125743639Y-67410275D01*
X125743629Y-67410261D01*
X125738549Y-67405181D01*
X125739417Y-67404312D01*
X125703262Y-67353254D01*
X125698932Y-67337199D01*
X125684173Y-67263001D01*
X125671659Y-67200088D01*
X125617408Y-67069117D01*
X125615764Y-67064522D01*
X125532954Y-66940588D01*
X125532953Y-66940587D01*
X125532951Y-66940584D01*
X125428416Y-66836049D01*
X125423697Y-66831330D01*
X125392302Y-66778245D01*
X125359869Y-66666607D01*
X125325869Y-66609117D01*
X125308688Y-66541398D01*
X125325869Y-66482882D01*
X125359869Y-66425393D01*
X125404665Y-66271204D01*
X125407500Y-66235181D01*
X125407499Y-65836820D01*
X125404665Y-65800796D01*
X125359869Y-65646607D01*
X125278135Y-65508402D01*
X125278133Y-65508400D01*
X125278130Y-65508396D01*
X125164603Y-65394869D01*
X125164595Y-65394863D01*
X125026393Y-65313131D01*
X125026388Y-65313129D01*
X124872208Y-65268335D01*
X124872202Y-65268334D01*
X124836181Y-65265500D01*
X124337830Y-65265500D01*
X124337808Y-65265501D01*
X124301794Y-65268335D01*
X124259662Y-65280576D01*
X124225067Y-65285500D01*
X122567673Y-65285500D01*
X122500634Y-65265815D01*
X122454879Y-65213011D01*
X122444935Y-65143853D01*
X122445199Y-65142108D01*
X122445554Y-65139860D01*
X122446102Y-65136404D01*
X122465304Y-64770000D01*
X122446102Y-64403596D01*
X122388705Y-64041206D01*
X122349944Y-63896549D01*
X126569500Y-63896549D01*
X126569500Y-64119450D01*
X126569501Y-64119466D01*
X126598594Y-64340452D01*
X126598595Y-64340457D01*
X126598596Y-64340463D01*
X126656290Y-64555780D01*
X126656293Y-64555790D01*
X126741593Y-64761722D01*
X126741595Y-64761726D01*
X126853052Y-64954774D01*
X126853057Y-64954780D01*
X126853058Y-64954782D01*
X126988751Y-65131622D01*
X126988757Y-65131629D01*
X127146370Y-65289242D01*
X127146376Y-65289247D01*
X127323226Y-65424948D01*
X127516274Y-65536405D01*
X127722219Y-65621710D01*
X127937537Y-65679404D01*
X128158543Y-65708500D01*
X128158550Y-65708500D01*
X128381450Y-65708500D01*
X128381457Y-65708500D01*
X128602463Y-65679404D01*
X128817781Y-65621710D01*
X129023726Y-65536405D01*
X129216774Y-65424948D01*
X129393624Y-65289247D01*
X129551247Y-65131624D01*
X129686948Y-64954774D01*
X129798405Y-64761726D01*
X129883710Y-64555781D01*
X129941404Y-64340463D01*
X129970500Y-64119457D01*
X129970500Y-63896543D01*
X129941404Y-63675537D01*
X129883710Y-63460219D01*
X129798405Y-63254274D01*
X129686948Y-63061226D01*
X129551247Y-62884376D01*
X129551242Y-62884370D01*
X129393629Y-62726757D01*
X129393622Y-62726751D01*
X129216782Y-62591058D01*
X129216780Y-62591057D01*
X129216774Y-62591052D01*
X129023726Y-62479595D01*
X129023722Y-62479593D01*
X128817790Y-62394293D01*
X128817783Y-62394291D01*
X128817781Y-62394290D01*
X128602463Y-62336596D01*
X128602457Y-62336595D01*
X128602452Y-62336594D01*
X128381466Y-62307501D01*
X128381463Y-62307500D01*
X128381457Y-62307500D01*
X128158543Y-62307500D01*
X128158537Y-62307500D01*
X128158533Y-62307501D01*
X127937547Y-62336594D01*
X127937540Y-62336595D01*
X127937537Y-62336596D01*
X127722219Y-62394290D01*
X127722209Y-62394293D01*
X127516277Y-62479593D01*
X127516273Y-62479595D01*
X127323226Y-62591052D01*
X127323217Y-62591058D01*
X127146377Y-62726751D01*
X127146370Y-62726757D01*
X126988757Y-62884370D01*
X126988751Y-62884377D01*
X126853058Y-63061217D01*
X126853052Y-63061226D01*
X126741595Y-63254273D01*
X126741593Y-63254277D01*
X126656293Y-63460209D01*
X126656290Y-63460219D01*
X126601778Y-63663664D01*
X126598597Y-63675534D01*
X126598594Y-63675547D01*
X126569501Y-63896533D01*
X126569500Y-63896549D01*
X122349944Y-63896549D01*
X122293742Y-63686801D01*
X122162255Y-63344264D01*
X121995682Y-63017348D01*
X121940883Y-62932964D01*
X121795852Y-62709635D01*
X121564952Y-62424498D01*
X121564949Y-62424494D01*
X121305506Y-62165051D01*
X121020366Y-61934149D01*
X121020364Y-61934147D01*
X120712656Y-61734320D01*
X120385739Y-61567746D01*
X120043206Y-61436260D01*
X120043199Y-61436258D01*
X119688794Y-61341295D01*
X119688790Y-61341294D01*
X119688789Y-61341294D01*
X119326405Y-61283898D01*
X118960001Y-61264696D01*
X118959999Y-61264696D01*
X118593594Y-61283898D01*
X118231211Y-61341294D01*
X118231209Y-61341294D01*
X117876793Y-61436260D01*
X117534260Y-61567746D01*
X117207343Y-61734320D01*
X116899635Y-61934147D01*
X116614498Y-62165047D01*
X116614490Y-62165054D01*
X116355054Y-62424490D01*
X116355047Y-62424498D01*
X116124147Y-62709635D01*
X115924320Y-63017343D01*
X115757746Y-63344260D01*
X115626260Y-63686793D01*
X115531294Y-64041209D01*
X115531294Y-64041211D01*
X115473898Y-64403594D01*
X115454696Y-64769999D01*
X104393629Y-64769999D01*
X104398405Y-64761726D01*
X104483710Y-64555781D01*
X104541404Y-64340463D01*
X104570500Y-64119457D01*
X104570500Y-63896543D01*
X104541404Y-63675537D01*
X104483710Y-63460219D01*
X104398405Y-63254274D01*
X104286948Y-63061226D01*
X104151247Y-62884376D01*
X104151242Y-62884370D01*
X103993629Y-62726757D01*
X103993622Y-62726751D01*
X103816782Y-62591058D01*
X103816780Y-62591057D01*
X103816774Y-62591052D01*
X103623726Y-62479595D01*
X103623722Y-62479593D01*
X103417790Y-62394293D01*
X103417783Y-62394291D01*
X103417781Y-62394290D01*
X103202463Y-62336596D01*
X103202457Y-62336595D01*
X103202452Y-62336594D01*
X102981466Y-62307501D01*
X102981463Y-62307500D01*
X102981457Y-62307500D01*
X102758543Y-62307500D01*
X102758537Y-62307500D01*
X102758533Y-62307501D01*
X102537547Y-62336594D01*
X102537540Y-62336595D01*
X102537537Y-62336596D01*
X102322219Y-62394290D01*
X102322209Y-62394293D01*
X102116277Y-62479593D01*
X102116273Y-62479595D01*
X101923226Y-62591052D01*
X101923217Y-62591058D01*
X101746377Y-62726751D01*
X101746370Y-62726757D01*
X101588757Y-62884370D01*
X101588751Y-62884377D01*
X101453058Y-63061217D01*
X101453052Y-63061226D01*
X101341595Y-63254273D01*
X101341593Y-63254277D01*
X101256293Y-63460209D01*
X101256290Y-63460219D01*
X101201778Y-63663664D01*
X101198597Y-63675534D01*
X101198594Y-63675547D01*
X101169501Y-63896533D01*
X101169500Y-63896549D01*
X99267056Y-63896549D01*
X99270041Y-63835799D01*
X99278497Y-63663659D01*
X99279690Y-63651555D01*
X99332614Y-63294765D01*
X99334981Y-63282863D01*
X99422631Y-62932947D01*
X99426152Y-62921341D01*
X99547672Y-62581717D01*
X99552314Y-62570509D01*
X99706547Y-62244409D01*
X99712262Y-62233717D01*
X99897704Y-61924327D01*
X99904447Y-61914234D01*
X100119329Y-61624500D01*
X100127032Y-61615115D01*
X100369273Y-61347843D01*
X100377843Y-61339273D01*
X100645115Y-61097032D01*
X100654500Y-61089329D01*
X100944234Y-60874447D01*
X100954327Y-60867704D01*
X101263717Y-60682262D01*
X101274409Y-60676547D01*
X101600509Y-60522314D01*
X101611717Y-60517672D01*
X101951341Y-60396152D01*
X101962947Y-60392631D01*
X102312863Y-60304981D01*
X102324765Y-60302614D01*
X102681561Y-60249689D01*
X102693659Y-60248497D01*
X103002885Y-60233305D01*
X103056968Y-60230649D01*
X103063052Y-60230500D01*
X103099882Y-60230500D01*
X128040118Y-60230500D01*
X128076948Y-60230500D01*
X128083032Y-60230649D01*
G37*
%TD.AperFunction*%
%TA.AperFunction,Conductor*%
G36*
X124061269Y-82365185D02*
G01*
X124107024Y-82417989D01*
X124116968Y-82487147D01*
X124087943Y-82550703D01*
X124069722Y-82567870D01*
X123951549Y-82658549D01*
X123859300Y-82778770D01*
X123801313Y-82918763D01*
X123801313Y-82918764D01*
X123786500Y-83031272D01*
X123786500Y-83972085D01*
X123785720Y-83985969D01*
X123781435Y-84023998D01*
X123781435Y-84024001D01*
X123785720Y-84062029D01*
X123786500Y-84075914D01*
X123786500Y-84578500D01*
X123766815Y-84645539D01*
X123714011Y-84691294D01*
X123662500Y-84702500D01*
X122971500Y-84702500D01*
X122904461Y-84682815D01*
X122858706Y-84630011D01*
X122847500Y-84578500D01*
X122847500Y-83031286D01*
X122847499Y-83031272D01*
X122837846Y-82957953D01*
X122832687Y-82918764D01*
X122832686Y-82918763D01*
X122831626Y-82910707D01*
X122834398Y-82910341D01*
X122835736Y-82854094D01*
X122849400Y-82828144D01*
X122848146Y-82827402D01*
X122862563Y-82803022D01*
X122934494Y-82681395D01*
X122972464Y-82550703D01*
X122979642Y-82525997D01*
X122979643Y-82525991D01*
X122981359Y-82504187D01*
X122982500Y-82489690D01*
X122982500Y-82469500D01*
X123002185Y-82402461D01*
X123054989Y-82356706D01*
X123106500Y-82345500D01*
X123994230Y-82345500D01*
X124061269Y-82365185D01*
G37*
%TD.AperFunction*%
%TA.AperFunction,Conductor*%
G36*
X124945941Y-80396185D02*
G01*
X124966583Y-80412819D01*
X126157386Y-81603622D01*
X126190871Y-81664945D01*
X126185887Y-81734637D01*
X126144015Y-81790570D01*
X126132920Y-81797979D01*
X125890043Y-81941906D01*
X125822335Y-81959149D01*
X125756053Y-81937048D01*
X125739147Y-81922911D01*
X125199590Y-81383355D01*
X125199588Y-81383352D01*
X125080717Y-81264481D01*
X125080716Y-81264480D01*
X124985485Y-81209499D01*
X124985484Y-81209498D01*
X124943783Y-81185422D01*
X124887881Y-81170443D01*
X124791057Y-81144499D01*
X124632943Y-81144499D01*
X124625347Y-81144499D01*
X124625331Y-81144500D01*
X122082941Y-81144500D01*
X122015902Y-81124815D01*
X121995260Y-81108181D01*
X121700127Y-80813048D01*
X121666642Y-80751725D01*
X121671626Y-80682033D01*
X121713498Y-80626100D01*
X121778962Y-80601683D01*
X121782067Y-80601501D01*
X121782089Y-80601499D01*
X121782090Y-80601499D01*
X121791500Y-80600643D01*
X121848882Y-80595431D01*
X121848885Y-80595430D01*
X121848887Y-80595430D01*
X122002602Y-80547531D01*
X122140388Y-80464236D01*
X122191804Y-80412820D01*
X122253127Y-80379334D01*
X122279486Y-80376500D01*
X124878902Y-80376500D01*
X124945941Y-80396185D01*
G37*
%TD.AperFunction*%
%TD*%
M02*
