M48
; DRILL file {KiCad 8.0.9-8.0.9-0~ubuntu22.04.1} date 2025-07-08T15:19:42+0900
; FORMAT={-:-/ absolute / inch / decimal}
; #@! TF.CreationDate,2025-07-08T15:19:42+09:00
; #@! TF.GenerationSoftware,Kicad,Pcbnew,8.0.9-8.0.9-0~ubuntu22.04.1
; #@! TF.FileFunction,Plated,1,4,PTH
FMAT,2
INCH
; #@! TA.AperFunction,Plated,PTH,ViaDrill
T1C0.0079
; #@! TA.AperFunction,Plated,PTH,ViaDrill
T2C0.0098
; #@! TA.AperFunction,Plated,PTH,ViaDrill
T3C0.0118
; #@! TA.AperFunction,Plated,PTH,ViaDrill
T4C0.0157
; #@! TA.AperFunction,Plated,PTH,ComponentDrill
T5C0.0236
; #@! TA.AperFunction,Plated,PTH,ComponentDrill
T6C0.0315
; #@! TA.AperFunction,Plated,PTH,ComponentDrill
T7C0.0335
; #@! TA.AperFunction,Plated,PTH,ComponentDrill
T8C0.0374
; #@! TA.AperFunction,Plated,PTH,ComponentDrill
T9C0.1772
%
G90
G05
T1
X3.0849Y-3.2164
T2
X3.3193Y-2.982
X3.388Y-3.0263
T3
X2.026Y-2.686
X2.034Y-2.108
X2.09Y-3.29
X2.092Y-3.664
X2.344Y-2.688
X2.53Y-3.276
X2.532Y-3.666
X2.54Y-3.542
X2.566Y-2.5327
X2.566Y-2.7
X2.648Y-2.094
X2.728Y-3.168
X2.746Y-2.596
X2.766Y-2.966
X2.802Y-3.168
X2.806Y-2.596
X2.844Y-3.392
X2.845Y-2.798
X2.845Y-3.265
X2.86Y-2.566
X2.882Y-3.168
X2.92Y-2.9144
X2.92Y-3.168
X2.922Y-2.288
X2.922Y-2.504
X2.9237Y-2.7137
X2.924Y-2.824
X2.938Y-3.644
X2.972Y-3.506
X2.982Y-3.292
X2.984Y-3.036
X2.984Y-3.072
X3.02Y-2.53
X3.024Y-2.4582
X3.072Y-3.292
X3.0861Y-2.9501
X3.088Y-3.682
X3.0949Y-3.022
X3.117Y-2.535
X3.124Y-2.948
X3.132Y-3.3807
X3.1499Y-3.216
X3.1635Y-3.3807
X3.18Y-2.84
X3.186Y-3.092
X3.214Y-3.238
X3.23Y-2.84
X3.3101Y-2.4127
X3.32Y-3.14
X3.34Y-3.08
X3.3565Y-3.3807
X3.388Y-3.3807
X3.426Y-3.228
X3.428Y-2.912
X3.43Y-2.096
X3.43Y-2.402
X3.43Y-3.678
X3.454Y-2.642
T4
X2.466Y-2.5292
X2.726Y-2.538
T6
X2.09Y-2.59
X2.1687Y-2.59
T7
X2.1014Y-2.8247
X2.1014Y-2.9231
X2.1014Y-3.0216
X2.1014Y-3.12
X2.35Y-2.8247
X2.35Y-2.9231
X2.35Y-3.0216
X2.35Y-3.12
X2.61Y-2.8247
X2.61Y-2.9231
X2.61Y-3.0216
X2.61Y-3.12
T8
X2.4133Y-3.3931
X2.4133Y-3.4916
X2.4133Y-3.59
X2.67Y-3.3931
X2.67Y-3.4916
X2.67Y-3.59
T9
X2.1965Y-2.29
X2.48Y-2.29
T5
G00X3.0899Y-3.3951
M15
G01X3.0899Y-3.4384
M16
G05
G00X3.0899Y-3.5695
M15
G01X3.0899Y-3.5931
M16
G05
G00X3.4301Y-3.3951
M15
G01X3.4301Y-3.4384
M16
G05
G00X3.4301Y-3.5695
M15
G01X3.4301Y-3.5931
M16
G05
M30
